<svg width="916" height="794" viewBox="0 0 916 794" fill="none" xmlns="http://www.w3.org/2000/svg">
<path d="M916 794L6.10352e-05 794L-8.37853e-06 8.00793e-05L916 0L916 794Z" fill="url(#paint0_linear_1804_169)"/>
<path d="M415.605 380C414.26 379.987 412.918 379.843 411.587 379.57C391.056 375.519 378.982 351.512 367.306 328.29C357.065 307.927 347.392 288.688 333.023 285.792C322.842 283.726 318.79 303.666 316.365 315.577L316.032 317.201C314.258 325.822 311.234 331.818 307.047 334.989C302.549 338.406 296.733 338.552 289.76 335.422C283.61 332.664 277.764 322.72 270.997 311.206C261.839 295.624 251.461 277.965 239.115 277.946C237.701 277.946 236.719 278.473 236.111 279.559C233.891 283.525 235.712 294.783 237.467 305.668C239.906 320.764 242.429 336.374 237.097 344.021C230.856 352.976 224.191 344.451 217.147 335.428C210.97 327.527 203.976 318.588 195.903 318.588H59V314.176H195.903C205.155 314.176 212.618 323.723 219.204 332.149C226.564 341.567 230.92 346.616 234.893 340.919C239.02 335 236.588 319.959 234.441 306.663C232.342 293.668 230.527 282.444 233.678 276.815C234.895 274.642 236.721 273.539 239.102 273.539H239.115C252.906 273.561 263.778 292.058 273.37 308.379C279.568 318.906 285.402 328.85 290.687 331.219C296.837 333.977 301.848 333.936 305.582 331.101C309.009 328.497 311.523 323.406 313.055 315.966L313.384 314.352C315.916 301.942 320.626 278.848 333.454 281.435C349.13 284.595 359.177 304.579 369.814 325.734C381.108 348.194 392.786 371.42 412.002 375.21C416.947 376.183 420.137 375.339 421.473 372.697C424.72 366.291 418.541 348.483 413.092 332.775C407.088 315.458 401.413 299.107 404.409 290.274C405.403 287.345 407.243 285.45 409.877 284.645L409.984 284.614C419.742 282.659 433.374 298.82 447.796 315.955C460.049 330.508 472.713 345.588 480.115 344.595C480.871 344.514 481.606 344.211 482.275 343.705C482.944 343.199 483.533 342.501 484.003 341.655C489.744 331.809 484.938 320.127 479.85 307.758C474.4 294.521 468.765 280.811 478.084 270.252C490.331 256.388 506.773 278.862 524.182 302.654C540.351 324.749 557.071 347.606 568.853 337.833C574.023 333.55 572.599 318.211 571.454 305.888C570.416 294.703 569.595 285.869 572.917 282.998C575.08 281.131 578.146 282.405 582.87 287.135C590.736 293.699 597.475 307.19 603.983 320.229C613.569 339.424 622.622 357.557 633.86 352.322C642.622 348.246 644.817 340.006 646.94 332.038C649.281 323.246 651.704 314.154 662.923 314.154H828V318.566H662.944C653.864 318.566 652.185 324.873 649.858 333.605C647.701 341.705 645.016 351.785 634.844 356.52C633.264 357.269 631.61 357.656 629.945 357.667C618.905 357.667 610.061 339.973 601.472 322.786C595.131 310.1 588.573 296.953 581.261 290.889L581.148 290.787C576.188 285.822 574.757 286.57 574.528 286.771C572.942 288.15 573.862 298.056 574.528 305.298C575.859 319.639 577.368 335.875 570.414 341.636C568.088 343.581 565.436 344.597 562.738 344.576C550.396 344.576 536.022 324.934 522.038 305.825C505.632 283.407 490.137 262.235 480.007 273.693C473.276 281.311 476.466 290.792 482.525 305.505C487.677 318.031 493.517 332.229 486.387 344.451C485.658 345.746 484.751 346.814 483.721 347.591C482.692 348.367 481.562 348.836 480.4 348.969C480.09 349.007 479.774 349.029 479.455 349.029C470.822 349.029 458.662 334.584 445.813 319.319C432.572 303.599 418.89 287.328 410.478 288.953C408.833 289.471 407.766 290.525 407.202 292.171C404.864 299.066 410.712 315.922 415.872 330.797C422.277 349.258 428.326 366.696 423.99 375.257C422.393 378.434 419.631 380 415.605 380Z" fill="url(#paint1_linear_1804_169)"/>
<path style="mix-blend-mode:color-dodge" opacity="0.5" d="M443.5 518C618.85 518 761 499.868 761 477.5C761 455.133 618.85 437 443.5 437C268.15 437 126 455.133 126 477.5C126 499.868 268.15 518 443.5 518Z" fill="url(#paint2_radial_1804_169)"/>
<defs>
<linearGradient id="paint0_linear_1804_169" x1="-114.977" y1="-161.558" x2="569.822" y2="-110.183" gradientUnits="userSpaceOnUse">
<stop offset="0.276747" stop-color="#6D95FC" stop-opacity="0.26"/>
<stop offset="1" stop-color="#6D95FC" stop-opacity="0"/>
</linearGradient>
<linearGradient id="paint1_linear_1804_169" x1="59" y1="323.001" x2="828.021" y2="323.001" gradientUnits="userSpaceOnUse">
<stop stop-color="#1C51BC"/>
<stop offset="0.28" stop-color="#921EBE"/>
<stop offset="0.65" stop-color="#1C51BC"/>
<stop offset="1" stop-color="#921EBE"/>
</linearGradient>
<radialGradient id="paint2_radial_1804_169" cx="0" cy="0" r="1" gradientUnits="userSpaceOnUse" gradientTransform="translate(443.346 477.095) scale(317.383 40.0066)">
<stop stop-color="#97B2E8"/>
<stop offset="0.01" stop-color="#98B0E7"/>
<stop offset="0.19" stop-color="#A988CE"/>
<stop offset="0.28" stop-color="#AF78C4"/>
<stop offset="0.33" stop-color="#A26FB6"/>
<stop offset="0.57" stop-color="#5D4068"/>
<stop offset="0.77" stop-color="#2B1D30"/>
<stop offset="0.92" stop-color="#0C080D"/>
<stop offset="1"/>
</radialGradient>
</defs>
</svg>
