<svg width="300" height="280" viewBox="0 0 300 280" fill="none" xmlns="http://www.w3.org/2000/svg">
<path d="M300 280H0V0H300V280Z" fill="url(#paint0_linear_1674_2170)"/>
<path d="M170.408 104.509H89.4227C85.5588 104.509 82.4155 101.41 82.4155 97.6016V91.5582C82.4155 91.0079 82.8681 90.562 83.4262 90.562H176.405C176.963 90.562 177.416 91.0079 177.416 91.5582V97.6016C177.416 101.41 174.272 104.509 170.408 104.509ZM84.4368 92.5544V97.6016C84.4368 100.312 86.6733 102.516 89.4227 102.516H170.409C173.158 102.516 175.394 100.312 175.394 97.6016V92.5544H84.4368Z" fill="#6D95FC"/>
<path fill-rule="evenodd" clip-rule="evenodd" d="M84.4368 92.5544V97.6016C84.4368 100.312 86.6733 102.516 89.4227 102.516H170.408C173.158 102.516 175.394 100.312 175.394 97.6016V92.5544H84.4368ZM89.4227 104.509H170.408C170.408 104.509 170.408 104.509 170.408 104.509C174.272 104.508 177.416 101.41 177.416 97.6016V91.5582C177.416 91.0079 176.963 90.562 176.405 90.562H83.4262C82.8681 90.562 82.4155 91.0079 82.4155 91.5582V97.6016C82.4155 101.41 85.5588 104.509 89.4227 104.509Z" fill="#FBFBFB"/>
<path d="M176.405 92.5542H83.4262C82.8681 92.5542 82.4155 92.1083 82.4155 91.558V47.0287C82.4155 42.4696 86.1785 38.7604 90.8038 38.7604H125.974C126.533 38.7604 126.985 39.2065 126.985 39.7566C126.985 40.3066 126.533 40.7527 125.974 40.7527H90.8038C87.2931 40.7527 84.4368 43.5681 84.4368 47.0287V90.5618H175.394V47.0287C175.394 43.5681 172.538 40.7527 169.027 40.7527H145.984C145.426 40.7527 144.973 40.3066 144.973 39.7566C144.973 39.2065 145.426 38.7604 145.984 38.7604H169.027C173.653 38.7604 177.416 42.4696 177.416 47.0287V91.558C177.416 92.1083 176.963 92.5542 176.405 92.5542Z" fill="#6D95FC"/>
<path fill-rule="evenodd" clip-rule="evenodd" d="M90.8038 38.7604C86.1785 38.7604 82.4155 42.4696 82.4155 47.0287V91.558C82.4155 92.1083 82.8681 92.5542 83.4262 92.5542H176.405C176.963 92.5542 177.416 92.1083 177.416 91.558V47.0287C177.416 42.4696 173.653 38.7604 169.027 38.7604H145.984C145.426 38.7604 144.973 39.2065 144.973 39.7566C144.973 40.3066 145.426 40.7527 145.984 40.7527H169.027C172.538 40.7527 175.394 43.5681 175.394 47.0287V90.5618H84.4368V47.0287C84.4368 43.5681 87.2931 40.7527 90.8038 40.7527H125.974C126.533 40.7527 126.985 40.3066 126.985 39.7566C126.985 39.2065 126.533 38.7604 125.974 38.7604H90.8038Z" fill="#FBFBFB"/>
<path d="M114.05 62.3682C113.786 62.3682 113.528 62.266 113.336 62.0766C113.073 61.8174 112.975 61.437 113.082 61.086L117.37 46.998C117.418 46.84 117.505 46.6963 117.623 46.5798L141.206 23.3343C142.733 21.829 144.764 21 146.923 21C149.083 21 151.113 21.829 152.64 23.3343C154.167 24.8395 155.008 26.8408 155.008 28.9695C155.008 31.0983 154.167 33.0994 152.64 34.6049L129.057 57.8502C128.939 57.9667 128.793 58.0526 128.633 58.0998L114.341 62.3262C114.245 62.3547 114.147 62.3682 114.05 62.3682ZM119.233 47.8108L115.558 59.8864L127.808 56.2636L151.211 33.1959C152.356 32.0668 152.987 30.5659 152.987 28.9695C152.987 27.373 152.356 25.8719 151.211 24.7431C150.066 23.614 148.543 22.9924 146.923 22.9924C145.303 22.9924 143.78 23.6142 142.635 24.7431L119.233 47.8108Z" fill="#6D95FC"/>
<path fill-rule="evenodd" clip-rule="evenodd" d="M113.082 61.086C112.975 61.437 113.073 61.8174 113.336 62.0766C113.528 62.266 113.786 62.3682 114.05 62.3682C114.147 62.3682 114.245 62.3547 114.341 62.3262L128.633 58.0998C128.793 58.0526 128.939 57.9667 129.057 57.8502L152.619 34.6249L152.64 34.6049C154.167 33.0994 155.008 31.0983 155.008 28.9695C155.008 26.8408 154.167 24.8395 152.64 23.3343C152.633 23.3276 152.626 23.3209 152.619 23.3142C152.619 23.3142 152.62 23.3143 152.619 23.3142C151.095 21.8217 149.073 21 146.923 21C144.773 21 142.751 21.8216 141.227 23.3141C141.22 23.3208 141.213 23.3275 141.206 23.3343L117.623 46.5798C117.505 46.6963 117.418 46.84 117.37 46.998L113.082 61.086ZM115.558 59.8864L119.233 47.8108L119.423 47.6231L142.635 24.7431C143.78 23.6142 145.303 22.9924 146.923 22.9924C148.543 22.9924 150.066 23.614 151.211 24.7431C151.218 24.7498 151.224 24.7565 151.231 24.7633C151.231 24.7633 151.231 24.7633 151.231 24.7633C152.364 25.8898 152.987 27.3825 152.987 28.9695C152.987 30.5565 152.364 32.049 151.231 33.1757C151.224 33.1824 151.218 33.1892 151.211 33.1959L127.808 56.2636L115.558 59.8864Z" fill="#6D95FC"/>
<path d="M121.911 53.1735C120.746 53.1735 119.582 52.7366 118.695 51.8627C116.922 50.1148 116.922 47.2709 118.695 45.523C119.09 45.1341 119.73 45.1341 120.124 45.523C120.519 45.9121 120.519 46.5427 120.124 46.9318C119.139 47.9029 119.139 49.4828 120.124 50.4539C121.109 51.425 122.712 51.425 123.697 50.4539C124.092 50.065 124.732 50.0652 125.127 50.4539C125.521 50.843 125.521 51.4738 125.127 51.8627C124.24 52.7366 123.076 53.1735 121.911 53.1735Z" fill="#6D95FC"/>
<path fill-rule="evenodd" clip-rule="evenodd" d="M125.127 51.8627C125.521 51.4738 125.521 50.843 125.127 50.4539C124.739 50.0721 124.115 50.0651 123.719 50.4336C123.719 50.4337 123.719 50.4338 123.718 50.4339C123.711 50.4405 123.704 50.4471 123.697 50.4539C123.205 50.9394 122.558 51.1822 121.911 51.1822C121.747 51.1822 121.584 51.1667 121.423 51.1357C120.947 51.044 120.492 50.8168 120.124 50.4539C120.117 50.4472 120.111 50.4404 120.104 50.4336C120.104 50.4335 120.104 50.4334 120.104 50.4333C119.762 50.0891 119.543 49.6708 119.445 49.2311C119.268 48.4372 119.487 47.5738 120.104 46.9522C120.104 46.9522 120.104 46.9522 120.104 46.9521C120.111 46.9453 120.117 46.9386 120.124 46.9318C120.519 46.5427 120.519 45.9121 120.124 45.523C119.736 45.1409 119.112 45.1342 118.716 45.503C118.709 45.5096 118.702 45.5162 118.695 45.523C117.908 46.2984 117.471 47.2895 117.382 48.3049C117.382 48.3055 117.382 48.306 117.382 48.3065C117.379 48.3464 117.376 48.3864 117.373 48.4264C117.299 49.6614 117.74 50.9211 118.695 51.8627C118.702 51.8695 118.709 51.8762 118.716 51.8829C119.6 52.7433 120.755 53.1735 121.911 53.1735C122.003 53.1735 122.096 53.1707 122.188 53.1652C122.286 53.1594 122.383 53.1505 122.481 53.1385C122.481 53.1384 122.482 53.1384 122.482 53.1383C123.44 53.0197 124.367 52.6015 125.105 51.8837C125.106 51.8834 125.106 51.8832 125.106 51.8829C125.113 51.8762 125.12 51.8695 125.127 51.8627Z" fill="#6D95FC"/>
<path d="M126.913 58.1068C125.698 58.1068 124.556 57.6403 123.697 56.7938C122.838 55.9472 122.365 54.8214 122.365 53.6239C122.365 52.4265 122.838 51.3006 123.697 50.4541L136.275 38.0562C136.67 37.6673 137.31 37.6673 137.704 38.0562C138.099 38.4453 138.099 39.0761 137.704 39.465L125.126 51.8629C124.649 52.3333 124.386 52.9587 124.386 53.6239C124.386 54.289 124.649 54.9146 125.126 55.3848C125.604 55.8552 126.238 56.1144 126.913 56.1144C127.588 56.1144 128.222 55.8554 128.7 55.3848C129.094 54.9959 129.734 54.9959 130.129 55.3848C130.524 55.7739 130.524 56.4045 130.129 56.7936C129.27 57.6403 128.128 58.1068 126.913 58.1068Z" fill="#6D95FC"/>
<path fill-rule="evenodd" clip-rule="evenodd" d="M130.109 56.8136C130.115 56.807 130.122 56.8003 130.129 56.7936C130.524 56.4045 130.524 55.7739 130.129 55.3848C129.741 55.0026 129.116 54.996 128.72 55.3649C128.72 55.3649 128.72 55.3648 128.72 55.3649C128.713 55.3713 128.706 55.3781 128.7 55.3848C128.222 55.8553 127.588 56.1143 126.913 56.1144C126.913 56.1144 126.913 56.1144 126.913 56.1144C126.747 56.1144 126.584 56.0988 126.425 56.0682C125.936 55.9744 125.487 55.7397 125.126 55.3848C125.12 55.378 125.113 55.3712 125.106 55.3643C124.642 54.8965 124.386 54.2794 124.386 53.6239C124.386 52.9683 124.642 52.3513 125.106 51.8833C125.106 51.8833 125.106 51.8833 125.106 51.8833C125.113 51.8765 125.12 51.8697 125.126 51.8629L137.704 39.465C138.099 39.0761 138.099 38.4453 137.704 38.0562C137.317 37.6742 136.692 37.6674 136.296 38.0359C136.296 38.0361 136.297 38.0358 136.296 38.0359C136.289 38.0425 136.282 38.0495 136.275 38.0562L123.697 50.4541C122.838 51.3006 122.365 52.4265 122.365 53.6239C122.365 54.8214 122.838 55.9472 123.697 56.7938C123.704 56.8005 123.711 56.8072 123.718 56.8139C123.718 56.8141 123.718 56.8137 123.718 56.8139C124.574 57.6473 125.708 58.1067 126.913 58.1068C126.913 58.1068 126.913 58.1068 126.913 58.1068C127.006 58.1068 127.099 58.104 127.192 58.0985C127.288 58.0928 127.384 58.0841 127.479 58.0726C128.47 57.952 129.388 57.5155 130.109 56.8136C130.109 56.8135 130.108 56.8137 130.109 56.8136Z" fill="#6D95FC"/>
<path d="M149.067 37.714C148.808 37.714 148.549 37.6167 148.352 37.4223L138.347 27.5605C137.953 27.1714 137.953 26.5406 138.347 26.1517C138.742 25.7628 139.382 25.7628 139.776 26.1517L149.781 36.0135C150.176 36.4026 150.176 37.0334 149.781 37.4223C149.584 37.6167 149.325 37.714 149.067 37.714Z" fill="#6D95FC"/>
<path fill-rule="evenodd" clip-rule="evenodd" d="M139.776 26.1517C139.77 26.1449 139.763 26.1383 139.756 26.1318C139.36 25.7629 138.735 25.7695 138.347 26.1517C137.953 26.5406 137.953 27.1714 138.347 27.5605L148.352 37.4223C148.359 37.429 148.366 37.4357 148.373 37.4422C148.567 37.6234 148.817 37.714 149.067 37.714C149.325 37.714 149.584 37.6167 149.781 37.4223C150.176 37.0334 150.176 36.4026 149.781 36.0135L139.776 26.1517Z" fill="#6D95FC"/>
<path d="M152.15 82.5924H135.979C132.636 82.5924 129.916 79.9111 129.916 76.6153C129.916 73.3196 132.636 70.6382 135.979 70.6382H158.213C160.443 70.6382 162.256 68.8507 162.256 66.6535V66.3531C162.256 64.1559 160.443 62.3683 158.213 62.3683H114.05C113.492 62.3683 113.04 61.9223 113.04 61.3722C113.04 60.8221 113.492 60.376 114.05 60.376H158.213C161.557 60.376 164.277 63.0573 164.277 66.3531V66.6535C164.277 69.9493 161.557 72.6306 158.213 72.6306H135.979C133.75 72.6306 131.937 74.4182 131.937 76.6153C131.937 78.8125 133.75 80.6001 135.979 80.6001H152.15C152.708 80.6001 153.16 81.046 153.16 81.5962C153.16 82.1465 152.708 82.5924 152.15 82.5924Z" fill="#6D95FC"/>
<path fill-rule="evenodd" clip-rule="evenodd" d="M135.979 80.6001C133.75 80.6001 131.937 78.8125 131.937 76.6153C131.937 74.4182 133.75 72.6306 135.979 72.6306H158.213C161.557 72.6306 164.277 69.9493 164.277 66.6535V66.3531C164.277 63.0573 161.557 60.376 158.213 60.376H114.05C113.492 60.376 113.04 60.8221 113.04 61.3722C113.04 61.9223 113.492 62.3683 114.05 62.3683H158.213C160.443 62.3683 162.256 64.1559 162.256 66.3531V66.6535C162.256 68.8507 160.443 70.6382 158.213 70.6382H135.979C132.636 70.6382 129.916 73.3196 129.916 76.6153C129.916 79.9111 132.636 82.5924 135.979 82.5924H152.15C152.708 82.5924 153.16 82.1465 153.16 81.5962C153.16 81.046 152.708 80.6001 152.15 80.6001H135.979Z" fill="#6D95FC"/>
<path d="M113.745 83.5884H83.4262C82.8681 83.5884 82.4155 83.1425 82.4155 82.5923C82.4155 82.042 82.8681 81.5961 83.4262 81.5961H113.745C114.303 81.5961 114.756 82.042 114.756 82.5923C114.756 83.1425 114.303 83.5884 113.745 83.5884Z" fill="#6D95FC"/>
<path fill-rule="evenodd" clip-rule="evenodd" d="M83.4262 81.5961C82.8681 81.5961 82.4155 82.042 82.4155 82.5923C82.4155 83.1425 82.8681 83.5884 83.4262 83.5884H113.745C114.303 83.5884 114.756 83.1425 114.756 82.5923C114.756 82.042 114.303 81.5961 113.745 81.5961H83.4262Z" fill="#FBFBFB"/>
<path d="M113.745 77.6115H83.4262C82.8681 77.6115 82.4155 77.1656 82.4155 76.6153C82.4155 76.065 82.8681 75.6191 83.4262 75.6191H113.745C114.303 75.6191 114.756 76.065 114.756 76.6153C114.756 77.1656 114.303 77.6115 113.745 77.6115Z" fill="#6D95FC"/>
<path fill-rule="evenodd" clip-rule="evenodd" d="M83.4262 75.6191C82.8681 75.6191 82.4155 76.065 82.4155 76.6153C82.4155 77.1656 82.8681 77.6115 83.4262 77.6115H113.745C114.303 77.6115 114.756 77.1656 114.756 76.6153C114.756 76.065 114.303 75.6191 113.745 75.6191H83.4262Z" fill="#FBFBFB"/>
<path d="M113.745 71.6345H83.4262C82.8681 71.6345 82.4155 71.1886 82.4155 70.6383C82.4155 70.0882 82.8681 69.6421 83.4262 69.6421H113.745C114.303 69.6421 114.756 70.0882 114.756 70.6383C114.756 71.1886 114.303 71.6345 113.745 71.6345Z" fill="#6D95FC"/>
<path fill-rule="evenodd" clip-rule="evenodd" d="M83.4262 69.6421C82.8681 69.6421 82.4155 70.0882 82.4155 70.6383C82.4155 71.1886 82.8681 71.6345 83.4262 71.6345H113.745C114.303 71.6345 114.756 71.1886 114.756 70.6383C114.756 70.0882 114.303 69.6421 113.745 69.6421H83.4262Z" fill="#FBFBFB"/>
<path d="M141.033 116.463H118.799C118.241 116.463 117.788 116.017 117.788 115.466V103.512C117.788 102.962 118.241 102.516 118.799 102.516H141.033C141.591 102.516 142.043 102.962 142.043 103.512V115.466C142.043 116.017 141.591 116.463 141.033 116.463ZM119.809 114.47H140.022V104.508H119.809V114.47Z" fill="#6D95FC"/>
<path fill-rule="evenodd" clip-rule="evenodd" d="M140.022 104.508H119.809V114.47H140.022V104.508ZM141.033 116.463C141.591 116.463 142.043 116.017 142.043 115.466V103.512C142.043 102.962 141.591 102.516 141.033 102.516H118.799C118.241 102.516 117.788 102.962 117.788 103.512V115.466C117.788 116.017 118.241 116.463 118.799 116.463H141.033Z" fill="#FBFBFB"/>
<path d="M135.979 116.463H123.851C123.293 116.463 122.841 116.017 122.841 115.466V103.512C122.841 102.962 123.293 102.516 123.851 102.516H135.979C136.537 102.516 136.99 102.962 136.99 103.512V115.466C136.99 116.017 136.537 116.463 135.979 116.463ZM124.862 114.47H134.968V104.508H124.862V114.47Z" fill="#6D95FC"/>
<path fill-rule="evenodd" clip-rule="evenodd" d="M134.968 104.508H124.862V114.47H134.968V104.508ZM135.979 116.463C136.537 116.463 136.99 116.017 136.99 115.466V103.512C136.99 102.962 136.537 102.516 135.979 102.516H123.851C123.293 102.516 122.841 102.962 122.841 103.512V115.466C122.841 116.017 123.293 116.463 123.851 116.463H135.979Z" fill="#FBFBFB"/>
<path d="M144.065 120.447H115.767C114.095 120.447 112.735 119.107 112.735 117.459C112.735 115.811 114.095 114.47 115.767 114.47H144.065C145.736 114.47 147.097 115.811 147.097 117.459C147.097 119.107 145.736 120.447 144.065 120.447ZM115.767 116.463C115.21 116.463 114.756 116.909 114.756 117.459C114.756 118.008 115.21 118.455 115.767 118.455H144.065C144.622 118.455 145.075 118.008 145.075 117.459C145.075 116.909 144.622 116.463 144.065 116.463H115.767Z" fill="#6D95FC"/>
<path fill-rule="evenodd" clip-rule="evenodd" d="M115.767 116.463C115.21 116.463 114.756 116.909 114.756 117.459C114.756 118.008 115.21 118.455 115.767 118.455H144.065C144.622 118.455 145.075 118.008 145.075 117.459C145.075 116.909 144.622 116.463 144.065 116.463H115.767ZM115.767 120.447C114.095 120.447 112.735 119.107 112.735 117.459C112.735 115.811 114.095 114.47 115.767 114.47H144.065C145.736 114.47 147.097 115.811 147.097 117.459C147.097 119.107 145.736 120.447 144.065 120.447H115.767Z" fill="#FBFBFB"/>
<path d="M64.8688 156.52H59.0308L58.0648 159.313H54.9778L60.2488 144.634H63.6718L68.9428 159.313H65.8348L64.8688 156.52ZM64.0708 154.168L61.9498 148.036L59.8288 154.168H64.0708Z" fill="#6D95FC"/>
<path d="M82.8621 149.191C82.8621 149.975 82.6731 150.71 82.2951 151.396C81.9311 152.082 81.3501 152.635 80.5521 153.055C79.7681 153.475 78.7741 153.685 77.5701 153.685H75.1131V159.313H72.1731V144.655H77.5701C78.7041 144.655 79.6701 144.851 80.4681 145.243C81.2661 145.635 81.8611 146.174 82.2531 146.86C82.6591 147.546 82.8621 148.323 82.8621 149.191ZM77.4441 151.312C78.2561 151.312 78.8581 151.13 79.2501 150.766C79.6421 150.388 79.8381 149.863 79.8381 149.191C79.8381 147.763 79.0401 147.049 77.4441 147.049H75.1131V151.312H77.4441Z" fill="#6D95FC"/>
<path d="M96.8984 149.191C96.8984 149.975 96.7094 150.71 96.3314 151.396C95.9674 152.082 95.3864 152.635 94.5884 153.055C93.8044 153.475 92.8104 153.685 91.6064 153.685H89.1494V159.313H86.2094V144.655H91.6064C92.7404 144.655 93.7064 144.851 94.5044 145.243C95.3024 145.635 95.8974 146.174 96.2894 146.86C96.6954 147.546 96.8984 148.323 96.8984 149.191ZM91.4804 151.312C92.2924 151.312 92.8944 151.13 93.2864 150.766C93.6784 150.388 93.8744 149.863 93.8744 149.191C93.8744 147.763 93.0764 147.049 91.4804 147.049H89.1494V151.312H91.4804Z" fill="#6D95FC"/>
<path d="M103.186 156.982H108.016V159.313H100.246V144.655H103.186V156.982Z" fill="#6D95FC"/>
<path d="M114.084 144.655V159.313H111.144V144.655H114.084Z" fill="#6D95FC"/>
<path d="M117.535 151.963C117.535 150.521 117.857 149.233 118.501 148.099C119.159 146.951 120.048 146.062 121.168 145.432C122.302 144.788 123.569 144.466 124.969 144.466C126.607 144.466 128.042 144.886 129.274 145.726C130.506 146.566 131.367 147.728 131.857 149.212H128.476C128.14 148.512 127.664 147.987 127.048 147.637C126.446 147.287 125.746 147.112 124.948 147.112C124.094 147.112 123.331 147.315 122.659 147.721C122.001 148.113 121.483 148.673 121.105 149.401C120.741 150.129 120.559 150.983 120.559 151.963C120.559 152.929 120.741 153.783 121.105 154.525C121.483 155.253 122.001 155.82 122.659 156.226C123.331 156.618 124.094 156.814 124.948 156.814C125.746 156.814 126.446 156.639 127.048 156.289C127.664 155.925 128.14 155.393 128.476 154.693H131.857C131.367 156.191 130.506 157.36 129.274 158.2C128.056 159.026 126.621 159.439 124.969 159.439C123.569 159.439 122.302 159.124 121.168 158.494C120.048 157.85 119.159 156.961 118.501 155.827C117.857 154.693 117.535 153.405 117.535 151.963Z" fill="#6D95FC"/>
<path d="M144.616 156.52H138.778L137.812 159.313H134.725L139.996 144.634H143.419L148.69 159.313H145.582L144.616 156.52ZM143.818 154.168L141.697 148.036L139.576 154.168H143.818Z" fill="#6D95FC"/>
<path d="M161.896 144.655V147.028H157.99V159.313H155.05V147.028H151.144V144.655H161.896Z" fill="#6D95FC"/>
<path d="M168.241 144.655V159.313H165.301V144.655H168.241Z" fill="#6D95FC"/>
<path d="M179.209 159.46C177.837 159.46 176.577 159.138 175.429 158.494C174.281 157.85 173.371 156.961 172.699 155.827C172.027 154.679 171.691 153.384 171.691 151.942C171.691 150.514 172.027 149.233 172.699 148.099C173.371 146.951 174.281 146.055 175.429 145.411C176.577 144.767 177.837 144.445 179.209 144.445C180.595 144.445 181.855 144.767 182.989 145.411C184.137 146.055 185.04 146.951 185.698 148.099C186.37 149.233 186.706 150.514 186.706 151.942C186.706 153.384 186.37 154.679 185.698 155.827C185.04 156.961 184.137 157.85 182.989 158.494C181.841 159.138 180.581 159.46 179.209 159.46ZM179.209 156.835C180.091 156.835 180.868 156.639 181.54 156.247C182.212 155.841 182.737 155.267 183.115 154.525C183.493 153.783 183.682 152.922 183.682 151.942C183.682 150.962 183.493 150.108 183.115 149.38C182.737 148.638 182.212 148.071 181.54 147.679C180.868 147.287 180.091 147.091 179.209 147.091C178.327 147.091 177.543 147.287 176.857 147.679C176.185 148.071 175.66 148.638 175.282 149.38C174.904 150.108 174.715 150.962 174.715 151.942C174.715 152.922 174.904 153.783 175.282 154.525C175.66 155.267 176.185 155.841 176.857 156.247C177.543 156.639 178.327 156.835 179.209 156.835Z" fill="#6D95FC"/>
<path d="M202.691 159.313H199.751L193.094 149.254V159.313H190.154V144.634H193.094L199.751 154.714V144.634H202.691V159.313Z" fill="#6D95FC"/>
<path d="M55.7593 176.655C57.2993 176.655 58.6503 176.956 59.8123 177.558C60.9883 178.16 61.8913 179.021 62.5213 180.141C63.1653 181.247 63.4873 182.535 63.4873 184.005C63.4873 185.475 63.1653 186.763 62.5213 187.869C61.8913 188.961 60.9883 189.808 59.8123 190.41C58.6503 191.012 57.2993 191.313 55.7593 191.313H50.6353V176.655H55.7593ZM55.6543 188.814C57.1943 188.814 58.3843 188.394 59.2243 187.554C60.0643 186.714 60.4843 185.531 60.4843 184.005C60.4843 182.479 60.0643 181.289 59.2243 180.435C58.3843 179.567 57.1943 179.133 55.6543 179.133H53.5753V188.814H55.6543Z" fill="#6D95FC"/>
<path d="M69.8881 179.028V182.703H74.8231V185.034H69.8881V188.919H75.4531V191.313H66.9481V176.634H75.4531V179.028H69.8881Z" fill="#6D95FC"/>
<path d="M92.5518 176.655L87.1758 191.313H83.6058L78.2298 176.655H81.3798L85.4118 188.31L89.4228 176.655H92.5518Z" fill="#6D95FC"/>
<path d="M98.5145 179.028V182.703H103.45V185.034H98.5145V188.919H104.08V191.313H95.5745V176.634H104.08V179.028H98.5145Z" fill="#6D95FC"/>
<path d="M110.951 188.982H115.781V191.313H108.011V176.655H110.951V188.982Z" fill="#6D95FC"/>
<path d="M125.714 191.46C124.342 191.46 123.082 191.138 121.934 190.494C120.786 189.85 119.876 188.961 119.204 187.827C118.532 186.679 118.196 185.384 118.196 183.942C118.196 182.514 118.532 181.233 119.204 180.099C119.876 178.951 120.786 178.055 121.934 177.411C123.082 176.767 124.342 176.445 125.714 176.445C127.1 176.445 128.36 176.767 129.494 177.411C130.642 178.055 131.545 178.951 132.203 180.099C132.875 181.233 133.211 182.514 133.211 183.942C133.211 185.384 132.875 186.679 132.203 187.827C131.545 188.961 130.642 189.85 129.494 190.494C128.346 191.138 127.086 191.46 125.714 191.46ZM125.714 188.835C126.596 188.835 127.373 188.639 128.045 188.247C128.717 187.841 129.242 187.267 129.62 186.525C129.998 185.783 130.187 184.922 130.187 183.942C130.187 182.962 129.998 182.108 129.62 181.38C129.242 180.638 128.717 180.071 128.045 179.679C127.373 179.287 126.596 179.091 125.714 179.091C124.832 179.091 124.048 179.287 123.362 179.679C122.69 180.071 122.165 180.638 121.787 181.38C121.409 182.108 121.22 182.962 121.22 183.942C121.22 184.922 121.409 185.783 121.787 186.525C122.165 187.267 122.69 187.841 123.362 188.247C124.048 188.639 124.832 188.835 125.714 188.835Z" fill="#6D95FC"/>
<path d="M147.347 181.191C147.347 181.975 147.158 182.71 146.78 183.396C146.416 184.082 145.835 184.635 145.037 185.055C144.253 185.475 143.259 185.685 142.055 185.685H139.598V191.313H136.658V176.655H142.055C143.189 176.655 144.155 176.851 144.953 177.243C145.751 177.635 146.346 178.174 146.738 178.86C147.144 179.546 147.347 180.323 147.347 181.191ZM141.929 183.312C142.741 183.312 143.343 183.13 143.735 182.766C144.127 182.388 144.323 181.863 144.323 181.191C144.323 179.763 143.525 179.049 141.929 179.049H139.598V183.312H141.929Z" fill="#6D95FC"/>
<path d="M166.676 176.655V191.313H163.736V181.779L159.809 191.313H157.583L153.635 181.779V191.313H150.695V176.655H154.034L158.696 187.554L163.358 176.655H166.676Z" fill="#6D95FC"/>
<path d="M173.782 179.028V182.703H178.717V185.034H173.782V188.919H179.347V191.313H170.842V176.634H179.347V179.028H173.782Z" fill="#6D95FC"/>
<path d="M195.816 191.313H192.876L186.219 181.254V191.313H183.279V176.634H186.219L192.876 186.714V176.634H195.816V191.313Z" fill="#6D95FC"/>
<path d="M209.956 176.655V179.028H206.05V191.313H203.11V179.028H199.204V176.655H209.956Z" fill="#6D95FC"/>
<path d="M50.284 227.45C48.926 226.134 47.869 224.454 47.113 222.41C46.371 220.366 46 218.175 46 215.837C46 213.443 46.392 211.196 47.176 209.096C47.96 206.982 49.101 205.253 50.599 203.909H53.56V204.182C52.02 205.652 50.844 207.416 50.032 209.474C49.234 211.532 48.835 213.653 48.835 215.837C48.835 217.965 49.213 220.023 49.969 222.011C50.739 223.985 51.831 225.7 53.245 227.156V227.45H50.284Z" fill="#6D95FC"/>
<path d="M59.5944 208.655V223.313H56.6544V208.655H59.5944Z" fill="#6D95FC"/>
<path d="M70.5631 223.46C69.1911 223.46 67.9311 223.138 66.7831 222.494C65.6351 221.85 64.7251 220.961 64.0531 219.827C63.3811 218.679 63.0451 217.384 63.0451 215.942C63.0451 214.514 63.3811 213.233 64.0531 212.099C64.7251 210.951 65.6351 210.055 66.7831 209.411C67.9311 208.767 69.1911 208.445 70.5631 208.445C71.9491 208.445 73.2091 208.767 74.3431 209.411C75.4911 210.055 76.3941 210.951 77.0521 212.099C77.7241 213.233 78.0601 214.514 78.0601 215.942C78.0601 217.384 77.7241 218.679 77.0521 219.827C76.3941 220.961 75.4911 221.85 74.3431 222.494C73.1951 223.138 71.9351 223.46 70.5631 223.46ZM70.5631 220.835C71.4451 220.835 72.2221 220.639 72.8941 220.247C73.5661 219.841 74.0911 219.267 74.4691 218.525C74.8471 217.783 75.0361 216.922 75.0361 215.942C75.0361 214.962 74.8471 214.108 74.4691 213.38C74.0911 212.638 73.5661 212.071 72.8941 211.679C72.2221 211.287 71.4451 211.091 70.5631 211.091C69.6811 211.091 68.8971 211.287 68.2111 211.679C67.5391 212.071 67.0141 212.638 66.6361 213.38C66.2581 214.108 66.0691 214.962 66.0691 215.942C66.0691 216.922 66.2581 217.783 66.6361 218.525C67.0141 219.267 67.5391 219.841 68.2111 220.247C68.8971 220.639 69.6811 220.835 70.5631 220.835Z" fill="#6D95FC"/>
<path d="M86.5684 223.46C85.5464 223.46 84.6224 223.285 83.7964 222.935C82.9844 222.585 82.3404 222.081 81.8644 221.423C81.3884 220.765 81.1434 219.988 81.1294 219.092H84.2794C84.3214 219.694 84.5314 220.17 84.9094 220.52C85.3014 220.87 85.8334 221.045 86.5054 221.045C87.1914 221.045 87.7304 220.884 88.1224 220.562C88.5144 220.226 88.7104 219.792 88.7104 219.26C88.7104 218.826 88.5774 218.469 88.3114 218.189C88.0454 217.909 87.7094 217.692 87.3034 217.538C86.9114 217.37 86.3654 217.188 85.6654 216.992C84.7134 216.712 83.9364 216.439 83.3344 216.173C82.7464 215.893 82.2354 215.48 81.8014 214.934C81.3814 214.374 81.1714 213.632 81.1714 212.708C81.1714 211.84 81.3884 211.084 81.8224 210.44C82.2564 209.796 82.8654 209.306 83.6494 208.97C84.4334 208.62 85.3294 208.445 86.3374 208.445C87.8494 208.445 89.0744 208.816 90.0124 209.558C90.9644 210.286 91.4894 211.308 91.5874 212.624H88.3534C88.3254 212.12 88.1084 211.707 87.7024 211.385C87.3104 211.049 86.7854 210.881 86.1274 210.881C85.5534 210.881 85.0914 211.028 84.7414 211.322C84.4054 211.616 84.2374 212.043 84.2374 212.603C84.2374 212.995 84.3634 213.324 84.6154 213.59C84.8814 213.842 85.2034 214.052 85.5814 214.22C85.9734 214.374 86.5194 214.556 87.2194 214.766C88.1714 215.046 88.9484 215.326 89.5504 215.606C90.1524 215.886 90.6704 216.306 91.1044 216.866C91.5384 217.426 91.7554 218.161 91.7554 219.071C91.7554 219.855 91.5524 220.583 91.1464 221.255C90.7404 221.927 90.1454 222.466 89.3614 222.872C88.5774 223.264 87.6464 223.46 86.5684 223.46Z" fill="#6D95FC"/>
<path d="M98.7773 220.226L96.3203 226.127H94.4303L95.7953 220.226H98.7773Z" fill="#6D95FC"/>
<path d="M111.144 220.52H105.306L104.34 223.313H101.253L106.524 208.634H109.947L115.218 223.313H112.11L111.144 220.52ZM110.346 218.168L108.225 212.036L106.104 218.168H110.346Z" fill="#6D95FC"/>
<path d="M130.986 223.313H128.046L121.389 213.254V223.313H118.449V208.634H121.389L128.046 218.714V208.634H130.986V223.313Z" fill="#6D95FC"/>
<path d="M140.275 208.655C141.815 208.655 143.166 208.956 144.328 209.558C145.504 210.16 146.407 211.021 147.037 212.141C147.681 213.247 148.003 214.535 148.003 216.005C148.003 217.475 147.681 218.763 147.037 219.869C146.407 220.961 145.504 221.808 144.328 222.41C143.166 223.012 141.815 223.313 140.275 223.313H135.151V208.655H140.275ZM140.17 220.814C141.71 220.814 142.9 220.394 143.74 219.554C144.58 218.714 145 217.531 145 216.005C145 214.479 144.58 213.289 143.74 212.435C142.9 211.567 141.71 211.133 140.17 211.133H138.091V220.814H140.17Z" fill="#6D95FC"/>
<path d="M159.024 223.313L155.79 217.601H154.404V223.313H151.464V208.655H156.966C158.1 208.655 159.066 208.858 159.864 209.264C160.662 209.656 161.257 210.195 161.649 210.881C162.055 211.553 162.258 212.309 162.258 213.149C162.258 214.115 161.978 214.99 161.418 215.774C160.858 216.544 160.025 217.076 158.919 217.37L162.426 223.313H159.024ZM154.404 215.396H156.861C157.659 215.396 158.254 215.207 158.646 214.829C159.038 214.437 159.234 213.898 159.234 213.212C159.234 212.54 159.038 212.022 158.646 211.658C158.254 211.28 157.659 211.091 156.861 211.091H154.404V215.396Z" fill="#6D95FC"/>
<path d="M172.981 223.46C171.609 223.46 170.349 223.138 169.201 222.494C168.053 221.85 167.143 220.961 166.471 219.827C165.799 218.679 165.463 217.384 165.463 215.942C165.463 214.514 165.799 213.233 166.471 212.099C167.143 210.951 168.053 210.055 169.201 209.411C170.349 208.767 171.609 208.445 172.981 208.445C174.367 208.445 175.627 208.767 176.761 209.411C177.909 210.055 178.812 210.951 179.47 212.099C180.142 213.233 180.478 214.514 180.478 215.942C180.478 217.384 180.142 218.679 179.47 219.827C178.812 220.961 177.909 221.85 176.761 222.494C175.613 223.138 174.353 223.46 172.981 223.46ZM172.981 220.835C173.863 220.835 174.64 220.639 175.312 220.247C175.984 219.841 176.509 219.267 176.887 218.525C177.265 217.783 177.454 216.922 177.454 215.942C177.454 214.962 177.265 214.108 176.887 213.38C176.509 212.638 175.984 212.071 175.312 211.679C174.64 211.287 173.863 211.091 172.981 211.091C172.099 211.091 171.315 211.287 170.629 211.679C169.957 212.071 169.432 212.638 169.054 213.38C168.676 214.108 168.487 214.962 168.487 215.942C168.487 216.922 168.676 217.783 169.054 218.525C169.432 219.267 169.957 219.841 170.629 220.247C171.315 220.639 172.099 220.835 172.981 220.835Z" fill="#6D95FC"/>
<path d="M186.865 208.655V223.313H183.925V208.655H186.865Z" fill="#6D95FC"/>
<path d="M196.154 208.655C197.694 208.655 199.045 208.956 200.207 209.558C201.383 210.16 202.286 211.021 202.916 212.141C203.56 213.247 203.882 214.535 203.882 216.005C203.882 217.475 203.56 218.763 202.916 219.869C202.286 220.961 201.383 221.808 200.207 222.41C199.045 223.012 197.694 223.313 196.154 223.313H191.03V208.655H196.154ZM196.049 220.814C197.589 220.814 198.779 220.394 199.619 219.554C200.459 218.714 200.879 217.531 200.879 216.005C200.879 214.479 200.459 213.289 199.619 212.435C198.779 211.567 197.589 211.133 196.049 211.133H193.97V220.814H196.049Z" fill="#6D95FC"/>
<path d="M206.587 227.45V227.156C208.001 225.7 209.086 223.985 209.842 222.011C210.612 220.023 210.997 217.965 210.997 215.837C210.997 213.653 210.591 211.532 209.779 209.474C208.981 207.416 207.812 205.652 206.272 204.182V203.909H209.233C210.731 205.253 211.872 206.982 212.656 209.096C213.44 211.196 213.832 213.443 213.832 215.837C213.832 218.175 213.454 220.366 212.698 222.41C211.956 224.454 210.906 226.134 209.548 227.45H206.587Z" fill="#6D95FC"/>
<defs>
<linearGradient id="paint0_linear_1674_2170" x1="85.5" y1="-640.5" x2="121.5" y2="190" gradientUnits="userSpaceOnUse">
<stop stop-color="#6D95FC" stop-opacity="0.55"/>
<stop offset="1" stop-color="#6D95FC" stop-opacity="0"/>
</linearGradient>
</defs>
</svg>
