<svg width="300" height="280" viewBox="0 0 300 280" fill="none" xmlns="http://www.w3.org/2000/svg">
<path d="M0 0H300V280H0V0Z" fill="url(#paint0_linear_1674_2169)"/>
<path d="M139.77 56.1617C139.344 56.1617 138.918 56.0543 138.53 55.8395C137.753 55.41 137.289 54.6405 137.289 53.7814V49.7601C137.289 48.901 137.753 48.1315 138.53 47.702C139.306 47.2725 140.234 47.2725 141.01 47.702L144.646 49.7126C145.423 50.1421 145.886 50.9114 145.886 51.7707C145.886 52.6299 145.423 53.3992 144.646 53.8287L141.01 55.8393C140.622 56.0541 140.196 56.1617 139.77 56.1617ZM139.771 49.4031C139.691 49.4031 139.626 49.4302 139.585 49.4529C139.515 49.4911 139.399 49.582 139.399 49.7603V53.7816C139.399 53.9601 139.515 54.0511 139.585 54.0891C139.654 54.1273 139.794 54.1782 139.955 54.0891L143.591 52.0785C143.752 51.9894 143.776 51.8475 143.776 51.7711C143.776 51.6947 143.752 51.5528 143.591 51.4636L139.955 49.4531C139.889 49.4161 139.827 49.4031 139.771 49.4031Z" fill="#6D95FC"/>
<path fill-rule="evenodd" clip-rule="evenodd" d="M144.645 53.8287L141.009 55.8392C140.621 56.0541 140.195 56.1616 139.769 56.1616C139.343 56.1616 138.917 56.0543 138.529 55.8394C137.752 55.4099 137.288 54.6404 137.288 53.7814V49.76C137.288 48.901 137.752 48.1315 138.529 47.702C139.306 47.2725 140.233 47.2725 141.009 47.702L144.645 49.7125C145.422 50.1421 145.886 50.9114 145.886 51.7706C145.886 52.6298 145.422 53.3991 144.645 53.8287ZM141.034 47.6582L144.669 49.6688C145.461 50.1067 145.936 50.8924 145.936 51.7706C145.936 52.6488 145.461 53.4345 144.669 53.8724L141.034 55.883C141.034 55.883 141.034 55.883 141.034 55.883C140.638 56.1019 140.204 56.2116 139.769 56.2116C139.335 56.2116 138.9 56.1022 138.505 55.8832C137.713 55.4452 137.238 54.6593 137.238 53.7814V49.76C137.238 48.8821 137.713 48.0962 138.505 47.6582C139.296 47.2204 140.242 47.2204 141.034 47.6582C141.034 47.6582 141.034 47.6582 141.034 47.6582ZM139.608 49.4966C139.546 49.5307 139.449 49.6081 139.449 49.7602V53.7816C139.449 53.9339 139.546 54.0113 139.608 54.0452C139.67 54.0791 139.791 54.1227 139.93 54.0453L143.566 52.0347C143.705 51.9577 143.726 51.8373 143.726 51.771C143.726 51.7047 143.705 51.5844 143.566 51.5073L139.93 49.4968C139.872 49.4641 139.818 49.4531 139.77 49.4531C139.701 49.4531 139.644 49.4765 139.608 49.4966ZM139.955 49.453C139.888 49.416 139.826 49.4031 139.77 49.4031C139.69 49.4031 139.625 49.4302 139.584 49.4528C139.515 49.491 139.399 49.582 139.399 49.7602V53.7816C139.399 53.96 139.515 54.051 139.584 54.089C139.653 54.1272 139.794 54.1781 139.954 54.089L143.59 52.0784C143.752 51.9893 143.776 51.8474 143.776 51.771C143.776 51.6946 143.752 51.5527 143.59 51.4636L139.955 49.453Z" fill="white"/>
<path d="M141.588 61.9699C135.717 61.9699 130.941 57.395 130.941 51.7716C130.941 46.1482 135.717 41.5732 141.588 41.5732C147.458 41.5732 152.234 46.1482 152.234 51.7716C152.234 57.395 147.458 61.9699 141.588 61.9699ZM141.588 43.5945C136.881 43.5945 133.052 47.2627 133.052 51.7716C133.052 56.2805 136.881 59.9487 141.588 59.9487C146.295 59.9487 150.124 56.2805 150.124 51.7716C150.124 47.2627 146.295 43.5945 141.588 43.5945Z" fill="#6D95FC"/>
<path fill-rule="evenodd" clip-rule="evenodd" d="M141.587 62.0199C135.691 62.0199 130.891 57.4246 130.891 51.7715C130.891 46.1185 135.691 41.5232 141.587 41.5232C147.483 41.5232 152.284 46.1185 152.284 51.7715C152.284 57.4246 147.483 62.0199 141.587 62.0199ZM141.587 43.6445C136.906 43.6445 133.101 47.2923 133.101 51.7715C133.101 56.2508 136.906 59.8986 141.587 59.8986C146.269 59.8986 150.074 56.2508 150.074 51.7715C150.074 47.2923 146.269 43.6445 141.587 43.6445ZM130.941 51.7715C130.941 57.3949 135.717 61.9699 141.587 61.9699C147.458 61.9699 152.234 57.3949 152.234 51.7715C152.234 46.1482 147.458 41.5732 141.587 41.5732C135.717 41.5732 130.941 46.1482 130.941 51.7715ZM133.051 51.7715C133.051 47.2627 136.88 43.5945 141.587 43.5945C146.294 43.5945 150.124 47.2627 150.124 51.7715C150.124 56.2804 146.294 59.9486 141.587 59.9486C136.88 59.9486 133.051 56.2804 133.051 51.7715Z" fill="white"/>
<path d="M174.295 77.5425H108.881C108.299 77.5425 107.826 77.0902 107.826 76.5319V27.0106C107.826 26.4526 108.299 26 108.881 26H174.295C174.878 26 175.35 26.4526 175.35 27.0106V76.5319C175.35 77.0902 174.878 77.5425 174.295 77.5425ZM109.936 75.5213H173.24V28.0213H109.936V75.5213Z" fill="#6D95FC"/>
<path fill-rule="evenodd" clip-rule="evenodd" d="M174.294 77.5925H108.88C108.272 77.5925 107.775 77.1198 107.775 76.5319V27.0106C107.775 26.4229 108.272 25.95 108.88 25.95H174.294C174.903 25.95 175.399 26.4229 175.399 27.0106V76.5319C175.399 77.1198 174.903 77.5925 174.294 77.5925ZM173.239 75.5212H109.936V28.0212H173.239V75.5212ZM173.189 28.0712H109.986V75.4712H173.189V28.0712ZM108.88 77.5425H174.294C174.877 77.5425 175.349 77.0901 175.349 76.5319V27.0106C175.349 26.4525 174.877 26 174.294 26H108.88C108.298 26 107.825 26.4525 107.825 27.0106V76.5319C107.825 77.0901 108.298 77.5425 108.88 77.5425Z" fill="white"/>
<path d="M115.211 39.1629H123.652C124.247 39.1629 124.732 38.7002 124.732 38.1273V33.0741C124.732 32.5012 124.247 32.0385 123.652 32.0385H115.211C114.616 32.0385 114.131 32.5012 114.131 33.0741V38.1273C114.131 38.7002 114.616 39.1629 115.211 39.1629ZM122.572 34.1098V37.0917H116.291V34.1098H122.572Z" fill="#6D95FC" stroke="white" stroke-width="0.05"/>
<path d="M129.983 39.1629H138.423C139.019 39.1629 139.503 38.7002 139.503 38.1273V33.0741C139.503 32.5012 139.019 32.0385 138.423 32.0385H129.983C129.387 32.0385 128.903 32.5012 128.903 33.0741V38.1273C128.903 38.7002 129.387 39.1629 129.983 39.1629ZM137.343 34.1098V37.0917H131.063V34.1098H137.343Z" fill="#6D95FC" stroke="white" stroke-width="0.05"/>
<path d="M183.861 104.83H99.3152C95.2815 104.83 92 101.687 92 97.8232V91.692C92 91.1338 92.4725 90.6814 93.0551 90.6814H190.121C190.704 90.6814 191.176 91.1338 191.176 91.692V97.8232C191.176 101.687 187.894 104.83 183.861 104.83ZM94.1101 92.7027V97.8232C94.1101 100.573 96.445 102.809 99.3152 102.809H183.861C186.731 102.809 189.066 100.573 189.066 97.8232V92.7027H94.1101Z" fill="white"/>
<path fill-rule="evenodd" clip-rule="evenodd" d="M183.86 104.88H99.3144C95.2551 104.88 91.9492 101.716 91.9492 97.8231V91.692C91.9492 91.1041 92.4461 90.6313 93.0543 90.6313H190.12C190.728 90.6313 191.225 91.1041 191.225 91.692V97.8231C191.225 101.716 187.919 104.88 183.86 104.88ZM94.1593 92.7526V97.8231C94.1593 100.543 96.4698 102.759 99.3144 102.759H183.86C186.705 102.759 189.015 100.543 189.015 97.8231V92.7526H94.1593ZM94.1093 97.8231C94.1093 100.572 96.4442 102.809 99.3144 102.809H183.86C186.73 102.809 189.065 100.572 189.065 97.8231V92.7026H94.1093V97.8231ZM99.3144 104.83H183.86C187.893 104.83 191.175 101.687 191.175 97.8231V91.692C191.175 91.1337 190.703 90.6813 190.12 90.6813H93.0543C92.4717 90.6813 91.9992 91.1337 91.9992 91.692V97.8231C91.9992 101.687 95.2807 104.83 99.3144 104.83Z" fill="#6D95FC"/>
<path d="M190.121 92.7021H93.0551C92.4725 92.7021 92 92.2498 92 91.6915V46.516C92 41.8907 95.9284 38.1277 100.757 38.1277H108.881C109.464 38.1277 109.936 38.5802 109.936 39.1383C109.936 39.6964 109.464 40.149 108.881 40.149H100.757C97.0919 40.149 94.1101 43.0052 94.1101 46.516V90.6809H189.066V46.516C189.066 43.0052 186.084 40.149 182.419 40.149H174.295C173.712 40.149 173.24 39.6964 173.24 39.1383C173.24 38.5802 173.712 38.1277 174.295 38.1277H182.419C187.247 38.1277 191.176 41.8907 191.176 46.516V91.6915C191.176 92.2498 190.704 92.7021 190.121 92.7021Z" fill="white"/>
<path fill-rule="evenodd" clip-rule="evenodd" d="M190.12 92.7521H93.0543C92.4461 92.7521 91.9492 92.2794 91.9492 91.6915V46.5159C91.9492 41.861 95.9021 38.0776 100.756 38.0776H108.88C109.488 38.0776 109.985 38.5506 109.985 39.1383C109.985 39.726 109.488 40.1989 108.88 40.1989H100.756C97.1167 40.1989 94.1593 43.0348 94.1593 46.5159V90.6308H189.015V46.5159C189.015 43.0348 186.058 40.1989 182.418 40.1989H174.294C173.686 40.1989 173.189 39.726 173.189 39.1383C173.189 38.5506 173.686 38.0776 174.294 38.0776H182.418C187.272 38.0776 191.225 41.861 191.225 46.5159V91.6915C191.225 92.2794 190.728 92.7521 190.12 92.7521ZM189.065 46.5159C189.065 43.0052 186.083 40.1489 182.418 40.1489H174.294C173.711 40.1489 173.239 39.6963 173.239 39.1383C173.239 38.5802 173.711 38.1276 174.294 38.1276H182.418C187.247 38.1276 191.175 41.8906 191.175 46.5159V91.6915C191.175 92.2497 190.703 92.7021 190.12 92.7021H93.0543C92.4717 92.7021 91.9992 92.2497 91.9992 91.6915V46.5159C91.9992 41.8906 95.9276 38.1276 100.756 38.1276H108.88C109.463 38.1276 109.935 38.5802 109.935 39.1383C109.935 39.6963 109.463 40.1489 108.88 40.1489H100.756C97.0912 40.1489 94.1093 43.0052 94.1093 46.5159V90.6808H189.065V46.5159Z" fill="#6D95FC"/>
<path d="M144.752 39.1629H153.193C153.788 39.1629 154.273 38.7002 154.273 38.1273V33.0741C154.273 32.5012 153.788 32.0385 153.193 32.0385H144.752C144.157 32.0385 143.672 32.5012 143.672 33.0741V38.1273C143.672 38.7002 144.157 39.1629 144.752 39.1629ZM152.113 34.1098V37.0917H145.832V34.1098H152.113Z" fill="#6D95FC" stroke="white" stroke-width="0.05"/>
<path d="M167.964 39.1379H159.524C158.941 39.1379 158.469 38.6854 158.469 38.1273V33.0741C158.469 32.516 158.941 32.0635 159.524 32.0635H167.964C168.547 32.0635 169.019 32.516 169.019 33.0741V38.1273C169.019 38.6854 168.547 39.1379 167.964 39.1379ZM160.579 37.1167H166.909V34.0848H160.579V37.1167Z" fill="#6D95FC" stroke="#6D95FC" stroke-width="0.05"/>
<path d="M123.652 71.4789H115.211C114.629 71.4789 114.156 71.0263 114.156 70.4682V65.4151C114.156 64.857 114.629 64.4044 115.211 64.4044H123.652C124.234 64.4044 124.707 64.857 124.707 65.4151V70.4682C124.707 71.0263 124.234 71.4789 123.652 71.4789ZM116.266 69.4576H122.597V66.4257H116.266V69.4576Z" fill="#6D95FC"/>
<path fill-rule="evenodd" clip-rule="evenodd" d="M115.211 64.4294C114.641 64.4294 114.181 64.8718 114.181 65.415V70.4682C114.181 71.0115 114.641 71.4539 115.211 71.4539H123.651C124.221 71.4539 124.681 71.0115 124.681 70.4682V65.415C124.681 64.8718 124.221 64.4294 123.651 64.4294H115.211ZM114.131 65.415C114.131 64.8421 114.616 64.3794 115.211 64.3794H123.651C124.247 64.3794 124.731 64.8421 124.731 65.415V70.4682C124.731 71.0411 124.247 71.5039 123.651 71.5039H115.211C114.616 71.5039 114.131 71.0411 114.131 70.4682V65.415ZM116.241 66.4007H122.621V69.4826H116.241V66.4007ZM116.291 66.4507V69.4326H122.571V66.4507H116.291Z" fill="#6D95FC"/>
<path d="M138.423 71.4788H129.983C129.4 71.4788 128.928 71.0262 128.928 70.4681V65.4149C128.928 64.8569 129.4 64.4043 129.983 64.4043H138.423C139.006 64.4043 139.478 64.8569 139.478 65.4149V70.4681C139.478 71.0262 139.006 71.4788 138.423 71.4788ZM131.038 69.4575H137.368V66.4256H131.038V69.4575Z" fill="#6D95FC"/>
<path fill-rule="evenodd" clip-rule="evenodd" d="M129.982 64.4293C129.413 64.4293 128.952 64.8716 128.952 65.4149V70.4681C128.952 71.0114 129.413 71.4537 129.982 71.4537H138.423C138.993 71.4537 139.453 71.0114 139.453 70.4681V65.4149C139.453 64.8716 138.993 64.4293 138.423 64.4293H129.982ZM128.902 65.4149C128.902 64.842 129.387 64.3793 129.982 64.3793H138.423C139.018 64.3793 139.503 64.842 139.503 65.4149V70.4681C139.503 71.041 139.018 71.5037 138.423 71.5037H129.982C129.387 71.5037 128.902 71.041 128.902 70.4681V65.4149ZM131.012 66.4005H137.393V69.4825H131.012V66.4005ZM131.062 66.4505V69.4325H137.343V66.4505H131.062Z" fill="#6D95FC"/>
<path d="M153.193 71.4788H144.752C144.17 71.4788 143.697 71.0262 143.697 70.4681V65.4149C143.697 64.8569 144.17 64.4043 144.752 64.4043H153.193C153.776 64.4043 154.248 64.8569 154.248 65.4149V70.4681C154.248 71.0262 153.776 71.4788 153.193 71.4788ZM145.807 69.4575H152.138V66.4256H145.807V69.4575Z" fill="#6D95FC"/>
<path fill-rule="evenodd" clip-rule="evenodd" d="M144.752 64.4293C144.182 64.4293 143.722 64.8716 143.722 65.4149V70.4681C143.722 71.0114 144.182 71.4537 144.752 71.4537H153.192C153.762 71.4537 154.222 71.0114 154.222 70.4681V65.4149C154.222 64.8716 153.762 64.4293 153.192 64.4293H144.752ZM143.672 65.4149C143.672 64.842 144.156 64.3793 144.752 64.3793H153.192C153.788 64.3793 154.272 64.842 154.272 65.4149V70.4681C154.272 71.041 153.788 71.5037 153.192 71.5037H144.752C144.156 71.5037 143.672 71.041 143.672 70.4681V65.4149ZM145.782 66.4005H152.162V69.4825H145.782V66.4005ZM145.832 66.4505V69.4325H152.112V66.4505H145.832Z" fill="#6D95FC"/>
<path d="M167.964 71.4788H159.524C158.941 71.4788 158.469 71.0262 158.469 70.4681V65.4149C158.469 64.8569 158.941 64.4043 159.524 64.4043H167.964C168.547 64.4043 169.019 64.8569 169.019 65.4149V70.4681C169.019 71.0262 168.547 71.4788 167.964 71.4788ZM160.579 69.4575H166.909V66.4256H160.579V69.4575Z" fill="#6D95FC"/>
<path fill-rule="evenodd" clip-rule="evenodd" d="M159.523 64.4293C158.953 64.4293 158.493 64.8716 158.493 65.4149V70.4681C158.493 71.0114 158.953 71.4537 159.523 71.4537H167.964C168.534 71.4537 168.994 71.0114 168.994 70.4681V65.4149C168.994 64.8716 168.534 64.4293 167.964 64.4293H159.523ZM158.443 65.4149C158.443 64.842 158.928 64.3793 159.523 64.3793H167.964C168.56 64.3793 169.044 64.842 169.044 65.4149V70.4681C169.044 71.041 168.56 71.5037 167.964 71.5037H159.523C158.928 71.5037 158.443 71.041 158.443 70.4681V65.4149ZM160.553 66.4005H166.934V69.4825H160.553V66.4005ZM160.603 66.4505V69.4325H166.884V66.4505H160.603Z" fill="#6D95FC"/>
<path d="M153.194 116.958H129.983C129.4 116.958 128.928 116.505 128.928 115.947V103.819C128.928 103.261 129.4 102.809 129.983 102.809H153.194C153.777 102.809 154.249 103.261 154.249 103.819V115.947C154.249 116.505 153.777 116.958 153.194 116.958ZM131.038 114.936H152.139V104.83H131.038V114.936Z" fill="white"/>
<path fill-rule="evenodd" clip-rule="evenodd" d="M153.193 117.007H129.982C129.374 117.007 128.877 116.535 128.877 115.947V103.819C128.877 103.231 129.374 102.759 129.982 102.759H153.193C153.802 102.759 154.298 103.231 154.298 103.819V115.947C154.298 116.535 153.802 117.007 153.193 117.007ZM152.138 114.936H131.037V104.83H152.138V114.936ZM152.088 104.88H131.087V114.886H152.088V104.88ZM129.982 116.957H153.193C153.776 116.957 154.248 116.505 154.248 115.947V103.819C154.248 103.261 153.776 102.809 153.193 102.809H129.982C129.399 102.809 128.927 103.261 128.927 103.819V115.947C128.927 116.505 129.399 116.957 129.982 116.957Z" fill="#6D95FC"/>
<path d="M147.919 116.958H135.258C134.676 116.958 134.203 116.505 134.203 115.947V103.819C134.203 103.261 134.676 102.809 135.258 102.809H147.919C148.502 102.809 148.974 103.261 148.974 103.819V115.947C148.974 116.505 148.502 116.958 147.919 116.958ZM136.313 114.936H146.864V104.83H136.313V114.936Z" fill="white"/>
<path fill-rule="evenodd" clip-rule="evenodd" d="M147.918 117.007H135.257C134.649 117.007 134.152 116.535 134.152 115.947V103.819C134.152 103.231 134.649 102.759 135.257 102.759H147.918C148.527 102.759 149.023 103.231 149.023 103.819V115.947C149.023 116.535 148.527 117.007 147.918 117.007ZM146.863 114.936H136.312V104.83H146.863V114.936ZM146.813 104.88H136.362V114.886H146.813V104.88ZM135.257 116.957H147.918C148.501 116.957 148.973 116.505 148.973 115.947V103.819C148.973 103.261 148.501 102.809 147.918 102.809H135.257C134.675 102.809 134.202 103.261 134.202 103.819V115.947C134.202 116.505 134.675 116.957 135.257 116.957Z" fill="#6D95FC"/>
<path d="M156.359 121H126.818C125.072 121 123.652 119.64 123.652 117.968C123.652 116.297 125.072 114.937 126.818 114.937H156.359C158.105 114.937 159.524 116.297 159.524 117.968C159.524 119.64 158.105 121 156.359 121ZM126.818 116.958C126.236 116.958 125.762 117.411 125.762 117.968C125.762 118.526 126.236 118.979 126.818 118.979H156.359C156.941 118.979 157.414 118.526 157.414 117.968C157.414 117.411 156.941 116.958 156.359 116.958H126.818Z" fill="white"/>
<path fill-rule="evenodd" clip-rule="evenodd" d="M156.358 121.05H126.817C125.046 121.05 123.602 119.67 123.602 117.968C123.602 116.267 125.046 114.886 126.817 114.886H156.358C158.129 114.886 159.574 116.267 159.574 117.968C159.574 119.67 158.129 121.05 156.358 121.05ZM126.817 117.008C126.261 117.008 125.812 117.441 125.812 117.968C125.812 118.496 126.261 118.929 126.817 118.929H156.358C156.915 118.929 157.364 118.496 157.364 117.968C157.364 117.441 156.915 117.008 156.358 117.008H126.817ZM126.817 121H156.358C158.104 121 159.524 119.64 159.524 117.968C159.524 116.297 158.104 114.936 156.358 114.936H126.817C125.071 114.936 123.652 116.297 123.652 117.968C123.652 119.64 125.071 121 126.817 121ZM125.762 117.968C125.762 117.411 126.235 116.958 126.817 116.958H156.358C156.94 116.958 157.414 117.411 157.414 117.968C157.414 118.526 156.94 118.979 156.358 118.979H126.817C126.235 118.979 125.762 118.526 125.762 117.968Z" fill="#6D95FC"/>
<path d="M35.3984 152.65C35.3984 151.208 35.7204 149.92 36.3644 148.786C37.0224 147.638 37.9114 146.749 39.0314 146.119C40.1654 145.475 41.4324 145.153 42.8324 145.153C44.4704 145.153 45.9054 145.573 47.1374 146.413C48.3694 147.253 49.2304 148.415 49.7204 149.899H46.3394C46.0034 149.199 45.5274 148.674 44.9114 148.324C44.3094 147.974 43.6094 147.799 42.8114 147.799C41.9574 147.799 41.1944 148.002 40.5224 148.408C39.8644 148.8 39.3464 149.36 38.9684 150.088C38.6044 150.816 38.4224 151.67 38.4224 152.65C38.4224 153.616 38.6044 154.47 38.9684 155.212C39.3464 155.94 39.8644 156.507 40.5224 156.913C41.1944 157.305 41.9574 157.501 42.8114 157.501C43.6094 157.501 44.3094 157.326 44.9114 156.976C45.5274 156.612 46.0034 156.08 46.3394 155.38H49.7204C49.2304 156.878 48.3694 158.047 47.1374 158.887C45.9194 159.713 44.4844 160.126 42.8324 160.126C41.4324 160.126 40.1654 159.811 39.0314 159.181C37.9114 158.537 37.0224 157.648 36.3644 156.514C35.7204 155.38 35.3984 154.092 35.3984 152.65Z" fill="#6D95FC"/>
<path d="M56.3896 145.342V154.414C56.3896 155.408 56.6486 156.171 57.1666 156.703C57.6846 157.221 58.4126 157.48 59.3506 157.48C60.3026 157.48 61.0376 157.221 61.5556 156.703C62.0736 156.171 62.3326 155.408 62.3326 154.414V145.342H65.2936V154.393C65.2936 155.639 65.0206 156.696 64.4746 157.564C63.9426 158.418 63.2216 159.062 62.3116 159.496C61.4156 159.93 60.4146 160.147 59.3086 160.147C58.2166 160.147 57.2226 159.93 56.3266 159.496C55.4446 159.062 54.7446 158.418 54.2266 157.564C53.7086 156.696 53.4496 155.639 53.4496 154.393V145.342H56.3896Z" fill="#6D95FC"/>
<path d="M74.4552 160.147C73.4332 160.147 72.5092 159.972 71.6832 159.622C70.8712 159.272 70.2272 158.768 69.7512 158.11C69.2752 157.452 69.0302 156.675 69.0162 155.779H72.1662C72.2082 156.381 72.4182 156.857 72.7962 157.207C73.1882 157.557 73.7202 157.732 74.3922 157.732C75.0782 157.732 75.6172 157.571 76.0092 157.249C76.4012 156.913 76.5972 156.479 76.5972 155.947C76.5972 155.513 76.4642 155.156 76.1982 154.876C75.9322 154.596 75.5962 154.379 75.1902 154.225C74.7982 154.057 74.2522 153.875 73.5522 153.679C72.6002 153.399 71.8232 153.126 71.2212 152.86C70.6332 152.58 70.1222 152.167 69.6882 151.621C69.2682 151.061 69.0582 150.319 69.0582 149.395C69.0582 148.527 69.2752 147.771 69.7092 147.127C70.1432 146.483 70.7522 145.993 71.5362 145.657C72.3202 145.307 73.2162 145.132 74.2242 145.132C75.7362 145.132 76.9612 145.503 77.8992 146.245C78.8512 146.973 79.3762 147.995 79.4742 149.311H76.2402C76.2122 148.807 75.9952 148.394 75.5892 148.072C75.1972 147.736 74.6722 147.568 74.0142 147.568C73.4402 147.568 72.9782 147.715 72.6282 148.009C72.2922 148.303 72.1242 148.73 72.1242 149.29C72.1242 149.682 72.2502 150.011 72.5022 150.277C72.7682 150.529 73.0902 150.739 73.4682 150.907C73.8602 151.061 74.4062 151.243 75.1062 151.453C76.0582 151.733 76.8352 152.013 77.4372 152.293C78.0392 152.573 78.5572 152.993 78.9912 153.553C79.4252 154.113 79.6422 154.848 79.6422 155.758C79.6422 156.542 79.4392 157.27 79.0332 157.942C78.6272 158.614 78.0322 159.153 77.2482 159.559C76.4642 159.951 75.5332 160.147 74.4552 160.147Z" fill="#6D95FC"/>
<path d="M93.426 145.342V147.715H89.52V160H86.58V147.715H82.674V145.342H93.426Z" fill="#6D95FC"/>
<path d="M103.635 160.147C102.263 160.147 101.003 159.825 99.8551 159.181C98.7071 158.537 97.7972 157.648 97.1252 156.514C96.4532 155.366 96.1171 154.071 96.1171 152.629C96.1171 151.201 96.4532 149.92 97.1252 148.786C97.7972 147.638 98.7071 146.742 99.8551 146.098C101.003 145.454 102.263 145.132 103.635 145.132C105.021 145.132 106.281 145.454 107.415 146.098C108.563 146.742 109.466 147.638 110.124 148.786C110.796 149.92 111.132 151.201 111.132 152.629C111.132 154.071 110.796 155.366 110.124 156.514C109.466 157.648 108.563 158.537 107.415 159.181C106.267 159.825 105.007 160.147 103.635 160.147ZM103.635 157.522C104.517 157.522 105.294 157.326 105.966 156.934C106.638 156.528 107.163 155.954 107.541 155.212C107.919 154.47 108.108 153.609 108.108 152.629C108.108 151.649 107.919 150.795 107.541 150.067C107.163 149.325 106.638 148.758 105.966 148.366C105.294 147.974 104.517 147.778 103.635 147.778C102.753 147.778 101.969 147.974 101.283 148.366C100.611 148.758 100.086 149.325 99.7082 150.067C99.3302 150.795 99.1412 151.649 99.1412 152.629C99.1412 153.609 99.3302 154.47 99.7082 155.212C100.086 155.954 100.611 156.528 101.283 156.934C101.969 157.326 102.753 157.522 103.635 157.522Z" fill="#6D95FC"/>
<path d="M130.56 145.342V160H127.62V150.466L123.693 160H121.467L117.519 150.466V160H114.579V145.342H117.918L122.58 156.241L127.242 145.342H130.56Z" fill="#6D95FC"/>
<path d="M146.052 160.147C145.03 160.147 144.106 159.972 143.28 159.622C142.468 159.272 141.824 158.768 141.348 158.11C140.872 157.452 140.627 156.675 140.613 155.779H143.763C143.805 156.381 144.015 156.857 144.393 157.207C144.785 157.557 145.317 157.732 145.989 157.732C146.675 157.732 147.214 157.571 147.606 157.249C147.998 156.913 148.194 156.479 148.194 155.947C148.194 155.513 148.061 155.156 147.795 154.876C147.529 154.596 147.193 154.379 146.787 154.225C146.395 154.057 145.849 153.875 145.149 153.679C144.197 153.399 143.42 153.126 142.818 152.86C142.23 152.58 141.719 152.167 141.285 151.621C140.865 151.061 140.655 150.319 140.655 149.395C140.655 148.527 140.872 147.771 141.306 147.127C141.74 146.483 142.349 145.993 143.133 145.657C143.917 145.307 144.813 145.132 145.821 145.132C147.333 145.132 148.558 145.503 149.496 146.245C150.448 146.973 150.973 147.995 151.071 149.311H147.837C147.809 148.807 147.592 148.394 147.186 148.072C146.794 147.736 146.269 147.568 145.611 147.568C145.037 147.568 144.575 147.715 144.225 148.009C143.889 148.303 143.721 148.73 143.721 149.29C143.721 149.682 143.847 150.011 144.099 150.277C144.365 150.529 144.687 150.739 145.065 150.907C145.457 151.061 146.003 151.243 146.703 151.453C147.655 151.733 148.432 152.013 149.034 152.293C149.636 152.573 150.154 152.993 150.588 153.553C151.022 154.113 151.239 154.848 151.239 155.758C151.239 156.542 151.036 157.27 150.63 157.942C150.224 158.614 149.629 159.153 148.845 159.559C148.061 159.951 147.13 160.147 146.052 160.147Z" fill="#6D95FC"/>
<path d="M161.852 160.147C160.48 160.147 159.22 159.825 158.072 159.181C156.924 158.537 156.014 157.648 155.342 156.514C154.67 155.366 154.334 154.071 154.334 152.629C154.334 151.201 154.67 149.92 155.342 148.786C156.014 147.638 156.924 146.742 158.072 146.098C159.22 145.454 160.48 145.132 161.852 145.132C163.238 145.132 164.498 145.454 165.632 146.098C166.78 146.742 167.683 147.638 168.341 148.786C169.013 149.92 169.349 151.201 169.349 152.629C169.349 154.071 169.013 155.366 168.341 156.514C167.683 157.648 166.78 158.537 165.632 159.181C164.484 159.825 163.224 160.147 161.852 160.147ZM161.852 157.522C162.734 157.522 163.511 157.326 164.183 156.934C164.855 156.528 165.38 155.954 165.758 155.212C166.136 154.47 166.325 153.609 166.325 152.629C166.325 151.649 166.136 150.795 165.758 150.067C165.38 149.325 164.855 148.758 164.183 148.366C163.511 147.974 162.734 147.778 161.852 147.778C160.97 147.778 160.186 147.974 159.5 148.366C158.828 148.758 158.303 149.325 157.925 150.067C157.547 150.795 157.358 151.649 157.358 152.629C157.358 153.609 157.547 154.47 157.925 155.212C158.303 155.954 158.828 156.528 159.5 156.934C160.186 157.326 160.97 157.522 161.852 157.522Z" fill="#6D95FC"/>
<path d="M181.847 145.342V147.715H175.736V151.474H180.419V153.805H175.736V160H172.796V145.342H181.847Z" fill="#6D95FC"/>
<path d="M195.167 145.342V147.715H191.261V160H188.321V147.715H184.415V145.342H195.167Z" fill="#6D95FC"/>
<path d="M218.165 145.342L214.07 160H210.605L207.854 149.563L204.977 160L201.533 160.021L197.585 145.342H200.735L203.318 156.724L206.3 145.342H209.576L212.39 156.661L214.994 145.342H218.165Z" fill="#6D95FC"/>
<path d="M230.333 157.207H224.495L223.529 160H220.442L225.713 145.321H229.136L234.407 160H231.299L230.333 157.207ZM229.535 154.855L227.414 148.723L225.293 154.855H229.535Z" fill="#6D95FC"/>
<path d="M245.197 160L241.963 154.288H240.577V160H237.637V145.342H243.139C244.273 145.342 245.239 145.545 246.037 145.951C246.835 146.343 247.43 146.882 247.822 147.568C248.228 148.24 248.431 148.996 248.431 149.836C248.431 150.802 248.151 151.677 247.591 152.461C247.031 153.231 246.198 153.763 245.092 154.057L248.599 160H245.197ZM240.577 152.083H243.034C243.832 152.083 244.427 151.894 244.819 151.516C245.211 151.124 245.407 150.585 245.407 149.899C245.407 149.227 245.211 148.709 244.819 148.345C244.427 147.967 243.832 147.778 243.034 147.778H240.577V152.083Z" fill="#6D95FC"/>
<path d="M255.29 147.715V151.39H260.225V153.721H255.29V157.606H260.855V160H252.35V145.321H260.855V147.715H255.29Z" fill="#6D95FC"/>
<path d="M74.8405 177.342C76.3805 177.342 77.7315 177.643 78.8935 178.245C80.0695 178.847 80.9725 179.708 81.6025 180.828C82.2465 181.934 82.5685 183.222 82.5685 184.692C82.5685 186.162 82.2465 187.45 81.6025 188.556C80.9725 189.648 80.0695 190.495 78.8935 191.097C77.7315 191.699 76.3805 192 74.8405 192H69.7165V177.342H74.8405ZM74.7355 189.501C76.2755 189.501 77.4655 189.081 78.3055 188.241C79.1455 187.401 79.5655 186.218 79.5655 184.692C79.5655 183.166 79.1455 181.976 78.3055 181.122C77.4655 180.254 76.2755 179.82 74.7355 179.82H72.6565V189.501H74.7355Z" fill="#6D95FC"/>
<path d="M88.9693 179.715V183.39H93.9043V185.721H88.9693V189.606H94.5343V192H86.0293V177.321H94.5343V179.715H88.9693Z" fill="#6D95FC"/>
<path d="M111.633 177.342L106.257 192H102.687L97.311 177.342H100.461L104.493 188.997L108.504 177.342H111.633Z" fill="#6D95FC"/>
<path d="M117.596 179.715V183.39H122.531V185.721H117.596V189.606H123.161V192H114.656V177.321H123.161V179.715H117.596Z" fill="#6D95FC"/>
<path d="M130.032 189.669H134.862V192H127.092V177.342H130.032V189.669Z" fill="#6D95FC"/>
<path d="M144.795 192.147C143.423 192.147 142.163 191.825 141.015 191.181C139.867 190.537 138.957 189.648 138.285 188.514C137.613 187.366 137.277 186.071 137.277 184.629C137.277 183.201 137.613 181.92 138.285 180.786C138.957 179.638 139.867 178.742 141.015 178.098C142.163 177.454 143.423 177.132 144.795 177.132C146.181 177.132 147.441 177.454 148.575 178.098C149.723 178.742 150.626 179.638 151.284 180.786C151.956 181.92 152.292 183.201 152.292 184.629C152.292 186.071 151.956 187.366 151.284 188.514C150.626 189.648 149.723 190.537 148.575 191.181C147.427 191.825 146.167 192.147 144.795 192.147ZM144.795 189.522C145.677 189.522 146.454 189.326 147.126 188.934C147.798 188.528 148.323 187.954 148.701 187.212C149.079 186.47 149.268 185.609 149.268 184.629C149.268 183.649 149.079 182.795 148.701 182.067C148.323 181.325 147.798 180.758 147.126 180.366C146.454 179.974 145.677 179.778 144.795 179.778C143.913 179.778 143.129 179.974 142.443 180.366C141.771 180.758 141.246 181.325 140.868 182.067C140.49 182.795 140.301 183.649 140.301 184.629C140.301 185.609 140.49 186.47 140.868 187.212C141.246 187.954 141.771 188.528 142.443 188.934C143.129 189.326 143.913 189.522 144.795 189.522Z" fill="#6D95FC"/>
<path d="M166.428 181.878C166.428 182.662 166.239 183.397 165.861 184.083C165.497 184.769 164.916 185.322 164.118 185.742C163.334 186.162 162.34 186.372 161.136 186.372H158.679V192H155.739V177.342H161.136C162.27 177.342 163.236 177.538 164.034 177.93C164.832 178.322 165.427 178.861 165.819 179.547C166.225 180.233 166.428 181.01 166.428 181.878ZM161.01 183.999C161.822 183.999 162.424 183.817 162.816 183.453C163.208 183.075 163.404 182.55 163.404 181.878C163.404 180.45 162.606 179.736 161.01 179.736H158.679V183.999H161.01Z" fill="#6D95FC"/>
<path d="M185.757 177.342V192H182.817V182.466L178.89 192H176.664L172.716 182.466V192H169.776V177.342H173.115L177.777 188.241L182.439 177.342H185.757Z" fill="#6D95FC"/>
<path d="M192.863 179.715V183.39H197.798V185.721H192.863V189.606H198.428V192H189.923V177.321H198.428V179.715H192.863Z" fill="#6D95FC"/>
<path d="M214.897 192H211.957L205.3 181.941V192H202.36V177.321H205.3L211.957 187.401V177.321H214.897V192Z" fill="#6D95FC"/>
<path d="M229.038 177.342V179.715H225.132V192H222.192V179.715H218.286V177.342H229.038Z" fill="#6D95FC"/>
<defs>
<linearGradient id="paint0_linear_1674_2169" x1="-1040" y1="280" x2="224.5" y2="280" gradientUnits="userSpaceOnUse">
<stop stop-color="#6D95FC" stop-opacity="0.35"/>
<stop offset="1" stop-color="#151515" stop-opacity="0.31"/>
</linearGradient>
</defs>
</svg>
