<svg width="300" height="280" viewBox="0 0 300 280" fill="none" xmlns="http://www.w3.org/2000/svg">
<path d="M0 0H300V280H0V0Z" fill="url(#paint0_linear_1674_2171)"/>
<path d="M115.374 112.42H101.584C101.161 112.42 100.817 112.076 100.817 111.654V102.46C100.817 102.037 101.161 101.694 101.584 101.694C102.006 101.694 102.35 102.037 102.35 102.46V110.888H115.374C115.797 110.888 116.14 111.231 116.14 111.654C116.14 112.076 115.797 112.42 115.374 112.42Z" fill="#6D95FC"/>
<path d="M175.131 112.42H135.292C134.869 112.42 134.525 112.076 134.525 111.654C134.525 111.231 134.869 110.888 135.292 110.888H174.364V72.5809H136.822C136.399 72.5809 136.056 72.2375 136.056 71.8147C136.056 71.392 136.399 71.0486 136.822 71.0486H175.129C175.552 71.0486 175.895 71.392 175.895 71.8147V111.654C175.895 112.076 175.552 112.42 175.129 112.42H175.131Z" fill="white"/>
<path d="M126.098 136.936C126.045 136.936 125.988 136.93 125.933 136.918C125.519 136.826 125.26 136.417 125.35 136.003L128.415 122.213C128.507 121.8 128.912 121.543 129.33 121.63C129.743 121.722 130.002 122.131 129.912 122.545L126.847 136.335C126.768 136.693 126.449 136.936 126.098 136.936Z" fill="white"/>
<path d="M150.614 136.936C150.263 136.936 149.945 136.693 149.867 136.336L146.802 122.545C146.71 122.131 146.97 121.722 147.384 121.631C147.803 121.543 148.207 121.801 148.299 122.213L151.363 136.003C151.455 136.417 151.195 136.826 150.781 136.918C150.724 136.93 150.668 136.936 150.614 136.936Z" fill="white"/>
<path d="M159.808 123.146H101.159C98.4348 123.146 96.2192 120.899 96.2192 118.137V102.46C96.2192 102.037 96.5626 101.694 96.9854 101.694C97.4081 101.694 97.7515 102.037 97.7515 102.46V118.137C97.7515 120.054 99.279 121.613 101.159 121.613H159.808C160.23 121.613 160.574 121.957 160.574 122.38C160.574 122.802 160.23 123.146 159.808 123.146Z" fill="white"/>
<path d="M175.554 123.146H172.067C171.644 123.146 171.301 122.802 171.301 122.38C171.301 121.957 171.644 121.613 172.067 121.613H175.554C177.435 121.613 178.962 120.054 178.962 118.137V71.461C178.962 69.5436 177.435 67.9841 175.554 67.9841H136.826C136.403 67.9841 136.06 67.6407 136.06 67.2179C136.06 66.7952 136.403 66.4518 136.826 66.4518H175.554C178.279 66.4518 180.495 68.6982 180.495 71.461V118.137C180.495 120.899 178.279 123.145 175.554 123.145V123.146Z" fill="white"/>
<path d="M168.236 140.001H163.639C161.105 140.001 159.042 137.938 159.042 135.404V121.613C159.042 119.079 161.105 117.017 163.639 117.017H168.236C170.771 117.017 172.833 119.079 172.833 121.613V135.404C172.833 137.938 170.771 140.001 168.236 140.001ZM163.639 118.549C161.949 118.549 160.575 119.923 160.575 121.613V135.404C160.575 137.094 161.949 138.468 163.639 138.468H168.236C169.926 138.468 171.301 137.094 171.301 135.404V121.613C171.301 119.923 169.926 118.549 168.236 118.549H163.639Z" fill="white"/>
<path d="M165.937 126.21C165.514 126.21 165.171 125.867 165.171 125.444V122.38C165.171 121.957 165.514 121.613 165.937 121.613C166.36 121.613 166.703 121.957 166.703 122.38V125.444C166.703 125.867 166.36 126.21 165.937 126.21Z" fill="white"/>
<path d="M153.679 140.001H123.033C121.766 140.001 120.735 138.969 120.735 137.702C120.735 136.435 121.766 135.404 123.033 135.404H153.679C154.946 135.404 155.977 136.435 155.977 137.702C155.977 138.969 154.946 140.001 153.679 140.001ZM123.033 136.936C122.612 136.936 122.267 137.28 122.267 137.702C122.267 138.125 122.612 138.468 123.033 138.468H153.679C154.1 138.468 154.445 138.125 154.445 137.702C154.445 137.28 154.1 136.936 153.679 136.936H123.033Z" fill="white"/>
<path d="M136.826 103.226H86.2608C85.838 103.226 85.4946 102.883 85.4946 102.46V45.7661C85.4946 45.3434 85.838 45 86.2608 45H136.826C137.248 45 137.592 45.3434 137.592 45.7661V102.46C137.592 102.883 137.248 103.226 136.826 103.226ZM87.026 101.694H136.059V46.5323H87.026V101.694Z" fill="white"/>
<path d="M172.066 63.3873H147.55C147.127 63.3873 146.784 63.0439 146.784 62.6211V48.8307C146.784 48.408 147.127 48.0646 147.55 48.0646H172.066C172.489 48.0646 172.832 48.408 172.832 48.8307V62.6211C172.832 63.0439 172.489 63.3873 172.066 63.3873ZM148.317 61.855H171.301V49.5968H148.317V61.855Z" fill="white"/>
<path d="M170.536 83.3067H141.422C141 83.3067 140.656 82.9633 140.656 82.5406V76.4115C140.656 75.9888 141 75.6454 141.422 75.6454H170.536C170.958 75.6454 171.302 75.9888 171.302 76.4115V82.5406C171.302 82.9633 170.958 83.3067 170.536 83.3067ZM142.188 81.7745H169.768V77.1777H142.188V81.7745Z" fill="#6D95FC"/>
<path d="M150.615 98.6295H141.421C140.998 98.6295 140.655 98.2861 140.655 97.8634V91.7343C140.655 91.3115 140.998 90.9681 141.421 90.9681H150.615C151.037 90.9681 151.381 91.3115 151.381 91.7343V97.8634C151.381 98.2861 151.037 98.6295 150.615 98.6295ZM142.187 97.0972H149.848V92.5004H142.187V97.0972Z" fill="#6D95FC"/>
<path d="M170.536 98.6295H155.213C154.79 98.6295 154.447 98.2861 154.447 97.8634V91.7343C154.447 91.3115 154.79 90.9681 155.213 90.9681H170.536C170.958 90.9681 171.302 91.3115 171.302 91.7343V97.8634C171.302 98.2861 170.958 98.6295 170.536 98.6295ZM155.979 97.0972H169.769V92.5004H155.979V97.0972Z" fill="#6D95FC"/>
<path d="M170.536 107.823H106.18C105.757 107.823 105.414 107.48 105.414 107.057C105.414 106.634 105.757 106.291 106.18 106.291H170.536C170.958 106.291 171.302 106.634 171.302 107.057C171.302 107.48 170.958 107.823 170.536 107.823Z" fill="#6D95FC"/>
<path d="M170.536 103.226H141.422C141 103.226 140.656 102.883 140.656 102.46C140.656 102.037 141 101.694 141.422 101.694H170.536C170.958 101.694 171.302 102.037 171.302 102.46C171.302 102.883 170.958 103.226 170.536 103.226Z" fill="#6D95FC"/>
<path d="M170.536 87.9035H141.422C141 87.9035 140.656 87.5601 140.656 87.1374C140.656 86.7146 141 86.3712 141.422 86.3712H170.536C170.958 86.3712 171.302 86.7146 171.302 87.1374C171.302 87.5601 170.958 87.9035 170.536 87.9035Z" fill="#6D95FC"/>
<path d="M95.4527 58.7904C93.3398 58.7904 91.6221 57.0714 91.6221 54.9597C91.6221 52.848 93.3397 51.129 95.4527 51.129C97.5658 51.129 99.2834 52.848 99.2834 54.9597C99.2834 57.0714 97.5658 58.7904 95.4527 58.7904ZM95.4527 52.6613C94.1859 52.6613 93.1543 53.6928 93.1543 54.9597C93.1543 56.2266 94.1859 57.2581 95.4527 57.2581C96.7196 57.2581 97.7511 56.2266 97.7511 54.9597C97.7511 53.6928 96.7196 52.6613 95.4527 52.6613Z" fill="#6D95FC"/>
<path d="M98.5173 63.3872H92.3882C91.9655 63.3872 91.6221 63.0439 91.6221 62.6211C91.6221 62.1984 91.9655 61.855 92.3882 61.855H98.5173C98.94 61.855 99.2834 62.1984 99.2834 62.6211C99.2834 63.0439 98.94 63.3872 98.5173 63.3872Z" fill="#6D95FC"/>
<path d="M115.374 63.3872H107.712C107.29 63.3872 106.946 63.0439 106.946 62.6211C106.946 62.1984 107.29 61.855 107.712 61.855H115.374C115.797 61.855 116.14 62.1984 116.14 62.6211C116.14 63.0439 115.797 63.3872 115.374 63.3872Z" fill="#6D95FC"/>
<path d="M127.632 58.7904C125.519 58.7904 123.801 57.0714 123.801 54.9597C123.801 52.848 125.519 51.129 127.632 51.129C129.745 51.129 131.463 52.848 131.463 54.9597C131.463 57.0714 129.745 58.7904 127.632 58.7904ZM127.632 52.6613C126.365 52.6613 125.334 53.6928 125.334 54.9597C125.334 56.2266 126.365 57.2581 127.632 57.2581C128.899 57.2581 129.93 56.2266 129.93 54.9597C129.93 53.6928 128.899 52.6613 127.632 52.6613Z" fill="#6D95FC"/>
<path d="M130.696 63.3872H124.567C124.145 63.3872 123.801 63.0439 123.801 62.6211C123.801 62.1984 124.145 61.855 124.567 61.855H130.696C131.119 61.855 131.463 62.1984 131.463 62.6211C131.463 63.0439 131.119 63.3872 130.696 63.3872Z" fill="#6D95FC"/>
<path d="M115.374 58.7904H107.712C107.29 58.7904 106.946 58.447 106.946 58.0242V51.8952C106.946 51.4724 107.29 51.129 107.712 51.129H115.374C115.797 51.129 116.14 51.4724 116.14 51.8952V58.0242C116.14 58.447 115.797 58.7904 115.374 58.7904ZM108.479 57.2581H114.608V52.6613H108.479V57.2581Z" fill="#6D95FC"/>
<path d="M130.696 78.7099H92.3897C91.9669 78.7099 91.6235 78.3665 91.6235 77.9437C91.6235 77.521 91.9669 77.1776 92.3897 77.1776H130.696C131.119 77.1776 131.463 77.521 131.463 77.9437C131.463 78.3665 131.119 78.7099 130.696 78.7099Z" fill="#6D95FC"/>
<path d="M130.696 97.0972H92.3897C91.9669 97.0972 91.6235 96.7538 91.6235 96.3311C91.6235 95.9083 91.9669 95.5649 92.3897 95.5649H130.696C131.119 95.5649 131.463 95.9083 131.463 96.3311C131.463 96.7538 131.119 97.0972 130.696 97.0972Z" fill="#6D95FC"/>
<path d="M164.406 54.1936H161.342C160.919 54.1936 160.576 53.8503 160.576 53.4275C160.576 53.0048 160.919 52.6614 161.342 52.6614H164.406C164.829 52.6614 165.172 53.0048 165.172 53.4275C165.172 53.8503 164.829 54.1936 164.406 54.1936Z" fill="white"/>
<path d="M167.471 58.7904H161.342C160.919 58.7904 160.576 58.4471 160.576 58.0243C160.576 57.6016 160.919 57.2582 161.342 57.2582H167.471C167.894 57.2582 168.237 57.6016 168.237 58.0243C168.237 58.4471 167.894 58.7904 167.471 58.7904Z" fill="white"/>
<path d="M158.278 58.7905H152.148C151.726 58.7905 151.382 58.4471 151.382 58.0243V53.4275C151.382 53.0048 151.726 52.6614 152.148 52.6614H158.278C158.7 52.6614 159.044 53.0048 159.044 53.4275V58.0243C159.044 58.4471 158.7 58.7905 158.278 58.7905ZM152.915 57.2582H157.511V54.1936H152.915V57.2582Z" fill="white"/>
<path d="M127.632 112.42H119.971C119.548 112.42 119.205 112.076 119.205 111.654C119.205 111.231 119.548 110.888 119.971 110.888H127.632C128.055 110.888 128.398 111.231 128.398 111.654C128.398 112.076 128.055 112.42 127.632 112.42Z" fill="#6D95FC"/>
<path d="M95.7235 166.193C97.2635 166.193 98.6145 166.494 99.7765 167.096C100.952 167.698 101.855 168.559 102.485 169.679C103.129 170.785 103.451 172.073 103.451 173.543C103.451 175.013 103.129 176.301 102.485 177.407C101.855 178.499 100.952 179.346 99.7765 179.948C98.6145 180.55 97.2635 180.851 95.7235 180.851H90.5995V166.193H95.7235ZM95.6185 178.352C97.1585 178.352 98.3485 177.932 99.1885 177.092C100.028 176.252 100.448 175.069 100.448 173.543C100.448 172.017 100.028 170.827 99.1885 169.973C98.3485 169.105 97.1585 168.671 95.6185 168.671H93.5395V178.352H95.6185Z" fill="#6D95FC"/>
<path d="M109.852 166.193V180.851H106.912V166.193H109.852Z" fill="#6D95FC"/>
<path d="M124.223 170.603C123.887 169.987 123.425 169.518 122.837 169.196C122.249 168.874 121.563 168.713 120.779 168.713C119.911 168.713 119.141 168.909 118.469 169.301C117.797 169.693 117.272 170.253 116.894 170.981C116.516 171.709 116.327 172.549 116.327 173.501C116.327 174.481 116.516 175.335 116.894 176.063C117.286 176.791 117.825 177.351 118.511 177.743C119.197 178.135 119.995 178.331 120.905 178.331C122.025 178.331 122.942 178.037 123.656 177.449C124.37 176.847 124.839 176.014 125.063 174.95H120.023V172.703H127.961V175.265C127.765 176.287 127.345 177.232 126.701 178.1C126.057 178.968 125.224 179.668 124.202 180.2C123.194 180.718 122.06 180.977 120.8 180.977C119.386 180.977 118.105 180.662 116.957 180.032C115.823 179.388 114.927 178.499 114.269 177.365C113.625 176.231 113.303 174.943 113.303 173.501C113.303 172.059 113.625 170.771 114.269 169.637C114.927 168.489 115.823 167.6 116.957 166.97C118.105 166.326 119.379 166.004 120.779 166.004C122.431 166.004 123.866 166.41 125.084 167.222C126.302 168.02 127.142 169.147 127.604 170.603H124.223Z" fill="#6D95FC"/>
<path d="M134.336 166.193V180.851H131.396V166.193H134.336Z" fill="#6D95FC"/>
<path d="M148.476 166.193V168.566H144.57V180.851H141.63V168.566H137.724V166.193H148.476Z" fill="#6D95FC"/>
<path d="M160.869 178.058H155.031L154.065 180.851H150.978L156.249 166.172H159.672L164.943 180.851H161.835L160.869 178.058ZM160.071 175.706L157.95 169.574L155.829 175.706H160.071Z" fill="#6D95FC"/>
<path d="M171.113 178.52H175.943V180.851H168.173V166.193H171.113V178.52Z" fill="#6D95FC"/>
<path d="M39.752 198.193V200.566H35.846V212.851H32.906V200.566H29V198.193H39.752Z" fill="#6D95FC"/>
<path d="M50.7171 212.851L47.4831 207.139H46.0971V212.851H43.1571V198.193H48.6591C49.7931 198.193 50.7591 198.396 51.5571 198.802C52.3551 199.194 52.9501 199.733 53.3421 200.419C53.7481 201.091 53.9511 201.847 53.9511 202.687C53.9511 203.653 53.6711 204.528 53.1111 205.312C52.5511 206.082 51.7181 206.614 50.6121 206.908L54.1191 212.851H50.7171ZM46.0971 204.934H48.5541C49.3521 204.934 49.9471 204.745 50.3391 204.367C50.7311 203.975 50.9271 203.436 50.9271 202.75C50.9271 202.078 50.7311 201.56 50.3391 201.196C49.9471 200.818 49.3521 200.629 48.5541 200.629H46.0971V204.934Z" fill="#6D95FC"/>
<path d="M66.8582 210.058H61.0202L60.0542 212.851H56.9672L62.2382 198.172H65.6612L70.9322 212.851H67.8242L66.8582 210.058ZM66.0602 207.706L63.9392 201.574L61.8182 207.706H66.0602Z" fill="#6D95FC"/>
<path d="M86.6995 212.851H83.7595L77.1025 202.792V212.851H74.1625V198.172H77.1025L83.7595 208.252V198.172H86.6995V212.851Z" fill="#6D95FC"/>
<path d="M95.9259 212.998C94.9039 212.998 93.9799 212.823 93.1539 212.473C92.3419 212.123 91.6979 211.619 91.2219 210.961C90.7459 210.303 90.5009 209.526 90.4869 208.63H93.6369C93.6789 209.232 93.8889 209.708 94.2669 210.058C94.6589 210.408 95.1909 210.583 95.8629 210.583C96.5489 210.583 97.0879 210.422 97.4799 210.1C97.8719 209.764 98.0679 209.33 98.0679 208.798C98.0679 208.364 97.9349 208.007 97.6689 207.727C97.4029 207.447 97.0669 207.23 96.6609 207.076C96.2689 206.908 95.7229 206.726 95.0229 206.53C94.0709 206.25 93.2939 205.977 92.6919 205.711C92.1039 205.431 91.5929 205.018 91.1589 204.472C90.7389 203.912 90.5289 203.17 90.5289 202.246C90.5289 201.378 90.7459 200.622 91.1799 199.978C91.6139 199.334 92.2229 198.844 93.0069 198.508C93.7909 198.158 94.6869 197.983 95.6949 197.983C97.2069 197.983 98.4319 198.354 99.3699 199.096C100.322 199.824 100.847 200.846 100.945 202.162H97.7109C97.6829 201.658 97.4659 201.245 97.0599 200.923C96.6679 200.587 96.1429 200.419 95.4849 200.419C94.9109 200.419 94.4489 200.566 94.0989 200.86C93.7629 201.154 93.5949 201.581 93.5949 202.141C93.5949 202.533 93.7209 202.862 93.9729 203.128C94.2389 203.38 94.5609 203.59 94.9389 203.758C95.3309 203.912 95.8769 204.094 96.5769 204.304C97.5289 204.584 98.3059 204.864 98.9079 205.144C99.5099 205.424 100.028 205.844 100.462 206.404C100.896 206.964 101.113 207.699 101.113 208.609C101.113 209.393 100.91 210.121 100.504 210.793C100.098 211.465 99.5029 212.004 98.7189 212.41C97.9349 212.802 97.0039 212.998 95.9259 212.998Z" fill="#6D95FC"/>
<path d="M113.973 198.193V200.566H107.862V204.325H112.545V206.656H107.862V212.851H104.922V198.193H113.973Z" fill="#6D95FC"/>
<path d="M124.121 212.998C122.749 212.998 121.489 212.676 120.341 212.032C119.193 211.388 118.283 210.499 117.611 209.365C116.939 208.217 116.603 206.922 116.603 205.48C116.603 204.052 116.939 202.771 117.611 201.637C118.283 200.489 119.193 199.593 120.341 198.949C121.489 198.305 122.749 197.983 124.121 197.983C125.507 197.983 126.767 198.305 127.901 198.949C129.049 199.593 129.952 200.489 130.61 201.637C131.282 202.771 131.618 204.052 131.618 205.48C131.618 206.922 131.282 208.217 130.61 209.365C129.952 210.499 129.049 211.388 127.901 212.032C126.753 212.676 125.493 212.998 124.121 212.998ZM124.121 210.373C125.003 210.373 125.78 210.177 126.452 209.785C127.124 209.379 127.649 208.805 128.027 208.063C128.405 207.321 128.594 206.46 128.594 205.48C128.594 204.5 128.405 203.646 128.027 202.918C127.649 202.176 127.124 201.609 126.452 201.217C125.78 200.825 125.003 200.629 124.121 200.629C123.239 200.629 122.455 200.825 121.769 201.217C121.097 201.609 120.572 202.176 120.194 202.918C119.816 203.646 119.627 204.5 119.627 205.48C119.627 206.46 119.816 207.321 120.194 208.063C120.572 208.805 121.097 209.379 121.769 209.785C122.455 210.177 123.239 210.373 124.121 210.373Z" fill="#6D95FC"/>
<path d="M142.626 212.851L139.392 207.139H138.006V212.851H135.066V198.193H140.568C141.702 198.193 142.668 198.396 143.466 198.802C144.264 199.194 144.859 199.733 145.251 200.419C145.657 201.091 145.86 201.847 145.86 202.687C145.86 203.653 145.58 204.528 145.02 205.312C144.46 206.082 143.627 206.614 142.521 206.908L146.028 212.851H142.626ZM138.006 204.934H140.463C141.261 204.934 141.856 204.745 142.248 204.367C142.64 203.975 142.836 203.436 142.836 202.75C142.836 202.078 142.64 201.56 142.248 201.196C141.856 200.818 141.261 200.629 140.463 200.629H138.006V204.934Z" fill="#6D95FC"/>
<path d="M165.76 198.193V212.851H162.82V203.317L158.893 212.851H156.667L152.719 203.317V212.851H149.779V198.193H153.118L157.78 209.092L162.442 198.193H165.76Z" fill="#6D95FC"/>
<path d="M178.915 210.058H173.077L172.111 212.851H169.024L174.295 198.172H177.718L182.989 212.851H179.881L178.915 210.058ZM178.117 207.706L175.996 201.574L173.875 207.706H178.117Z" fill="#6D95FC"/>
<path d="M196.194 198.193V200.566H192.288V212.851H189.348V200.566H185.442V198.193H196.194Z" fill="#6D95FC"/>
<path d="M202.539 198.193V212.851H199.599V198.193H202.539Z" fill="#6D95FC"/>
<path d="M213.508 212.998C212.136 212.998 210.876 212.676 209.728 212.032C208.58 211.388 207.67 210.499 206.998 209.365C206.326 208.217 205.99 206.922 205.99 205.48C205.99 204.052 206.326 202.771 206.998 201.637C207.67 200.489 208.58 199.593 209.728 198.949C210.876 198.305 212.136 197.983 213.508 197.983C214.894 197.983 216.154 198.305 217.288 198.949C218.436 199.593 219.339 200.489 219.997 201.637C220.669 202.771 221.005 204.052 221.005 205.48C221.005 206.922 220.669 208.217 219.997 209.365C219.339 210.499 218.436 211.388 217.288 212.032C216.14 212.676 214.88 212.998 213.508 212.998ZM213.508 210.373C214.39 210.373 215.167 210.177 215.839 209.785C216.511 209.379 217.036 208.805 217.414 208.063C217.792 207.321 217.981 206.46 217.981 205.48C217.981 204.5 217.792 203.646 217.414 202.918C217.036 202.176 216.511 201.609 215.839 201.217C215.167 200.825 214.39 200.629 213.508 200.629C212.626 200.629 211.842 200.825 211.156 201.217C210.484 201.609 209.959 202.176 209.581 202.918C209.203 203.646 209.014 204.5 209.014 205.48C209.014 206.46 209.203 207.321 209.581 208.063C209.959 208.805 210.484 209.379 211.156 209.785C211.842 210.177 212.626 210.373 213.508 210.373Z" fill="#6D95FC"/>
<path d="M236.989 212.851H234.049L227.392 202.792V212.851H224.452V198.172H227.392L234.049 208.252V198.172H236.989V212.851Z" fill="#6D95FC"/>
<defs>
<linearGradient id="paint0_linear_1674_2171" x1="150" y1="811.5" x2="178.5" y2="90" gradientUnits="userSpaceOnUse">
<stop stop-color="#6D95FC" stop-opacity="0.55"/>
<stop offset="1" stop-color="#6D95FC" stop-opacity="0"/>
</linearGradient>
</defs>
</svg>
