<svg width="1920" height="832" viewBox="0 0 1920 832" fill="none" xmlns="http://www.w3.org/2000/svg">
<path d="M8.995 806.763C380.336 644.308 507.055 465.152 552.979 329.239C604.228 177.555 577.798 11.7709 633.121 1.47558C668.545 -5.11917 712.134 56.7864 793.399 192.491C1039.84 603.998 1045.42 713.279 1150.41 741.642C1297.49 781.403 1388.16 594.346 1614.25 598.378C1780.3 601.346 1914.67 705.497 2005.23 798.075" stroke="#4A3AFF" stroke-opacity="0.7" stroke-width="2" stroke-miterlimit="10"/>
<path d="M0.0761719 790.431C360.961 631.474 494.959 457.329 544.525 329.951C599.915 187.603 573.756 30.3828 628.503 22.947C663.7 18.163 706.47 79.0097 784.968 210.064C1023.53 608.276 1030.93 718.917 1135.11 745.88C1283.05 783.628 1369.77 583.04 1598.25 580.309C1603.23 580.25 1608.13 580.25 1613.04 580.368C1775.15 584.4 1911.44 688.6 2003.94 780.61" stroke="#4A3AFF" stroke-opacity="0.7" stroke-width="2" stroke-miterlimit="10"/>
<path d="M-8.80615 774.098C341.595 618.654 482.767 449.818 536.102 330.672C595.549 197.867 569.761 49.0129 623.916 44.4268C658.897 41.4584 700.853 101.251 776.561 227.65C1007.2 612.549 1016.37 724.908 1119.87 750.119C1268.52 786.333 1351.46 571.635 1582.3 562.235C1587.36 562.028 1592.41 561.82 1597.46 561.845C1762.25 562.656 1905.62 669.008 2002.68 763.14" stroke="#4A3AFF" stroke-opacity="0.7" stroke-width="2" stroke-miterlimit="10"/>
<path d="M-17.7168 757.772C322.251 605.796 470.375 442.673 527.657 331.398C590.994 208.354 565.766 67.6624 619.3 65.916C654.083 64.7781 695.175 123.493 768.132 245.236C990.868 616.868 1001.86 730.705 1104.6 754.363C1254.04 788.777 1333.17 560.152 1566.32 544.167C1571.5 543.811 1576.67 543.469 1581.82 543.321C1749.28 538.542 1899.74 649.416 2001.38 745.666" stroke="#4A3AFF" stroke-opacity="0.7" stroke-width="2" stroke-miterlimit="10"/>
<path d="M-26.6235 741.437C302.889 592.973 457.737 435.901 519.209 332.116C586.183 219.046 561.796 86.3244 614.694 87.398C649.283 88.0955 689.523 145.732 759.713 262.819C974.544 621.158 987.358 736.479 1089.33 758.594C1239.61 791.187 1314.89 548.576 1550.36 526.071C1555.64 525.576 1560.93 525.081 1566.24 524.774C1736.35 515.661 1893.92 629.806 2000.13 728.193" stroke="#4A3AFF" stroke-opacity="0.7" stroke-width="2" stroke-miterlimit="10"/>
<path d="M-35.5261 725.109C283.536 580.154 444.783 429.548 510.783 332.848C581.011 229.944 557.831 105.01 610.104 108.884C644.509 111.437 683.88 167.975 751.303 280.412C958.241 625.456 972.882 742.242 1074.08 762.837C1225.19 793.585 1296.64 536.929 1534.4 508.017C1539.8 507.359 1545.21 506.691 1550.65 506.266C1723.42 492.859 1888.11 610.228 1998.87 710.742" stroke="#4A3AFF" stroke-opacity="0.7" stroke-width="2" stroke-miterlimit="10"/>
<path d="M-44.4246 708.778C264.176 567.315 431.407 423.596 502.333 333.57C575.301 240.947 553.897 123.716 605.489 130.37C639.724 134.783 678.22 190.232 742.869 297.994C941.91 629.745 958.393 747.985 1058.8 767.072C1210.77 795.959 1278.37 525.209 1518.42 489.944C1523.96 489.133 1529.46 488.302 1535.03 487.743C1710.43 470.071 1882.25 590.646 1997.58 693.273" stroke="#4A3AFF" stroke-opacity="0.7" stroke-width="2" stroke-miterlimit="10"/>
<path d="M-53.3354 692.443C244.81 554.477 401.092 403.521 493.887 334.288C550.09 240.75 549.951 142.442 600.879 151.847C634.942 158.14 672.564 212.451 734.445 315.602C925.582 634.06 943.908 753.73 1043.53 771.332C1196.35 798.329 1260.1 513.44 1502.44 471.892C1508.08 470.927 1513.72 469.938 1519.43 469.235C1697.48 447.344 1876.44 571.061 1996.32 675.825" stroke="#4A3AFF" stroke-opacity="0.7" stroke-width="2" stroke-miterlimit="10"/>
<path d="M-62.2419 676.116C225.453 541.648 385.958 394.714 485.445 335.015C542.357 249.782 546.01 161.201 596.273 173.337C630.17 181.519 666.906 234.683 726.02 333.169C909.23 638.334 929.439 759.419 1028.27 775.552C1181.95 800.635 1241.83 501.565 1486.47 453.799C1492.22 452.676 1497.98 451.528 1503.82 450.687C1684.53 424.61 1870.57 551.449 1995.05 658.336" stroke="#4A3AFF" stroke-opacity="0.7" stroke-width="2" stroke-miterlimit="10"/>
<path d="M-71.1445 659.781C206.095 528.812 370.823 385.909 477.002 335.733C534.622 258.803 542.072 179.973 591.672 194.815C625.397 204.902 661.258 256.923 717.6 350.748C892.939 642.639 914.979 765.1 1013.01 779.778C1167.56 802.927 1223.55 489.649 1470.51 435.713C1476.37 434.437 1482.24 433.136 1488.22 432.151C1671.58 401.913 1864.74 531.844 1993.78 640.858" stroke="#4A3AFF" stroke-opacity="0.7" stroke-width="2" stroke-miterlimit="10"/>
<path d="M-80.0513 643.455C186.738 515.983 355.684 377.107 468.555 336.465C526.883 267.841 538.119 198.782 587.055 216.305C620.608 228.317 655.601 279.175 709.174 368.325C876.609 646.908 900.515 770.764 997.738 784.012C1153.16 805.192 1205.24 477.681 1454.53 417.635C1460.51 416.196 1466.5 414.751 1472.61 413.618C1658.63 379.249 1858.89 512.247 1992.5 623.384" stroke="#4A3AFF" stroke-opacity="0.7" stroke-width="2" stroke-miterlimit="10"/>
<path d="M-88.958 627.118C167.364 503.154 340.562 368.3 460.118 337.207C519.155 276.889 534.166 217.616 582.443 237.811C615.814 251.762 649.943 301.433 700.743 385.947C860.28 651.236 886.051 776.447 982.477 788.281C1138.79 807.472 1186.93 465.718 1438.57 399.597C1444.65 397.999 1450.74 396.401 1457 395.145C1645.7 356.664 1853.05 492.7 1991.22 605.964" stroke="#4A3AFF" stroke-opacity="0.7" stroke-width="2" stroke-miterlimit="10"/>
<path d="M-97.8604 610.784C148.012 490.317 325.41 359.491 451.676 337.906C511.421 285.895 530.19 236.432 577.847 259.269C611.024 275.169 644.295 323.653 692.328 403.512C843.989 655.508 871.608 782.06 967.21 792.499C1124.4 809.661 1168.58 453.633 1422.6 381.502C1428.79 379.74 1435.03 377.999 1441.42 376.579C1632.79 334.032 1847.23 473.051 1989.97 588.462" stroke="#4A3AFF" stroke-opacity="0.7" stroke-width="2" stroke-miterlimit="10"/>
<path d="M-106.747 594.451C128.653 477.482 310.275 350.688 443.237 338.636C503.686 294.932 526.202 255.279 573.244 280.753C606.222 298.613 638.647 345.889 683.912 421.093C827.652 659.8 857.159 787.687 951.947 796.736C1110.04 811.845 1150.22 441.52 1406.63 363.427C1412.94 361.503 1419.29 359.613 1425.8 358.049C1619.86 311.426 1841.38 453.473 1988.72 570.991" stroke="#4A3AFF" stroke-opacity="0.7" stroke-width="2" stroke-miterlimit="10"/>
<path d="M-115.662 578.127C109.294 464.655 295.144 341.888 434.799 339.36C495.955 303.962 522.202 274.14 568.642 302.255C601.403 322.079 632.997 368.143 675.468 438.697C811.309 664.111 842.687 793.29 936.661 800.988C1095.64 814.014 1131.81 429.445 1390.64 345.366C1397.06 343.283 1403.54 341.25 1410.17 339.538C1606.94 288.868 1835.52 433.898 1987.4 553.539" stroke="#4A3AFF" stroke-opacity="0.7" stroke-width="2" stroke-miterlimit="10"/>
<path d="M-124.568 561.79C89.9315 451.816 280.005 333.076 426.352 340.077C488.222 312.985 518.178 292.998 564.036 323.721C596.571 345.519 627.34 390.371 667.071 456.269C795.008 668.384 828.257 798.855 921.423 805.212C1081.3 816.121 1113.42 417.264 1374.69 327.303C1381.22 325.057 1387.82 322.88 1394.62 321.025C1594.06 266.298 1829.7 414.286 1986.14 536.034" stroke="#4A3AFF" stroke-opacity="0.7" stroke-width="2" stroke-miterlimit="10"/>
<path d="M-133.475 545.46C70.5746 438.989 264.866 324.291 417.91 340.8C480.456 322 514.136 311.873 559.43 345.208C591.721 368.98 621.688 412.61 658.645 473.838C778.684 672.66 813.804 804.401 906.156 809.427C1066.92 818.184 1094.98 405.066 1358.72 309.187C1365.37 306.773 1372.08 304.457 1378.99 302.454C1581.18 243.759 1823.88 394.696 1984.87 518.586" stroke="#4A3AFF" stroke-opacity="0.7" stroke-width="2" stroke-miterlimit="10"/>
<path d="M-142.382 529.108C51.2122 426.135 249.727 315.449 409.462 341.506C472.745 331.023 510.078 330.721 554.813 366.668C586.861 392.394 616.03 434.827 650.215 491.419C762.355 676.943 799.345 809.946 890.884 813.667C1052.55 820.257 1076.52 392.879 1342.75 291.143C1349.5 288.56 1356.35 286.106 1363.38 283.954C1568.31 221.237 1818.02 375.108 1983.6 501.141" stroke="#4A3AFF" stroke-opacity="0.7" stroke-width="2" stroke-miterlimit="10"/>
<path d="M-151.28 512.783C31.8525 413.343 232.492 368.782 401.029 342.25C464.095 332.321 506.018 349.616 550.215 388.176C582.003 415.88 610.386 457.091 641.803 509.028C746.039 681.268 784.895 815.498 875.626 817.927C1038.17 822.276 1058.04 380.651 1326.79 273.057C1333.64 270.316 1340.63 267.719 1347.78 265.418C1555.45 198.714 1812.17 355.509 1982.33 483.649" stroke="#4A3AFF" stroke-opacity="0.7" stroke-width="2" stroke-miterlimit="10"/>
<path d="M-160.183 496.458C12.5108 400.48 215.647 311.785 392.591 342.963C456.421 354.213 501.936 368.476 545.613 409.652C577.13 439.336 604.733 479.32 633.382 526.606C729.725 685.553 770.436 821 860.364 822.153C1023.78 824.25 1039.54 368.397 1310.82 254.975C1317.79 252.066 1324.89 249.345 1332.18 246.886C1542.75 176.58 1806.35 335.913 1981.08 466.18" stroke="#4A3AFF" stroke-opacity="0.7" stroke-width="2" stroke-miterlimit="10"/>
<path d="M-169.093 480.13C-6.86662 387.65 201.871 295.972 384.146 343.688C448.8 360.618 497.835 387.348 541.003 431.137C572.238 462.799 599.077 501.566 624.953 544.192C713.398 689.85 755.968 826.846 845.093 826.396C1009.38 825.564 1020.81 355.789 1294.84 236.906C1301.91 233.819 1309.15 230.971 1316.56 228.362C1529.84 153.9 1800.5 316.315 1979.78 448.704" stroke="#4A3AFF" stroke-opacity="0.7" stroke-width="2" stroke-miterlimit="10"/>
<path d="M-178 463.805C-26.229 374.827 189.178 280.26 375.698 344.421C656.879 441.161 681.205 832.913 829.832 830.637C999.26 828.045 1002.72 318.399 1300.96 209.84C1516.93 131.227 1794.68 296.724 1978.51 431.246" stroke="#4A3AFF" stroke-opacity="0.7" stroke-width="2" stroke-miterlimit="10"/>
</svg>
