<svg width="799" height="666" viewBox="0 0 799 666" fill="none" xmlns="http://www.w3.org/2000/svg">
<path d="M1.89868 275.483L10.4422 256.477L26.58 275.483L34.1742 263.129L45.5656 275.483L56.9569 263.129L74.9933 275.483H98.7253L130.052 209.91L153.784 79.7152L169.921 184.252L195.552 197.556L211.69 184.252L231.625 205.159L255.357 197.556L271.494 142.437L283.835 160.493L305.668 36L316.11 66.4106L342.69 87.3178L358.828 71.1622L368.321 44.553L379.712 71.1622L403.444 87.3178L429.075 175.699L447.111 101.573L467.995 79.7152L489.829 101.573L505.966 66.4106L516.409 87.3178L544.887 107.275L577.163 101.573L600.894 71.1622L635.069 184.252L658.801 197.556L678.735 160.493L690.127 184.252L714.808 197.556L725.25 231.768L740.439 189.953L766.069 160.493L781.258 197.556L795.497 142.437" stroke="white" stroke-width="3.09712"/>
<path d="M11.3914 261.228L0 284.036L798.345 285.937V143.387L782.207 206.109L765.12 166.195L743.286 190.904L725.25 238.42L712.91 199.457L688.228 186.152L678.735 166.195L659.75 200.407L632.221 186.152L599.945 76.8641L579.061 103.473L543.938 110.126L514.51 89.2184L505.966 73.0628L490.778 106.324L467.995 83.5165L449.959 102.523L430.024 184.251L400.596 89.2184L377.814 73.0628L368.321 52.1556L361.676 72.1125L342.69 91.1191L314.212 68.3112L306.618 47.4039L285.733 167.146L272.443 149.089L257.255 199.457L230.675 208.01L211.69 188.053L196.501 200.407L168.023 186.152L153.783 95.8708L132.899 210.861L100.624 278.334H74.0439L56.9568 265.98L45.5655 278.334L34.1741 267.881L26.5798 279.285L11.3914 261.228Z" fill="url(#paint0_linear_1_851)"/>
<line x1="368.53" y1="287" x2="368.53" y2="7.60254" stroke="white" stroke-width="3.09712" stroke-dasharray="2.06 2.06"/>
<circle cx="369.841" cy="7.60264" r="7.60264" fill="white"/>
<path d="M275.903 428.142C299.338 439.862 347.051 463.301 350.425 463.301C353.8 463.301 370.579 463.301 378.547 463.301L447.444 443.612L506.499 480.178H540.245L599.3 437.986L628.828 447.831L718.817 509.712L739.908 499.867L791.933 408.452" stroke="white" stroke-width="1.91123" stroke-linecap="round"/>
<path d="M350.425 464.708L275.903 429.549V581.377H793.339V408.452L739.388 501.66L718.817 511.119L628.828 449.238L599.3 439.393L540.245 481.585H523.372H506.499L447.444 445.019L378.547 464.708H350.425Z" fill="url(#paint1_linear_1_851)"/>
<circle cx="275.906" cy="428.075" r="4.90566" fill="white"/>
<circle cx="349.476" cy="462.415" r="4.90566" fill="white"/>
<circle cx="378.902" cy="462.415" r="4.90566" fill="white"/>
<circle cx="445.115" cy="442.792" r="4.90566" fill="white"/>
<circle cx="506.421" cy="479.585" r="4.90566" fill="white"/>
<circle cx="540.754" cy="479.585" r="4.90566" fill="white"/>
<circle cx="599.609" cy="437.887" r="4.90566" fill="white"/>
<circle cx="629.036" cy="447.698" r="4.90566" fill="white"/>
<circle cx="719.772" cy="509.019" r="4.90566" fill="white"/>
<circle cx="739.392" cy="499.207" r="4.90566" fill="white"/>
<circle cx="790.889" cy="410.906" r="4.90566" fill="white"/>
<path d="M275.903 535.483L316.679 531.264L371.516 504.543L444.632 580.487H521.966L610.549 553.766L723.035 560.798L791.933 511.575" stroke="white" stroke-width="1.91123" stroke-linecap="round"/>
<path d="M316.679 532.671L275.903 536.89V666H793.339V511.575L723.035 562.205L668.271 558.076L609.416 554.396L521.966 581.894H443.886L371.516 505.949L316.679 532.671Z" fill="url(#paint2_linear_1_851)"/>
<circle cx="275.906" cy="536" r="4.90566" fill="white"/>
<circle cx="315.144" cy="531.094" r="4.90566" fill="white"/>
<circle cx="371.547" cy="504.113" r="4.90566" fill="white"/>
<circle cx="445.115" cy="580.151" r="4.90566" fill="white"/>
<circle cx="521.136" cy="580.151" r="4.90566" fill="white"/>
<circle cx="609.419" cy="553.17" r="4.90566" fill="white"/>
<circle cx="722.224" cy="560.528" r="4.90566" fill="white"/>
<circle cx="793.342" cy="509.019" r="4.90566" fill="white"/>
<defs>
<linearGradient id="paint0_linear_1_851" x1="400.596" y1="28.3973" x2="398.693" y2="280.235" gradientUnits="userSpaceOnUse">
<stop stop-color="#6D95FC"/>
<stop offset="1" stop-color="#6D95FC" stop-opacity="0.22"/>
</linearGradient>
<linearGradient id="paint1_linear_1_851" x1="529.716" y1="396.479" x2="533.337" y2="598.408" gradientUnits="userSpaceOnUse">
<stop stop-color="white"/>
<stop offset="1" stop-color="#1D1E26" stop-opacity="0"/>
</linearGradient>
<linearGradient id="paint2_linear_1_851" x1="530.943" y1="497.013" x2="532.148" y2="667.216" gradientUnits="userSpaceOnUse">
<stop stop-color="#6D95FC"/>
<stop offset="1" stop-color="#1D1E26" stop-opacity="0"/>
</linearGradient>
</defs>
</svg>
