<svg width="1768" height="1768" viewBox="0 0 1768 1768" fill="none" xmlns="http://www.w3.org/2000/svg">
<path d="M1767 883.995L1766.73 878.946L1765.91 873.9L1764.56 868.857L1762.66 863.821L1760.22 858.793L1757.24 853.775L1753.73 848.77L1749.68 843.779L1745.1 838.805L1739.99 833.849L1734.36 828.913L1728.2 824.001L1721.52 819.113L1714.33 814.251L1706.62 809.418L1698.41 804.616L1689.7 799.847L1680.5 795.112L1670.8 790.413L1660.62 785.754L1649.97 781.134L1638.84 776.558L1627.25 772.025L1615.2 767.539L1602.71 763.101L1589.77 758.713L1576.4 754.377L1562.6 750.095L1548.39 745.868L1533.76 741.699L1518.74 737.588L1503.33 733.539L1487.54 729.553L1471.37 725.631L1454.85 721.775L1437.98 717.988L1420.76 714.269L1403.22 710.622L1385.35 707.048L1367.18 703.548L1348.72 700.124L1329.96 696.778L1310.94 693.511L1291.65 690.325L1272.11 687.22L1252.33 684.199L1232.33 681.264L1212.11 678.414L1191.7 675.652L1171.09 672.979L1150.31 670.397L1129.36 667.906L1108.27 665.508L1087.04 663.205L1065.68 660.996L1044.21 658.884L1022.65 656.869L1001 654.953L979.274 653.137L957.494 651.421L935.67 649.807L913.814 648.295L891.941 646.887L870.063 645.583L848.195 644.384L826.349 643.291L804.539 642.304L782.779 641.425L761.081 640.654L739.459 639.992L717.927 639.438L696.497 638.995L675.183 638.661L653.998 638.438L632.954 638.327L612.066 638.327L591.344 638.438L570.803 638.662L550.455 638.997L530.312 639.446L510.387 640.006L490.691 640.68L471.237 641.466L452.037 642.365L433.103 643.377L414.446 644.501L396.077 645.738L378.008 647.088L360.25 648.549L342.814 650.122L325.71 651.806L308.949 653.602L292.54 655.508L276.495 657.524L260.823 659.65L245.533 661.885L230.635 664.229L216.138 666.68L202.05 669.239L188.381 671.903L175.138 674.673L162.33 677.548L149.964 680.527L138.047 683.608L126.589 686.791L115.594 690.074L105.069 693.457L95.0223 696.939L85.4583 700.517L76.3833 704.191L67.8027 707.961L59.7216 711.823L52.145 715.777L45.0773 719.821L38.5229 723.954L32.4855 728.175L26.9689 732.481L21.9762 736.871L17.5105 741.344L13.5743 745.897L10.17 750.529L7.2995 755.238L4.96445 760.022L3.16616 764.88L1.90562 769.808L1.18346 774.806L1 779.872L1.35522 785.002L2.24878 790.195L3.67999 795.45L5.64784 800.762L8.15099 806.132L11.1878 811.555L14.7561 817.03L18.8538 822.555L23.4781 828.126L28.6261 833.743L34.2945 839.401L40.4796 845.099L47.1775 850.834L54.3839 856.604L62.0944 862.406L70.3039 868.237L79.0075 874.095L88.1994 879.977L97.8741 885.88L108.025 891.801L118.647 897.739L129.732 903.69L141.274 909.651L153.265 915.619L165.698 921.593L178.565 927.568L191.858 933.541L205.57 939.511L219.69 945.474L234.211 951.428L249.124 957.368L264.418 963.293L280.086 969.2L296.116 975.085L312.499 980.945L329.225 986.778L346.284 992.58L363.664 998.35L381.355 1004.08L399.347 1009.78L417.628 1015.43L436.186 1021.03L455.01 1026.59L474.089 1032.1L493.411 1037.55L512.963 1042.95L532.734 1048.28L552.712 1053.55L572.884 1058.76L593.237 1063.9L613.76 1068.97L634.439 1073.96L655.261 1078.87L676.215 1083.71L697.287 1088.46L718.463 1093.13L739.732 1097.71L761.079 1102.2L782.493 1106.59L803.958 1110.89L825.463 1115.09L846.995 1119.19L868.539 1123.19L890.083 1127.08L911.613 1130.86L933.117 1134.53L954.58 1138.08L975.991 1141.52L997.335 1144.85L1018.6 1148.05L1039.77 1151.13L1060.84 1154.08L1081.79 1156.91L1102.61 1159.61L1123.28 1162.18L1143.8 1164.62L1164.15 1166.92L1184.32 1169.09L1204.29 1171.11L1224.06 1173L1243.61 1174.75L1262.93 1176.36L1282.01 1177.82L1300.83 1179.13L1319.39 1180.3L1337.68 1181.32L1355.68 1182.2L1373.38 1182.92L1390.77 1183.49L1407.84 1183.9L1424.58 1184.17L1440.99 1184.28L1457.04 1184.23L1472.73 1184.03L1488.06 1183.67L1503 1183.16L1517.56 1182.49L1531.73 1181.66L1545.49 1180.67L1558.83 1179.53L1571.76 1178.22L1584.26 1176.76L1596.32 1175.14L1607.94 1173.37L1619.11 1171.43L1629.82 1169.34L1640.07 1167.09L1649.85 1164.68L1659.15 1162.12L1667.97 1159.4L1676.31 1156.53L1684.16 1153.5L1691.51 1150.32L1698.37 1146.99L1704.72 1143.51L1710.56 1139.88L1715.89 1136.1L1720.71 1132.17L1725.01 1128.09L1728.8 1123.88L1732.06 1119.51L1734.8 1115.01L1737.02 1110.37L1738.71 1105.59L1739.88 1100.68L1740.52 1095.63L1740.64 1090.46L1740.23 1085.15L1739.29 1079.71L1737.83 1074.16L1735.84 1068.47L1733.34 1062.67L1730.31 1056.76L1726.76 1050.72L1722.7 1044.58L1718.13 1038.33L1713.04 1031.97L1707.45 1025.51L1701.36 1018.95L1694.77 1012.29L1687.68 1005.54L1680.1 998.697L1672.04 991.767L1663.5 984.754L1654.48 977.66L1645 970.49L1635.05 963.246L1624.65 955.933L1613.8 948.553L1602.5 941.111L1590.77 933.61L1578.61 926.054L1566.03 918.448L1553.04 910.794L1539.65 903.098L1525.85 895.362L1511.68 887.592L1497.12 879.79L1482.19 871.962L1466.91 864.111L1451.28 856.241L1435.3 848.358L1418.99 840.464L1402.37 832.565L1385.43 824.664L1368.2 816.766L1350.68 808.875L1332.88 800.996L1314.81 793.133L1296.49 785.291L1277.92 777.473L1259.13 769.684L1240.11 761.929L1220.88 754.212L1201.46 746.537L1181.85 738.909L1162.07 731.333L1142.13 723.812L1122.04 716.351L1101.81 708.954L1081.46 701.626L1061 694.371L1040.45 687.193L1019.8 680.097L999.088 673.088L978.312 666.168L957.49 659.342L936.633 652.616L915.754 645.992L894.867 639.474L873.984 633.068L853.118 626.776L832.282 620.604L811.488 614.554L790.749 608.631L770.078 602.838L749.488 597.18L728.99 591.659L708.598 586.281L688.325 581.047L668.181 575.962L648.18 571.029L628.334 566.252L608.655 561.633L589.155 557.177L569.845 552.885L550.738 548.762L531.845 544.81L513.177 541.033L494.746 537.432L476.562 534.011L458.638 530.772L440.983 527.719L423.609 524.852L406.525 522.175L389.742 519.691L373.271 517.4L357.12 515.306L341.3 513.409L325.82 511.713L310.69 510.218L295.918 508.927L281.513 507.841L267.485 506.961L253.84 506.288L240.588 505.825L227.735 505.571L215.291 505.529L203.262 505.698L191.654 506.079L180.476 506.673L169.733 507.481L159.432 508.504L149.579 509.74L140.179 511.19L131.238 512.855L122.761 514.734L114.753 516.827L107.219 519.133L100.163 521.653L93.5878 524.385L87.4985 527.329L81.898 530.484L76.7894 533.848L72.1754 537.422L68.0585 541.203L64.4409 545.19L61.3245 549.381L58.7107 553.776L56.6007 558.372L54.9956 563.168L53.8959 568.161L53.3018 573.35L53.2134 578.731L53.6304 584.304L54.5521 590.065L55.9775 596.011L57.9054 602.141L60.3343 608.451L63.2622 614.938L66.687 621.599L70.6061 628.431L75.0169 635.431L79.9162 642.596L85.3007 649.921L91.1666 657.404L97.5099 665.04L104.327 672.826L111.612 680.758L119.361 688.832L127.569 697.043L136.23 705.388L145.339 713.862L154.89 722.461L164.876 731.18L175.291 740.015L186.128 748.961L197.381 758.013L209.042 767.167L221.104 776.417L233.558 785.759L246.398 795.187L259.614 804.697L273.199 814.283L287.144 823.94L301.439 833.663L316.076 843.446L331.046 853.284L346.34 863.171L361.946 873.102L377.857 883.071L394.061 893.073L410.549 903.102L427.31 913.152L444.334 923.218L461.61 933.293L479.127 943.373L496.874 953.45L514.841 963.52L533.016 973.577L551.388 983.614L569.945 993.625L588.676 1003.61L607.569 1013.55L626.613 1023.45L645.796 1033.3L665.105 1043.1L684.529 1052.83L704.057 1062.5L723.675 1072.1L743.372 1081.62L763.136 1091.06L782.954 1100.4L802.815 1109.65L822.705 1118.8L842.614 1127.84L862.529 1136.77L882.437 1145.58L902.326 1154.27L922.185 1162.83L942.001 1171.26L961.761 1179.54L981.455 1187.68L1001.07 1195.67L1020.59 1203.51L1040.01 1211.18L1059.32 1218.69L1078.5 1226.03L1097.54 1233.19L1116.43 1240.17L1135.17 1246.97L1153.73 1253.58L1172.1 1260L1190.28 1266.21L1208.26 1272.23L1226.02 1278.04L1243.55 1283.63L1260.85 1289.02L1277.89 1294.18L1294.68 1299.12L1311.21 1303.84L1327.45 1308.33L1343.41 1312.58L1359.07 1316.6L1374.42 1320.38L1389.46 1323.92L1404.17 1327.21L1418.55 1330.26L1432.59 1333.05L1446.28 1335.59L1459.61 1337.88L1472.58 1339.91L1485.17 1341.69L1497.38 1343.2L1509.21 1344.45L1520.64 1345.43L1531.66 1346.15L1542.29 1346.6L1552.49 1346.79L1562.28 1346.7L1571.65 1346.35L1580.58 1345.72L1589.08 1344.83L1597.14 1343.66L1604.76 1342.23L1611.92 1340.52L1618.63 1338.54L1624.89 1336.29L1630.69 1333.77L1636.02 1330.98L1640.89 1327.92L1645.29 1324.6L1649.23 1321L1652.69 1317.15L1655.67 1313.02L1658.18 1308.64L1660.22 1303.99L1661.77 1299.09L1662.85 1293.93L1663.46 1288.52L1663.58 1282.85L1663.23 1276.94L1662.4 1270.78L1661.1 1264.38L1659.32 1257.73L1657.08 1250.85L1654.36 1243.73L1651.17 1236.39L1647.52 1228.82L1643.4 1221.02L1638.82 1213.01L1633.79 1204.78L1628.3 1196.34L1622.37 1187.69L1615.99 1178.84L1609.16 1169.8L1601.91 1160.56L1594.22 1151.13L1586.1 1141.53L1577.56 1131.74L1568.61 1121.79L1559.25 1111.66L1549.49 1101.38L1539.33 1090.94L1528.78 1080.35L1517.85 1069.61L1506.54 1058.74L1494.86 1047.74L1482.82 1036.61L1470.43 1025.36L1457.69 1013.99L1444.62 1002.53L1431.21 990.955L1417.49 979.291L1403.46 967.54L1389.12 955.709L1374.49 943.804L1359.57 931.832L1344.38 919.8L1328.93 907.716L1313.22 895.585L1297.26 883.415L1281.07 871.214L1264.65 858.988L1248.02 846.745L1231.18 834.492L1214.15 822.236L1196.94 809.984L1179.55 797.744L1162 785.522L1144.3 773.327L1126.46 761.166L1108.49 749.045L1090.41 736.973L1072.21 724.956L1053.92 713.002L1035.55 701.118L1017.1 689.312L998.596 677.59L980.038 665.96L961.441 654.429L942.816 643.004L924.176 631.692L905.531 620.5L886.893 609.435L868.273 598.505L849.683 587.716L831.133 577.074L812.636 566.587L794.202 556.261L775.842 546.103L757.568 536.119L739.391 526.316L721.321 516.7L703.37 507.277L685.548 498.054L667.866 489.035L650.334 480.228L632.964 471.639L615.766 463.272L598.749 455.133L581.924 447.228L565.302 439.563L548.891 432.141L532.702 424.969L516.744 418.052L501.026 411.393L485.559 404.999L470.351 398.872L455.411 393.018L440.748 387.441L426.37 382.145L412.286 377.134L398.504 372.411L385.032 367.98L371.878 363.844L359.049 360.007L346.553 356.472L334.397 353.241L322.589 350.317L311.134 347.704L300.039 345.402L289.311 343.415L278.956 341.744L268.979 340.391L259.386 339.357L250.183 338.645L241.374 338.255L232.964 338.188L224.959 338.446L217.361 339.028L210.177 339.936L203.408 341.169L197.059 342.728L191.134 344.612L185.634 346.822L180.564 349.356L175.925 352.214L171.719 355.395L167.949 358.898L164.617 362.721L161.724 366.864L159.27 371.323L157.257 376.099L155.686 381.187L154.557 386.587L153.87 392.295L153.624 398.309L153.82 404.626L154.456 411.243L155.532 418.157L157.047 425.364L158.998 432.86L161.384 440.642L164.203 448.707L167.453 457.049L171.13 465.664L175.233 474.548L179.758 483.696L184.702 493.103L190.061 502.765L195.831 512.675L202.009 522.829L208.589 533.221L215.568 543.846L222.94 554.697L230.701 565.769L238.845 577.055L247.366 588.549L256.26 600.245L265.519 612.136L275.138 624.216L285.111 636.477L295.431 648.913L306.091 661.517L317.083 674.281L328.402 687.198L340.039 700.261L351.988 713.462L364.24 726.794L376.787 740.248L389.621 753.818L402.735 767.495L416.119 781.27L429.765 795.137L443.665 809.087L457.81 823.112L472.19 837.203L486.797 851.352L501.621 865.551L516.654 879.791L531.885 894.064L547.305 908.361L562.904 922.674L578.673 936.994L594.601 951.313L610.68 965.622L626.898 979.912L643.246 994.175L659.714 1008.4L676.291 1022.58L692.967 1036.71L709.732 1050.78L726.576 1064.78L743.488 1078.69L760.457 1092.52L777.475 1106.26L794.529 1119.89L811.609 1133.4L828.706 1146.79L845.808 1160.06L862.906 1173.19L879.989 1186.17L897.047 1198.99L914.068 1211.65L931.044 1224.15L947.963 1236.46L964.816 1248.59L981.592 1260.52L998.282 1272.25L1014.87 1283.78L1031.36 1295.08L1047.73 1306.17L1063.97 1317.02L1080.08 1327.63L1096.04 1338L1111.85 1348.12L1127.5 1357.98L1142.96 1367.57L1158.25 1376.9L1173.35 1385.95L1188.24 1394.71L1202.93 1403.18L1217.4 1411.36L1231.64 1419.24L1245.65 1426.81L1259.41 1434.08L1272.93 1441.02L1286.18 1447.65L1299.17 1453.95L1311.89 1459.92L1324.32 1465.55L1336.47 1470.85L1348.33 1475.81L1359.88 1480.42L1371.12 1484.68L1382.05 1488.58L1392.66 1492.13L1402.95 1495.33L1412.9 1498.16L1422.51 1500.63L1431.78 1502.73L1440.71 1504.46L1449.28 1505.83L1457.49 1506.82L1465.34 1507.44L1472.83 1507.69L1479.95 1507.56L1486.69 1507.06L1493.06 1506.18L1499.05 1504.92L1504.65 1503.29L1509.87 1501.29L1514.7 1498.91L1519.14 1496.15L1523.19 1493.02L1526.84 1489.52L1530.1 1485.65L1532.96 1481.41L1535.42 1476.8L1537.49 1471.82L1539.15 1466.48L1540.42 1460.79L1541.28 1454.73L1541.74 1448.32L1541.81 1441.56L1541.48 1434.45L1540.74 1426.99L1539.62 1419.2L1538.09 1411.06L1536.18 1402.6L1533.87 1393.81L1531.17 1384.69L1528.09 1375.26L1524.62 1365.51L1520.77 1355.46L1516.54 1345.1L1511.93 1334.45L1506.95 1323.5L1501.6 1312.27L1495.89 1300.77L1489.82 1288.99L1483.39 1276.95L1476.61 1264.64L1469.48 1252.09L1462.01 1239.29L1454.21 1226.26L1446.07 1212.99L1437.61 1199.51L1428.82 1185.81L1419.73 1171.9L1410.32 1157.8L1400.61 1143.5L1390.61 1129.03L1380.31 1114.38L1369.74 1099.56L1358.89 1084.59L1347.77 1069.48L1336.39 1054.22L1324.76 1038.84L1312.88 1023.34L1300.76 1007.72L1288.41 992.004L1275.84 976.195L1263.05 960.303L1250.06 944.338L1236.87 928.31L1223.49 912.226L1209.92 896.099L1196.19 879.937L1182.29 863.749L1168.23 847.547L1154.03 831.339L1139.68 815.135L1125.21 798.945L1110.62 782.78L1095.92 766.648L1081.12 750.561L1066.22 734.526L1051.24 718.556L1036.18 702.658L1021.06 686.844L1005.89 671.122L990.665 655.503L975.405 639.996L960.116 624.611L944.809 609.357L929.492 594.244L914.175 579.281L898.866 564.477L883.576 549.843L868.313 535.386L853.087 521.117L837.906 507.043L822.78 493.175L807.718 479.52L792.728 466.088L777.82 452.886L763.002 439.924L748.283 427.21L733.673 414.751L719.178 402.556L704.809 390.633L690.573 378.988L676.479 367.631L662.534 356.568L648.748 345.806L635.127 335.353L621.681 325.215L608.416 315.4L595.34 305.912L582.461 296.76L569.786 287.948L557.322 279.483L545.077 271.371L533.057 263.616L521.269 256.225L509.72 249.203L498.415 242.554L487.363 236.282L476.568 230.393L466.037 224.891L455.775 219.779L445.787 215.061L436.081 210.741L426.66 206.822L417.53 203.307L408.695 200.199L400.161 197.5L391.931 195.213L384.011 193.339L376.404 191.881L369.114 190.84L362.145 190.217L355.5 190.014L349.184 190.23L343.197 190.868L337.545 191.926L332.229 193.404L327.252 195.304L322.615 197.624L318.322 200.363L314.374 203.52L310.773 207.094L307.519 211.084L304.615 215.488L302.061 220.303L299.858 225.528L298.007 231.16L296.508 237.195L295.36 243.632L294.564 250.466L294.12 257.694L294.028 265.312L294.285 273.317L294.892 281.704L295.848 290.468L297.15 299.604L298.798 309.108L300.789 318.975L303.123 329.198L305.795 339.772L308.805 350.692L312.15 361.951L315.826 373.542L319.831 385.46L324.163 397.697L328.816 410.247L333.788 423.102L339.076 436.254L344.675 449.697L350.581 463.422L356.79 477.422L363.298 491.688L370.099 506.213L377.19 520.986L384.566 536.001L392.22 551.248L400.149 566.718L408.346 582.402L416.806 598.291L425.524 614.376L434.493 630.646L443.708 647.093L453.162 663.706L462.85 680.475L472.764 697.391L482.9 714.444L493.249 731.623L503.805 748.917L514.562 766.318L525.512 783.813L536.649 801.393L547.965 819.047L559.453 836.764L571.106 854.534L582.917 872.345L594.877 890.188L606.981 908.051L619.219 925.922L631.585 943.793L644.07 961.651L656.667 979.485L669.368 997.285L682.166 1015.04L695.051 1032.74L708.018 1050.37L721.056 1067.92L734.159 1085.39L747.319 1102.76L760.528 1120.01L773.776 1137.15L787.058 1154.15L800.364 1171.01L813.686 1187.72L827.017 1204.26L840.348 1220.64L853.672 1236.83L866.98 1252.82L880.266 1268.61L893.52 1284.19L906.735 1299.55L919.903 1314.67L933.017 1329.55L946.068 1344.18L959.05 1358.54L971.954 1372.64L984.773 1386.46L997.5 1399.99L1010.13 1413.22L1022.65 1426.15L1035.05 1438.76L1047.34 1451.05L1059.5 1463.02L1071.52 1474.64L1083.4 1485.92L1095.13 1496.85L1106.7 1507.42L1118.12 1517.63L1129.36 1527.46L1140.43 1536.91L1151.32 1545.98L1162.02 1554.65L1172.54 1562.93L1182.85 1570.8L1192.96 1578.27L1202.86 1585.32L1212.54 1591.96L1222.01 1598.17L1231.25 1603.96L1240.26 1609.31L1249.03 1614.23L1257.57 1618.71L1265.86 1622.75L1273.9 1626.35L1281.7 1629.5L1289.23 1632.2L1296.51 1634.44L1303.52 1636.23L1310.27 1637.57L1316.74 1638.45L1322.94 1638.87L1328.87 1638.83L1334.52 1638.34L1339.88 1637.38L1344.96 1635.96L1349.76 1634.09L1354.26 1631.75L1358.48 1628.96L1362.4 1625.71L1366.03 1622.01L1369.37 1617.85L1372.4 1613.24L1375.15 1608.18L1377.59 1602.67L1379.73 1596.73L1381.58 1590.34L1383.13 1583.51L1384.37 1576.25L1385.32 1568.56L1385.97 1560.44L1386.32 1551.9L1386.37 1542.95L1386.13 1533.58L1385.59 1523.81L1384.75 1513.64L1383.62 1503.07L1382.2 1492.12L1380.49 1480.78L1378.49 1469.07L1376.2 1456.98L1373.63 1444.54L1370.77 1431.73L1367.64 1418.59L1364.22 1405.1L1360.54 1391.28L1356.58 1377.13L1352.36 1362.67L1347.86 1347.9L1343.11 1332.83L1338.1 1317.48L1332.84 1301.84L1327.32 1285.93L1321.56 1269.76L1315.55 1253.33L1309.31 1236.67L1302.83 1219.77L1296.13 1202.65L1289.2 1185.31L1282.05 1167.78L1274.68 1150.05L1267.11 1132.14L1259.33 1114.06L1251.34 1095.82L1243.17 1077.44L1234.81 1058.91L1226.26 1040.26L1217.53 1021.5L1208.63 1002.63L1199.57 983.669L1190.34 964.629L1180.96 945.519L1171.43 926.353L1161.76 907.141L1151.94 887.894L1142 868.626L1131.94 849.348L1121.76 830.071L1111.46 810.807L1101.06 791.568L1090.56 772.366L1079.97 753.212L1069.29 734.119L1058.53 715.098L1047.7 696.161L1036.8 677.319L1025.85 658.584L1014.84 639.969L1003.78 621.483L992.684 603.139L981.555 584.948L970.398 566.922L959.222 549.071L948.032 531.407L936.836 513.94L925.639 496.682L914.448 479.643L903.271 462.835L892.112 446.266L880.98 429.949L869.88 413.893L858.818 398.108L847.801 382.604L836.836 367.391L825.928 352.478L815.084 337.876L804.31 323.592L793.612 309.637L782.996 296.019L772.467 282.747L762.033 269.829L751.698 257.273L741.468 245.088L731.349 233.282L721.347 221.861L711.466 210.834L701.713 200.207L692.092 189.987L682.61 180.181L673.27 170.796L664.077 161.837L655.038 153.311L646.156 145.223L637.436 137.578L628.882 130.381L620.5 123.638L612.293 117.353L604.266 111.53L596.422 106.173L588.766 101.286L581.302 96.8719L574.032 92.9346L566.962 89.4765L560.093 86.5003L553.43 84.0082L546.976 82.0021L540.734 80.4838L534.706 79.4547L528.896 78.9157L523.306 78.8676L517.938 79.3111L512.795 80.2461L507.88 81.6726L503.194 83.5901L498.739 85.998L494.517 88.8951L490.53 92.2801L486.778 96.1514L483.265 100.507L479.99 105.345L476.955 110.662L474.161 116.456L471.608 122.724L469.298 129.461L467.23 136.666L465.406 144.332L463.825 152.457L462.487 161.035L461.392 170.062L460.541 179.533L459.932 189.441L459.566 199.782L459.441 210.55L459.557 221.737L459.913 233.339L460.507 245.347L461.34 257.755L462.409 270.556L463.713 283.742L465.25 297.305L467.019 311.238L469.018 325.532L471.245 340.178L473.697 355.169L476.373 370.494L479.27 386.146L482.387 402.114L485.719 418.39L489.265 434.962L493.021 451.823L496.986 468.96L501.155 486.365L505.526 504.026L510.095 521.933L514.86 540.076L519.816 558.443L524.96 577.023L530.289 595.805L535.799 614.778L541.486 633.929L547.345 653.249L553.374 672.724L559.568 692.343L565.923 712.095L572.435 731.966L579.099 751.946L585.911 772.021L592.867 792.18L599.961 812.41L607.191 832.7L614.55 853.035L622.035 873.405L629.64 893.797L637.361 914.198L645.193 934.595L653.131 954.977L661.17 975.33L669.305 995.643L677.532 1015.9L685.845 1036.1L694.239 1056.21L702.709 1076.23L711.25 1096.16L719.858 1115.96L728.526 1135.64L737.249 1155.18L746.023 1174.57L754.843 1193.79L763.702 1212.84L772.597 1231.7L781.522 1250.36L790.471 1268.81L799.44 1287.04L808.423 1305.03L817.415 1322.78L826.412 1340.28L835.407 1357.51L844.397 1374.46L853.376 1391.12L862.338 1407.48L871.28 1423.53L880.196 1439.27L889.081 1454.68L897.929 1469.75L906.738 1484.47L915.501 1498.83L924.214 1512.83L932.872 1526.45L941.47 1539.69L950.005 1552.54L958.47 1564.98L966.863 1577.02L975.179 1588.64L983.412 1599.84L991.56 1610.61L999.617 1620.94L1007.58 1630.83L1015.44 1640.27L1023.2 1649.25L1030.86 1657.77L1038.4 1665.82L1045.84 1673.4L1053.15 1680.5L1060.34 1687.12L1067.41 1693.25L1074.35 1698.89L1081.15 1704.04L1087.82 1708.69L1094.36 1712.83L1100.75 1716.48L1107 1719.61L1113.1 1722.24L1119.05 1724.35L1124.85 1725.96L1130.5 1727.04L1135.98 1727.62L1141.31 1727.68L1146.47 1727.22L1151.48 1726.24L1156.31 1724.75L1160.97 1722.75L1165.47 1720.23L1169.79 1717.2L1173.94 1713.66L1177.91 1709.6L1181.71 1705.04L1185.33 1699.98L1188.77 1694.41L1192.03 1688.34L1195.1 1681.78L1198 1674.73L1200.71 1667.19L1203.24 1659.16L1205.58 1650.66L1207.74 1641.68L1209.71 1632.23L1211.49 1622.32L1213.09 1611.96L1214.51 1601.14L1215.73 1589.88L1216.77 1578.18L1217.63 1566.04L1218.3 1553.49L1218.78 1540.51L1219.08 1527.13L1219.2 1513.35L1219.13 1499.18L1218.88 1484.62L1218.45 1469.68L1217.84 1454.38L1217.05 1438.72L1216.08 1422.71L1214.94 1406.37L1213.62 1389.7L1212.12 1372.7L1210.45 1355.41L1208.61 1337.81L1206.61 1319.92L1204.43 1301.76L1202.09 1283.34L1199.59 1264.66L1196.92 1245.74L1194.1 1226.58L1191.12 1207.21L1187.98 1187.63L1184.69 1167.85L1181.26 1147.89L1177.67 1127.76L1173.94 1107.47L1170.07 1087.03L1166.06 1066.45L1161.91 1045.76L1157.63 1024.95L1153.21 1004.05L1148.67 983.068L1144.01 962.012L1139.22 940.898L1134.31 919.738L1129.29 898.547L1124.15 877.336L1118.91 856.119L1113.55 834.909L1108.1 813.718L1102.55 792.561L1096.9 771.449L1091.15 750.397L1085.32 729.416L1079.4 708.519L1073.4 687.721L1067.33 667.032L1061.17 646.467L1054.95 626.038L1048.65 605.757L1042.3 585.638L1035.88 565.691L1029.4 545.931L1022.88 526.368L1016.3 507.015L1009.67 487.885L1003.01 468.988L996.302 450.337L989.561 431.943L982.79 413.818L975.99 395.973L969.167 378.418L962.323 361.165L955.463 344.225L948.589 327.608L941.707 311.324L934.818 295.384L927.927 279.798L921.038 264.574L914.153 249.724L907.277 235.255L900.413 221.178L893.565 207.5L886.735 194.231L879.928 181.379L873.147 168.951L866.395 156.957L859.675 145.402L852.991 134.295L846.347 123.642L839.744 113.451L833.188 103.727L826.679 94.477L820.223 85.7067L813.821 77.4217L807.477 69.6273L801.194 62.3284L794.975 55.5297L788.822 49.2356L782.739 43.4501L776.728 38.1771L770.792 33.4199L764.933 29.1816L759.155 25.4651L753.459 22.2729L747.849 19.607L742.326 17.4694L736.893 15.8616L731.553 14.7846L726.308 14.2395L721.159 14.2267L716.11 14.7464L711.161 15.7985L706.316 17.3826L701.576 19.4979L696.942 22.1432L692.418 25.3171L688.004 29.0179L683.702 33.2435L679.515 37.9914L675.443 43.259L671.488 49.0432L667.651 55.3405L663.934 62.1474L660.338 69.4598L656.865 77.2734L653.515 85.5835L650.289 94.3853L647.19 103.673L644.217 113.442L641.371 123.686L638.654 134.399L636.066 145.574L633.607 157.205L631.279 169.285L629.082 181.806L627.017 194.761L625.083 208.142L623.281 221.941L621.613 236.15L620.077 250.76L618.673 265.762L617.403 281.147L616.267 296.905L615.263 313.028L614.392 329.506L613.653 346.327L613.048 363.483L612.575 380.963L612.233 398.755L612.023 416.85L611.945 435.236L611.997 453.902L612.179 472.837L612.49 492.028L612.93 511.466L613.497 531.136L614.192 551.028L615.013 571.129L615.96 591.427L617.03 611.91L618.224 632.565L619.54 653.379L620.978 674.339L622.535 695.434L624.211 716.65L626.004 737.973L627.913 759.391L629.938 780.891L632.075 802.459L634.324 824.083L636.684 845.748L639.152 867.442L641.728 889.152L644.409 910.864L647.195 932.564L650.082 954.24L653.07 975.877L656.157 997.464L659.34 1018.99L662.619 1040.43L665.991 1061.78L669.454 1083.03L673.006 1104.16L676.646 1125.17L680.371 1146.02L684.18 1166.73L688.07 1187.26L692.039 1207.61L696.085 1227.77L700.207 1247.72L704.401 1267.46L708.665 1286.96L712.999 1306.22L717.398 1325.22L721.862 1343.96L726.387 1362.42L730.972 1380.59L735.615 1398.46L740.312 1416.02L745.062 1433.26L749.863 1450.16L754.711 1466.72L759.606 1482.93L764.544 1498.77L769.523 1514.24L774.54 1529.32L779.595 1544.01L784.683 1558.3L789.803 1572.18L794.952 1585.65L800.128 1598.68L805.329 1611.28L810.552 1623.43L815.794 1635.13L821.055 1646.38L826.33 1657.16L831.618 1667.47L836.917 1677.3L842.224 1686.64L847.536 1695.5L852.853 1703.86L858.17 1711.71L863.485 1719.07L868.798 1725.91L874.105 1732.24L879.403 1738.04L884.691 1743.33L889.967 1748.09L895.228 1752.32L900.472 1756.02L905.697 1759.19L910.9 1761.82L916.08 1763.92L921.234 1765.47L926.36 1766.49L931.456 1766.96L936.52 1766.9L941.55 1766.29L946.543 1765.14L951.499 1763.45L956.414 1761.23L961.287 1758.47L966.115 1755.17L970.898 1751.33L975.632 1746.97L980.317 1742.07L984.949 1736.65L989.528 1730.71L994.052 1724.25L998.518 1717.27L1002.92 1709.78L1007.27 1701.79L1011.56 1693.29L1015.78 1684.29L1019.93 1674.81L1024.02 1664.84L1028.03 1654.39L1031.98 1643.47L1035.86 1632.08L1039.66 1620.24L1043.38 1607.94L1047.03 1595.19L1050.61 1582.01L1054.1 1568.41L1057.51 1554.38L1060.84 1539.94L1064.09 1525.1L1067.25 1509.86L1070.33 1494.24L1073.32 1478.24L1076.23 1461.88L1079.04 1445.17L1081.77 1428.11L1084.4 1410.72L1086.94 1393L1089.39 1374.97L1091.75 1356.64L1094.01 1338.02L1096.17 1319.11L1098.24 1299.95L1100.21 1280.52L1102.08 1260.86L1103.86 1240.96L1105.54 1220.84L1107.11 1200.52L1108.59 1180L1109.96 1159.3L1111.24 1138.43L1112.41 1117.4L1113.48 1096.23L1114.44 1074.93L1115.31 1053.51L1116.07 1031.99L1116.73 1010.38L1117.28 988.687L1117.73 966.933L1118.07 945.127L1118.31 923.284L1118.45 901.417L1118.48 879.539L1118.4 857.664L1118.23 835.805L1117.94 813.975L1117.56 792.189L1117.07 770.459L1116.47 748.799L1115.77 727.221L1114.97 705.741L1114.06 684.369L1113.05 663.121L1111.94 642.008L1110.73 621.043L1109.42 600.24L1108 579.612L1106.48 559.171L1104.86 538.929L1103.15 518.899L1101.33 499.093L1099.42 479.524L1097.41 460.203L1095.3 441.143L1093.1 422.355L1090.8 403.85L1088.4 385.64L1085.92 367.736L1083.34 350.149L1080.67 332.891L1077.91 315.97L1075.05 299.399L1072.11 283.186L1069.09 267.342L1065.98 251.877L1062.78 236.8L1059.5 222.121L1056.13 207.848L1052.69 193.989L1049.16 180.555L1045.56 167.552L1041.87 154.989L1038.12 142.874L1034.29 131.213L1030.38 120.015L1026.41 109.285L1022.36 99.0303L1018.24 89.2575L1014.06 79.9724L1009.82 71.1805L1005.51 62.8872L1001.14 55.0976L996.706 47.8165L992.216 41.0482L987.67 34.7968L983.069 29.0662L978.415 23.8598L973.709 19.1807L968.955 15.0318L964.154 11.4156L959.307 8.33421L954.417 5.78949L949.485 3.78295L944.514 2.31573L939.505 1.3887L934.461 1.00234L929.384 1.15685L924.275 1.85206L919.137 3.08747L913.973 4.86223L908.783 7.17523L903.571 10.0249L898.338 13.4096L893.087 17.3269L887.82 21.7746L882.539 26.7497L877.246 32.2492L871.944 38.2695L866.635 44.807L861.32 51.8574L856.004 59.4166L850.687 67.4795L845.372 76.0414L840.061 85.0968L834.758 94.6401L829.463 104.665L824.18 115.166L818.91 126.136L813.657 137.569L808.422 149.457L803.207 161.792L798.016 174.568L792.851 187.777L787.713 201.409L782.606 215.457L777.532 229.912L772.492 244.765L767.49 260.007L762.527 275.629L757.607 291.62L752.731 307.971L747.901 324.671L743.121 341.711L738.392 359.08L733.717 376.767L729.098 394.762L724.537 413.052L720.036 431.627L715.598 450.476L711.225 469.586L706.92 488.946L702.683 508.544L698.519 528.368L694.428 548.406L690.413 568.645L686.476 589.073L682.619 609.677L678.844 630.445L675.153 651.363L671.549 672.419L668.032 693.6L664.606 714.893L661.272 736.285L658.032 757.762L654.888 779.312L651.841 800.921L648.894 822.576L646.048 844.263L643.305 865.97L640.666 887.682L638.134 909.387L635.71 931.071L633.395 952.721L631.191 974.324L629.099 995.866L627.122 1017.33L625.259 1038.72L623.514 1060L621.886 1081.16L620.378 1102.21L618.99 1123.11L617.723 1143.86L616.579 1164.45L615.559 1184.85L614.664 1205.07L613.894 1225.09L613.251 1244.89L612.735 1264.47L612.347 1283.81L612.089 1302.9L611.96 1321.72L611.961 1340.28L612.093 1358.55L612.356 1376.52L612.751 1394.19L613.279 1411.54L613.938 1428.56L614.73 1445.24L615.655 1461.57L616.714 1477.55L617.905 1493.16L619.229 1508.39L620.686 1523.23L622.276 1537.68L623.999 1551.72L625.855 1565.35L627.842 1578.56L629.961 1591.34L632.212 1603.68L634.593 1615.58L637.104 1627.02L639.745 1638.01L642.515 1648.53L645.412 1658.58L648.437 1668.16L651.588 1677.25L654.864 1685.85L658.265 1693.96L661.788 1701.57L665.433 1708.68L669.199 1715.28L673.084 1721.37L677.087 1726.94L681.207 1732L685.441 1736.53L689.788 1740.54L694.248 1744.03L698.816 1746.99L703.494 1749.42L708.277 1751.32L713.164 1752.68L718.154 1753.52L723.244 1753.82L728.433 1753.59L733.717 1752.83L739.095 1751.54L744.565 1749.71L750.124 1747.36L755.769 1744.48L761.499 1741.07L767.31 1737.14L773.2 1732.69L779.168 1727.73L785.208 1722.24L791.32 1716.25L797.501 1709.75L803.746 1702.75L810.054 1695.25L816.422 1687.25L822.846 1678.77L829.324 1669.8L835.853 1660.36L842.429 1650.44L849.049 1640.06L855.71 1629.23L862.408 1617.94L869.142 1606.2L875.906 1594.03L882.698 1581.43L889.515 1568.4L896.353 1554.97L903.208 1541.13L910.077 1526.89L916.957 1512.26L923.844 1497.26L930.734 1481.89L937.624 1466.15L944.511 1450.07L951.391 1433.65L958.259 1416.9L965.113 1399.83L971.949 1382.46L978.763 1364.78L985.552 1346.82L992.311 1328.59L999.038 1310.09L1005.73 1291.33L1012.38 1272.34L1018.98 1253.12L1025.54 1233.68L1032.05 1214.03L1038.5 1194.2L1044.89 1174.18L1051.23 1153.99L1057.49 1133.65L1063.69 1113.16L1069.81 1092.54L1075.86 1071.81L1081.82 1050.97L1087.71 1030.04L1093.5 1009.03L1099.21 987.947L1104.82 966.815L1110.33 945.643L1115.75 924.443L1121.05 903.228L1126.26 882.012L1131.35 860.808L1136.32 839.628L1141.18 818.485L1145.92 797.393L1150.54 776.364L1155.03 755.412L1159.39 734.548L1163.62 713.787L1167.71 693.14L1171.66 672.62L1175.48 652.239L1179.15 632.011L1182.67 611.947L1186.05 592.06L1189.28 572.362L1192.35 552.864L1195.27 533.579L1198.03 514.518L1200.63 495.693L1203.06 477.116L1205.34 458.797L1207.44 440.747L1209.38 422.979L1211.15 405.502L1212.75 388.326L1214.17 371.463L1215.42 354.922L1216.5 338.714L1217.39 322.848L1218.11 307.334L1218.65 292.181L1219.01 277.398L1219.18 262.994L1219.18 248.977L1218.98 235.357L1218.61 222.141L1218.05 209.337L1217.3 196.952L1216.37 184.995L1215.26 173.472L1213.95 162.389L1212.46 151.754L1210.79 141.573L1208.93 131.852L1206.88 122.596L1204.65 113.811L1202.23 105.501L1199.63 97.6728L1196.84 90.3295L1193.87 83.4757L1190.72 77.1153L1187.39 71.2518L1183.88 65.8887L1180.19 61.0289L1176.32 56.675L1172.27 52.8294L1168.05 49.4942L1163.66 46.6711L1159.09 44.3616L1154.36 42.5666L1149.46 41.2871L1144.39 40.5234L1139.16 40.2758L1133.77 40.544L1128.22 41.3275L1122.51 42.6257L1116.65 44.4372L1110.63 46.7608L1104.47 49.5946L1098.16 52.9366L1091.71 56.7845L1085.12 61.1355L1078.4 65.9866L1071.53 71.3345L1064.54 77.1757L1057.43 83.5063L1050.18 90.322L1042.82 97.6184L1035.35 105.391L1027.75 113.634L1020.06 122.342L1012.25 131.51L1004.35 141.132L996.346 151.202L988.251 161.713L980.068 172.658L971.801 184.031L963.454 195.824L955.03 208.029L946.536 220.64L937.975 233.647L929.352 247.043L920.671 260.819L911.937 274.967L903.155 289.477L894.33 304.34L885.465 319.548L876.567 335.09L867.641 350.957L858.69 367.138L849.72 383.624L840.736 400.405L831.744 417.469L822.747 434.806L813.751 452.406L804.762 470.257L795.784 488.348L786.823 506.668L777.883 525.206L768.97 543.95L760.089 562.888L751.245 582.009L742.443 601.301L733.689 620.751L724.988 640.349L716.344 660.081L707.763 679.936L699.25 699.901L690.81 719.963L682.449 740.112L674.17 760.333L665.98 780.616L657.883 800.946L649.885 821.313L641.989 841.702L634.202 862.103L626.528 882.501L618.971 902.886L611.537 923.243L604.23 943.561L597.055 963.828L590.016 984.031L583.118 1004.16L576.366 1024.19L569.764 1044.13L563.315 1063.96L557.025 1083.65L550.898 1103.22L544.938 1122.63L539.148 1141.88L533.533 1160.96L528.096 1179.86L522.842 1198.56L517.774 1217.06L512.896 1235.33L508.21 1253.38L503.721 1271.19L499.432 1288.75L495.346 1306.04L491.466 1323.07L487.795 1339.81L484.336 1356.27L481.091 1372.42L478.064 1388.26L475.256 1403.78L472.671 1418.97L470.31 1433.82L468.176 1448.32L466.271 1462.47L464.596 1476.25L463.154 1489.67L461.945 1502.7L460.972 1515.34L460.236 1527.58L459.739 1539.43L459.48 1550.86L459.462 1561.88L459.686 1572.47L460.151 1582.64L460.858 1592.37L461.809 1601.66L463.002 1610.5L464.439 1618.9L466.12 1626.84L468.043 1634.32L470.21 1641.33L472.619 1647.88L475.27 1653.95L478.162 1659.55L481.295 1664.67L484.667 1669.32L488.278 1673.47L492.125 1677.15L496.208 1680.33L500.525 1683.03L505.075 1685.24L509.855 1686.96L514.863 1688.18L520.097 1688.92L525.556 1689.16L531.236 1688.91L537.135 1688.18L543.251 1686.95L549.58 1685.23L556.119 1683.03L562.866 1680.34L569.818 1677.16L576.969 1673.51L584.319 1669.38L591.862 1664.77L599.595 1659.69L607.514 1654.14L615.615 1648.13L623.893 1641.66L632.346 1634.73L640.968 1627.35L649.754 1619.53L658.701 1611.26L667.804 1602.56L677.057 1593.42L686.456 1583.86L695.995 1573.89L705.67 1563.5L715.476 1552.71L725.407 1541.52L735.457 1529.95L745.622 1517.98L755.895 1505.65L766.272 1492.94L776.745 1479.88L787.31 1466.46L797.96 1452.71L808.69 1438.62L819.494 1424.2L830.364 1409.47L841.296 1394.44L852.283 1379.11L863.319 1363.49L874.397 1347.59L885.511 1331.43L896.655 1315L907.822 1298.34L919.006 1281.43L930.199 1264.3L941.397 1246.96L952.592 1229.41L963.777 1211.67L974.946 1193.75L986.092 1175.65L997.209 1157.4L1008.29 1138.99L1019.33 1120.45L1030.32 1101.79L1041.25 1083.01L1052.12 1064.13L1062.92 1045.15L1073.65 1026.1L1084.29 1006.98L1094.85 987.808L1105.31 968.589L1115.67 949.339L1125.92 930.068L1136.05 910.789L1146.07 891.513L1155.96 872.252L1165.71 853.019L1175.33 833.824L1184.8 814.679L1194.12 795.596L1203.28 776.587L1212.28 757.664L1221.11 738.836L1229.76 720.117L1238.23 701.517L1246.52 683.048L1254.62 664.72L1262.52 646.546L1270.22 628.534L1277.71 610.698L1284.99 593.047L1292.05 575.591L1298.89 558.342L1305.5 541.31L1311.88 524.504L1318.03 507.936L1323.93 491.613L1329.6 475.548L1335.01 459.748L1340.17 444.223L1345.08 428.983L1349.73 414.037L1354.11 399.392L1358.23 385.059L1362.07 371.044L1365.65 357.358L1368.95 344.006L1371.97 330.998L1374.71 318.341L1377.17 306.042L1379.34 294.108L1381.22 282.546L1382.82 271.363L1384.12 260.565L1385.13 250.158L1385.85 240.149L1386.27 230.543L1386.39 221.344L1386.22 212.56L1385.74 204.193L1384.97 196.25L1383.9 188.733L1382.53 181.649L1380.86 174.999L1378.9 168.788L1376.63 163.019L1374.06 157.695L1371.2 152.819L1368.04 148.393L1364.59 144.42L1360.84 140.901L1356.79 137.838L1352.46 135.232L1347.84 133.084L1342.93 131.395L1337.73 130.166L1332.25 129.396L1326.49 129.086L1320.45 129.236L1314.14 129.844L1307.55 130.909L1300.7 132.432L1293.58 134.409L1286.19 136.839L1278.55 139.721L1270.66 143.051L1262.51 146.828L1254.12 151.048L1245.48 155.709L1236.61 160.806L1227.51 166.337L1218.18 172.298L1208.62 178.683L1198.85 185.489L1188.86 192.712L1178.67 200.345L1168.28 208.385L1157.69 216.825L1146.91 225.66L1135.94 234.885L1124.8 244.492L1113.49 254.476L1102.01 264.83L1090.37 275.547L1078.57 286.62L1066.64 298.043L1054.56 309.807L1042.35 321.905L1030.01 334.329L1017.56 347.072L1005 360.125L992.327 373.479L979.562 387.127L966.707 401.059L953.771 415.266L940.759 429.74L927.682 444.472L914.545 459.452L901.357 474.67L888.125 490.117L874.857 505.784L861.562 521.66L848.246 537.735L834.918 554L821.586 570.445L808.258 587.058L794.941 603.83L781.644 620.751L768.375 637.809L755.142 654.994L741.952 672.296L728.815 689.703L715.737 707.206L702.727 724.793L689.792 742.453L676.941 760.176L664.182 777.951L651.522 795.766L638.97 813.611L626.533 831.476L614.218 849.348L602.034 867.218L589.988 885.073L578.087 902.905L566.34 920.7L554.753 938.45L543.334 956.143L532.09 973.768L521.028 991.314L510.156 1008.77L499.48 1026.13L489.008 1043.38L478.745 1060.51L468.699 1077.51L458.876 1094.36L449.282 1111.07L439.925 1127.62L430.809 1143.99L421.942 1160.19L413.328 1176.19L404.975 1192L396.886 1207.6L389.069 1222.98L381.527 1238.13L374.267 1253.05L367.294 1267.72L360.611 1282.14L354.224 1296.3L348.138 1310.19L342.357 1323.8L336.884 1337.13L331.725 1350.16L326.882 1362.89L322.359 1375.32L318.16 1387.42L314.289 1399.21L310.747 1410.67L307.539 1421.79L304.666 1432.57L302.131 1443L299.937 1453.08L298.085 1462.8L296.578 1472.15L295.417 1481.14L294.603 1489.75L294.138 1497.98L294.023 1505.83L294.259 1513.29L294.846 1520.36L295.785 1527.03L297.076 1533.3L298.719 1539.17L300.713 1544.64L303.059 1549.7L305.756 1554.35L308.803 1558.58L312.198 1562.4L315.941 1565.81L320.03 1568.79L324.463 1571.36L329.238 1573.51L334.354 1575.24L339.807 1576.55L345.596 1577.43L351.717 1577.9L358.168 1577.94L364.945 1577.57L372.045 1576.78L379.465 1575.56L387.2 1573.94L395.246 1571.9L403.601 1569.44L412.258 1566.57L421.213 1563.3L430.463 1559.62L440.001 1555.54L449.822 1551.05L459.922 1546.18L470.294 1540.9L480.934 1535.24L491.834 1529.2L502.99 1522.77L514.395 1515.97L526.042 1508.8L537.925 1501.26L550.038 1493.36L562.373 1485.1L574.924 1476.49L587.683 1467.54L600.643 1458.25L613.797 1448.63L627.137 1438.68L640.655 1428.42L654.344 1417.84L668.196 1406.95L682.202 1395.77L696.355 1384.29L710.647 1372.53L725.068 1360.5L739.611 1348.2L754.266 1335.63L769.027 1322.82L783.882 1309.75L798.825 1296.46L813.845 1282.93L828.934 1269.19L844.084 1255.24L859.284 1241.08L874.527 1226.74L889.802 1212.21L905.1 1197.5L920.414 1182.63L935.732 1167.61L951.046 1152.44L966.347 1137.13L981.625 1121.69L996.871 1106.14L1012.08 1090.48L1027.23 1074.71L1042.33 1058.87L1057.35 1042.94L1072.3 1026.94L1087.16 1010.88L1101.92 994.775L1116.58 978.629L1131.12 962.452L1145.54 946.256L1159.83 930.049L1173.97 913.842L1187.97 897.644L1201.8 881.466L1215.47 865.317L1228.96 849.206L1242.26 833.144L1255.38 817.14L1268.29 801.204L1280.99 785.345L1293.47 769.572L1305.72 753.896L1317.74 738.325L1329.52 722.869L1341.06 707.536L1352.33 692.337L1363.34 677.279L1374.08 662.372L1384.54 647.624L1394.72 633.045L1404.6 618.642L1414.19 604.424L1423.47 590.399L1432.44 576.576L1441.09 562.962L1449.43 549.566L1457.43 536.394L1465.1 523.455L1472.43 510.756L1479.41 498.304L1486.05 486.107L1492.34 474.17L1498.26 462.502L1503.83 451.107L1509.02 439.994L1513.85 429.168L1518.3 418.635L1522.38 408.401L1526.08 398.471L1529.39 388.851L1532.32 379.546L1534.86 370.562L1537.01 361.903L1538.76 353.573L1540.12 345.577L1541.09 337.92L1541.66 330.605L1541.83 323.636L1541.6 317.016L1540.98 310.75L1539.95 304.839L1538.52 299.288L1536.69 294.098L1534.47 289.272L1531.84 284.812L1528.82 280.721L1525.4 276.999L1521.59 273.649L1517.38 270.672L1512.78 268.069L1507.79 265.841L1502.42 263.987L1496.66 262.51L1490.51 261.409L1483.99 260.683L1477.09 260.333L1469.83 260.358L1462.19 260.757L1454.19 261.53L1445.83 262.674L1437.11 264.189L1428.05 266.073L1418.64 268.325L1408.88 270.941L1398.8 273.92L1388.38 277.259L1377.64 280.956L1366.58 285.007L1355.21 289.41L1343.53 294.16L1331.56 299.255L1319.29 304.691L1306.74 310.463L1293.91 316.568L1280.81 323.001L1267.45 329.758L1253.83 336.834L1239.97 344.223L1225.86 351.922L1211.53 359.924L1196.97 368.224L1182.2 376.817L1167.22 385.696L1152.05 394.857L1136.68 404.292L1121.14 413.995L1105.43 423.961L1089.56 434.182L1073.54 444.652L1057.37 455.364L1041.08 466.311L1024.66 477.486L1008.13 488.882L991.494 500.491L974.768 512.306L957.959 524.32L941.078 536.525L924.135 548.912L907.139 561.475L890.102 574.205L873.033 587.094L855.943 600.134L838.842 613.318L821.74 626.636L804.649 640.081L787.578 653.643L770.538 667.316L753.539 681.089L736.591 694.956L719.706 708.906L702.893 722.933L686.163 737.026L669.526 751.177L652.992 765.379L636.572 779.621L620.275 793.896L604.113 808.195L588.094 822.509L572.229 836.829L556.529 851.147L541.001 865.455L525.657 879.744L510.506 894.004L495.557 908.229L480.82 922.408L466.305 936.535L452.019 950.6L437.973 964.595L424.175 978.512L410.635 992.343L397.36 1006.08L384.359 1019.71L371.64 1033.24L359.213 1046.64L347.084 1059.92L335.261 1073.07L323.753 1086.07L312.566 1098.93L301.708 1111.63L291.186 1124.16L281.007 1136.53L271.177 1148.72L261.704 1160.72L252.593 1172.53L243.85 1184.15L235.482 1195.56L227.493 1206.76L219.89 1217.74L212.678 1228.5L205.86 1239.03L199.444 1249.33L193.431 1259.38L187.828 1269.19L182.638 1278.75L177.864 1288.05L173.511 1297.09L169.581 1305.87L166.077 1314.37L163.003 1322.6L160.36 1330.55L158.15 1338.22L156.377 1345.6L155.041 1352.69L154.144 1359.48L153.687 1365.97L153.671 1372.17L154.096 1378.06L154.964 1383.64L156.273 1388.91L158.024 1393.87L160.216 1398.52L162.849 1402.85L165.922 1406.86L169.432 1410.56L173.38 1413.93L177.762 1416.98L182.577 1419.71L187.823 1422.11L193.496 1424.18L199.595 1425.94L206.115 1427.36L213.053 1428.46L220.407 1429.24L228.171 1429.69L236.341 1429.81L244.914 1429.61L253.884 1429.09L263.247 1428.25L272.997 1427.09L283.128 1425.6L293.636 1423.8L304.514 1421.69L315.757 1419.26L327.356 1416.52L339.307 1413.47L351.602 1410.11L364.235 1406.46L377.197 1402.5L390.482 1398.24L404.081 1393.69L417.987 1388.85L432.192 1383.72L446.687 1378.31L461.464 1372.62L476.514 1366.66L491.829 1360.42L507.399 1353.92L523.216 1347.15L539.269 1340.13L555.549 1332.86L572.048 1325.33L588.754 1317.57L605.658 1309.57L622.75 1301.34L640.02 1292.88L657.457 1284.2L675.051 1275.31L692.791 1266.2L710.667 1256.9L728.668 1247.4L746.783 1237.7L765.001 1227.83L783.311 1217.77L801.703 1207.54L820.164 1197.15L838.684 1186.6L857.251 1175.9L875.855 1165.05L894.484 1154.06L913.126 1142.95L931.771 1131.7L950.406 1120.35L969.02 1108.88L987.603 1097.3L1006.14 1085.64L1024.63 1073.88L1043.04 1062.04L1061.38 1050.13L1079.64 1038.15L1097.79 1026.11L1115.83 1014.01L1133.75 1001.87L1151.53 989.699L1169.17 977.492L1186.65 965.262L1203.97 953.016L1221.11 940.762L1238.07 928.506L1254.82 916.256L1271.37 904.019L1287.69 891.802L1303.79 879.613L1319.65 867.459L1335.25 855.346L1350.6 843.282L1365.68 831.274L1380.48 819.328L1394.99 807.452L1409.21 795.653L1423.12 783.937L1436.71 772.31L1449.98 760.78L1462.92 749.353L1475.52 738.036L1487.77 726.835L1499.66 715.755L1511.19 704.804L1522.34 693.988L1533.12 683.312L1543.51 672.782L1553.51 662.405L1563.11 652.185L1572.31 642.128L1581.09 632.241L1589.46 622.528L1597.4 612.994L1604.91 603.645L1612 594.485L1618.64 585.519L1624.84 576.753L1630.59 568.19L1635.89 559.835L1640.74 551.693L1645.13 543.767L1649.06 536.062L1652.52 528.582L1655.52 521.329L1658.05 514.309L1660.11 507.523L1661.69 500.976L1662.8 494.671L1663.43 488.611L1663.59 482.798L1663.27 477.235L1662.47 471.925L1661.2 466.87L1659.45 462.072L1657.22 457.533L1654.51 453.256L1651.33 449.241L1647.68 445.491L1643.56 442.007L1638.97 438.79L1633.91 435.841L1628.38 433.161L1622.4 430.751L1615.95 428.612L1609.06 426.743L1601.71 425.145L1593.91 423.819L1585.67 422.763L1577 421.979L1567.89 421.465L1558.35 421.221L1548.39 421.246L1538.01 421.54L1527.22 422.101L1516.03 422.929L1504.44 424.021L1492.45 425.377L1480.08 426.995L1467.34 428.873L1454.22 431.009L1440.74 433.401L1426.91 436.047L1412.73 438.944L1398.22 442.091L1383.37 445.484L1368.2 449.121L1352.72 452.998L1336.94 457.113L1320.87 461.463L1304.51 466.044L1287.88 470.853L1270.98 475.886L1253.83 481.14L1236.44 486.611L1218.81 492.294L1200.96 498.187L1182.9 504.285L1164.64 510.583L1146.19 517.078L1127.56 523.764L1108.76 530.638L1089.8 537.695L1070.7 544.93L1051.47 552.338L1032.12 559.915L1012.65 567.655L993.09 575.554L973.442 583.605L953.719 591.805L933.935 600.148L914.1 608.629L894.227 617.241L874.329 625.981L854.417 634.841L834.503 643.818L814.6 652.904L794.72 662.095L774.875 671.385L755.078 680.768L735.34 690.238L715.673 699.79L696.091 709.417L676.604 719.115L657.225 728.876L637.966 738.696L618.838 748.568L599.854 758.487L581.026 768.446L562.364 778.44L543.881 788.462L525.588 798.508L507.497 808.57L489.618 818.644L471.963 828.723L454.542 838.802L437.368 848.874L420.45 858.934L403.799 868.976L387.425 878.995L371.34 888.984L355.552 898.938L340.071 908.852L324.909 918.72L310.073 928.536L295.574 938.295L281.42 947.991L267.621 957.62L254.186 967.176L241.122 976.653L228.438 986.047L216.143 995.352L204.243 1004.56L192.748 1013.68L181.663 1022.69L170.997 1031.59L160.756 1040.38L150.946 1049.05L141.575 1057.59L132.648 1066.02L124.17 1074.31L116.149 1082.46L108.588 1090.48L101.493 1098.35L94.8686 1106.08L88.7192 1113.65L83.049 1121.07L77.8617 1128.33L73.1611 1135.43L68.9502 1142.36L65.2321 1149.13L62.0094 1155.72L59.2846 1162.13L57.0596 1168.37L55.3361 1174.42L54.1158 1180.29L53.3996 1185.98L53.1884 1191.47L53.4828 1196.78L54.2828 1201.89L55.5885 1206.8L57.3993 1211.51L59.7146 1216.03L62.5334 1220.34L65.8542 1224.45L69.6754 1228.35L73.995 1232.05L78.8108 1235.54L84.1201 1238.82L89.9201 1241.89L96.2077 1244.74L102.979 1247.39L110.231 1249.82L117.959 1252.04L126.158 1254.05L134.824 1255.84L143.953 1257.42L153.538 1258.78L163.574 1259.93L174.056 1260.86L184.977 1261.58L196.331 1262.09L208.111 1262.39L220.311 1262.47L232.922 1262.34L245.938 1262L259.351 1261.45L273.153 1260.7L287.336 1259.73L301.892 1258.56L316.811 1257.19L332.084 1255.61L347.704 1253.83L363.66 1251.86L379.942 1249.68L396.542 1247.31L413.448 1244.75L430.652 1241.99L448.142 1239.05L465.908 1235.92L483.939 1232.61L502.224 1229.11L520.753 1225.44L539.514 1221.59L558.496 1217.57L577.687 1213.38L597.076 1209.02L616.651 1204.49L636.399 1199.81L656.31 1194.97L676.37 1189.97L696.568 1184.83L716.891 1179.54L737.328 1174.1L757.865 1168.52L778.489 1162.81L799.189 1156.96L819.952 1150.99L840.765 1144.89L861.615 1138.66L882.49 1132.33L903.376 1125.87L924.261 1119.31L945.132 1112.65L965.977 1105.88L986.782 1099.01L1007.53 1092.06L1028.22 1085.01L1048.83 1077.88L1069.35 1070.67L1089.77 1063.39L1110.07 1056.03L1130.24 1048.61L1150.27 1041.12L1170.15 1033.58L1189.86 1025.98L1209.39 1018.33L1228.74 1010.64L1247.88 1002.91L1266.81 995.137L1285.52 987.336L1303.98 979.507L1322.2 971.656L1340.16 963.786L1357.85 955.901L1375.26 948.007L1392.37 940.108L1409.18 932.207L1425.68 924.31L1441.85 916.419L1457.69 908.541L1473.18 900.679L1488.32 892.836L1503.09 885.018L1517.5 877.229L1531.52 869.472L1545.15 861.752L1558.38 854.072L1571.21 846.438L1583.61 838.852L1595.6 831.318L1607.15 823.84L1618.27 816.423L1628.94 809.07L1639.16 801.784L1648.92 794.57L1658.21 787.43L1667.04 780.369L1675.38 773.39L1683.25 766.495L1690.63 759.69L1697.51 752.976L1703.9 746.357L1709.79 739.836L1715.17 733.416L1720.05 727.101L1724.42 720.893L1728.27 714.795L1731.6 708.809L1734.42 702.939L1736.71 697.187L1738.49 691.555L1739.73 686.047L1740.46 680.664L1740.65 675.409L1740.33 670.284L1739.47 665.291L1738.09 660.433L1736.18 655.71L1733.75 651.126L1730.8 646.682L1727.32 642.379L1723.32 638.22L1718.81 634.205L1713.78 630.337L1708.24 626.616L1702.19 623.045L1695.64 619.624L1688.58 616.354L1681.02 613.236L1672.97 610.272L1664.44 607.463L1655.42 604.808L1645.92 602.309L1635.95 599.966L1625.51 597.78L1614.61 595.751L1603.26 593.88L1591.46 592.167L1579.22 590.612L1566.55 589.216L1553.45 587.977L1539.93 586.897L1526.01 585.974L1511.68 585.21L1496.96 584.602L1481.86 584.152L1466.38 583.859L1450.54 583.721L1434.35 583.739L1417.8 583.911L1400.93 584.238L1383.72 584.717L1366.2 585.349L1348.38 586.131L1330.26 587.064L1311.87 588.145L1293.2 589.374L1274.27 590.749L1255.09 592.269L1235.67 593.933L1216.03 595.739L1196.18 597.685L1176.12 599.77L1155.88 601.992L1135.46 604.349L1114.88 606.84L1094.14 609.463L1073.27 612.216L1052.27 615.096L1031.16 618.102L1009.95 621.232L988.649 624.483L967.277 627.853L945.843 631.341L924.361 634.944L902.845 638.658L881.308 642.483L859.762 646.416L838.222 650.454L816.7 654.595L795.209 658.836L773.763 663.174L752.375 667.608L731.058 672.134L709.825 676.75L688.69 681.452L667.665 686.24L646.763 691.108L625.997 696.055L605.38 701.079L584.925 706.175L564.644 711.342L544.55 716.576L524.655 721.875L504.971 727.235L485.512 732.654L466.287 738.129L447.311 743.657L428.593 749.235L410.147 754.86L391.983 760.528L374.112 766.238L356.546 771.986L339.296 777.769L322.371 783.585L305.783 789.429L289.543 795.3L273.659 801.194L258.142 807.108L243.002 813.04L228.248 818.986L213.889 824.943L199.935 830.91L186.393 836.882L173.272 842.856L160.58 848.831L148.326 854.803L136.518 860.768L125.161 866.726L114.264 872.671L103.833 878.603L93.8753 884.517L84.3965 890.412L75.4028 896.285L66.8999 902.132L58.893 907.951L51.3873 913.74L44.3875 919.496L37.898 925.217L31.9229 930.899L26.4661 936.54L21.531 942.139L17.1209 947.691L13.2385 953.196L9.88644 958.651L7.06682 964.052L4.78155 969.399L3.03215 974.688L1.81986 979.918L1.14552 985.086L1.0097 990.19L1.41261 995.228L2.35413 1000.2L3.83382 1005.1L5.8509 1009.93L8.40424 1014.68L11.4924 1019.36L15.1136 1023.96L19.2658 1028.48L23.9465 1032.92L29.153 1037.27L34.8821 1041.54L41.1306 1045.73L47.8946 1049.83L55.1701 1053.83L62.9528 1057.75L71.2379 1061.58L80.0206 1065.31L89.2955 1068.94L99.057 1072.48L109.299 1075.92L120.016 1079.27L131.201 1082.51L142.847 1085.65L154.947 1088.69L167.494 1091.63L180.48 1094.46L193.898 1097.18L207.739 1099.81L221.994 1102.32L236.656 1104.73L251.715 1107.03L267.162 1109.22L282.987 1111.3L299.181 1113.27L315.734 1115.13L332.636 1116.88L349.877 1118.52L367.446 1120.05L385.332 1121.47L403.524 1122.77L422.012 1123.96L440.783 1125.04L459.827 1126L479.132 1126.86L498.685 1127.6L518.476 1128.23L538.492 1128.74L558.72 1129.14L579.148 1129.43L599.764 1129.61L620.555 1129.68L641.509 1129.63L662.611 1129.47L683.851 1129.21L705.213 1128.83L726.687 1128.34L748.257 1127.74L769.911 1127.03L791.636 1126.22L813.418 1125.3L835.244 1124.27L857.101 1123.13L878.975 1121.89L900.852 1120.54L922.72 1119.09L944.564 1117.54L966.372 1115.88L988.13 1114.13L1009.82 1112.27L1031.44 1110.31L1052.97 1108.26L1074.39 1106.11L1095.7 1103.86L1116.88 1101.52L1137.92 1099.08L1158.8 1096.55L1179.51 1093.93L1200.04 1091.22L1220.37 1088.43L1240.51 1085.54L1260.42 1082.57L1280.1 1079.52L1299.54 1076.38L1318.72 1073.16L1337.64 1069.86L1356.27 1066.48L1374.62 1063.03L1392.67 1059.49L1410.4 1055.89L1427.81 1052.21L1444.89 1048.47L1461.62 1044.65L1478 1040.77L1494.01 1036.82L1509.65 1032.81L1524.91 1028.73L1539.77 1024.6L1554.23 1020.41L1568.27 1016.16L1581.9 1011.85L1595.09 1007.5L1607.85 1003.09L1620.17 998.629L1632.03 994.124L1643.43 989.573L1654.37 984.979L1664.83 980.343L1674.81 975.667L1684.31 970.954L1693.31 966.205L1701.82 961.422L1709.82 956.607L1717.32 951.762L1724.3 946.889L1730.77 941.991L1736.71 937.069L1742.14 932.125L1747.03 927.161L1751.4 922.18L1755.23 917.183L1758.52 912.172L1761.28 907.15L1763.5 902.118L1765.18 897.079L1766.31 892.035L1766.9 886.987L1766.95 881.938L1766.46 876.89L1765.43 871.845L1763.85 866.805L1761.73 861.772L1759.07 856.748L1755.88 851.735L1752.15 846.735L1747.88 841.751L1743.08 836.783L1737.76 831.836L1731.91 826.909L1725.54 822.006L1718.65 817.129L1711.25 812.279L1703.34 807.458L1694.92 802.669L1686.01 797.914L1676.61 793.193L1666.71 788.51L1656.34 783.867L1645.49 779.265L1634.18 774.706L1622.4 770.192L1610.17 765.725L1597.49 761.307L1584.37 756.94L1570.83 752.626L1556.86 748.366L1542.48 744.163L1527.69 740.017L1512.51 735.932L1496.94 731.908L1481 727.948L1464.69 724.052L1448.02 720.224L1431 716.464L1413.65 712.775L1395.98 709.157L1377.99 705.613L1359.7 702.144L1341.11 698.752L1322.25 695.438L1303.11 692.203L1283.72 689.05L1264.08 685.98L1244.21 682.993L1224.12 680.092L1203.82 677.278L1183.33 674.553L1162.65 671.917L1141.8 669.371L1120.79 666.918L1099.64 664.558L1078.35 662.293L1056.95 660.124L1035.44 658.051L1013.84 656.077L992.155 654.201L970.408 652.425L948.609 650.751L926.77 649.178L904.906 647.709L883.029 646.343L861.154 645.081L839.293 643.926L817.46 642.876L795.669 641.933L773.932 641.098L752.264 640.371L730.677 639.753L709.185 639.244L687.8 638.845L666.537 638.557L645.408 638.38L624.426 638.313L603.604 638.358L582.955 638.516L562.491 638.785L542.224 639.166L522.168 639.66L502.335 640.267L482.737 640.987L463.385 641.819L444.292 642.764L425.469 643.822L406.928 644.992L388.68 646.274L370.736 647.669L353.108 649.176L335.806 650.794L318.84 652.524L302.222 654.365L285.96 656.316L270.066 658.377L254.548 660.547L239.417 662.827L224.681 665.214L210.349 667.709L196.431 670.311L182.934 673.019L169.868 675.832L157.238 678.749L145.055 681.769L133.324 684.892L122.053 688.116L111.249 691.44L100.919 694.863L91.0678 698.385L81.7023 702.002L72.828 705.715L64.4503 709.523L56.5742 713.422L49.2043 717.413L42.3452 721.494L36.0009 725.663L30.1753 729.919L24.8717 734.259L20.0934 738.683L15.8431 743.189L12.1233 747.774L8.93618 752.438L6.28361 757.178L4.16707 761.992L2.58773 766.879L1.54644 771.836L1.04369 776.862L1.07969 781.954L1.65426 787.11L2.76694 792.328L4.41688 797.607L6.60297 802.943L9.32369 808.334L12.5773 813.779L16.3616 819.275L20.6741 824.819L25.5121 830.409L30.8725 836.042L36.7518 841.717L43.1463 847.431L50.0518 853.18L57.4642 858.964L65.3786 864.778L73.79 870.62L82.6931 876.488L92.0824 882.379L101.952 888.29L112.296 894.218L123.107 900.162L134.379 906.117L146.104 912.081L158.276 918.052L170.887 924.026L183.929 930.001L197.394 935.974L211.273 941.941L225.557 947.901L240.239 953.849L255.308 959.784L270.756 965.702L286.572 971.6L302.747 977.475L319.272 983.324L336.134 989.145L353.325 994.935L370.834 1000.69L388.649 1006.41L406.759 1012.08L425.154 1017.72L443.822 1023.3L462.752 1028.84L481.931 1034.33L501.348 1039.75L520.991 1045.13L540.848 1050.44L560.906 1055.68L581.153 1060.86L601.577 1065.97L622.165 1071.01L642.904 1075.97L663.782 1080.85L684.785 1085.66L705.901 1090.38L727.117 1095.01L748.419 1099.55L769.795 1104L791.231 1108.36L812.714 1112.62L834.232 1116.78L855.77 1120.83L877.315 1124.79L898.855 1128.63L920.376 1132.37L941.865 1135.99L963.309 1139.5L984.694 1142.89L1006.01 1146.16L1027.24 1149.32L1048.37 1152.35L1069.39 1155.25L1090.29 1158.03L1111.05 1160.67L1131.66 1163.19L1152.11 1165.57L1172.39 1167.82L1192.48 1169.93L1212.37 1171.9L1232.05 1173.73L1251.51 1175.42L1270.73 1176.97L1289.71 1178.37L1308.43 1179.63L1326.88 1180.74L1345.05 1181.7L1362.92 1182.51L1380.5 1183.17L1397.76 1183.67L1414.7 1184.03L1431.31 1184.23L1447.57 1184.28L1463.48 1184.17L1479.02 1183.9L1494.19 1183.48L1508.98 1182.9L1523.38 1182.17L1537.38 1181.28L1550.97 1180.22L1564.15 1179.02L1576.9 1177.65L1589.22 1176.12L1601.11 1174.44L1612.54 1172.6L1623.52 1170.6L1634.05 1168.44L1644.11 1166.13L1653.69 1163.66L1662.8 1161.03L1671.43 1158.25L1679.57 1155.31L1687.22 1152.23L1694.37 1148.98L1701.01 1145.59L1707.16 1142.05L1712.79 1138.35L1717.92 1134.51L1722.53 1130.53L1726.62 1126.39L1730.19 1122.12L1733.24 1117.7L1735.77 1113.14L1737.77 1108.44L1739.25 1103.61L1740.21 1098.64L1740.63 1093.54L1740.53 1088.31L1739.91 1082.95L1738.76 1077.46L1737.08 1071.86L1734.88 1066.13L1732.17 1060.28L1728.93 1054.31L1725.17 1048.24L1720.9 1042.05L1716.12 1035.75L1710.83 1029.35L1705.03 1022.85L1698.73 1016.25L1691.94 1009.55L1684.65 1002.76L1676.88 995.884L1668.62 988.92L1659.88 981.874L1650.67 974.749L1641 967.548L1630.87 960.275L1620.28 952.934L1609.25 945.529L1597.77 938.062L1585.87 930.539L1573.54 922.962L1560.79 915.336L1547.63 907.664L1534.07 899.951L1520.13 892.201L1505.79 884.417L1491.08 876.604L1476.01 868.766L1460.58 860.907L1444.81 853.032L1428.7 845.143L1412.26 837.247L1395.51 829.346L1378.45 821.446L1361.1 813.551L1343.46 805.664L1325.55 797.791L1307.38 789.936L1288.96 782.103L1270.29 774.296L1251.41 766.521L1232.3 758.781L1212.99 751.08L1193.49 743.424L1173.81 735.817L1153.96 728.262L1133.96 720.765L1113.81 713.329L1093.54 705.96L1073.14 698.662L1052.64 691.438L1032.05 684.293L1011.37 677.231L990.631 670.258L969.835 663.376L948.997 656.59L928.13 649.905L907.247 643.324L886.359 636.851L865.482 630.491L844.626 624.248L823.806 618.124L803.033 612.126L782.32 606.255L761.68 600.517L741.126 594.914L720.67 589.451L700.325 584.131L680.103 578.957L660.016 573.934L640.077 569.064L620.297 564.351L600.69 559.798L581.266 555.408L562.037 551.185L543.016 547.132L524.213 543.25L505.64 539.545L487.308 536.017L469.229 532.67L451.413 529.506L433.871 526.528L416.614 523.739L399.652 521.14L382.994 518.734L366.652 516.523L350.635 514.509L334.953 512.694L319.614 511.08L304.629 509.668L290.006 508.46L275.753 507.457L261.88 506.662L248.394 506.074L235.304 505.696L222.617 505.528L210.34 505.572L198.482 505.827L187.049 506.295L176.047 506.977L165.483 507.872L155.364 508.981L145.695 510.305L136.481 511.842L127.729 513.594L119.442 515.561L111.627 517.741L104.287 520.134L97.426 522.74L91.0486 525.559L85.158 528.589L79.7575 531.829L74.85 535.279L70.4383 538.937L66.5245 542.802L63.1109 546.873L60.199 551.147L57.7903 555.624L55.8859 560.302L54.4866 565.178L53.5929 570.251L53.2048 575.519L53.3223 580.978L53.945 586.628L55.072 592.465L56.7023 598.486L58.8345 604.689L61.4668 611.072L64.5974 617.63L68.2239 624.362L72.3437 631.263L76.9538 638.33L82.0512 645.561L87.6322 652.951L93.6931 660.496L100.23 668.194L107.238 676.04L114.713 684.03L122.649 692.16L131.043 700.427L139.887 708.825L149.176 717.35L158.905 725.999L169.067 734.765L179.655 743.646L190.662 752.636L202.082 761.73L213.907 770.924L226.13 780.212L238.743 789.59L251.737 799.052L265.104 808.593L278.836 818.209L292.925 827.893L307.361 837.641L322.135 847.447L337.237 857.306L352.66 867.212L368.391 877.159L384.423 887.142L400.744 897.156L417.344 907.194L434.213 917.251L451.341 927.321L468.717 937.399L486.329 947.479L504.167 957.554L522.22 967.619L540.477 977.668L558.925 987.695L577.555 997.695L596.353 1007.66L615.309 1017.59L634.411 1027.47L653.647 1037.3L673.004 1047.07L692.472 1056.78L712.038 1066.42L731.69 1075.99L751.415 1085.47L771.203 1094.87L791.04 1104.18L810.914 1113.39L830.814 1122.5L850.726 1131.49L870.64 1140.38L890.542 1149.14L910.42 1157.78L930.262 1166.28L950.057 1174.65L969.792 1182.88L989.455 1190.96L1009.03 1198.88L1028.52 1206.65L1047.89 1214.26L1067.15 1221.7L1086.27 1228.97L1105.26 1236.06L1124.09 1242.97L1142.75 1249.69L1161.23 1256.22L1179.53 1262.55L1197.63 1268.69L1215.52 1274.62L1233.19 1280.34L1250.63 1285.85L1267.82 1291.15L1284.77 1296.22L1301.45 1301.07L1317.86 1305.7L1333.99 1310.09L1349.82 1314.25L1365.36 1318.17L1380.58 1321.85L1395.49 1325.29L1410.07 1328.48L1424.31 1331.43L1438.21 1334.12L1451.75 1336.56L1464.94 1338.74L1477.75 1340.67L1490.19 1342.33L1502.24 1343.74L1513.91 1344.88L1525.18 1345.76L1536.04 1346.37L1546.5 1346.71L1556.53 1346.78L1566.15 1346.59L1575.34 1346.13L1584.1 1345.39L1592.42 1344.39L1600.3 1343.11L1607.73 1341.56L1614.71 1339.74L1621.24 1337.66L1627.31 1335.3L1632.92 1332.67L1638.06 1329.77L1642.74 1326.6L1646.95 1323.16L1650.69 1319.46L1653.96 1315.5L1656.75 1311.27L1659.07 1306.78L1660.91 1302.03L1662.27 1297.02L1663.16 1291.76L1663.57 1286.24L1663.5 1280.48L1662.95 1274.46L1661.93 1268.2L1660.43 1261.7L1658.47 1254.96L1656.02 1247.98L1653.11 1240.77L1649.74 1233.33L1645.89 1225.67L1641.59 1217.78L1636.83 1209.68L1631.61 1201.36L1625.94 1192.84L1619.82 1184.11L1613.26 1175.18L1606.26 1166.06L1598.82 1156.74L1590.96 1147.24L1582.67 1137.56L1573.97 1127.71L1564.85 1117.68L1555.32 1107.49L1545.4 1097.14L1535.08 1086.64L1524.37 1075.99L1513.28 1065.2L1501.82 1054.27L1490 1043.22L1477.81 1032.04L1465.28 1020.74L1452.41 1009.34L1439.2 997.824L1425.66 986.215L1411.81 974.515L1397.65 962.73L1383.19 950.868L1368.45 938.935L1353.42 926.938L1338.12 914.884L1322.56 902.779L1306.75 890.632L1290.69 878.449L1274.41 866.237L1257.9 854.003L1241.19 841.755L1224.27 829.499L1207.16 817.244L1189.88 804.996L1172.42 792.763L1154.81 780.551L1137.05 768.369L1119.16 756.223L1101.14 744.122L1083.01 732.071L1064.77 720.079L1046.45 708.153L1028.04 696.299L1009.57 684.526L991.042 672.841L972.466 661.25L953.857 649.761L935.225 638.382L916.581 627.118L897.938 615.977L879.306 604.966L860.696 594.093L842.121 583.363L823.592 572.783L805.119 562.361L786.713 552.103L768.387 542.015L750.151 532.104L732.016 522.376L713.993 512.838L696.094 503.496L678.327 494.355L660.706 485.422L643.239 476.703L625.937 468.203L608.811 459.929L591.872 451.885L575.128 444.077L558.59 436.51L542.269 429.189L526.173 422.121L510.312 415.308L494.695 408.756L479.332 402.47L464.232 396.454L449.404 390.713L434.856 385.25L420.597 380.069L406.635 375.175L392.978 370.57L379.635 366.259L366.612 362.245L353.918 358.53L341.56 355.119L329.545 352.013L317.879 349.215L306.57 346.728L295.624 344.555L285.047 342.696L274.845 341.154L265.024 339.931L255.59 339.028L246.546 338.447L237.9 338.189L229.654 338.254L221.814 338.644L214.385 339.359L207.369 340.399L200.771 341.765L194.594 343.456L188.842 345.473L183.517 347.815L178.622 350.481L174.159 353.471L170.131 356.783L166.539 360.417L163.385 364.37L160.671 368.642L158.397 373.231L156.564 378.134L155.173 383.349L154.224 388.875L153.717 394.708L153.651 400.846L154.026 407.285L154.842 414.024L156.096 421.057L157.789 428.382L159.917 435.996L162.48 443.894L165.475 452.071L168.899 460.525L172.75 469.25L177.026 478.242L181.722 487.497L186.835 497.008L192.362 506.772L198.299 516.782L204.641 527.034L211.384 537.521L218.524 548.239L226.055 559.181L233.972 570.34L242.271 581.712L250.944 593.289L259.988 605.066L269.395 617.035L279.159 629.189L289.273 641.522L299.732 654.028L310.529 666.697L321.655 679.525L333.104 692.502L344.869 705.622L356.942 718.878L369.315 732.26L381.98 745.762L394.93 759.377L408.154 773.095L421.647 786.909L435.397 800.81L449.398 814.791L463.64 828.844L478.114 842.96L492.81 857.13L507.72 871.347L522.835 885.601L538.144 899.885L553.638 914.19L569.307 928.507L585.143 942.828L601.133 957.144L617.27 971.446L633.542 985.726L649.94 999.975L666.454 1014.18L683.072 1028.35L699.786 1042.45L716.585 1056.49L733.457 1070.46L750.394 1084.34L767.384 1098.13L784.418 1111.82L801.484 1125.4L818.572 1138.87L835.673 1152.21L852.774 1165.42L869.867 1178.49L886.941 1191.41L903.985 1204.17L920.989 1216.76L937.943 1229.18L954.837 1241.42L971.659 1253.47L988.402 1265.32L1005.05 1276.97L1021.6 1288.41L1038.04 1299.63L1054.36 1310.61L1070.55 1321.37L1086.6 1331.89L1102.5 1342.15L1118.24 1352.17L1133.82 1361.92L1149.21 1371.41L1164.42 1380.62L1179.44 1389.55L1194.25 1398.2L1208.85 1406.55L1223.23 1414.61L1237.37 1422.36L1251.28 1429.81L1264.95 1436.94L1278.36 1443.76L1291.51 1450.25L1304.38 1456.42L1316.99 1462.25L1329.31 1467.75L1341.34 1472.91L1353.07 1477.73L1364.5 1482.19L1375.61 1486.31L1386.41 1490.07L1396.89 1493.48L1407.04 1496.52L1416.85 1499.21L1426.33 1501.53L1435.46 1503.48L1444.24 1505.06L1452.67 1506.28L1460.73 1507.12L1468.44 1507.59L1475.78 1507.68L1482.74 1507.4L1489.33 1506.74L1495.55 1505.71L1501.38 1504.3L1506.83 1502.52L1511.89 1500.36L1516.56 1497.83L1520.84 1494.92L1524.73 1491.64L1528.22 1487.99L1531.31 1483.96L1534.01 1479.57L1536.31 1474.81L1538.21 1469.69L1539.71 1464.21L1540.82 1458.36L1541.52 1452.16L1541.82 1445.61L1541.72 1438.7L1541.23 1431.45L1540.33 1423.86L1539.04 1415.92L1537.36 1407.66L1535.29 1399.06L1532.82 1390.13L1529.96 1380.89L1526.72 1371.33L1523.09 1361.45L1519.09 1351.27L1514.7 1340.8L1509.95 1330.02L1504.82 1318.96L1499.32 1307.62L1493.46 1296L1487.24 1284.12L1480.67 1271.97L1473.75 1259.56L1466.48 1246.91L1458.87 1234.01L1450.93 1220.88L1442.66 1207.53L1434.07 1193.95L1425.15 1180.17L1415.93 1166.18L1406.4 1152L1396.57 1137.63L1386.45 1123.08L1376.04 1108.36L1365.35 1093.48L1354.39 1078.45L1343.16 1063.28L1331.68 1047.97L1319.95 1032.54L1307.97 1016.99L1295.76 1001.33L1283.32 985.575L1270.66 969.731L1257.78 953.808L1244.71 937.816L1231.44 921.764L1217.98 905.662L1204.35 889.519L1190.54 873.345L1176.58 857.151L1162.46 840.945L1148.2 824.737L1133.8 808.538L1119.28 792.357L1104.65 776.204L1089.9 760.089L1075.06 744.022L1060.13 728.013L1045.12 712.071L1030.03 696.206L1014.89 680.428L999.692 664.747L984.453 649.172L969.18 633.714L953.883 618.381L938.57 603.183L923.252 588.13L907.937 573.231L892.635 558.495L877.355 543.932L862.106 529.55L846.897 515.36L831.737 501.369L816.636 487.586L801.602 474.021L786.645 460.682L771.772 447.577L756.994 434.715L742.318 422.103L727.754 409.751L713.31 397.666L698.993 385.855L684.814 374.327L670.78 363.089L656.899 352.148L643.179 341.511L629.628 331.185L616.255 321.178L603.066 311.495L590.069 302.143L577.273 293.129L564.683 284.458L552.307 276.136L540.153 268.168L528.227 260.562L516.535 253.32L505.085 246.449L493.883 239.953L482.934 233.837L472.246 228.105L461.823 222.761L451.673 217.809L441.799 213.253L432.208 209.096L422.905 205.341L413.895 201.992L405.182 199.05L396.771 196.519L388.667 194.4L380.874 192.695L373.396 191.407L366.236 190.536L359.399 190.084L352.888 190.051L346.705 190.439L340.854 191.248L335.339 192.477L330.16 194.128L325.322 196.198L320.825 198.689L316.672 201.598L312.865 204.926L309.406 208.67L306.294 212.828L303.533 217.4L301.122 222.382L299.062 227.773L297.354 233.57L295.998 239.769L294.993 246.368L294.341 253.363L294.04 260.75L294.09 268.527L294.49 276.687L295.239 285.228L296.336 294.145L297.78 303.431L299.568 313.084L301.699 323.096L304.17 333.463L306.981 344.179L310.127 355.238L313.607 366.633L317.418 378.358L321.557 390.407L326.019 402.772L330.803 415.447L335.904 428.424L341.319 441.696L347.044 455.254L353.074 469.092L359.405 483.202L366.033 497.574L372.953 512.201L380.161 527.074L387.65 542.184L395.417 557.523L403.456 573.082L411.76 588.851L420.326 604.82L429.147 620.982L438.217 637.325L447.53 653.84L457.08 670.518L466.861 687.349L476.867 704.322L487.09 721.427L497.524 738.654L508.163 755.993L518.999 773.433L530.026 790.965L541.237 808.576L552.624 826.257L564.18 843.997L575.898 861.785L587.771 879.61L599.791 897.462L611.95 915.33L624.241 933.203L636.656 951.069L649.188 968.919L661.829 986.741L674.57 1004.52L687.404 1022.26L700.324 1039.93L713.32 1057.53L726.386 1075.05L739.514 1092.48L752.694 1109.8L765.92 1127.01L779.183 1144.09L792.475 1161.04L805.789 1177.84L819.116 1194.48L832.448 1210.96L845.777 1227.25L859.095 1243.37L872.395 1259.28L885.669 1274.99L898.908 1290.47L912.105 1305.74L925.252 1320.76L938.341 1335.54L951.365 1350.06L964.316 1364.32L977.187 1378.3L989.969 1392L1002.66 1405.41L1015.24 1418.52L1027.72 1431.32L1040.07 1443.81L1052.31 1455.97L1064.41 1467.79L1076.37 1479.28L1088.19 1490.42L1099.86 1501.2L1111.37 1511.62L1122.72 1521.68L1133.89 1531.35L1144.89 1540.65L1155.7 1549.56L1166.33 1558.07L1176.76 1566.19L1186.99 1573.89L1197.02 1581.19L1206.83 1588.08L1216.42 1594.54L1225.8 1600.58L1234.94 1606.19L1243.86 1611.37L1252.54 1616.11L1260.97 1620.41L1269.17 1624.27L1277.11 1627.69L1284.8 1630.65L1292.23 1633.17L1299.4 1635.23L1306.3 1636.83L1312.94 1637.98L1319.3 1638.68L1325.39 1638.91L1331.2 1638.69L1336.74 1638L1341.98 1636.86L1346.95 1635.25L1351.63 1633.19L1356.01 1630.67L1360.11 1627.69L1363.91 1624.26L1367.42 1620.37L1370.64 1616.02L1373.56 1611.23L1376.18 1605.99L1378.5 1600.3L1380.52 1594.18L1382.25 1587.61L1383.67 1580.6L1384.8 1573.17L1385.62 1565.3L1386.15 1557.01L1386.38 1548.3L1386.31 1539.18L1385.95 1529.65L1385.28 1519.72L1384.33 1509.38L1383.08 1498.66L1381.54 1487.55L1379.71 1476.05L1377.59 1464.19L1375.19 1451.96L1372.5 1439.36L1369.53 1426.42L1366.28 1413.13L1362.76 1399.51L1358.96 1385.55L1354.89 1371.28L1350.56 1356.69L1345.96 1341.8L1341.1 1326.61L1335.99 1311.14L1330.62 1295.39L1325 1279.37L1319.14 1263.1L1313.04 1246.57L1306.7 1229.81L1300.13 1212.82L1293.33 1195.61L1286.31 1178.19L1279.07 1160.58L1271.62 1142.77L1263.96 1124.79L1256.1 1106.65L1248.04 1088.35L1239.78 1069.91L1231.34 1051.33L1222.72 1032.63L1213.93 1013.82L1204.96 994.916L1195.83 975.922L1186.54 956.852L1177.09 937.718L1167.5 918.532L1157.78 899.304L1147.91 880.048L1137.92 860.774L1127.8 841.494L1117.57 822.221L1107.24 802.966L1096.79 783.741L1086.26 764.557L1075.63 745.427L1064.92 726.361L1054.13 707.373L1043.27 688.473L1032.35 669.674L1021.37 650.986L1010.34 632.422L999.265 613.993L988.154 595.71L977.013 577.585L965.848 559.629L954.665 541.852L943.472 524.267L932.274 506.884L921.079 489.714L909.893 472.768L898.723 456.056L887.574 439.589L876.454 423.376L865.369 407.429L854.325 391.758L843.328 376.371L832.386 361.279L821.503 346.492L810.687 332.018L799.943 317.868L789.277 304.049L778.696 290.57L768.205 277.442L757.811 264.67L747.518 252.265L737.332 240.233L727.26 228.583L717.307 217.321L707.478 206.456L697.778 195.994L688.213 185.942L678.788 176.307L669.507 167.095L660.376 158.312L651.4 149.963L642.584 142.055L633.931 134.592L625.447 127.579L617.135 121.022L609.001 114.925L601.048 109.291L593.28 104.125L585.702 99.4304L578.317 95.2104L571.128 91.4679L564.139 88.2058L557.354 85.4266L550.776 83.1322L544.408 81.3247L538.252 80.0055L532.313 79.1759L526.592 78.8368L521.092 78.9889L515.816 79.6326L510.766 80.7679L505.943 82.3944L501.351 84.5118L496.991 87.1191L492.864 90.2151L488.973 93.7984L485.318 97.8673L481.902 102.42L478.725 107.453L475.788 112.965L473.092 118.952L470.638 125.412L468.427 132.34L466.458 139.733L464.732 147.587L463.25 155.897L462.012 164.658L461.016 173.867L460.264 183.516L459.754 193.602L459.486 204.117L459.459 215.057L459.673 226.413L460.126 238.181L460.818 250.353L461.747 262.922L462.912 275.881L464.311 289.222L465.943 302.936L467.806 317.017L469.898 331.456L472.217 346.244L474.76 361.372L477.527 376.831L480.514 392.613L483.718 408.707L487.138 425.105L490.77 441.796L494.611 458.771L498.659 476.018L502.911 493.529L507.363 511.292L512.013 529.296L516.856 547.531L521.889 565.986L527.109 584.65L532.512 603.511L538.094 622.558L543.852 641.78L549.781 661.164L555.878 680.699L562.138 700.374L568.557 720.176L575.131 740.093L581.856 760.113L588.727 780.223L595.74 800.413L602.89 820.669L610.173 840.978L617.584 861.33L625.118 881.71L632.771 902.107L640.538 922.508L648.414 942.9L656.394 963.272L664.473 983.61L672.646 1003.9L680.908 1024.14L689.255 1044.3L697.68 1064.38L706.18 1084.36L714.749 1104.24L723.381 1123.99L732.073 1143.62L740.817 1163.1L749.611 1182.42L758.447 1201.57L767.322 1220.54L776.229 1239.33L785.164 1257.9L794.122 1276.26L803.097 1294.4L812.085 1312.29L821.08 1329.94L830.076 1347.33L839.07 1364.44L848.056 1381.28L857.029 1397.82L865.984 1414.06L874.915 1429.98L883.819 1445.59L892.69 1460.86L901.523 1475.78L910.313 1490.36L919.056 1504.58L927.747 1518.42L936.382 1531.89L944.955 1544.97L953.462 1557.65L961.898 1569.94L970.26 1581.81L978.543 1593.26L986.742 1604.28L994.853 1614.87L1002.87 1625.03L1010.79 1634.73L1018.62 1643.98L1026.34 1652.78L1033.95 1661.11L1041.45 1668.97L1048.83 1676.35L1056.09 1683.26L1063.23 1689.68L1070.25 1695.61L1077.13 1701.05L1083.89 1705.99L1090.5 1710.44L1096.98 1714.38L1103.31 1717.81L1109.5 1720.74L1115.54 1723.16L1121.43 1725.07L1127.17 1726.46L1132.75 1727.34L1138.17 1727.7L1143.43 1727.55L1148.53 1726.88L1153.46 1725.7L1158.23 1724L1162.83 1721.79L1167.25 1719.06L1171.5 1715.82L1175.58 1712.07L1179.48 1707.81L1183.21 1703.04L1186.75 1697.77L1190.12 1692L1193.3 1685.73L1196.31 1678.97L1199.13 1671.71L1201.76 1663.98L1204.21 1655.76L1206.48 1647.06L1208.56 1637.89L1210.46 1628.25L1212.17 1618.16L1213.69 1607.61L1215.03 1596.61L1216.18 1585.16L1217.15 1573.29L1217.93 1560.98L1218.52 1548.25L1218.93 1535.11L1219.15 1521.57L1219.2 1507.62L1219.05 1493.29L1218.73 1478.58L1218.23 1463.49L1217.54 1448.04L1216.68 1432.24L1215.64 1416.1L1214.42 1399.62L1213.03 1382.81L1211.46 1365.69L1209.72 1348.27L1207.82 1330.56L1205.74 1312.56L1203.5 1294.29L1201.09 1275.76L1198.52 1256.98L1195.79 1237.96L1192.9 1218.72L1189.86 1199.26L1186.66 1179.59L1183.31 1159.74L1179.81 1139.71L1176.17 1119.51L1172.38 1099.16L1168.45 1078.66L1164.38 1058.04L1160.18 1037.3L1155.84 1016.45L1151.38 995.514L1146.79 974.499L1142.07 953.418L1137.23 932.284L1132.28 911.109L1127.21 889.908L1122.03 868.693L1116.74 847.478L1111.34 826.274L1105.85 805.095L1100.26 783.955L1094.57 762.866L1088.79 741.841L1082.92 720.893L1076.97 700.035L1070.94 679.279L1064.83 658.64L1058.65 638.128L1052.39 617.758L1046.07 597.542L1039.69 577.491L1033.25 557.619L1026.75 537.937L1020.2 518.459L1013.6 499.195L1006.96 480.158L1000.28 461.36L993.56 442.813L986.807 424.527L980.023 406.514L973.213 388.786L966.381 371.353L959.53 354.226L952.664 337.417L945.787 320.934L938.901 304.789L932.011 288.992L925.12 273.552L918.233 258.48L911.351 243.783L904.48 229.473L897.622 215.558L890.78 202.045L883.96 188.945L877.163 176.265L870.393 164.013L863.654 152.196L856.948 140.823L850.28 129.9L843.652 119.435L837.068 109.433L830.53 99.9015L824.043 90.8462L817.608 82.273L811.23 74.1872L804.911 66.594L798.653 59.4983L792.46 52.9047L786.336 46.8173L780.281 41.2401L774.301 36.1768L768.396 31.6306L762.569 27.6046L756.824 24.1014L751.163 21.1233L745.588 18.6724L740.102 16.7505L734.707 15.3587L729.405 14.4984L724.199 14.17L719.09 14.3741L714.081 15.1107L709.175 16.3796L704.372 18.1802L699.675 20.5115L695.086 23.3723L690.606 26.7611L686.238 30.6759L681.983 35.1146L677.842 40.0746L673.817 45.553L669.91 51.5466L666.122 58.052L662.454 65.0653L658.908 72.5824L655.485 80.5988L652.186 89.1098L649.012 98.1104L645.963 107.595L643.042 117.558L640.249 127.994L637.584 138.896L635.048 150.258L632.643 162.072L630.368 174.333L628.225 187.031L626.213 200.161L624.333 213.713L622.586 227.68L620.971 242.053L619.489 256.824L618.14 271.983L616.924 287.521L615.842 303.43L614.892 319.698L614.075 336.317L613.391 353.276L612.839 370.565L612.42 388.173L612.132 406.09L611.976 424.305L611.95 442.807L612.055 461.583L612.29 480.624L612.653 499.917L613.145 519.451L613.765 539.213L614.511 559.191L615.384 579.374L616.381 599.749L617.502 620.303L618.746 641.025L620.111 661.9L621.598 682.917L623.203 704.062L624.927 725.323L626.768 746.687L628.724 768.14L630.795 789.669L632.978 811.261L635.272 832.904L637.676 854.583L640.189 876.285L642.808 897.997L645.531 919.705L648.359 941.397L651.287 963.059L654.316 984.677L657.442 1006.24L660.664 1027.73L663.981 1049.14L667.391 1070.45L670.89 1091.65L674.479 1112.74L678.153 1133.68L681.913 1154.48L685.755 1175.11L689.677 1195.57L693.678 1215.85L697.755 1235.92L701.906 1255.79L706.129 1275.43L710.422 1294.83L714.783 1313.99L719.209 1332.89L723.698 1351.52L728.248 1369.86L732.857 1387.91L737.522 1405.66L742.241 1423.08L747.012 1440.19L751.832 1456.95L756.7 1473.37L761.612 1489.43L766.567 1505.12L771.562 1520.43L776.595 1535.36L781.663 1549.88L786.765 1564.01L791.897 1577.72L797.057 1591.01L802.244 1603.86L807.454 1616.28L812.685 1628.25L817.935 1639.77L823.202 1650.83L828.483 1661.41L833.776 1671.53L839.078 1681.16L844.387 1690.31L849.702 1698.96L855.018 1707.12L860.335 1714.77L865.65 1721.92L870.96 1728.55L876.264 1734.66L881.559 1740.26L886.842 1745.33L892.112 1749.88L897.367 1753.89L902.603 1757.38L907.819 1760.33L913.013 1762.74L918.182 1764.61L923.325 1765.95L928.439 1766.75L933.523 1767L938.573 1766.71L943.588 1765.89L948.567 1764.52L953.506 1762.61L958.404 1760.17L963.259 1757.19L968.069 1753.67L972.832 1749.62L977.546 1745.04L982.21 1739.93L986.821 1734.29L991.378 1728.14L995.878 1721.47L1000.32 1714.28L1004.7 1706.58L1009.02 1698.38L1013.28 1689.68L1017.48 1680.49L1021.6 1670.81L1025.66 1660.64L1029.65 1650L1033.57 1638.89L1037.41 1627.31L1041.18 1615.28L1044.88 1602.8L1048.5 1589.88L1052.04 1576.52L1055.5 1562.74L1058.88 1548.55L1062.18 1533.94L1065.39 1518.94L1068.52 1503.54L1071.56 1487.77L1074.52 1471.62L1077.38 1455.12L1080.16 1438.26L1082.85 1421.06L1085.45 1403.54L1087.95 1385.69L1090.36 1367.54L1092.68 1349.09L1094.9 1330.35L1097.02 1311.34L1099.05 1292.07L1100.99 1272.54L1102.82 1252.78L1104.55 1232.79L1106.19 1212.59L1107.73 1192.18L1109.16 1171.59L1110.49 1150.81L1111.73 1129.88L1112.86 1108.79L1113.88 1087.57L1114.81 1066.22L1115.63 1044.76L1116.35 1023.2L1116.96 1001.55L1117.47 979.833L1117.88 958.056L1118.18 936.233L1118.38 914.379L1118.47 892.505L1118.46 870.627L1118.34 848.757L1118.12 826.908L1117.8 805.095L1117.37 783.33L1116.84 761.626L1116.2 739.998L1115.46 718.459L1114.61 697.021L1113.66 675.698L1112.61 654.503L1111.46 633.449L1110.21 612.549L1108.85 591.816L1107.39 571.262L1105.84 550.9L1104.18 530.743L1102.42 510.803L1100.57 491.093L1098.61 471.623L1096.56 452.407L1094.41 433.456L1092.17 414.782L1089.83 396.396L1087.4 378.309L1084.88 360.533L1082.26 343.079L1079.55 325.957L1076.75 309.177L1073.87 292.75L1070.89 276.687L1067.83 260.996L1064.68 245.688L1061.45 230.772L1058.14 216.257L1054.74 202.152L1051.26 188.465L1047.7 175.206L1044.07 162.381L1040.35 150L1036.57 138.069L1032.7 126.595L1028.77 115.587L1024.77 105.05L1020.69 94.9909L1016.55 85.4161L1012.34 76.3312L1008.07 67.7418L1003.74 59.6531L999.339 52.07L994.884 44.9973L990.371 38.4391L985.802 32.3994L981.179 26.8819L976.504 21.8899L971.779 17.4265L967.005 13.4943L962.185 10.0957L957.32 7.23276L952.413 4.90709L947.465 3.12012L942.478 1.87287L937.455 1.16603L932.397 1L927.306 1.37479L922.186 2.29013L917.037 3.74537L911.862 5.73954L906.663 8.27136L901.442 11.3392L896.201 14.9411L890.943 19.0748L885.67 23.7377L880.384 28.9268L875.087 34.6389L869.782 40.8703L864.47 47.6173L859.155 54.8755L853.838 62.6404L848.521 70.9073L843.208 79.6708L837.9 88.9257L832.6 98.666L827.309 108.886L822.031 119.579L816.768 130.738L811.522 142.357L806.295 154.428L801.09 166.944L795.909 179.897L790.755 193.279L785.629 207.082L780.535 221.297L775.474 235.915L770.45 250.928L765.463 266.325L760.518 282.098L755.615 298.237L750.758 314.732L745.948 331.572L741.188 348.747L736.481 366.247L731.828 384.061L727.233 402.177L722.696 420.585L718.221 439.273L713.809 458.229L709.463 477.443L705.186 496.901L700.978 516.593L696.843 536.506L692.783 556.627L688.8 576.944L684.895 597.445L681.071 618.118L677.33 638.948L673.674 659.924L670.106 681.033L666.626 702.261L663.237 723.596L659.941 745.024L656.739 766.533L653.635 788.108L650.628 809.737L647.722 831.407L644.918 853.104L642.217 874.814L639.622 896.525L637.133 918.223L634.753 939.895L632.483 961.528L630.325 983.107L628.28 1004.62L626.349 1026.05L624.534 1047.4L622.837 1068.63L621.257 1089.75L619.798 1110.74L618.459 1131.58L617.242 1152.27L616.149 1172.78L615.179 1193.11L614.335 1213.25L613.616 1233.18L613.025 1252.9L612.562 1272.38L612.226 1291.62L612.021 1310.6L611.945 1329.32L611.999 1347.75L612.184 1365.9L612.501 1383.75L612.95 1401.29L613.531 1418.51L614.245 1435.39L615.091 1451.93L616.07 1468.12L617.183 1483.95L618.428 1499.41L619.807 1514.48L621.318 1529.16L622.962 1543.45L624.739 1557.32L626.648 1570.78L628.689 1583.82L630.862 1596.42L633.166 1608.58L635.6 1620.29L638.164 1631.55L640.858 1642.35L643.68 1652.68L646.629 1662.54L649.705 1671.92L652.908 1680.81L656.235 1689.21L659.685 1697.12L663.258 1704.53L666.953 1711.43L670.768 1717.82L674.701 1723.7L678.751 1729.06L682.918 1733.91L687.198 1738.23L691.592 1742.03L696.096 1745.3L700.709 1748.04L705.429 1750.26L710.255 1751.94L715.185 1753.09L720.216 1753.71L725.346 1753.79L730.574 1753.35L735.897 1752.37L741.312 1750.86L746.819 1748.82L752.413 1746.25L758.093 1743.16L763.856 1739.54L769.7 1735.39L775.622 1730.73L781.62 1725.56L787.69 1719.87L793.83 1713.66L800.037 1706.96L806.308 1699.75L812.641 1692.05L819.032 1683.86L825.479 1675.17L831.978 1666.01L838.526 1656.38L845.12 1646.27L851.757 1635.7L858.434 1624.68L865.147 1613.21L871.893 1601.29L878.67 1588.95L885.472 1576.17L892.298 1562.98L899.143 1549.38L906.004 1535.37L912.878 1520.98L919.762 1506.2L926.65 1491.04L933.541 1475.52L940.43 1459.65L947.315 1443.42L954.19 1426.87L961.053 1409.99L967.9 1392.79L974.727 1375.29L981.532 1357.5L988.309 1339.43L995.055 1321.08L1001.77 1302.48L1008.44 1283.62L1015.07 1264.54L1021.66 1245.22L1028.2 1225.7L1034.68 1205.97L1041.11 1186.06L1047.48 1165.97L1053.79 1145.72L1060.02 1125.32L1066.19 1104.78L1072.28 1084.11L1078.3 1063.33L1084.23 1042.45L1090.08 1021.49L1095.84 1000.45L1101.51 979.345L1107.08 958.195L1112.55 937.01L1117.92 915.802L1123.19 894.585L1128.34 873.373L1133.39 852.176L1138.32 831.01L1143.13 809.886L1147.82 788.819L1152.38 767.819L1156.82 746.902L1161.13 726.078L1165.3 705.362L1169.34 684.765L1173.23 664.3L1176.99 643.981L1180.6 623.818L1184.07 603.824L1187.38 584.013L1190.55 564.395L1193.56 544.982L1196.41 525.787L1199.11 506.821L1201.64 488.095L1204.01 469.622L1206.22 451.411L1208.25 433.475L1210.12 415.824L1211.82 398.468L1213.35 381.419L1214.7 364.686L1215.88 348.279L1216.88 332.209L1217.71 316.485L1218.35 301.117L1218.82 286.114L1219.1 271.484L1219.2 257.237L1219.12 243.381L1218.85 229.924L1218.4 216.875L1217.77 204.241L1216.95 192.03L1215.94 180.248L1214.75 168.904L1213.37 158.003L1211.8 147.552L1210.05 137.557L1208.12 128.025L1205.99 118.96L1203.69 110.368L1201.19 102.254L1198.52 94.6227L1195.65 87.4783L1192.61 80.825L1189.39 74.6666L1185.98 69.0066L1182.4 63.8482L1178.63 59.1941L1174.69 55.047L1170.57 51.4091L1166.28 48.2823L1161.82 45.6683L1157.19 43.5682L1152.38 41.9832L1147.41 40.9137L1142.28 40.3603L1136.98 40.3228L1131.52 40.801L1125.91 41.7943L1120.14 43.3017L1114.22 45.322L1108.14 47.8537L1101.92 50.8948L1095.55 54.4431L1089.05 58.4963L1082.4 63.0513L1075.62 68.1053L1068.7 73.6546L1061.66 79.6957L1054.49 86.2243L1047.2 93.2364L1039.79 100.727L1032.27 108.692L1024.63 117.125L1016.89 126.021L1009.04 135.375L1001.1 145.18L993.06 155.431L984.928 166.119L976.711 177.24L968.41 188.784L960.031 200.746L951.579 213.118L943.056 225.891L934.47 239.057L925.822 252.609L917.119 266.538L908.365 280.834L899.565 295.489L890.723 310.494L881.845 325.839L872.934 341.515L863.997 357.511L855.038 373.818L846.062 390.425L837.074 407.322L828.079 424.499L819.082 441.944L810.089 459.648L801.103 477.598L792.132 495.784L783.178 514.194L774.249 532.817L765.348 551.642L756.482 570.656L747.654 589.848L738.871 609.205L730.138 628.717L721.459 648.371L712.841 668.155L704.287 688.056L695.803 708.062L687.394 728.161L679.066 748.341L670.823 768.589L662.67 788.892L654.613 809.239L646.656 829.616L638.804 850.012L631.062 870.413L623.435 890.807L615.928 911.182L608.545 931.525L601.291 951.824L594.171 972.066L587.189 992.239L580.35 1012.33L573.658 1032.33L567.118 1052.22L560.734 1072L554.51 1091.64L548.45 1111.14L542.558 1130.49L536.839 1149.68L531.297 1168.68L525.934 1187.5L520.755 1206.12L515.764 1224.53L510.964 1242.71L506.358 1260.66L501.95 1278.37L497.743 1295.82L493.74 1313.01L489.945 1329.92L486.36 1346.55L482.988 1362.88L479.831 1378.91L476.893 1394.62L474.176 1410.01L471.682 1425.06L469.414 1439.77L467.372 1454.13L465.561 1468.13L463.98 1481.76L462.633 1495.02L461.52 1507.89L460.644 1520.37L460.005 1532.46L459.605 1544.13L459.444 1555.4L459.524 1566.24L459.846 1576.67L460.41 1586.65L461.216 1596.21L462.266 1605.32L463.558 1613.98L465.095 1622.19L466.874 1629.94L468.897 1637.23L471.162 1644.05L473.67 1650.41L476.419 1656.29L479.41 1661.7L482.64 1666.62L486.109 1671.07L489.817 1675.03L493.76 1678.5L497.939 1681.49L502.351 1683.99L506.994 1686L511.867 1687.52L516.968 1688.54L522.294 1689.08L527.843 1689.12L533.613 1688.67L539.601 1687.73L545.803 1686.31L552.218 1684.39L558.843 1681.99L565.674 1679.1L572.707 1675.73L579.94 1671.88L587.368 1667.56L594.989 1662.76L602.798 1657.49L610.792 1651.75L618.966 1645.55L627.316 1638.89L635.838 1631.78L644.527 1624.22L653.38 1616.21L662.391 1607.77L671.555 1598.89L680.868 1589.58L690.325 1579.85L699.92 1569.71L709.649 1559.16L719.507 1548.2L729.487 1536.85L739.584 1525.12L749.794 1513L760.11 1500.52L770.527 1487.66L781.038 1474.46L791.638 1460.9L802.322 1447.01L813.082 1432.79L823.914 1418.24L834.81 1403.39L845.765 1388.23L856.773 1372.78L867.827 1357.04L878.92 1341.04L890.047 1324.77L901.201 1308.24L912.376 1291.48L923.564 1274.48L934.761 1257.26L945.958 1239.84L957.149 1222.21L968.329 1204.39L979.489 1186.39L990.624 1168.23L1001.73 1149.92L1012.79 1131.46L1023.81 1112.86L1034.78 1094.15L1045.69 1075.33L1056.53 1056.41L1067.3 1037.4L1078 1018.32L1088.6 999.178L1099.12 979.984L1109.54 960.751L1119.86 941.491L1130.06 922.215L1140.15 902.936L1150.11 883.665L1159.95 864.414L1169.65 845.194L1179.2 826.018L1188.61 806.898L1197.87 787.844L1206.96 768.868L1215.89 749.982L1224.65 731.197L1233.23 712.525L1241.63 693.977L1249.84 675.564L1257.86 657.298L1265.68 639.188L1273.29 621.247L1280.7 603.485L1287.89 585.912L1294.86 568.54L1301.61 551.378L1308.13 534.436L1314.41 517.726L1320.46 501.257L1326.27 485.038L1331.83 469.079L1337.14 453.39L1342.2 437.98L1347 422.859L1351.54 408.034L1355.82 393.515L1359.83 379.311L1363.56 365.429L1367.03 351.878L1370.21 338.665L1373.12 325.799L1375.74 313.287L1378.08 301.136L1380.14 289.353L1381.91 277.944L1383.38 266.918L1384.57 256.278L1385.46 246.033L1386.05 236.187L1386.35 226.746L1386.35 217.716L1386.06 209.101L1385.47 200.906L1384.57 193.136L1383.38 185.795L1381.89 178.887L1380.1 172.416L1378.01 166.385L1375.62 160.797L1372.93 155.655L1369.95 150.962L1366.67 146.72L1363.1 142.932L1359.23 139.598L1355.06 136.721L1350.61 134.301L1345.87 132.34L1340.84 130.839L1335.53 129.797L1329.94 129.215L1324.06 129.092L1317.91 129.428L1311.49 130.223L1304.79 131.474L1297.83 133.182L1290.6 135.344L1283.11 137.959L1275.37 141.023L1267.37 144.536L1259.12 148.494L1250.63 152.894L1241.9 157.733L1232.93 163.007L1223.74 168.714L1214.31 174.848L1204.67 181.405L1194.81 188.381L1184.74 195.772L1174.46 203.571L1163.99 211.775L1153.32 220.377L1142.46 229.371L1131.43 238.752L1120.21 248.514L1108.83 258.649L1097.28 269.152L1085.58 280.015L1073.73 291.231L1061.73 302.794L1049.6 314.695L1037.34 326.927L1024.96 339.482L1012.46 352.352L999.848 365.529L987.139 379.003L974.336 392.768L961.447 406.813L948.479 421.13L935.44 435.711L922.337 450.544L909.179 465.622L895.972 480.935L882.724 496.473L869.444 512.226L856.139 528.185L842.818 544.339L829.487 560.678L816.156 577.192L802.831 593.872L789.522 610.705L776.235 627.683L762.98 644.794L749.763 662.028L736.594 679.374L723.48 696.822L710.428 714.36L697.448 731.978L684.547 749.666L671.733 767.411L659.013 785.203L646.396 803.032L633.889 820.887L621.501 838.756L609.238 856.628L597.11 874.493L585.122 892.34L573.283 910.158L561.6 927.937L550.081 945.664L538.732 963.331L527.562 980.925L516.576 998.437L505.783 1015.86L495.189 1033.17L484.801 1050.37L474.626 1067.45L464.67 1084.39L454.94 1101.19L445.442 1117.83L436.182 1134.31L427.167 1150.61L418.402 1166.73L409.894 1182.66L401.647 1198.38L393.669 1213.89L385.963 1229.18L378.536 1244.24L371.392 1259.06L364.536 1273.63L357.974 1287.94L351.709 1301.99L345.746 1315.77L340.09 1329.27L334.745 1342.47L329.713 1355.38L325.001 1367.99L320.61 1380.29L316.544 1392.26L312.806 1403.92L309.4 1415.24L306.328 1426.22L303.592 1436.86L301.196 1447.15L299.141 1457.08L297.429 1466.65L296.063 1475.86L295.043 1484.69L294.371 1493.15L294.049 1501.22L294.077 1508.91L294.456 1516.21L295.186 1523.12L296.268 1529.63L297.703 1535.74L299.489 1541.45L301.627 1546.75L304.116 1551.64L306.955 1556.12L310.144 1560.19L313.681 1563.84L317.565 1567.07L321.794 1569.89L326.367 1572.29L331.281 1574.27L336.534 1575.82L342.125 1576.96L348.049 1577.67L354.305 1577.97L360.889 1577.84L367.798 1577.3L375.029 1576.33L382.578 1574.95L390.44 1573.16L398.613 1570.94L407.091 1568.32L415.87 1565.29L424.946 1561.85L434.313 1558.01L443.967 1553.76L453.903 1549.12L464.114 1544.08L474.596 1538.65L485.343 1532.83L496.348 1526.63L507.606 1520.05L519.11 1513.09L530.855 1505.77L542.832 1498.08L555.036 1490.04L567.46 1481.64L580.096 1472.89L592.938 1463.8L605.978 1454.37L619.209 1444.62L632.622 1434.54L646.211 1424.14L659.967 1413.44L673.883 1402.43L687.95 1391.13L702.161 1379.54L716.506 1367.66L730.978 1355.52L745.568 1343.11L760.267 1330.44L775.067 1317.52L789.959 1304.37L804.934 1290.98L819.984 1277.36L835.099 1263.53L850.27 1249.5L865.489 1235.26L880.745 1220.84L896.031 1206.24L911.337 1191.46L926.653 1176.53L941.971 1161.44L957.281 1146.22L972.574 1130.85L987.84 1115.37L1003.07 1099.77L1018.26 1084.07L1033.39 1068.27L1048.46 1052.39L1063.45 1036.43L1078.36 1020.4L1093.19 1004.33L1107.91 988.202L1122.52 972.042L1137.01 955.856L1151.38 939.655L1165.61 923.447L1179.69 907.242L1193.62 891.051L1207.39 874.884L1220.99 858.749L1234.4 842.657L1247.63 826.617L1260.66 810.64L1273.48 794.734L1286.1 778.909L1298.49 763.174L1310.65 747.54L1322.57 732.015L1334.25 716.608L1345.68 701.328L1356.85 686.185L1367.75 671.188L1378.38 656.345L1388.72 641.665L1398.78 627.156L1408.54 612.828L1418.01 598.687L1427.16 584.744L1436 571.005L1444.53 557.479L1452.72 544.173L1460.59 531.095L1468.12 518.253L1475.32 505.654L1482.16 493.305L1488.65 481.213L1494.79 469.384L1500.57 457.827L1505.99 446.546L1511.03 435.549L1515.71 424.842L1520.01 414.43L1523.93 404.319L1527.47 394.515L1530.63 385.022L1533.4 375.848L1535.78 366.995L1537.77 358.469L1539.37 350.275L1540.57 342.417L1541.37 334.899L1541.78 327.724L1541.79 320.897L1541.4 314.421L1540.61 308.299L1539.42 302.535L1537.83 297.13L1535.84 292.088L1533.45 287.411L1530.66 283.101L1527.48 279.16L1523.9 275.59L1519.92 272.392L1515.55 269.567L1510.8 267.116L1505.65 265.04L1500.12 263.34L1494.2 262.016L1487.9 261.068L1481.23 260.495L1474.18 260.298L1466.76 260.475L1458.97 261.027L1450.83 261.951L1442.32 263.247L1433.46 264.912L1424.26 266.946L1414.7 269.346L1404.81 272.111L1394.59 275.237L1384.04 278.722L1373.17 282.564L1361.98 286.758L1350.49 291.303L1338.69 296.194L1326.6 301.429L1314.21 307.002L1301.55 312.91L1288.61 319.149L1275.4 325.715L1261.93 332.602L1248.22 339.806L1234.25 347.322L1220.05 355.145L1205.63 363.269L1190.98 371.689L1176.12 380.399L1161.06 389.394L1145.81 398.667L1130.38 408.212L1114.76 418.023L1098.99 428.094L1083.05 438.417L1066.97 448.987L1050.75 459.795L1034.4 470.836L1017.94 482.102L1001.36 493.586L984.692 505.28L967.931 517.177L951.091 529.269L934.184 541.549L917.218 554.009L900.204 566.641L883.152 579.436L866.073 592.388L848.978 605.488L831.875 618.727L814.776 632.098L797.692 645.592L780.632 659.2L763.608 672.915L746.628 686.727L729.705 700.629L712.848 714.611L696.067 728.666L679.374 742.784L662.778 756.956L646.289 771.176L629.918 785.432L613.675 799.718L597.57 814.024L581.613 828.342L565.813 842.662L550.182 856.977L534.728 871.278L519.461 885.556L504.392 899.803L489.528 914.011L474.88 928.169L460.457 942.272L446.268 956.309L432.322 970.274L418.628 984.157L405.195 997.95L392.03 1011.65L379.143 1025.24L366.543 1038.71L354.235 1052.07L342.23 1065.29L330.535 1078.38L319.156 1091.33L308.103 1104.12L297.381 1116.75L286.998 1129.22L276.96 1141.52L267.275 1153.63L257.948 1165.56L248.986 1177.29L240.396 1188.82L232.181 1200.15L224.349 1211.26L216.905 1222.15L209.853 1232.82L203.198 1243.25L196.946 1253.45L191.099 1263.41L185.664 1273.12L180.643 1282.57L176.04 1291.77L171.859 1300.7L168.102 1309.37L164.773 1317.76L161.874 1325.87L159.407 1333.71L157.375 1341.26L155.78 1348.52L154.623 1355.49L153.905 1362.16L153.627 1368.53L153.791 1374.6L154.396 1380.37L155.444 1385.83L156.933 1390.97L158.864 1395.81L161.236 1400.32L164.048 1404.53L167.299 1408.41L170.988 1411.97L175.112 1415.21L179.671 1418.13L184.662 1420.72L190.082 1422.99L195.929 1424.94L202.2 1426.56L208.891 1427.85L215.999 1428.82L223.52 1429.46L231.45 1429.78L239.785 1429.77L248.52 1429.44L257.651 1428.79L267.172 1427.81L277.078 1426.52L287.364 1424.91L298.023 1422.98L309.05 1420.74L320.439 1418.18L332.183 1415.31L344.275 1412.14L356.708 1408.66L369.475 1404.88L382.57 1400.8L395.984 1396.42L409.709 1391.75L423.737 1386.8L438.062 1381.55L452.673 1376.03L467.562 1370.22L482.721 1364.15L498.141 1357.8L513.813 1351.19L529.727 1344.32L545.874 1337.2L562.244 1329.82L578.828 1322.2L595.616 1314.34L612.598 1306.24L629.764 1297.92L647.103 1289.37L664.605 1280.6L682.26 1271.62L700.057 1262.44L717.985 1253.05L736.034 1243.47L754.192 1233.7L772.449 1223.75L790.794 1213.62L809.215 1203.33L827.701 1192.87L846.242 1182.26L864.826 1171.5L883.441 1160.59L902.077 1149.55L920.721 1138.38L939.363 1127.09L957.991 1115.69L976.594 1104.17L995.16 1092.56L1013.68 1080.86L1032.14 1069.07L1050.52 1057.2L1068.83 1045.25L1087.04 1033.25L1105.15 1021.19L1123.14 1009.07L1141.01 996.919L1158.73 984.73L1176.31 972.513L1193.73 960.275L1210.98 948.025L1228.04 935.769L1244.92 923.515L1261.59 911.269L1278.04 899.04L1294.28 886.833L1310.28 874.657L1326.03 862.519L1341.54 850.425L1356.78 838.383L1371.74 826.4L1386.43 814.482L1400.82 802.636L1414.91 790.87L1428.69 779.189L1442.16 767.601L1455.29 756.113L1468.09 744.73L1480.55 733.459L1492.65 722.306L1504.4 711.279L1515.78 700.382L1526.78 689.622L1537.4 679.005L1547.64 668.536L1557.47 658.222L1566.91 648.068L1575.94 638.08L1584.55 628.263L1592.74 618.622L1600.51 609.163L1607.85 599.89L1614.75 590.809L1621.22 581.924L1627.24 573.24L1632.81 564.761L1637.92 556.493L1642.59 548.438L1646.79 540.602L1650.53 532.988L1653.8 525.6L1656.61 518.441L1658.94 511.516L1660.81 504.827L1662.2 498.379L1663.11 492.173L1663.55 486.213L1663.52 480.501L1663 475.041L1662.01 469.835L1660.54 464.884L1658.59 460.192L1656.17 455.759L1653.27 451.589L1649.9 447.682L1646.06 444.04L1641.74 440.664L1636.96 437.557L1631.71 434.717L1626 432.147L1619.83 429.847L1613.2 427.818L1606.12 426.059L1598.59 424.572L1590.61 423.356L1582.19 422.411L1573.34 421.737L1564.05 421.333L1554.34 421.199L1544.21 421.334L1533.66 421.736L1522.71 422.406L1511.35 423.342L1499.6 424.542L1487.46 426.004L1474.94 427.728L1462.04 429.712L1448.78 431.952L1435.15 434.448L1421.18 437.197L1406.86 440.196L1392.21 443.443L1377.23 446.936L1361.93 450.671L1346.33 454.646L1330.43 458.857L1314.24 463.301L1297.77 467.976L1281.03 472.876L1264.03 478L1246.77 483.342L1229.29 488.9L1211.57 494.67L1193.63 500.646L1175.49 506.826L1157.15 513.205L1138.62 519.779L1119.92 526.542L1101.05 533.491L1082.04 540.621L1062.88 547.927L1043.6 555.404L1024.2 563.048L1004.69 570.854L985.096 578.815L965.416 586.928L945.667 595.187L925.86 603.586L906.009 612.121L886.124 620.786L866.219 629.576L846.304 638.484L826.394 647.506L806.499 656.636L786.631 665.868L766.804 675.196L747.03 684.615L727.319 694.119L707.686 703.703L688.14 713.359L668.696 723.084L649.365 732.87L630.158 742.711L611.087 752.603L592.165 762.539L573.403 772.513L554.813 782.519L536.406 792.552L518.194 802.605L500.187 812.673L482.398 822.749L464.838 832.829L447.516 842.905L430.445 852.973L413.634 863.027L397.095 873.06L380.838 883.067L364.872 893.043L349.208 902.982L333.856 912.878L318.826 922.725L304.126 932.518L289.766 942.253L275.756 951.922L262.104 961.522L248.819 971.046L235.909 980.49L223.382 989.848L211.247 999.116L199.511 1008.29L188.182 1017.36L177.267 1026.33L166.773 1035.18L156.707 1043.92L147.076 1052.54L137.884 1061.04L129.14 1069.41L120.847 1077.65L113.013 1085.75L105.641 1093.7L98.7375 1101.52L92.3061 1109.18L86.3514 1116.69L80.8775 1124.05L75.888 1131.24L71.3865 1138.27L67.376 1145.14L63.8594 1151.83L60.8392 1158.35L58.3178 1164.69L56.2969 1170.86L54.7782 1176.84L53.7631 1182.63L53.2526 1188.24L53.2473 1193.66L53.7476 1198.88L54.7537 1203.91L56.2652 1208.74L58.2816 1213.38L60.8021 1217.81L63.8256 1222.04L67.3504 1226.06L71.3749 1229.88L75.8969 1233.5L80.9141 1236.9L86.4237 1240.09L92.4227 1243.08L98.9078 1245.85L105.875 1248.41L113.321 1250.75L121.242 1252.88L129.632 1254.8L138.487 1256.51L147.802 1258L157.572 1259.27L167.791 1260.34L178.452 1261.18L189.55 1261.82L201.079 1262.24L213.03 1262.45L225.398 1262.44L238.176 1262.23L251.354 1261.8L264.927 1261.17L278.885 1260.33L293.221 1259.28L307.925 1258.03L322.99 1256.57L338.406 1254.91L354.163 1253.05L370.253 1250.99L386.666 1248.74L403.392 1246.29L420.421 1243.65L437.742 1240.82L455.346 1237.8L473.221 1234.59L491.357 1231.21L509.743 1227.64L528.368 1223.89L547.221 1219.97L566.289 1215.88L585.562 1211.62L605.028 1207.19L624.675 1202.61L644.491 1197.86L664.464 1192.95L684.582 1187.9L704.832 1182.69L725.203 1177.34L745.682 1171.84L766.256 1166.21L786.913 1160.44L807.64 1154.54L828.425 1148.52L849.255 1142.37L870.116 1136.1L890.997 1129.71L911.884 1123.21L932.765 1116.61L953.627 1109.9L974.457 1103.09L995.242 1096.19L1015.97 1089.2L1036.63 1082.12L1057.2 1074.95L1077.68 1067.71L1098.05 1060.4L1118.3 1053.02L1138.41 1045.57L1158.38 1038.06L1178.2 1030.49L1197.84 1022.87L1217.3 1015.2L1236.56 1007.49L1255.62 999.746L1274.46 991.963L1293.07 984.15L1311.43 976.311L1329.55 968.452L1347.4 960.576L1364.97 952.687L1382.26 944.79L1399.25 936.889L1415.94 928.989L1432.3 921.094L1448.34 913.209L1464.04 905.336L1479.39 897.482L1494.38 889.648L1509.01 881.842L1523.26 874.065L1537.12 866.323L1550.59 858.619L1563.66 850.957L1576.31 843.341L1588.55 835.776L1600.36 828.265L1611.74 820.812L1622.67 813.42L1633.16 806.094L1643.19 798.837L1652.76 791.652L1661.86 784.544L1670.49 777.516L1678.64 770.571L1686.31 763.712L1693.49 756.944L1700.17 750.268L1706.36 743.689L1712.04 737.209L1717.22 730.831L1721.89 724.559L1726.05 718.395L1729.69 712.343L1732.81 706.404L1735.42 700.581L1737.5 694.878L1739.06 689.297L1740.09 683.839L1740.6 678.508L1740.58 673.306L1740.04 668.234L1738.97 663.296L1737.38 658.493L1735.25 653.826L1732.61 649.299L1729.44 644.912L1725.75 640.667L1721.55 636.567L1716.82 632.612L1711.59 628.803L1705.84 625.143L1699.58 621.633L1692.82 618.273L1685.56 615.066L1677.8 612.01L1669.56 609.109L1660.82 606.362L1651.61 603.771L1641.91 601.335L1631.75 599.057L1621.13 596.935L1610.04 594.97L1598.51 593.164L1586.53 591.515L1574.11 590.024L1561.26 588.692L1547.99 587.518L1534.31 586.502L1520.22 585.644L1505.73 584.943L1490.86 584.4L1475.6 584.014L1459.97 583.784L1443.99 583.71L1427.65 583.791L1410.97 584.026L1393.96 584.415L1376.62 584.956L1358.98 585.649L1341.04 586.493L1322.8 587.486L1304.29 588.628L1285.52 589.917L1266.48 591.351L1247.21 592.93L1227.7 594.652L1207.97 596.515L1188.03 598.518L1167.9 600.659L1147.58 602.936L1127.1 605.348L1106.45 607.893L1085.66 610.569L1064.73 613.374L1043.68 616.305L1022.53 619.362L1001.28 622.542L979.951 625.842L958.552 629.26L937.097 632.795L915.6 636.443L894.074 640.203L872.532 644.073L850.986 648.049L829.452 652.129L807.941 656.311L786.467 660.592L765.043 664.969L743.682 669.441L722.398 674.004L701.203 678.655L680.111 683.392L659.135 688.213L638.287 693.114L617.58 698.093L597.028 703.146L576.642 708.271L556.436 713.466L536.421 718.727L516.611 724.051L497.017 729.436L477.652 734.878L458.527 740.375L439.654 745.923L421.046 751.521L402.713 757.164L384.667 762.849L366.919 768.575L349.48 774.338L332.361 780.134L315.573 785.962L299.125 791.817L283.029 797.698L267.294 803.601L251.929 809.522L236.945 815.46L222.351 821.411L208.156 827.373L194.368 833.342L180.997 839.315L168.05 845.29L155.536 851.264L143.462 857.234L131.836 863.196L120.666 869.149L109.958 875.089L99.7194 881.014L89.956 886.921L80.6741 892.807L71.8796 898.67L63.5781 904.506L55.7748 910.313L48.4746 916.089L41.6821 921.831L35.4017 927.536L29.6373 933.202L24.3927 938.826L19.6711 944.406L15.4756 949.94L11.8089 955.424L8.6735 960.857L6.07133 966.237L4.00418 971.56L2.47344 976.826L1.48018 982.03L1.02516 987.173L1.1088 992.25L1.73114 997.261L2.89196 1002.2L4.59066 1007.07L6.82634 1011.87L9.59774 1016.59L12.9033 1021.24L16.7411 1025.81L21.1088 1030.3L26.0041 1034.7L31.4238 1039.02L37.3649 1043.26L43.8239 1047.41L50.7967 1051.47L58.2794 1055.44L66.2673 1059.32L74.7558 1063.11L83.7396 1066.8L93.2134 1070.4L103.171 1073.9L113.608 1077.3L124.516 1080.6L135.889 1083.8L147.721 1086.9L160.004 1089.9L172.731 1092.79L185.894 1095.58L199.485 1098.27L213.496 1100.84L227.918 1103.31L242.743 1105.68L257.961 1107.93L273.563 1110.08L289.54 1112.12L305.881 1114.04L322.578 1115.86L339.619 1117.56L356.994 1119.16L374.694 1120.64L392.706 1122.01L411.02 1123.27L429.624 1124.41L448.508 1125.45L467.66 1126.37L487.067 1127.17L506.719 1127.87L526.603 1128.45L546.706 1128.92L567.018 1129.27L587.524 1129.52L608.213 1129.65L629.072 1129.67L650.087 1129.58L671.247 1129.38L692.539 1129.07L713.948 1128.64L735.462 1128.11L757.068 1127.47L778.753 1126.72L800.503 1125.86L822.305 1124.89L844.145 1123.82L866.01 1122.64L887.887 1121.35L909.762 1119.96L931.622 1118.47L953.453 1116.88L975.242 1115.18L996.975 1113.38L1018.64 1111.48L1040.22 1109.49L1061.71 1107.39L1083.09 1105.2L1104.34 1102.92L1125.47 1100.54L1146.44 1098.06L1167.25 1095.5L1187.89 1092.84L1208.35 1090.09L1228.6 1087.26L1248.64 1084.34L1268.46 1081.34L1288.05 1078.25L1307.38 1075.08L1326.46 1071.82L1345.26 1068.49L1363.78 1065.08L1382.01 1061.6L1399.93 1058.04L1417.53 1054.4L1434.81 1050.7L1451.75 1046.92L1468.34 1043.08L1484.57 1039.17L1500.43 1035.19L1515.91 1031.16L1531.01 1027.06L1545.71 1022.9L1560 1018.68L1573.87 1014.41L1587.32 1010.08L1600.34 1005.71L1612.92 1001.28L1625.05 996.8L1636.73 992.276L1647.94 987.707L1658.69 983.095L1668.95 978.443L1678.74 973.752L1688.03 969.023L1696.84 964.26L1705.14 959.464L1712.94 954.637L1720.22 949.78L1727 944.897L1733.25 939.989L1738.99 935.057L1744.2 930.105L1748.87 925.134L1753.02 920.146L1756.63 915.143L1759.71 910.128L1762.25 905.102L1764.25 900.067L1765.7 895.025L1766.62 889.979L1766.99 884.931" stroke="#4D58FF"/>
</svg>
