<svg width="1880" height="1628" viewBox="0 0 1880 1628" fill="none" xmlns="http://www.w3.org/2000/svg">
<path d="M916 816.681L935.086 800.868L954.171 784.509L958.534 809.047L962.896 833.586L939.448 825.406L916 816.681Z" stroke="url(#paint0_linear_2028_2010)" stroke-width="2" stroke-miterlimit="10"/>
<path d="M915 816.136L936.267 799.777L956.988 783.418L960.805 809.592L964.623 836.312L939.539 826.497L915 816.136Z" stroke="url(#paint1_linear_2028_2010)" stroke-width="2" stroke-miterlimit="10"/>
<path d="M913 815.591L936.448 798.687L959.896 781.782L962.622 810.138L965.894 839.039L939.72 827.587L913 815.591Z" stroke="url(#paint2_linear_2028_2010)" stroke-width="2" stroke-miterlimit="10"/>
<path d="M912 815.045L937.629 797.596L963.258 780.146L965.44 811.228L967.621 841.765L939.81 828.678L912 815.045Z" stroke="url(#paint3_linear_2028_2010)" stroke-width="2" stroke-miterlimit="10"/>
<path d="M910.002 813.955L938.358 796.505L966.713 778.51L967.804 811.774L968.895 845.037L939.448 829.769L910.002 813.955Z" stroke="url(#paint4_linear_2028_2010)" stroke-width="2" stroke-miterlimit="10"/>
<path d="M908.998 812.864L940.08 794.869L971.163 777.419V812.864V848.854L940.08 830.859L908.998 812.864Z" stroke="url(#paint5_linear_2028_2010)" stroke-width="2" stroke-miterlimit="10"/>
<path d="M906 811.774L939.809 793.779L974.163 775.784L972.527 813.955L971.436 852.671L938.718 832.495L906 811.774Z" stroke="url(#paint6_linear_2028_2010)" stroke-width="2" stroke-miterlimit="10"/>
<path d="M903 810.683L940.626 792.143L977.706 774.148L974.98 815.591L971.708 857.034L937.354 833.586L903 810.683Z" stroke="url(#paint7_linear_2028_2010)" stroke-width="2" stroke-miterlimit="10"/>
<path d="M899.002 809.047L939.354 791.052L980.252 772.512L975.344 817.227L970.982 861.396L934.992 835.221L899.002 809.047Z" stroke="url(#paint8_linear_2028_2010)" stroke-width="2" stroke-miterlimit="10"/>
<path d="M895 807.411L939.17 789.416L983.884 771.421L976.795 818.862L970.252 866.304L932.626 836.857L895 807.411Z" stroke="url(#paint9_linear_2028_2010)" stroke-width="2" stroke-miterlimit="10"/>
<path d="M892 805.23L939.987 787.781L988.519 770.331L979.794 820.499L970.524 871.212L931.262 838.494L892 805.23Z" stroke="url(#paint10_linear_2028_2010)" stroke-width="2" stroke-miterlimit="10"/>
<path d="M886.998 803.049L939.892 786.144L992.241 768.695L980.79 823.225L969.339 877.21L927.896 840.129L886.998 803.049Z" stroke="url(#paint11_linear_2028_2010)" stroke-width="2" stroke-miterlimit="10"/>
<path d="M883 800.322L940.257 783.963L997.513 767.604L983.336 825.406L968.612 883.208L926.079 841.765L883 800.322Z" stroke="url(#paint12_linear_2028_2010)" stroke-width="2" stroke-miterlimit="10"/>
<path d="M877.998 797.596L940.162 782.327L1002.33 767.059L984.877 828.133L966.882 889.752L922.713 843.946L877.998 797.596Z" stroke="url(#paint13_linear_2028_2010)" stroke-width="2" stroke-miterlimit="10"/>
<path d="M873 794.869L940.617 780.146L1007.69 765.968L986.423 831.405L965.156 896.841L919.351 845.582L873 794.869Z" stroke="url(#paint14_linear_2028_2010)" stroke-width="2" stroke-miterlimit="10"/>
<path d="M866.998 791.052L939.523 778.51L1012.59 765.423L986.965 835.222L961.881 904.475L914.439 847.764L866.998 791.052Z" stroke="url(#paint15_linear_2028_2010)" stroke-width="2" stroke-miterlimit="10"/>
<path d="M860.998 787.235L939.522 776.329L1018.59 764.878L988.599 839.039L959.152 912.655L910.075 849.945L860.998 787.235Z" stroke="url(#paint16_linear_2028_2010)" stroke-width="2" stroke-miterlimit="10"/>
<path d="M855 782.873L940.067 774.148L1025.13 764.878L990.235 843.401L955.336 921.379L905.168 852.126L855 782.873Z" stroke="url(#paint17_linear_2028_2010)" stroke-width="2" stroke-miterlimit="10"/>
<path d="M848 777.965L939.611 771.966L1031.22 765.423L990.869 847.764L950.517 930.649L899.258 854.307L848 777.965Z" stroke="url(#paint18_linear_2028_2010)" stroke-width="2" stroke-miterlimit="10"/>
<path d="M840.998 773.057L940.243 769.24L1038.94 765.968L992.592 853.217L946.241 940.465L893.892 856.488L840.998 773.057Z" stroke="url(#paint19_linear_2028_2010)" stroke-width="2" stroke-miterlimit="10"/>
<path d="M833.998 767.059H940.332H1046.67L993.226 859.215L940.332 951.371L886.892 859.215L833.998 767.059Z" stroke="url(#paint20_linear_2028_2010)" stroke-width="2" stroke-miterlimit="10"/>
<path d="M826.002 760.515L940.515 764.877L1054.48 768.695L993.955 865.758L933.426 962.277L879.987 861.396L826.002 760.515Z" stroke="url(#paint21_linear_2028_2010)" stroke-width="2" stroke-miterlimit="10"/>
<path d="M817 753.426L939.693 762.151L1062.39 770.876L993.678 872.848L924.97 974.819L870.985 864.123L817 753.426Z" stroke="url(#paint22_linear_2028_2010)" stroke-width="2" stroke-miterlimit="10"/>
<path d="M807.998 745.792L939.416 759.425L1071.38 773.603L993.401 880.482L915.968 987.361L861.983 866.849L807.998 745.792Z" stroke="url(#paint23_linear_2028_2010)" stroke-width="2" stroke-miterlimit="10"/>
<path d="M799.002 737.067L939.69 757.243L1080.92 776.874L993.13 888.661L905.881 1000.99L852.442 869.03L799.002 737.067Z" stroke="url(#paint24_linear_2028_2010)" stroke-width="2" stroke-miterlimit="10"/>
<path d="M789 727.797L939.503 754.517L1090.01 781.237L991.852 898.477L893.698 1015.17L841.349 871.757L789 727.797Z" stroke="url(#paint25_linear_2028_2010)" stroke-width="2" stroke-miterlimit="10"/>
<path d="M778.998 717.981L939.862 752.335L1100.73 786.144L990.575 908.292L880.97 1030.44L829.711 874.483L778.998 717.981Z" stroke="url(#paint26_linear_2028_2010)" stroke-width="2" stroke-miterlimit="10"/>
<path d="M768.002 707.076L939.772 749.609L1111 792.143L988.304 919.744L865.611 1046.8L817.079 876.665L768.002 707.076Z" stroke="url(#paint27_linear_2028_2010)" stroke-width="2" stroke-miterlimit="10"/>
<path d="M757.002 695.079L939.678 747.428L1122.35 799.777L985.483 931.74L848.613 1063.7L802.807 879.391L757.002 695.079Z" stroke="url(#paint28_linear_2028_2010)" stroke-width="2" stroke-miterlimit="10"/>
<path d="M746 681.446L940.128 744.701L1134.8 807.956L982.661 944.827L831.067 1081.7L788.534 881.572L746 681.446Z" stroke="url(#paint29_linear_2028_2010)" stroke-width="2" stroke-miterlimit="10"/>
<path d="M734 667.269L940.669 742.52L1146.79 817.772L978.841 959.005L810.342 1100.24L772.171 883.753L734 667.269Z" stroke="url(#paint30_linear_2028_2010)" stroke-width="2" stroke-miterlimit="10"/>
<path d="M721.002 652L940.213 740.339L1159.42 829.223L972.931 974.274L786.983 1119.87L754.265 885.935L721.002 652Z" stroke="url(#paint31_linear_2028_2010)" stroke-width="2" stroke-miterlimit="10"/>
<path d="M708 635.095L940.299 738.703L1172.05 841.765L966.473 991.178L761.44 1140.59L734.72 888.116L708 635.095Z" stroke="url(#paint32_linear_2028_2010)" stroke-width="2" stroke-miterlimit="10"/>
<path d="M694.998 617.101L940.384 737.067L1185.77 856.488L959.47 1009.72L733.169 1162.4L714.084 889.752L694.998 617.101Z" stroke="url(#paint33_linear_2028_2010)" stroke-width="2" stroke-miterlimit="10"/>
<path d="M680.998 597.47L940.562 735.431L1199.58 873.393L950.377 1029.35L701.72 1184.76L691.359 891.388L680.998 597.47Z" stroke="url(#paint34_linear_2028_2010)" stroke-width="2" stroke-miterlimit="10"/>
<path d="M666.002 576.749L939.198 734.341L1212.94 892.478L939.198 1050.07L666.002 1208.21V892.478V576.749Z" stroke="url(#paint35_linear_2028_2010)" stroke-width="2" stroke-miterlimit="10"/>
<path d="M663.45 553.846L951.369 733.795L1239.29 913.745L939.918 1072.97L640.002 1232.75L651.453 893.024L663.45 553.846Z" stroke="url(#paint36_linear_2028_2010)" stroke-width="2" stroke-miterlimit="10"/>
<path d="M662.713 529.307L965.356 733.25L1268 937.738L940.272 1097.51L612 1257.83L637.084 893.569L662.713 529.307Z" stroke="url(#paint37_linear_2028_2010)" stroke-width="2" stroke-miterlimit="10"/>
<path d="M663.343 503.133L980.708 733.795L1298.62 964.458L939.811 1124.23L581.002 1284.01L621.9 893.569L663.343 503.133Z" stroke="url(#paint38_linear_2028_2010)" stroke-width="2" stroke-miterlimit="10"/>
<path d="M666.238 474.777L998.872 734.341L1331.51 994.45L939.98 1152.59L548.998 1310.73L607.345 892.479L666.238 474.777Z" stroke="url(#paint39_linear_2028_2010)" stroke-width="2" stroke-miterlimit="10"/>
<path d="M670.592 444.24L1017.95 735.976L1365.85 1027.71L939.426 1183.12L513 1338.54L591.524 891.387L670.592 444.24Z" stroke="url(#paint40_linear_2028_2010)" stroke-width="2" stroke-miterlimit="10"/>
<path d="M679.398 411.522L1042.02 738.158L1404.65 1064.79L940.597 1215.84L476 1366.35L577.971 889.207L679.398 411.522Z" stroke="url(#paint41_linear_2028_2010)" stroke-width="2" stroke-miterlimit="10"/>
<path d="M689.567 376.623L1067.46 741.43L1444.81 1106.24L940.406 1250.74L436.002 1395.25L563.057 885.935L689.567 376.623Z" stroke="url(#paint42_linear_2028_2010)" stroke-width="2" stroke-miterlimit="10"/>
<path d="M702.822 339.542L1094.89 745.792L1486.97 1151.5L939.483 1287.82L392 1424.69L547.411 882.117L702.822 339.542Z" stroke="url(#paint43_linear_2028_2010)" stroke-width="2" stroke-miterlimit="10"/>
<path d="M721.168 299.735L1127.42 750.7L1533.12 1201.66L939.834 1328.17L346 1454.14L533.584 877.21L721.168 299.735Z" stroke="url(#paint44_linear_2028_2010)" stroke-width="2" stroke-miterlimit="10"/>
<path d="M743.059 257.201L1162.4 757.243L1582.28 1257.29L939.368 1370.71L297.002 1483.59L520.031 870.666L743.059 257.201Z" stroke="url(#paint45_linear_2028_2010)" stroke-width="2" stroke-miterlimit="10"/>
<path d="M770.671 212.487L1202.55 765.423L1634.98 1318.36L939.715 1415.97L245 1513.58L507.836 863.032L770.671 212.487Z" stroke="url(#paint46_linear_2028_2010)" stroke-width="2" stroke-miterlimit="10"/>
<path d="M804.01 164.5L1247.34 774.693L1690.67 1384.89L940.336 1463.95L190 1543.02L497.005 853.762L804.01 164.5Z" stroke="url(#paint47_linear_2028_2010)" stroke-width="2" stroke-miterlimit="10"/>
<path d="M842.072 113.242L1295.76 786.144L1749.45 1458.5L940.226 1515.21L130.998 1571.92L486.535 842.311L842.072 113.242Z" stroke="url(#paint48_linear_2028_2010)" stroke-width="2" stroke-miterlimit="10"/>
<path d="M887.589 59.2566L1349.46 799.231L1811.88 1538.66L939.938 1569.2L68 1599.73L478.067 829.223L887.589 59.2566Z" stroke="url(#paint49_linear_2028_2010)" stroke-width="2" stroke-miterlimit="10"/>
<path d="M939.919 2L1408.88 814.5L1877.84 1627H939.919H2L470.96 814.5L939.919 2Z" stroke="url(#paint50_linear_2028_2010)" stroke-width="2" stroke-miterlimit="10"/>
<defs>
<linearGradient id="paint0_linear_2028_2010" x1="939.448" y1="784.509" x2="939.448" y2="833.586" gradientUnits="userSpaceOnUse">
<stop stop-color="#4D58FF"/>
<stop offset="1" stop-color="#4D58FF"/>
</linearGradient>
<linearGradient id="paint1_linear_2028_2010" x1="939.811" y1="783.418" x2="939.811" y2="836.312" gradientUnits="userSpaceOnUse">
<stop stop-color="#4D58FF"/>
<stop offset="1" stop-color="#4D58FF"/>
</linearGradient>
<linearGradient id="paint2_linear_2028_2010" x1="939.447" y1="781.782" x2="939.447" y2="839.039" gradientUnits="userSpaceOnUse">
<stop stop-color="#4D58FF"/>
<stop offset="1" stop-color="#4D58FF"/>
</linearGradient>
<linearGradient id="paint3_linear_2028_2010" x1="939.81" y1="780.146" x2="939.81" y2="841.765" gradientUnits="userSpaceOnUse">
<stop stop-color="#4D58FF"/>
<stop offset="1" stop-color="#4D58FF"/>
</linearGradient>
<linearGradient id="paint4_linear_2028_2010" x1="939.448" y1="778.51" x2="939.448" y2="845.037" gradientUnits="userSpaceOnUse">
<stop stop-color="#4D58FF"/>
<stop offset="1" stop-color="#4D58FF"/>
</linearGradient>
<linearGradient id="paint5_linear_2028_2010" x1="940.08" y1="777.419" x2="940.08" y2="848.854" gradientUnits="userSpaceOnUse">
<stop stop-color="#4D58FF"/>
<stop offset="1" stop-color="#4D58FF"/>
</linearGradient>
<linearGradient id="paint6_linear_2028_2010" x1="940.081" y1="775.784" x2="940.081" y2="852.671" gradientUnits="userSpaceOnUse">
<stop stop-color="#4D58FF"/>
<stop offset="1" stop-color="#4D58FF"/>
</linearGradient>
<linearGradient id="paint7_linear_2028_2010" x1="940.353" y1="774.148" x2="940.353" y2="857.034" gradientUnits="userSpaceOnUse">
<stop stop-color="#4D58FF"/>
<stop offset="1" stop-color="#4D58FF"/>
</linearGradient>
<linearGradient id="paint8_linear_2028_2010" x1="939.627" y1="772.512" x2="939.627" y2="861.396" gradientUnits="userSpaceOnUse">
<stop stop-color="#4D58FF"/>
<stop offset="1" stop-color="#4D58FF"/>
</linearGradient>
<linearGradient id="paint9_linear_2028_2010" x1="939.442" y1="771.421" x2="939.442" y2="866.304" gradientUnits="userSpaceOnUse">
<stop stop-color="#4D58FF"/>
<stop offset="1" stop-color="#4D58FF"/>
</linearGradient>
<linearGradient id="paint10_linear_2028_2010" x1="940.259" y1="770.331" x2="940.259" y2="871.212" gradientUnits="userSpaceOnUse">
<stop stop-color="#4D58FF"/>
<stop offset="1" stop-color="#4D58FF"/>
</linearGradient>
<linearGradient id="paint11_linear_2028_2010" x1="939.62" y1="768.695" x2="939.62" y2="877.21" gradientUnits="userSpaceOnUse">
<stop stop-color="#4D58FF"/>
<stop offset="1" stop-color="#4D58FF"/>
</linearGradient>
<linearGradient id="paint12_linear_2028_2010" x1="940.257" y1="767.604" x2="940.257" y2="883.208" gradientUnits="userSpaceOnUse">
<stop stop-color="#4D58FF"/>
<stop offset="1" stop-color="#4D58FF"/>
</linearGradient>
<linearGradient id="paint13_linear_2028_2010" x1="940.162" y1="767.059" x2="940.162" y2="889.752" gradientUnits="userSpaceOnUse">
<stop stop-color="#4D58FF"/>
<stop offset="1" stop-color="#4D58FF"/>
</linearGradient>
<linearGradient id="paint14_linear_2028_2010" x1="940.345" y1="765.968" x2="940.345" y2="896.841" gradientUnits="userSpaceOnUse">
<stop stop-color="#4D58FF"/>
<stop offset="1" stop-color="#4D58FF"/>
</linearGradient>
<linearGradient id="paint15_linear_2028_2010" x1="939.796" y1="765.423" x2="939.796" y2="904.475" gradientUnits="userSpaceOnUse">
<stop stop-color="#4D58FF"/>
<stop offset="1" stop-color="#4D58FF"/>
</linearGradient>
<linearGradient id="paint16_linear_2028_2010" x1="939.794" y1="764.878" x2="939.794" y2="912.655" gradientUnits="userSpaceOnUse">
<stop stop-color="#4D58FF"/>
<stop offset="1" stop-color="#4D58FF"/>
</linearGradient>
<linearGradient id="paint17_linear_2028_2010" x1="940.067" y1="764.878" x2="940.067" y2="921.379" gradientUnits="userSpaceOnUse">
<stop stop-color="#4D58FF"/>
<stop offset="1" stop-color="#4D58FF"/>
</linearGradient>
<linearGradient id="paint18_linear_2028_2010" x1="939.611" y1="765.423" x2="939.611" y2="930.649" gradientUnits="userSpaceOnUse">
<stop stop-color="#4D58FF"/>
<stop offset="1" stop-color="#4D58FF"/>
</linearGradient>
<linearGradient id="paint19_linear_2028_2010" x1="939.97" y1="765.968" x2="939.97" y2="940.465" gradientUnits="userSpaceOnUse">
<stop stop-color="#4D58FF"/>
<stop offset="1" stop-color="#4D58FF"/>
</linearGradient>
<linearGradient id="paint20_linear_2028_2010" x1="940.332" y1="767.059" x2="940.332" y2="951.371" gradientUnits="userSpaceOnUse">
<stop stop-color="#4D58FF"/>
<stop offset="1" stop-color="#4D58FF"/>
</linearGradient>
<linearGradient id="paint21_linear_2028_2010" x1="940.243" y1="760.515" x2="940.243" y2="962.277" gradientUnits="userSpaceOnUse">
<stop stop-color="#4D58FF"/>
<stop offset="1" stop-color="#4D58FF"/>
</linearGradient>
<linearGradient id="paint22_linear_2028_2010" x1="939.693" y1="753.426" x2="939.693" y2="974.819" gradientUnits="userSpaceOnUse">
<stop stop-color="#4D58FF"/>
<stop offset="1" stop-color="#4D58FF"/>
</linearGradient>
<linearGradient id="paint23_linear_2028_2010" x1="939.689" y1="745.792" x2="939.689" y2="987.361" gradientUnits="userSpaceOnUse">
<stop stop-color="#4D58FF"/>
<stop offset="1" stop-color="#4D58FF"/>
</linearGradient>
<linearGradient id="paint24_linear_2028_2010" x1="939.963" y1="737.067" x2="939.963" y2="1000.99" gradientUnits="userSpaceOnUse">
<stop stop-color="#4D58FF"/>
<stop offset="1" stop-color="#4D58FF"/>
</linearGradient>
<linearGradient id="paint25_linear_2028_2010" x1="939.503" y1="727.797" x2="939.503" y2="1015.17" gradientUnits="userSpaceOnUse">
<stop stop-color="#4D58FF"/>
<stop offset="1" stop-color="#4D58FF"/>
</linearGradient>
<linearGradient id="paint26_linear_2028_2010" x1="939.862" y1="717.981" x2="939.862" y2="1030.44" gradientUnits="userSpaceOnUse">
<stop stop-color="#4D58FF"/>
<stop offset="1" stop-color="#4D58FF"/>
</linearGradient>
<linearGradient id="paint27_linear_2028_2010" x1="939.499" y1="707.076" x2="939.499" y2="1046.8" gradientUnits="userSpaceOnUse">
<stop stop-color="#4D58FF"/>
<stop offset="1" stop-color="#4D58FF"/>
</linearGradient>
<linearGradient id="paint28_linear_2028_2010" x1="939.678" y1="695.079" x2="939.678" y2="1063.7" gradientUnits="userSpaceOnUse">
<stop stop-color="#4D58FF"/>
<stop offset="1" stop-color="#4D58FF"/>
</linearGradient>
<linearGradient id="paint29_linear_2028_2010" x1="940.4" y1="681.446" x2="940.4" y2="1081.7" gradientUnits="userSpaceOnUse">
<stop stop-color="#4D58FF"/>
<stop offset="1" stop-color="#4D58FF"/>
</linearGradient>
<linearGradient id="paint30_linear_2028_2010" x1="940.397" y1="667.269" x2="940.397" y2="1100.24" gradientUnits="userSpaceOnUse">
<stop stop-color="#4D58FF"/>
<stop offset="1" stop-color="#4D58FF"/>
</linearGradient>
<linearGradient id="paint31_linear_2028_2010" x1="940.213" y1="652" x2="940.213" y2="1119.87" gradientUnits="userSpaceOnUse">
<stop stop-color="#4D58FF"/>
<stop offset="1" stop-color="#4D58FF"/>
</linearGradient>
<linearGradient id="paint32_linear_2028_2010" x1="940.026" y1="635.095" x2="940.026" y2="1140.59" gradientUnits="userSpaceOnUse">
<stop stop-color="#4D58FF"/>
<stop offset="1" stop-color="#4D58FF"/>
</linearGradient>
<linearGradient id="paint33_linear_2028_2010" x1="940.384" y1="617.101" x2="940.384" y2="1162.4" gradientUnits="userSpaceOnUse">
<stop stop-color="#4D58FF"/>
<stop offset="1" stop-color="#4D58FF"/>
</linearGradient>
<linearGradient id="paint34_linear_2028_2010" x1="940.289" y1="597.47" x2="940.289" y2="1184.76" gradientUnits="userSpaceOnUse">
<stop stop-color="#4D58FF"/>
<stop offset="1" stop-color="#4D58FF"/>
</linearGradient>
<linearGradient id="paint35_linear_2028_2010" x1="939.471" y1="576.749" x2="939.471" y2="1208.21" gradientUnits="userSpaceOnUse">
<stop stop-color="#4D58FF"/>
<stop offset="1" stop-color="#4D58FF"/>
</linearGradient>
<linearGradient id="paint36_linear_2028_2010" x1="939.645" y1="553.846" x2="939.645" y2="1232.75" gradientUnits="userSpaceOnUse">
<stop stop-color="#4D58FF"/>
<stop offset="1" stop-color="#4D58FF"/>
</linearGradient>
<linearGradient id="paint37_linear_2028_2010" x1="939.999" y1="529.307" x2="939.999" y2="1257.83" gradientUnits="userSpaceOnUse">
<stop stop-color="#4D58FF"/>
<stop offset="1" stop-color="#4D58FF"/>
</linearGradient>
<linearGradient id="paint38_linear_2028_2010" x1="939.811" y1="503.133" x2="939.811" y2="1284.01" gradientUnits="userSpaceOnUse">
<stop stop-color="#4D58FF"/>
<stop offset="1" stop-color="#4D58FF"/>
</linearGradient>
<linearGradient id="paint39_linear_2028_2010" x1="940.252" y1="474.777" x2="940.252" y2="1310.73" gradientUnits="userSpaceOnUse">
<stop stop-color="#4D58FF"/>
<stop offset="1" stop-color="#4D58FF"/>
</linearGradient>
<linearGradient id="paint40_linear_2028_2010" x1="939.426" y1="444.24" x2="939.426" y2="1338.54" gradientUnits="userSpaceOnUse">
<stop stop-color="#4D58FF"/>
<stop offset="1" stop-color="#4D58FF"/>
</linearGradient>
<linearGradient id="paint41_linear_2028_2010" x1="940.325" y1="411.522" x2="940.325" y2="1366.35" gradientUnits="userSpaceOnUse">
<stop stop-color="#4D58FF"/>
<stop offset="1" stop-color="#4D58FF"/>
</linearGradient>
<linearGradient id="paint42_linear_2028_2010" x1="940.406" y1="376.623" x2="940.406" y2="1395.25" gradientUnits="userSpaceOnUse">
<stop stop-color="#4D58FF"/>
<stop offset="1" stop-color="#4D58FF"/>
</linearGradient>
<linearGradient id="paint43_linear_2028_2010" x1="939.483" y1="339.542" x2="939.483" y2="1424.69" gradientUnits="userSpaceOnUse">
<stop stop-color="#4D58FF"/>
<stop offset="1" stop-color="#4D58FF"/>
</linearGradient>
<linearGradient id="paint44_linear_2028_2010" x1="939.561" y1="299.735" x2="939.561" y2="1454.14" gradientUnits="userSpaceOnUse">
<stop stop-color="#4D58FF"/>
<stop offset="1" stop-color="#4D58FF"/>
</linearGradient>
<linearGradient id="paint45_linear_2028_2010" x1="939.64" y1="257.201" x2="939.64" y2="1483.59" gradientUnits="userSpaceOnUse">
<stop stop-color="#4D58FF"/>
<stop offset="1" stop-color="#4D58FF"/>
</linearGradient>
<linearGradient id="paint46_linear_2028_2010" x1="939.987" y1="212.487" x2="939.987" y2="1513.58" gradientUnits="userSpaceOnUse">
<stop stop-color="#4D58FF"/>
<stop offset="1" stop-color="#4D58FF"/>
</linearGradient>
<linearGradient id="paint47_linear_2028_2010" x1="940.336" y1="164.5" x2="940.336" y2="1543.02" gradientUnits="userSpaceOnUse">
<stop stop-color="#4D58FF"/>
<stop offset="1" stop-color="#4D58FF"/>
</linearGradient>
<linearGradient id="paint48_linear_2028_2010" x1="940.226" y1="113.242" x2="940.226" y2="1571.92" gradientUnits="userSpaceOnUse">
<stop stop-color="#4D58FF"/>
<stop offset="1" stop-color="#4D58FF"/>
</linearGradient>
<linearGradient id="paint49_linear_2028_2010" x1="939.938" y1="59.2566" x2="939.938" y2="1599.73" gradientUnits="userSpaceOnUse">
<stop stop-color="#4D58FF"/>
<stop offset="1" stop-color="#4D58FF"/>
</linearGradient>
<linearGradient id="paint50_linear_2028_2010" x1="939.919" y1="2" x2="939.919" y2="1627" gradientUnits="userSpaceOnUse">
<stop stop-color="#4D58FF"/>
<stop offset="1" stop-color="#4D58FF"/>
</linearGradient>
</defs>
</svg>
