<svg width="1920" height="2335" viewBox="0 0 1920 2335" fill="none" xmlns="http://www.w3.org/2000/svg">
<path d="M1008.67 926.238L1009.18 965.973L1048.91 965.466L1048.41 925.731L1008.67 926.238Z" stroke="#4D58FF" stroke-width="0.4" stroke-miterlimit="10"/>
<path d="M1008.27 922.268L1004.99 966.203L1048.93 969.481L1052.2 925.545L1008.27 922.268Z" stroke="#4D58FF" stroke-width="0.4" stroke-miterlimit="10"/>
<path d="M1008.35 917.712L1000.42 966.309L1049.02 974.239L1056.95 925.642L1008.35 917.712Z" stroke="#4D58FF" stroke-width="0.4" stroke-miterlimit="10"/>
<path d="M1009.03 912.783L995.615 965.529L1048.36 978.942L1061.77 926.196L1009.03 912.783Z" stroke="#4D58FF" stroke-width="0.4" stroke-miterlimit="10"/>
<path d="M1010.12 907.406L990.168 964.489L1047.25 984.444L1067.21 927.361L1010.12 907.406Z" stroke="#4D58FF" stroke-width="0.4" stroke-miterlimit="10"/>
<path d="M1011.86 901.454L984.168 962.88L1045.59 990.576L1073.29 929.15L1011.86 901.454Z" stroke="#4D58FF" stroke-width="0.4" stroke-miterlimit="10"/>
<path d="M1014.45 894.612L977.912 959.801L1043.1 996.337L1079.64 931.147L1014.45 894.612Z" stroke="#4D58FF" stroke-width="0.4" stroke-miterlimit="10"/>
<path d="M1017.81 888.491L971.111 957.024L1039.64 1003.72L1086.34 935.19L1017.81 888.491Z" stroke="#4D58FF" stroke-width="0.4" stroke-miterlimit="10"/>
<path d="M1022.15 880.925L963.646 952.487L1035.21 1010.99L1093.72 939.433L1022.15 880.925Z" stroke="#4D58FF" stroke-width="0.4" stroke-miterlimit="10"/>
<path d="M1027.3 873.49L955.844 946.795L1029.15 1018.25L1100.6 944.942L1027.3 873.49Z" stroke="#4D58FF" stroke-width="0.4" stroke-miterlimit="10"/>
<path d="M1034.87 865.482L948.457 939.893L1022.87 1026.31L1109.28 951.899L1034.87 865.482Z" stroke="#4D58FF" stroke-width="0.4" stroke-miterlimit="10"/>
<path d="M1043.04 857.308L940.303 931.215L1014.21 1033.95L1116.94 960.041L1043.04 857.308Z" stroke="#4D58FF" stroke-width="0.4" stroke-miterlimit="10"/>
<path d="M1053.16 849.513L932.117 921.467L1004.07 1042.51L1125.11 970.552L1053.16 849.513Z" stroke="#4D58FF" stroke-width="0.4" stroke-miterlimit="10"/>
<path d="M1065.14 841.656L924.279 909.537L992.161 1050.4L1133.02 982.515L1065.14 841.656Z" stroke="#4D58FF" stroke-width="0.4" stroke-miterlimit="10"/>
<path d="M1078.98 834.068L916.59 895.53L978.052 1057.92L1140.45 996.462L1078.98 834.068Z" stroke="#4D58FF" stroke-width="0.4" stroke-miterlimit="10"/>
<path d="M1095.44 826.755L909.6 879.093L961.938 1064.94L1147.78 1012.6L1095.44 826.755Z" stroke="#4D58FF" stroke-width="0.4" stroke-miterlimit="10"/>
<path d="M1113.84 820.323L903.348 860.215L943.24 1070.71L1153.74 1030.82L1113.84 820.323Z" stroke="#4D58FF" stroke-width="0.4" stroke-miterlimit="10"/>
<path d="M1135.3 815.408L898.061 839.218L921.87 1076.46L1159.11 1052.65L1135.3 815.408Z" stroke="#4D58FF" stroke-width="0.4" stroke-miterlimit="10"/>
<path d="M894.508 814.949L897.887 1079.71L1162.65 1076.33L1159.27 811.57L894.508 814.949Z" stroke="#4D58FF" stroke-width="0.4" stroke-miterlimit="10"/>
<path d="M892.675 788.037L870.793 1081.37L1164.13 1103.25L1186.01 809.919L892.675 788.037Z" stroke="#4D58FF" stroke-width="0.4" stroke-miterlimit="10"/>
<path d="M893.479 758.048L840.818 1080.75L1163.52 1133.41L1216.18 810.709L893.479 758.048Z" stroke="#4D58FF" stroke-width="0.4" stroke-miterlimit="10"/>
<path d="M897.277 724.807L807.75 1076.86L1159.81 1166.39L1249.33 814.334L897.277 724.807Z" stroke="#4D58FF" stroke-width="0.4" stroke-miterlimit="10"/>
<path d="M904.824 688.95L771.697 1069.78L1152.53 1202.91L1285.65 822.077L904.824 688.95Z" stroke="#4D58FF" stroke-width="0.4" stroke-miterlimit="10"/>
<path d="M916.501 649.51L732.217 1058.23L1140.94 1242.52L1325.22 833.794L916.501 649.51Z" stroke="#4D58FF" stroke-width="0.4" stroke-miterlimit="10"/>
<path d="M933.287 606.487L689.787 1040.96L1124.26 1284.46L1367.76 849.987L933.287 606.487Z" stroke="#4D58FF" stroke-width="0.4" stroke-miterlimit="10"/>
<path d="M955.605 561.76L644.035 1019L1101.27 1330.57L1412.84 873.33L955.605 561.76Z" stroke="#4D58FF" stroke-width="0.4" stroke-miterlimit="10"/>
<path d="M985.249 513.204L595.928 989.388L1072.11 1378.71L1461.43 902.525L985.249 513.204Z" stroke="#4D58FF" stroke-width="0.4" stroke-miterlimit="10"/>
<path d="M1022.36 462.728L545.402 952.047L1034.72 1429L1511.67 939.681L1022.36 462.728Z" stroke="#4D58FF" stroke-width="0.4" stroke-miterlimit="10"/>
<path d="M1068.85 410.415L493.391 905.921L988.897 1481.38L1564.35 985.873L1068.85 410.415Z" stroke="#4D58FF" stroke-width="0.4" stroke-miterlimit="10"/>
<path d="M1124.68 356.925L439.912 849.559L932.546 1534.33L1617.32 1041.7L1124.68 356.925Z" stroke="#4D58FF" stroke-width="0.4" stroke-miterlimit="10"/>
<path d="M1191.98 303.688L386.293 782.645L865.25 1588.33L1670.94 1109.37L1191.98 303.688Z" stroke="#4D58FF" stroke-width="0.4" stroke-miterlimit="10"/>
<path d="M1271.78 250.608L333.623 702.713L785.728 1640.87L1723.88 1188.76L1271.78 250.608Z" stroke="#4D58FF" stroke-width="0.4" stroke-miterlimit="10"/>
<path d="M1364.95 199.811L282.734 609.404L692.326 1691.62L1774.55 1282.03L1364.95 199.811Z" stroke="#4D58FF" stroke-width="0.4" stroke-miterlimit="10"/>
<path d="M1473.27 152.699L235.553 501.269L584.123 1738.99L1821.84 1390.42L1473.27 152.699Z" stroke="#4D58FF" stroke-width="0.4" stroke-miterlimit="10"/>
<path d="M1597.54 110.974L193.656 377.027L459.71 1780.91L1863.59 1514.86L1597.54 110.974Z" stroke="#4D58FF" stroke-width="0.4" stroke-miterlimit="10"/>
<path d="M1739.25 76.7138L159.799 235.228L318.313 1814.68L1897.76 1656.16L1739.25 76.7138Z" stroke="#4D58FF" stroke-width="0.4" stroke-miterlimit="10"/>
<path d="M1056.2 941.294L1024.15 917.808L1000.66 949.863L1032.71 973.349L1056.2 941.294Z" stroke="#4D58FF" stroke-width="0.4" stroke-miterlimit="10"/>
<path d="M1059.54 943.864L1026.4 914.823L997.363 947.959L1030.5 977L1059.54 943.864Z" stroke="#4D58FF" stroke-width="0.4" stroke-miterlimit="10"/>
<path d="M1063.19 946.37L1029.13 910.811L993.574 944.873L1027.64 980.431L1063.19 946.37Z" stroke="#4D58FF" stroke-width="0.4" stroke-miterlimit="10"/>
<path d="M1066.57 949.848L1032.49 907.414L990.054 941.492L1024.13 983.926L1066.57 949.848Z" stroke="#4D58FF" stroke-width="0.4" stroke-miterlimit="10"/>
<path d="M1070.23 954.039L1036.62 903.768L986.352 937.379L1019.96 987.65L1070.23 954.039Z" stroke="#4D58FF" stroke-width="0.4" stroke-miterlimit="10"/>
<path d="M1074.05 958.894L1041.62 899.83L982.56 932.256L1014.99 991.321L1074.05 958.894Z" stroke="#4D58FF" stroke-width="0.4" stroke-miterlimit="10"/>
<path d="M1077.73 964.871L1047.61 896.482L979.225 926.596L1009.34 994.984L1077.73 964.871Z" stroke="#4D58FF" stroke-width="0.4" stroke-miterlimit="10"/>
<path d="M1080.98 971.592L1054.3 893.068L975.775 919.75L1002.46 998.274L1080.98 971.592Z" stroke="#4D58FF" stroke-width="0.4" stroke-miterlimit="10"/>
<path d="M1084.26 979.528L1062.26 889.748L972.482 911.747L994.48 1001.53L1084.26 979.528Z" stroke="#4D58FF" stroke-width="0.4" stroke-miterlimit="10"/>
<path d="M1071.02 887.259L969.844 902.863L985.448 1004.04L1086.62 988.433L1071.02 887.259Z" stroke="#4D58FF" stroke-width="0.4" stroke-miterlimit="10"/>
<path d="M1081.58 884.999L967.793 892.498L975.291 1006.28L1089.08 998.783L1081.58 884.999Z" stroke="#4D58FF" stroke-width="0.4" stroke-miterlimit="10"/>
<path d="M1093.19 883.627L966.668 880.907L963.948 1007.43L1090.47 1010.15L1093.19 883.627Z" stroke="#4D58FF" stroke-width="0.4" stroke-miterlimit="10"/>
<path d="M1106.09 883.386L966.105 868.103L950.822 1008.08L1090.8 1023.37L1106.09 883.386Z" stroke="#4D58FF" stroke-width="0.4" stroke-miterlimit="10"/>
<path d="M1120.3 884.271L966.936 853.816L936.481 1007.18L1089.85 1037.64L1120.3 884.271Z" stroke="#4D58FF" stroke-width="0.4" stroke-miterlimit="10"/>
<path d="M1135.93 886.694L969.221 838.155L920.682 1004.87L1087.4 1053.41L1135.93 886.694Z" stroke="#4D58FF" stroke-width="0.4" stroke-miterlimit="10"/>
<path d="M1153.8 890.728L973.82 820.803L903.895 1000.78L1083.88 1070.71L1153.8 890.728Z" stroke="#4D58FF" stroke-width="0.4" stroke-miterlimit="10"/>
<path d="M1171.85 896.684L979.68 801.981L884.977 994.151L1077.15 1088.85L1171.85 896.684Z" stroke="#4D58FF" stroke-width="0.4" stroke-miterlimit="10"/>
<path d="M1192.1 905.603L988.229 781.976L864.601 985.85L1068.48 1109.48L1192.1 905.603Z" stroke="#4D58FF" stroke-width="0.4" stroke-miterlimit="10"/>
<path d="M1213.76 916.989L1000.18 760.5L843.695 974.079L1057.27 1130.57L1213.76 916.989Z" stroke="#4D58FF" stroke-width="0.4" stroke-miterlimit="10"/>
<path d="M1236.31 932.232L1015.09 738.34L821.196 959.565L1042.42 1153.46L1236.31 932.232Z" stroke="#4D58FF" stroke-width="0.4" stroke-miterlimit="10"/>
<path d="M1259.83 950.596L1033.65 714.476L797.532 940.657L1023.71 1176.78L1259.83 950.596Z" stroke="#4D58FF" stroke-width="0.4" stroke-miterlimit="10"/>
<path d="M1283.95 973.589L1056.5 690.357L773.265 917.812L1000.72 1201.04L1283.95 973.589Z" stroke="#4D58FF" stroke-width="0.4" stroke-miterlimit="10"/>
<path d="M1308.09 1001.28L1083.86 665.906L748.481 890.138L972.713 1225.52L1308.09 1001.28Z" stroke="#4D58FF" stroke-width="0.4" stroke-miterlimit="10"/>
<path d="M1332.68 1034.2L1116.92 641.191L723.907 856.955L939.671 1249.96L1332.68 1034.2Z" stroke="#4D58FF" stroke-width="0.4" stroke-miterlimit="10"/>
<path d="M1356.71 1073.28L1156.01 617.489L700.221 818.185L900.917 1273.98L1356.71 1073.28Z" stroke="#4D58FF" stroke-width="0.4" stroke-miterlimit="10"/>
<path d="M1379.47 1118.33L1201.45 594.434L677.545 772.454L855.566 1296.35L1379.47 1118.33Z" stroke="#4D58FF" stroke-width="0.4" stroke-miterlimit="10"/>
<path d="M1400.26 1171.15L1253.88 573.741L656.471 720.122L802.852 1317.53L1400.26 1171.15Z" stroke="#4D58FF" stroke-width="0.4" stroke-miterlimit="10"/>
<path d="M1314.08 556.075L638.732 660.235L742.893 1335.59L1418.24 1231.42L1314.08 556.075Z" stroke="#4D58FF" stroke-width="0.4" stroke-miterlimit="10"/>
<path d="M1382.32 541.831L624.623 591.763L674.555 1349.46L1432.25 1299.53L1382.32 541.831Z" stroke="#4D58FF" stroke-width="0.4" stroke-miterlimit="10"/>
<path d="M1459.3 532.911L615.941 514.78L597.81 1358.14L1441.17 1376.27L1459.3 532.911Z" stroke="#4D58FF" stroke-width="0.4" stroke-miterlimit="10"/>
<path d="M1545.21 530.715L613.438 428.98L511.703 1360.76L1443.48 1462.49L1545.21 530.715Z" stroke="#4D58FF" stroke-width="0.4" stroke-miterlimit="10"/>
<path d="M1640.78 536.251L619.332 333.414L416.495 1354.86L1437.95 1557.7L1640.78 536.251Z" stroke="#4D58FF" stroke-width="0.4" stroke-miterlimit="10"/>
<path d="M1745.81 551.866L634.801 228.393L311.327 1339.41L1422.34 1662.88L1745.81 551.866Z" stroke="#4D58FF" stroke-width="0.4" stroke-miterlimit="10"/>
<path d="M1861.04 579.272L662.369 113.573L196.67 1312.24L1395.34 1777.94L1861.04 579.272Z" stroke="#4D58FF" stroke-width="0.4" stroke-miterlimit="10"/>
<path d="M1984.85 620.781L703.207 -10.8248L71.6014 1270.82L1353.25 1902.43L1984.85 620.781Z" stroke="#4D58FF" stroke-width="0.4" stroke-miterlimit="10"/>
<path d="M2118.85 678.531L761.531 -144.535L-61.534 1212.78L1295.78 2035.85L2118.85 678.531Z" stroke="#4D58FF" stroke-width="0.4" stroke-miterlimit="10"/>
</svg>
