<svg width="300" height="280" viewBox="0 0 300 280" fill="none" xmlns="http://www.w3.org/2000/svg">
<path d="M300 0H0V280H300V0Z" fill="url(#paint0_linear_1674_2172)"/>
<g clip-path="url(#clip0_1674_2172)">
<path d="M105.105 109.678C99.5034 109.678 94.9438 114.44 94.9438 120.291C94.9438 126.141 99.5034 130.904 105.105 130.904C110.707 130.904 115.266 126.141 115.266 120.291C115.266 114.44 110.707 109.678 105.105 109.678ZM105.105 127.871C101.103 127.871 97.8471 124.471 97.8471 120.291C97.8471 116.11 101.103 112.71 105.105 112.71C109.107 112.71 112.363 116.11 112.363 120.291C112.363 124.471 109.107 127.871 105.105 127.871Z" fill="#6D95FC"/>
<path fill-rule="evenodd" clip-rule="evenodd" d="M105.105 110.678C100.096 110.678 95.9438 114.951 95.9438 120.291C95.9438 125.63 100.096 129.904 105.105 129.904C110.114 129.904 114.266 125.63 114.266 120.291C114.266 114.951 110.114 110.678 105.105 110.678ZM105.105 128.871C100.51 128.871 96.8471 124.982 96.8471 120.291C96.8471 115.6 100.51 111.71 105.105 111.71C109.7 111.71 113.363 115.6 113.363 120.291C113.363 124.982 109.7 128.871 105.105 128.871ZM94.9438 120.291C94.9438 114.44 99.5034 109.678 105.105 109.678C110.707 109.678 115.266 114.44 115.266 120.291C115.266 126.141 110.707 130.904 105.105 130.904C99.5034 130.904 94.9438 126.141 94.9438 120.291ZM97.8471 120.291C97.8471 124.471 101.103 127.871 105.105 127.871C109.107 127.871 112.363 124.471 112.363 120.291C112.363 116.11 109.107 112.71 105.105 112.71C101.103 112.71 97.8471 116.11 97.8471 120.291Z" fill="black"/>
<path d="M105.105 115.742C102.704 115.742 100.75 117.783 100.75 120.291C100.75 122.798 102.704 124.839 105.105 124.839C107.506 124.839 109.46 122.798 109.46 120.291C109.46 117.783 107.506 115.742 105.105 115.742ZM105.105 121.807C104.304 121.807 103.654 121.127 103.654 120.291C103.654 119.454 104.304 118.774 105.105 118.774C105.906 118.774 106.557 119.454 106.557 120.291C106.557 121.127 105.906 121.807 105.105 121.807Z" fill="#6D95FC"/>
<path fill-rule="evenodd" clip-rule="evenodd" d="M105.105 116.742C103.297 116.742 101.75 118.294 101.75 120.291C101.75 122.287 103.297 123.839 105.105 123.839C106.914 123.839 108.46 122.287 108.46 120.291C108.46 118.294 106.914 116.742 105.105 116.742ZM105.105 122.807C103.712 122.807 102.654 121.638 102.654 120.291C102.654 118.943 103.712 117.774 105.105 117.774C106.499 117.774 107.557 118.943 107.557 120.291C107.557 121.638 106.499 122.807 105.105 122.807ZM100.75 120.291C100.75 117.783 102.704 115.742 105.105 115.742C107.506 115.742 109.46 117.783 109.46 120.291C109.46 122.798 107.506 124.839 105.105 124.839C102.704 124.839 100.75 122.798 100.75 120.291ZM103.654 120.291C103.654 121.127 104.304 121.807 105.105 121.807C105.906 121.807 106.557 121.127 106.557 120.291C106.557 119.454 105.906 118.774 105.105 118.774C104.304 118.774 103.654 119.454 103.654 120.291Z" fill="black"/>
<path d="M165.223 116.821L154.724 112.71H153.008V100.05C156.385 98.7979 158.814 95.4367 158.814 91.4839V89.1643C158.814 87.3342 159.631 85.5952 161.056 84.3911C165.166 80.9162 167.524 75.7662 167.524 70.2581C167.524 65.0883 165.406 60.144 161.713 56.6949C159.252 54.395 156.223 52.9215 153.008 52.3495V50.5484C153.008 48.0406 151.054 46 148.653 46H81.8788C79.4777 46 77.5239 48.0406 77.5239 50.5484V117.258C77.5239 119.766 79.4777 121.806 81.8788 121.806H86.2945C86.5615 123.501 87.704 124.925 89.3052 125.474C89.7452 125.626 90.0861 125.953 90.2442 126.379C90.3194 126.58 90.3952 126.777 90.4782 126.972C90.6493 127.384 90.6292 127.868 90.4231 128.296C89.5508 130.097 89.8833 132.265 91.2494 133.695L92.2726 134.765C93.6387 136.191 95.7144 136.538 97.44 135.626C97.8496 135.411 98.3136 135.39 98.7102 135.57C98.8962 135.655 99.0847 135.734 99.2779 135.812C99.6829 135.977 99.9978 136.336 100.143 136.793C100.744 138.711 102.448 140 104.381 140H105.827C107.761 140 109.464 138.71 110.067 136.793C110.212 136.334 110.526 135.977 110.934 135.812C111.125 135.734 111.314 135.655 111.501 135.568C111.898 135.391 112.358 135.41 112.769 135.626C114.493 136.535 116.571 136.188 117.938 134.763L118.963 133.694C120.328 132.266 120.66 130.096 119.787 128.297C119.722 128.16 119.707 128.014 119.68 127.872H154.724L165.224 123.759C166.599 123.218 167.523 121.825 167.523 120.29C167.523 118.756 166.599 117.363 165.223 116.821L165.223 116.821ZM123.915 118.774C123.72 117.542 123.061 116.456 122.1 115.742H153.007V118.774H123.915ZM123.915 121.806H153.008V124.839H122.101C123.064 124.125 123.723 123.039 123.916 121.806H123.915ZM150.105 97.5484C146.903 97.5484 144.299 94.8282 144.299 91.4839H155.911C155.911 94.8282 153.307 97.5484 150.105 97.5484ZM149.139 74.8064H151.07L150.198 88.4516H150.01L149.139 74.8064ZM164.621 70.2581C164.621 74.8458 162.656 79.1382 159.23 82.0338C157.305 83.6609 156.141 85.9697 155.95 88.4516H153.108L153.979 74.8064H155.911C158.312 74.8064 160.266 72.7658 160.266 70.2581C160.266 67.7503 158.312 65.7097 155.911 65.7097H155.724C153.439 65.7097 151.529 67.5744 151.379 69.9562L151.263 71.7742H148.947L148.831 69.9576C148.681 67.5744 146.771 65.7097 144.486 65.7097H144.298C141.897 65.7097 139.944 67.7503 139.944 70.2581C139.944 72.7658 141.897 74.8064 144.298 74.8064H146.23L147.101 88.4516H144.258C144.062 85.9804 142.876 83.6528 140.917 81.979C136.894 78.5406 134.967 73.2525 135.769 67.835C136.742 61.2521 142.065 55.9361 148.428 55.195C148.996 55.1287 149.563 55.0969 150.125 55.0969C153.705 55.0969 157.082 56.4357 159.778 58.9543C162.856 61.8288 164.621 65.9493 164.621 70.2581ZM154.174 71.7742L154.277 70.1565C154.326 69.3633 154.963 68.7419 155.724 68.7419H155.911C156.712 68.7419 157.363 69.4215 157.363 70.2581C157.363 71.0946 156.712 71.7742 155.911 71.7742H154.174ZM146.036 71.7742H144.298C143.497 71.7742 142.847 71.0946 142.847 70.2581C142.847 69.4215 143.497 68.7419 144.298 68.7419H144.486C145.246 68.7419 145.883 69.3633 145.933 70.1579L146.036 71.7742ZM115.267 70.2581H110.912C109.425 70.2581 108.112 71.0432 107.326 72.2337C106.101 71.0174 104.455 70.2581 102.636 70.2581H102.24C101.003 70.2581 99.7894 70.608 98.7279 71.274L92.0407 75.4644V78.5677L98.3714 83.856C99.5761 84.8645 101.091 85.4195 102.636 85.4195C104.455 85.4195 106.101 84.66 107.326 83.4438C108.112 84.6344 109.425 85.4195 110.912 85.4195H115.267V88.4517H86.2343V67.2259H115.267L115.267 70.2581ZM102.636 82.3871C101.749 82.3871 100.878 82.069 100.186 81.4882L94.9918 77.1504L100.22 73.8738C100.831 73.4921 101.529 73.2904 102.238 73.2904H102.635C104.797 73.2904 106.557 75.1279 106.557 77.3853V78.2923C106.557 80.5495 104.798 82.3871 102.636 82.3871ZM110.912 82.3871C110.111 82.3871 109.46 81.7075 109.46 80.871V74.8064C109.46 73.9699 110.111 73.2903 110.912 73.2903H132.963C133.505 76.6698 134.931 79.8111 137.156 82.3871H110.912ZM81.8795 49.0323H148.654C149.455 49.0323 150.105 49.7118 150.105 50.5484V52.0753C149.44 52.074 148.773 52.1044 148.105 52.1816C143.837 52.6784 139.96 54.8937 137.164 58.129H115.267V52.0645H106.557V58.129H103.654V52.0645H94.9444V58.129H92.0412V52.0645H83.3315V58.129H80.4283V50.5483C80.4283 49.7118 81.0789 49.0322 81.8799 49.0322L81.8795 49.0323ZM112.363 58.129H109.46V55.0968H112.363V58.129ZM100.751 58.129H97.8473V55.0968H100.751V58.129ZM89.1376 58.129H86.2344V55.0968H89.1376V58.129ZM80.4279 117.258V61.1613H135.047C133.981 63.0565 133.23 65.15 132.901 67.3746C132.757 68.3432 132.711 69.3051 132.711 70.2581H118.17V64.1935H83.3317V91.4839H118.17V85.4193H140.102C140.932 86.5199 141.397 87.8282 141.397 89.1731V91.4839C141.397 96.5006 145.303 100.581 150.107 100.581V112.71H119.681C119.709 112.567 119.723 112.421 119.788 112.287C120.661 110.485 120.328 108.318 118.962 106.887L117.939 105.819C116.574 104.391 114.496 104.04 112.772 104.956C112.364 105.172 111.899 105.194 111.501 105.012C111.315 104.927 111.127 104.848 110.934 104.77C110.529 104.604 110.214 104.246 110.069 103.789C109.467 101.869 107.763 100.581 105.83 100.581H104.384C102.45 100.581 100.746 101.871 100.144 103.787C99.9986 104.247 99.6849 104.603 99.2773 104.768C99.0855 104.847 98.8969 104.926 98.7096 105.013C98.313 105.19 97.8529 105.17 97.442 104.955C95.7175 104.045 93.64 104.393 92.2726 105.818L91.2481 106.887C89.8833 108.315 89.5509 110.485 90.4238 112.284C90.6311 112.713 90.6499 113.196 90.4775 113.61C90.3965 113.805 90.3207 114.002 90.2456 114.203C90.0874 114.626 89.7446 114.955 89.3065 115.107C87.7046 115.655 86.5621 117.079 86.2963 118.774H81.8806C81.0796 118.774 80.429 118.095 80.429 117.258L80.4279 117.258ZM117.261 125.277C117.2 125.44 117.134 125.603 117.069 125.762C116.552 127.004 116.598 128.426 117.195 129.661C117.5 130.291 117.384 131.049 116.908 131.548L115.884 132.615C115.407 133.114 114.682 133.235 114.077 132.917C112.897 132.293 111.534 132.245 110.346 132.783C110.193 132.853 110.037 132.922 109.881 132.985C108.664 133.479 107.727 134.524 107.311 135.848C107.099 136.518 106.504 136.968 105.828 136.968H104.382C103.706 136.968 103.111 136.518 102.9 135.846C102.483 134.524 101.546 133.481 100.329 132.986C100.173 132.922 100.017 132.854 99.8647 132.786C99.3158 132.537 98.7313 132.413 98.1428 132.413C97.4559 132.413 96.7683 132.581 96.1293 132.918C95.5267 133.236 94.8009 133.115 94.3232 132.617L93.3012 131.548C92.8236 131.049 92.7076 130.291 93.0122 129.661C93.6091 128.427 93.6551 127.005 93.1399 125.764C93.0731 125.604 93.0077 125.441 92.9467 125.279C92.4737 124.007 91.4731 123.029 90.2061 122.594C89.5678 122.374 89.1368 121.752 89.1368 121.046V119.536C89.1368 118.829 89.5678 118.208 90.2113 117.988C91.4769 117.553 92.4755 116.573 92.9493 115.303C93.0102 115.139 93.0756 114.976 93.1411 114.817C93.6576 113.575 93.6116 112.153 93.0147 110.918C92.7102 110.289 92.8261 109.531 93.3025 109.032L94.3257 107.963C94.8033 107.465 95.5291 107.346 96.1332 107.662C97.3146 108.286 98.6794 108.336 99.8639 107.796C100.017 107.726 100.173 107.658 100.329 107.594C101.546 107.1 102.483 106.055 102.899 104.732C103.11 104.063 103.705 103.613 104.381 103.613H105.827C106.504 103.613 107.099 104.063 107.309 104.735C107.726 106.057 108.664 107.1 109.88 107.595C110.037 107.658 110.192 107.727 110.345 107.795C111.535 108.334 112.895 108.286 114.078 107.663C114.683 107.343 115.408 107.467 115.884 107.964L116.906 109.032C117.384 109.531 117.5 110.289 117.195 110.92C116.598 112.154 116.552 113.576 117.068 114.817C117.134 114.977 117.2 115.14 117.261 115.302C117.734 116.574 118.734 117.552 120.001 117.987C120.642 118.207 121.072 118.829 121.072 119.535V121.045C121.072 121.752 120.642 122.373 119.998 122.593C118.732 123.028 117.734 124.006 117.261 125.277ZM164.203 120.92L155.912 124.167V116.414L164.203 119.66C164.453 119.758 164.621 120.011 164.621 120.29C164.621 120.569 164.453 120.822 164.203 120.92Z" fill="white"/>
<path fill-rule="evenodd" clip-rule="evenodd" d="M165.223 116.821C165.287 116.846 165.351 116.874 165.413 116.903C166.683 117.494 167.523 118.828 167.523 120.29C167.523 121.825 166.599 123.218 165.224 123.759L154.724 127.872H119.68C119.685 127.902 119.691 127.933 119.696 127.963C119.716 128.076 119.736 128.189 119.787 128.297C119.878 128.485 119.957 128.677 120.022 128.872C120.579 130.542 120.185 132.415 118.963 133.694L117.938 134.763C116.571 136.188 114.493 136.535 112.769 135.626C112.358 135.41 111.898 135.391 111.501 135.568C111.314 135.655 111.125 135.734 110.934 135.812C110.526 135.977 110.212 136.334 110.067 136.793C109.464 138.71 107.761 140 105.827 140H104.381C102.448 140 100.744 138.711 100.143 136.793C99.9978 136.336 99.6829 135.977 99.2779 135.812C99.0847 135.734 98.8962 135.655 98.7102 135.57C98.3136 135.39 97.8496 135.411 97.44 135.626C95.7143 136.538 93.6387 136.191 92.2726 134.765L91.2494 133.695C89.8833 132.265 89.5508 130.097 90.4231 128.296C90.6292 127.868 90.6493 127.384 90.4782 126.972C90.3952 126.777 90.3194 126.58 90.2442 126.379C90.0861 125.953 89.7452 125.626 89.3052 125.474C87.704 124.925 86.5615 123.501 86.2945 121.806H81.8788C79.4777 121.806 77.5239 119.766 77.5239 117.258V50.5484C77.5239 48.0406 79.4777 46 81.8788 46H148.653C151.054 46 153.008 48.0406 153.008 50.5484V52.3495C156.223 52.9215 159.252 54.395 161.713 56.6949C165.406 60.144 167.524 65.0883 167.524 70.2581C167.524 75.7662 165.166 80.9162 161.056 84.3911C159.631 85.5952 158.814 87.3342 158.814 89.1643V91.4839C158.814 95.4367 156.385 98.7979 153.008 100.05V112.71H154.724L165.223 116.821ZM154.535 113.71L164.857 117.752C165.832 118.136 166.523 119.147 166.523 120.29C166.523 121.434 165.832 122.445 164.857 122.829L154.535 126.872H118.464L118.698 128.065C118.699 128.066 118.699 128.07 118.7 128.077C118.71 128.144 118.759 128.465 118.885 128.729L118.887 128.733C119.58 130.162 119.312 131.88 118.241 133.002C118.24 133.002 118.24 133.003 118.24 133.003L117.217 134.07C116.152 135.18 114.558 135.439 113.235 134.741L113.233 134.74C112.569 134.392 111.787 134.345 111.093 134.655L111.081 134.66C110.915 134.738 110.742 134.81 110.555 134.887C109.842 135.177 109.338 135.782 109.114 136.492L109.113 136.493C108.634 138.017 107.3 139 105.827 139H104.381C102.908 139 101.574 138.018 101.097 136.494L101.096 136.491C100.872 135.783 100.366 135.176 99.6554 134.886L99.6545 134.886C99.4677 134.81 99.2929 134.737 99.1242 134.66C98.4258 134.343 97.6368 134.393 96.9748 134.741L96.9729 134.742C95.6494 135.441 94.0574 135.182 92.9946 134.073L91.9725 133.004M154.535 113.71H152.008V99.3543L152.66 99.1124C155.64 98.0077 157.814 95.0243 157.814 91.4839V89.1643C157.814 87.0331 158.766 85.0171 160.41 83.6274C164.29 80.3474 166.524 75.4796 166.524 70.2581C166.524 65.3581 164.516 60.6808 161.03 57.4257C158.714 55.2611 155.863 53.8731 152.833 53.3341L152.008 53.1874V50.5484C152.008 48.5515 150.461 47 148.653 47H81.8788C80.0705 47 78.5239 48.5515 78.5239 50.5484V117.258C78.5239 119.255 80.0705 120.806 81.8788 120.806H87.1493L87.2823 121.651C87.4951 123.002 88.3994 124.107 89.6295 124.528L89.631 124.529C90.3434 124.774 90.9144 125.314 91.1807 126.028M91.1807 126.028C91.2542 126.224 91.3242 126.406 91.3988 126.582L91.4018 126.589C91.6897 127.283 91.6449 128.064 91.324 128.73L91.3231 128.732C90.6302 130.163 90.8993 131.881 91.9725 133.004M123.06 119.774L122.927 118.93C122.772 117.951 122.251 117.1 121.504 116.545L119.077 114.742H154.007V119.774H123.06ZM154.008 120.806V125.839H119.076L121.505 124.036C122.254 123.48 122.775 122.629 122.928 121.652L123.915 121.806V120.806H154.008ZM123.916 121.806C123.916 121.809 123.915 121.812 123.915 121.815C123.796 122.56 123.508 123.251 123.085 123.839C122.811 124.22 122.479 124.558 122.101 124.839H153.008V121.806H123.916ZM143.299 90.4839H156.911V91.4839C156.911 95.339 153.9 98.5484 150.105 98.5484C146.31 98.5484 143.299 95.339 143.299 91.4839V90.4839ZM148.074 73.8064H152.136L151.136 89.4516H149.072L148.074 73.8064ZM159.876 82.7975C158.157 84.2501 157.118 86.3104 156.947 88.5282L156.876 89.4516H152.042L153.041 73.8064H155.911C157.72 73.8064 159.266 72.255 159.266 70.2581C159.266 68.2612 157.72 66.7097 155.911 66.7097H155.724C154.003 66.7097 152.496 68.1277 152.377 70.0187L152.202 72.7742H148.008L147.833 70.0213L147.833 70.0203C147.714 68.1275 146.207 66.7097 144.486 66.7097H144.298C142.49 66.7097 140.944 68.2612 140.944 70.2581C140.944 72.255 142.49 73.8064 144.298 73.8064H147.168L148.167 89.4516H143.334L143.261 88.5305C143.086 86.3288 142.029 84.2444 140.268 82.7393C135.972 79.0682 133.93 73.4328 134.78 67.6888C135.815 60.683 141.475 54.9979 148.313 54.2017C148.92 54.1308 149.526 54.0969 150.125 54.0969C153.964 54.0969 157.584 55.5356 160.461 58.2235C163.746 61.2921 165.621 65.6795 165.621 70.2581C165.621 75.1325 163.532 79.7071 159.876 82.7975ZM159.778 58.9543C157.082 56.4357 153.705 55.0969 150.125 55.0969C149.563 55.0969 148.996 55.1287 148.428 55.195C142.065 55.9361 136.742 61.2521 135.769 67.835C134.967 73.2525 136.894 78.5406 140.917 81.979C142.876 83.6528 144.062 85.9804 144.258 88.4516H147.101L146.23 74.8064H144.298C141.897 74.8064 139.944 72.7658 139.944 70.2581C139.944 67.7503 141.897 65.7097 144.298 65.7097H144.486C146.771 65.7097 148.681 67.5744 148.831 69.9576L148.947 71.7742H151.263L151.379 69.9562C151.529 67.5744 153.439 65.7097 155.724 65.7097H155.911C158.312 65.7097 160.266 67.7503 160.266 70.2581C160.266 72.7658 158.312 74.8064 155.911 74.8064H153.979L153.108 88.4516H155.95C156.141 85.9697 157.305 83.6609 159.23 82.0338C162.656 79.1382 164.621 74.8458 164.621 70.2581C164.621 65.9493 162.856 61.8288 159.778 58.9543ZM153.108 72.7742L153.279 70.0946C153.279 70.094 153.279 70.0935 153.279 70.093C153.36 68.8089 154.401 67.7419 155.724 67.7419H155.911C157.305 67.7419 158.363 68.9106 158.363 70.2581C158.363 71.6055 157.305 72.7742 155.911 72.7742H153.108ZM147.102 72.7742H144.298C142.905 72.7742 141.847 71.6055 141.847 70.2581C141.847 68.9106 142.905 67.7419 144.298 67.7419H144.486C145.81 67.7419 146.851 68.8103 146.931 70.096L147.102 72.7742ZM145.933 70.1579C145.883 69.3633 145.246 68.7419 144.486 68.7419H144.298C143.497 68.7419 142.847 69.4215 142.847 70.2581C142.847 71.0946 143.497 71.7742 144.298 71.7742H146.036L145.933 70.1579ZM154.277 70.1565C154.326 69.3633 154.963 68.7419 155.724 68.7419H155.911C156.712 68.7419 157.363 69.4215 157.363 70.2581C157.363 71.0946 156.712 71.7742 155.911 71.7742H154.174L154.277 70.1565ZM116.267 71.2581H110.912C109.79 71.2581 108.778 71.8495 108.161 72.7844L107.488 73.804L106.622 72.9433C105.567 71.8959 104.167 71.2581 102.636 71.2581H102.24C101.193 71.2581 100.163 71.5541 99.2594 72.1211L93.0407 76.0179V78.1001L99.0125 83.0885L99.0133 83.0892C100.041 83.9496 101.33 84.4195 102.636 84.4195C104.168 84.4195 105.567 83.7816 106.622 82.7342L107.488 81.8736L108.161 82.8931C108.778 83.8281 109.79 84.4195 110.912 84.4195H116.267V89.4517H85.2343V66.2259H116.266L116.267 71.2581ZM92.0407 78.5677V75.4644L98.7279 71.274C99.7894 70.608 101.003 70.2581 102.24 70.2581H102.636C104.1 70.2581 105.453 70.7502 106.563 71.5766C106.833 71.7768 107.087 71.9965 107.326 72.2337C107.512 71.9521 107.727 71.6931 107.968 71.4619C108.743 70.7157 109.777 70.2581 110.912 70.2581H115.267L115.267 67.2259H86.2343V88.4517H115.267V85.4195H110.912C109.777 85.4195 108.743 84.9619 107.967 84.2156C107.727 83.9844 107.512 83.7254 107.326 83.4438C107.087 83.681 106.832 83.9008 106.563 84.1009C105.453 84.9273 104.101 85.4195 102.636 85.4195C101.091 85.4195 99.5761 84.8645 98.3714 83.856L92.0407 78.5677ZM100.22 73.8738C100.831 73.4921 101.529 73.2904 102.238 73.2904H102.635C104.797 73.2904 106.557 75.1279 106.557 77.3853V78.2923C106.557 80.5495 104.798 82.3871 102.636 82.3871C101.749 82.3871 100.878 82.069 100.186 81.4882L94.9918 77.1504L100.22 73.8738ZM93.2933 77.0347L99.6905 73.0257C100.458 72.5464 101.338 72.2904 102.238 72.2904H102.635C105.39 72.2904 107.557 74.6168 107.557 77.3853V78.2923C107.557 81.0603 105.39 83.3871 102.636 83.3871C101.511 83.3871 100.414 82.9844 99.5439 82.2549C99.5437 82.2547 99.5442 82.2551 99.5439 82.2549L93.2933 77.0347ZM133.815 72.2903L133.95 73.132C134.464 76.3354 135.814 79.3033 137.913 81.7334L139.342 83.3871H110.912C109.518 83.3871 108.46 82.2184 108.46 80.871V74.8064C108.46 73.459 109.518 72.2903 110.912 72.2903H133.815ZM81.8795 49.0322C81.8604 49.0322 81.8414 49.0326 81.8225 49.0334C81.0481 49.0649 80.4283 49.7318 80.4283 50.5483V58.129H83.3315V52.0645H92.0412V58.129H94.9444V52.0645H103.654V58.129H106.557V52.0645H115.267V58.129H137.164C139.96 54.8937 143.837 52.6784 148.105 52.1816C148.745 52.1077 149.384 52.0766 150.021 52.0753C150.049 52.0753 150.077 52.0753 150.105 52.0753V50.5484C150.105 49.7118 149.455 49.0323 148.654 49.0323L81.8795 49.0322ZM148.219 53.175C144.224 53.6404 140.569 55.7189 137.92 58.7829L137.621 59.129H114.267V53.0645H107.557V59.129H102.654V53.0645H95.9444V59.129H91.0412V53.0645H84.3315V59.129H79.4283V50.5483C79.4283 49.2009 80.4861 48.0322 81.8799 48.0322L148.654 48.0323C150.048 48.0323 151.105 49.201 151.105 50.5484V53.0774L150.103 53.0753C149.47 53.0741 148.842 53.1032 148.219 53.175ZM113.363 59.129H108.46V54.0968H113.363V59.129ZM101.751 59.129H96.8473V54.0968H101.751V59.129ZM90.1376 59.129H85.2344V54.0968H90.1376V59.129ZM79.4279 118.348V60.1613H136.756L135.918 61.6513C134.909 63.4475 134.2 65.4252 133.89 67.5208C133.756 68.4256 133.711 69.3362 133.711 70.2581V71.2581H117.17V65.1935H84.3317V90.4839H117.17V84.4193H140.601L140.901 84.8172C141.852 86.0782 142.397 87.5951 142.397 89.1731V91.4839C142.397 95.9897 145.896 99.5806 150.107 99.5806H151.107V113.71H118.467L118.699 112.518C118.7 112.517 118.7 112.513 118.701 112.506C118.711 112.44 118.76 112.115 118.889 111.85C119.581 110.419 119.312 108.702 118.239 107.578L117.217 106.51C116.154 105.399 114.561 105.138 113.241 105.839C112.579 106.19 111.788 106.242 111.087 105.922C111.086 105.922 111.086 105.922 111.085 105.921L111.501 105.012L111.087 105.922C111.087 105.922 111.087 105.922 111.087 105.922C110.918 105.845 110.744 105.772 110.557 105.696L110.556 105.696C109.846 105.406 109.34 104.799 109.115 104.091L109.114 104.088C108.637 102.563 107.303 101.581 105.83 101.581H104.384C102.911 101.581 101.577 102.564 101.098 104.087L101.097 104.089C100.873 104.799 100.368 105.404 99.6553 105.694C99.6544 105.694 99.6536 105.695 99.6528 105.695L99.2773 104.768C99.0855 104.847 98.8969 104.926 98.7096 105.013C98.313 105.19 97.8529 105.17 97.442 104.955C95.7175 104.045 93.64 104.393 92.2726 105.818L91.2481 106.887C89.8833 108.315 89.5509 110.485 90.4238 112.284C90.6311 112.713 90.6499 113.196 90.4775 113.61C90.3965 113.805 90.3207 114.002 90.2456 114.203C90.0874 114.626 89.7446 114.955 89.3065 115.107C87.7046 115.655 86.5621 117.079 86.2963 118.774H81.8806C81.1693 118.774 80.5765 118.238 80.4527 117.532C80.452 117.528 80.4513 117.524 80.4506 117.52C80.4371 117.439 80.4297 117.356 80.429 117.271C80.429 117.266 80.429 117.262 80.429 117.258C80.429 117.258 80.429 117.258 80.429 117.258H80.4279V61.1613H135.047C134.863 61.4888 134.688 61.8223 134.523 62.1613C133.734 63.784 133.173 65.5345 132.901 67.3746C132.757 68.3432 132.711 69.3051 132.711 70.2581H118.17V64.1935H83.3317V91.4839H118.17V85.4193H140.102C140.932 86.5199 141.397 87.8282 141.397 89.1731V91.4839C141.397 96.5006 145.303 100.581 150.107 100.581V112.71H119.681C119.687 112.68 119.692 112.65 119.697 112.62C119.717 112.506 119.737 112.393 119.788 112.287C119.88 112.098 119.958 111.905 120.023 111.71C120.58 110.039 120.185 108.168 118.962 106.887L117.939 105.819C116.574 104.391 114.496 104.04 112.772 104.956M79.6628 118.328C80.049 119.169 80.8779 119.774 81.8806 119.774H87.1517L87.2842 118.929C87.496 117.579 88.3999 116.474 89.6303 116.053L89.6336 116.052C90.3431 115.806 90.916 115.266 91.1823 114.554C91.2552 114.358 91.3264 114.173 91.4005 113.995C91.6894 113.301 91.648 112.519 91.3241 111.849L91.3234 111.847C90.6303 110.419 90.8991 108.699 91.971 107.578L92.9943 106.51M79.4279 118.348L79.6628 118.328ZM117.994 126.142L117.992 126.146C117.588 127.118 117.62 128.242 118.096 129.226C118.579 130.225 118.4 131.433 117.631 132.238L117.629 132.24L116.607 133.307C115.825 134.123 114.617 134.331 113.612 133.802L113.61 133.801C112.696 133.318 111.658 133.287 110.759 133.694M117.195 129.661C116.598 128.426 116.552 127.004 117.069 125.762C117.134 125.603 117.2 125.44 117.261 125.277C117.734 124.006 118.732 123.028 119.998 122.593C120.642 122.373 121.072 121.752 121.072 121.045V119.535C121.072 118.829 120.642 118.207 120.001 117.987C118.734 117.552 117.734 116.574 117.261 115.302M120.323 123.539C119.344 123.875 118.568 124.632 118.198 125.626C118.131 125.805 118.061 125.98 117.994 126.142M120.323 123.539C121.392 123.172 122.072 122.155 122.072 121.045V119.535C122.072 118.426 121.392 117.408 120.326 117.041C119.345 116.704 118.568 115.947 118.198 114.953L118.197 114.951C118.131 114.774 118.06 114.6 117.991 114.433C117.588 113.462 117.62 112.338 118.095 111.356C118.578 110.356 118.4 109.147 117.629 108.341C117.629 108.341 117.629 108.341 117.629 108.341L116.607 107.272L116.606 107.271C115.828 106.461 114.621 106.245 113.612 106.778C112.695 107.262 111.659 107.293 110.757 106.884L110.754 106.883C110.598 106.813 110.43 106.739 110.257 106.668C109.334 106.293 108.596 105.49 108.263 104.435C108.263 104.435 108.263 104.435 108.263 104.435L107.309 104.735M114.078 107.663C112.895 108.286 111.535 108.334 110.345 107.795C110.192 107.727 110.037 107.658 109.88 107.595M94.3232 132.617L93.3012 131.548C92.8236 131.049 92.7076 130.291 93.0122 129.661C93.6091 128.427 93.6551 127.005 93.1399 125.764C93.0731 125.604 93.0077 125.441 92.9467 125.279C92.4737 124.007 91.4731 123.029 90.2061 122.594C89.5678 122.374 89.1368 121.752 89.1368 121.046V119.536C89.1368 118.829 89.5678 118.208 90.2113 117.988C91.4769 117.553 92.4755 116.573 92.9493 115.303C93.0102 115.139 93.0757 114.977 93.1411 114.817C93.6576 113.575 93.6116 112.153 93.0147 110.918C92.7102 110.289 92.8261 109.531 93.3025 109.032L94.3257 107.963C94.8033 107.465 95.5291 107.346 96.1332 107.662C97.3146 108.286 98.6794 108.336 99.8639 107.796M92.012 114.954C92.0788 114.774 92.1493 114.6 92.2163 114.437L92.2177 114.433C92.622 113.461 92.5897 112.337 92.1146 111.354M92.012 114.954C91.641 115.948 90.8643 116.706 89.8861 117.042C88.8174 117.408 88.1368 118.425 88.1368 119.536V121.046C88.1368 122.154 88.8162 123.172 89.8803 123.539C90.8612 123.876 91.6398 124.633 92.0095 125.627L92.0104 125.63C92.0768 125.807 92.1469 125.981 92.2163 126.147M92.5789 132.24C91.807 131.434 91.6292 130.225 92.1117 129.226C92.5867 128.244 92.6195 127.119 92.2163 126.147M92.5789 132.24L93.6005 133.308L93.6019 133.31C94.3824 134.123 95.5908 134.332 96.5952 133.802C97.0931 133.54 97.6211 133.413 98.1428 133.413C98.5892 133.413 99.0331 133.507 99.4524 133.697L99.4552 133.698C99.6114 133.768 99.7798 133.842 99.9534 133.913C99.9531 133.912 99.9537 133.913 99.9534 133.913C100.876 134.288 101.613 135.09 101.946 136.145C101.946 136.145 101.946 136.146 101.946 136.145L102.9 135.846C103.111 136.518 103.706 136.968 104.382 136.968H105.828C106.504 136.968 107.099 136.518 107.311 135.848C107.727 134.524 108.664 133.479 109.881 132.985C110.037 132.922 110.193 132.853 110.346 132.783L110.759 133.694C110.759 133.694 110.76 133.694 110.759 133.694C110.599 133.767 110.431 133.841 110.26 133.911L110.257 133.912C109.335 134.286 108.598 135.09 108.265 136.148C107.929 137.212 106.964 137.968 105.828 137.968H104.382C103.245 137.968 102.28 137.211 101.946 136.145C101.946 136.145 101.946 136.146 101.946 136.145L102.9 135.846M116.908 131.548L115.884 132.615C115.407 133.114 114.682 133.235 114.077 132.917C112.897 132.293 111.534 132.245 110.346 132.783M94.3232 132.617C94.8009 133.115 95.5267 133.236 96.1293 132.918C96.7683 132.581 97.4559 132.413 98.1428 132.413C98.7313 132.413 99.3158 132.537 99.8647 132.786C100.017 132.854 100.173 132.922 100.329 132.986M116.906 109.032L115.884 107.964C115.408 107.467 114.683 107.343 114.078 107.663M117.068 114.817C116.552 113.576 116.598 112.154 117.195 110.92C117.5 110.289 117.384 109.531 116.906 109.032M154.912 125.633V114.948L164.568 118.729L164.569 118.729C165.219 118.985 165.621 119.62 165.621 120.29C165.621 120.96 165.22 121.596 164.568 121.851M164.568 121.851L154.912 125.633ZM164.203 120.92L155.912 124.167V116.414L164.203 119.66C164.453 119.758 164.621 120.011 164.621 120.29C164.621 120.569 164.453 120.822 164.203 120.92ZM123.083 116.742C123.507 117.332 123.797 118.026 123.915 118.774H153.007V115.742H122.1C122.478 116.022 122.809 116.36 123.083 116.742ZM144.377 92.4839C144.326 92.1585 144.299 91.8244 144.299 91.4839H155.911C155.911 91.8244 155.884 92.1585 155.833 92.4839C155.375 95.354 152.981 97.5484 150.105 97.5484C147.229 97.5484 144.835 95.354 144.377 92.4839ZM149.139 74.8064L150.01 88.4516H150.198L151.07 74.8064H149.139ZM110.912 82.3871C110.111 82.3871 109.46 81.7075 109.46 80.871V74.8064C109.46 73.9699 110.111 73.2903 110.912 73.2903H132.963C133.437 76.244 134.586 79.0157 136.353 81.3871C136.608 81.729 136.876 82.0625 137.156 82.3871H110.912ZM112.363 58.129V55.0968H109.46V58.129H112.363ZM100.751 58.129V55.0968H97.8473V58.129H100.751ZM89.1376 58.129V55.0968H86.2344V58.129H89.1376ZM117.195 129.661C117.5 130.291 117.384 131.049 116.908 131.548Z" fill="black"/>
<path d="M121.073 88.4512H138.492V91.4834H121.073V88.4512Z" fill="#6D95FC"/>
<path fill-rule="evenodd" clip-rule="evenodd" d="M137.492 89.4512H122.073V90.4834H137.492V89.4512ZM121.073 88.4512V91.4834H138.492V88.4512H121.073Z" fill="black"/>
<path d="M121.073 94.5166H138.492V97.5489H121.073V94.5166Z" fill="#6D95FC"/>
<path fill-rule="evenodd" clip-rule="evenodd" d="M137.492 95.5166H122.073V96.5489H137.492V95.5166ZM121.073 94.5166V97.5489H138.492V94.5166H121.073Z" fill="black"/>
<path d="M121.073 100.581H138.492V103.613H121.073V100.581Z" fill="#6D95FC"/>
<path fill-rule="evenodd" clip-rule="evenodd" d="M137.492 101.581H122.073V102.613H137.492V101.581ZM121.073 100.581V103.613H138.492V100.581H121.073Z" fill="black"/>
<path d="M129.782 106.646H132.685V109.678H129.782V106.646Z" fill="#6D95FC"/>
<path fill-rule="evenodd" clip-rule="evenodd" d="M131.685 107.646H130.782V108.678H131.685V107.646ZM129.782 106.646V109.678H132.685V106.646H129.782Z" fill="black"/>
<path d="M135.588 106.646H138.492V109.678H135.588V106.646Z" fill="#6D95FC"/>
<path fill-rule="evenodd" clip-rule="evenodd" d="M137.492 107.646H136.588V108.678H137.492V107.646ZM135.588 106.646V109.678H138.492V106.646H135.588Z" fill="black"/>
<path d="M123.975 106.646H126.878V109.678H123.975V106.646Z" fill="#6D95FC"/>
<path fill-rule="evenodd" clip-rule="evenodd" d="M125.878 107.646H124.975V108.678H125.878V107.646ZM123.975 106.646V109.678H126.878V106.646H123.975Z" fill="black"/>
</g>
<rect x="77.0864" y="46" width="90" height="94" stroke="black"/>
<path d="M48.94 162.385V171.457C48.94 172.451 49.199 173.214 49.717 173.746C50.235 174.264 50.963 174.523 51.901 174.523C52.853 174.523 53.588 174.264 54.106 173.746C54.624 173.214 54.883 172.451 54.883 171.457V162.385H57.844V171.436C57.844 172.682 57.571 173.739 57.025 174.607C56.493 175.461 55.772 176.105 54.862 176.539C53.966 176.973 52.965 177.19 51.859 177.19C50.767 177.19 49.773 176.973 48.877 176.539C47.995 176.105 47.295 175.461 46.777 174.607C46.259 173.739 46 172.682 46 171.436V162.385H48.94Z" fill="#6D95FC"/>
<path d="M64.8846 162.385V177.043H61.9446V162.385H64.8846Z" fill="#6D95FC"/>
<path d="M76.9243 157.156L71.2543 180.844H68.3773L74.0473 157.156H76.9243Z" fill="#6D95FC"/>
<path d="M83.4202 162.385V171.457C83.4202 172.451 83.6792 173.214 84.1972 173.746C84.7152 174.264 85.4432 174.523 86.3812 174.523C87.3332 174.523 88.0682 174.264 88.5862 173.746C89.1042 173.214 89.3632 172.451 89.3632 171.457V162.385H92.3242V171.436C92.3242 172.682 92.0512 173.739 91.5052 174.607C90.9732 175.461 90.2522 176.105 89.3422 176.539C88.4462 176.973 87.4452 177.19 86.3392 177.19C85.2472 177.19 84.2532 176.973 83.3572 176.539C82.4752 176.105 81.7752 175.461 81.2572 174.607C80.7392 173.739 80.4802 172.682 80.4802 171.436V162.385H83.4202Z" fill="#6D95FC"/>
<path d="M105.203 177.043L102.032 172.108L99.1548 177.043H95.8368L100.457 169.651L95.7738 162.385H99.1548L102.326 167.299L105.182 162.385H108.5L103.901 169.756L108.584 177.043H105.203Z" fill="#6D95FC"/>
<path d="M123.469 162.385C125.009 162.385 126.36 162.686 127.522 163.288C128.698 163.89 129.601 164.751 130.231 165.871C130.875 166.977 131.197 168.265 131.197 169.735C131.197 171.205 130.875 172.493 130.231 173.599C129.601 174.691 128.698 175.538 127.522 176.14C126.36 176.742 125.009 177.043 123.469 177.043H118.345V162.385H123.469ZM123.364 174.544C124.904 174.544 126.094 174.124 126.934 173.284C127.774 172.444 128.194 171.261 128.194 169.735C128.194 168.209 127.774 167.019 126.934 166.165C126.094 165.297 124.904 164.863 123.364 164.863H121.285V174.544H123.364Z" fill="#6D95FC"/>
<path d="M137.598 164.758V168.433H142.533V170.764H137.598V174.649H143.163V177.043H134.658V162.364H143.163V164.758H137.598Z" fill="#6D95FC"/>
<path d="M152.156 177.19C151.134 177.19 150.21 177.015 149.384 176.665C148.572 176.315 147.928 175.811 147.452 175.153C146.976 174.495 146.731 173.718 146.717 172.822H149.867C149.909 173.424 150.119 173.9 150.497 174.25C150.889 174.6 151.421 174.775 152.093 174.775C152.779 174.775 153.318 174.614 153.71 174.292C154.102 173.956 154.298 173.522 154.298 172.99C154.298 172.556 154.165 172.199 153.899 171.919C153.633 171.639 153.297 171.422 152.891 171.268C152.499 171.1 151.953 170.918 151.253 170.722C150.301 170.442 149.524 170.169 148.922 169.903C148.334 169.623 147.823 169.21 147.389 168.664C146.969 168.104 146.759 167.362 146.759 166.438C146.759 165.57 146.976 164.814 147.41 164.17C147.844 163.526 148.453 163.036 149.237 162.7C150.021 162.35 150.917 162.175 151.925 162.175C153.437 162.175 154.662 162.546 155.6 163.288C156.552 164.016 157.077 165.038 157.175 166.354H153.941C153.913 165.85 153.696 165.437 153.29 165.115C152.898 164.779 152.373 164.611 151.715 164.611C151.141 164.611 150.679 164.758 150.329 165.052C149.993 165.346 149.825 165.773 149.825 166.333C149.825 166.725 149.951 167.054 150.203 167.32C150.469 167.572 150.791 167.782 151.169 167.95C151.561 168.104 152.107 168.286 152.807 168.496C153.759 168.776 154.536 169.056 155.138 169.336C155.74 169.616 156.258 170.036 156.692 170.596C157.126 171.156 157.343 171.891 157.343 172.801C157.343 173.585 157.14 174.313 156.734 174.985C156.328 175.657 155.733 176.196 154.949 176.602C154.165 176.994 153.234 177.19 152.156 177.19Z" fill="#6D95FC"/>
<path d="M164.092 162.385V177.043H161.152V162.385H164.092Z" fill="#6D95FC"/>
<path d="M178.462 166.795C178.126 166.179 177.664 165.71 177.076 165.388C176.488 165.066 175.802 164.905 175.018 164.905C174.15 164.905 173.38 165.101 172.708 165.493C172.036 165.885 171.511 166.445 171.133 167.173C170.755 167.901 170.566 168.741 170.566 169.693C170.566 170.673 170.755 171.527 171.133 172.255C171.525 172.983 172.064 173.543 172.75 173.935C173.436 174.327 174.234 174.523 175.144 174.523C176.264 174.523 177.181 174.229 177.895 173.641C178.609 173.039 179.078 172.206 179.302 171.142H174.262V168.895H182.2V171.457C182.004 172.479 181.584 173.424 180.94 174.292C180.296 175.16 179.463 175.86 178.441 176.392C177.433 176.91 176.299 177.169 175.039 177.169C173.625 177.169 172.344 176.854 171.196 176.224C170.062 175.58 169.166 174.691 168.508 173.557C167.864 172.423 167.542 171.135 167.542 169.693C167.542 168.251 167.864 166.963 168.508 165.829C169.166 164.681 170.062 163.792 171.196 163.162C172.344 162.518 173.618 162.196 175.018 162.196C176.67 162.196 178.105 162.602 179.323 163.414C180.541 164.212 181.381 165.339 181.843 166.795H178.462Z" fill="#6D95FC"/>
<path d="M198.172 177.043H195.232L188.575 166.984V177.043H185.635V162.364H188.575L195.232 172.444V162.364H198.172V177.043Z" fill="#6D95FC"/>
<defs>
<linearGradient id="paint0_linear_1674_2172" x1="1178" y1="280" x2="75.5" y2="280" gradientUnits="userSpaceOnUse">
<stop stop-color="#6D95FC" stop-opacity="0.35"/>
<stop offset="1" stop-color="#151515" stop-opacity="0.31"/>
</linearGradient>
<clipPath id="clip0_1674_2172">
<rect x="77.0864" y="46" width="90" height="94" fill="white"/>
</clipPath>
</defs>
</svg>
