<svg width="673" height="673" viewBox="0 0 673 673" fill="none" xmlns="http://www.w3.org/2000/svg">
<path d="M573.606 337.013L573.751 343.823L574.186 350.606L574.908 357.337L575.912 363.991L577.189 370.541L578.732 376.964L580.528 383.236L582.566 389.334L584.829 395.237L587.302 400.924L589.968 406.377L592.805 411.578L595.794 416.511L598.913 421.162L602.139 425.52L605.447 429.573L608.815 433.315L612.215 436.737L615.624 439.836L619.014 442.611L622.361 445.06L625.638 447.186L628.82 448.993L631.883 450.488L634.801 451.677L637.551 452.572L640.111 453.185L642.459 453.529L644.574 453.62L646.438 453.475L648.032 453.112L649.341 452.552L650.351 451.817L651.048 450.927L651.423 449.907L651.467 448.781L651.172 447.573L650.535 446.308L649.552 445.013L648.223 443.712L646.551 442.432L644.537 441.197L642.189 440.033L639.514 438.964L636.522 438.014L633.224 437.205L629.635 436.561L625.768 436.101L621.642 435.845L617.274 435.811L612.685 436.016L607.895 436.474L602.927 437.198L597.805 438.2L592.552 439.489L587.193 441.072L581.754 442.955L576.26 445.141L570.738 447.631L565.214 450.424L559.713 453.518L554.26 456.906L548.882 460.583L543.603 464.539L538.445 468.762L533.433 473.24L528.587 477.959L523.928 482.901L519.475 488.049L515.245 493.384L511.255 498.884L507.518 504.528L504.047 510.292L500.853 516.153L497.943 522.086L495.326 528.066L493.004 534.066L490.981 540.061L489.257 546.025L487.83 551.932L486.696 557.755L485.85 563.47L485.284 569.052L484.987 574.477L484.948 579.721L485.153 584.762L485.588 589.58L486.235 594.155L487.076 598.469L488.091 602.504L489.259 606.247L490.557 609.685L491.963 612.804L493.453 615.598L495.002 618.058L496.585 620.178L498.177 621.957L499.751 623.391L501.283 624.484L502.746 625.237L504.116 625.655L505.369 625.746L506.479 625.52L507.425 624.986L508.184 624.159L508.735 623.052L509.059 621.682L509.137 620.068L508.953 618.228L508.491 616.183L507.737 613.955L506.682 611.566L505.314 609.042L503.626 606.406L501.613 603.683L499.271 600.899L496.597 598.08L493.594 595.251L490.263 592.437L486.61 589.666L482.64 586.96L478.363 584.346L473.79 581.846L468.933 579.482L463.807 577.278L458.427 575.252L452.812 573.424L446.981 571.812L440.953 570.431L434.752 569.296L428.4 568.419L421.92 567.811L415.338 567.481L408.679 567.434L401.968 567.677L395.231 568.21L388.495 569.036L381.786 570.152L375.129 571.554L368.55 573.237L362.074 575.192L355.726 577.411L349.528 579.881L343.503 582.589L337.672 585.52L332.056 588.656L326.672 591.98L321.537 595.471L316.668 599.108L312.077 602.87L307.776 606.732L303.775 610.672L300.082 614.663L296.702 618.68L293.639 622.698L290.895 626.692L288.47 630.634L286.36 634.5L284.561 638.264L283.067 641.901L281.869 645.387L280.956 648.697L280.315 651.811L279.934 654.706L279.794 657.362L279.88 659.76L280.173 661.883L280.65 663.715L281.293 665.244L282.077 666.455L282.98 667.339L283.976 667.888L285.042 668.096L286.152 667.958L287.281 667.473L288.403 666.639L289.492 665.46L290.523 663.939L291.472 662.083L292.314 659.9L293.026 657.4L293.584 654.595L293.968 651.499L294.157 648.128L294.133 644.5L293.876 640.632L293.372 636.545L292.605 632.26L291.564 627.801L290.238 623.19L288.618 618.452L286.696 613.612L284.469 608.695L281.933 603.728L279.089 598.736L275.936 593.745L272.48 588.781L268.725 583.87L264.679 579.036L260.352 574.303L255.755 569.696L250.903 565.236L245.809 560.945L240.491 556.843L234.966 552.948L229.256 549.278L223.381 545.848L217.363 542.671L211.226 539.76L204.993 537.125L198.69 534.774L192.342 532.712L185.975 530.944L179.615 529.471L173.288 528.293L167.02 527.409L160.836 526.813L154.763 526.499L148.824 526.459L143.044 526.681L137.445 527.155L132.049 527.866L126.878 528.798L121.949 529.934L117.281 531.255L112.891 532.74L108.791 534.369L104.997 536.119L101.517 537.966L98.3609 539.886L95.5359 541.855L93.0464 543.846L90.8954 545.835L89.0833 547.796L87.6088 549.703L86.4684 551.53L85.6564 553.253L85.1652 554.848L84.9853 556.289L85.1051 557.555L85.5113 558.624L86.1889 559.474L87.1212 560.087L88.2898 560.445L89.6753 560.531L91.2565 560.33L93.0115 559.829L94.9172 559.018L96.9497 557.887L99.0843 556.428L101.296 554.637L103.559 552.511L105.848 550.048L108.138 547.25L110.402 544.12L112.616 540.662L114.754 536.885L116.793 532.797L118.709 528.41L120.481 523.736L122.086 518.792L123.505 513.592L124.719 508.156L125.712 502.502L126.467 496.653L126.971 490.629L127.212 484.454L127.181 478.152L126.868 471.748L126.268 465.268L125.377 458.736L124.192 452.18L122.715 445.625L120.947 439.097L118.892 432.623L116.557 426.227L113.95 419.935L111.081 413.77L107.963 407.757L104.61 401.915L101.037 396.268L97.2618 390.834L93.3031 385.631L89.1812 380.677L84.9174 375.985L80.5343 371.569L76.0556 367.44L71.5054 363.608L66.9088 360.079L62.2913 356.859L57.6785 353.952L53.0965 351.358L48.571 349.076L44.1279 347.103L39.7925 345.434L35.5896 344.063L31.5433 342.978L27.6769 342.171L24.0127 341.627L20.5719 341.332L17.3744 341.269L14.4385 341.421L11.7812 341.769L9.4178 342.291L7.36181 342.966L5.62494 343.771L4.21697 344.682L3.14572 345.676L2.41701 346.726L2.03455 347.808L2 348.897L2.3129 349.965L2.97072 350.989L3.96883 351.942L5.30057 352.801L6.95727 353.54L8.9283 354.137L11.2012 354.569L13.7616 354.815L16.5937 354.855L19.6797 354.67L23.0006 354.243L26.536 353.558L30.2643 352.601L34.1627 351.361L38.2076 349.826L42.3745 347.989L46.6384 345.843L50.9738 343.384L55.3548 340.61L59.7557 337.521L64.1504 334.119L68.5135 330.407L72.8196 326.393L77.0441 322.084L81.163 317.49L85.1531 312.624L88.9925 307.498L92.6602 302.13L96.1366 296.536L99.4036 290.736L102.444 284.748L105.244 278.595L107.79 272.299L110.07 265.884L112.075 259.374L113.797 252.794L115.232 246.171L116.376 239.529L117.226 232.896L117.786 226.297L118.056 219.757L118.042 213.304L117.752 206.962L117.193 200.756L116.378 194.708L115.318 188.843L114.029 183.181L112.526 177.743L110.828 172.548L108.953 167.614L106.922 162.955L104.757 158.587L102.481 154.522L100.116 150.769L97.6888 147.338L95.2229 144.234L92.744 141.462L90.2778 139.025L87.85 136.922L85.4862 135.152L83.2118 133.71L81.0518 132.591L79.0304 131.786L77.1713 131.285L75.497 131.077L74.0293 131.147L72.7884 131.481L71.7936 132.06L71.0623 132.867L70.6106 133.881L70.4529 135.082L70.6016 136.447L71.0675 137.952L71.8593 139.574L72.9837 141.287L74.4455 143.068L76.2474 144.889L78.3897 146.726L80.8711 148.552L83.6877 150.343L86.8341 152.073L90.3023 153.718L94.0828 155.253L98.1638 156.656L102.532 157.905L107.172 158.978L112.067 159.857L117.198 160.523L122.546 160.959L128.09 161.15L133.807 161.083L139.674 160.747L145.666 160.132L151.76 159.231L157.928 158.037L164.146 156.548L170.388 154.763L176.627 152.681L182.837 150.305L188.993 147.641L195.069 144.696L201.041 141.478L206.886 137.998L212.579 134.269L218.101 130.306L223.429 126.124L228.545 121.741L233.431 117.178L238.071 112.454L242.451 107.59L246.557 102.611L250.381 97.5403L253.911 92.4017L257.143 87.2208L260.071 82.0233L262.692 76.8351L265.006 71.6822L267.015 66.5905L268.721 61.5859L270.132 56.6935L271.254 51.9382L272.098 47.344L272.674 42.934L272.996 38.7304L273.079 34.7541L272.941 31.0246L272.599 27.5601L272.072 24.3773L271.383 21.491L270.553 18.9144L269.604 16.6589L268.561 14.7338L267.449 13.1464L266.292 11.9021L265.116 11.0043L263.947 10.454L262.809 10.2503L261.729 10.3904L260.731 10.8689L259.84 11.6789L259.08 12.8113L258.475 14.2548L258.045 15.9968L257.812 18.0224L257.797 20.3153L258.016 22.8576L258.487 25.6299L259.226 28.6114L260.245 31.7803L261.557 35.1137L263.171 38.5876L265.094 42.1776L267.334 45.8584L269.892 49.6045L272.772 53.3901L275.972 57.1893L279.49 60.9763L283.322 64.7256L287.46 68.4121L291.897 72.0112L296.62 75.4994L301.619 78.8537L306.879 82.0523L312.383 85.0748L318.113 87.9019L324.052 90.5158L330.178 92.9004L336.469 95.0412L342.904 96.9255L349.457 98.5424L356.104 99.8832L362.821 100.941L369.581 101.711L376.358 102.189L383.127 102.377L389.86 102.274L396.533 101.885L403.12 101.215L409.595 100.271L415.935 99.0636L422.116 97.6035L428.115 95.9043L433.911 93.981L439.485 91.8502L444.817 89.5302L449.891 87.0408L454.691 84.4027L459.204 81.6381L463.417 78.7701L467.321 75.8228L470.908 72.8206L474.172 69.7889L477.109 66.7531L479.718 63.7392L481.998 60.7728L483.953 57.8796L485.586 55.085L486.904 52.4139L487.917 49.8905L488.633 47.5383L489.067 45.3797L489.231 43.4362L489.142 41.7278L488.816 40.2735L488.274 39.0905L487.535 38.1945L486.621 37.5993L485.554 37.3173L484.357 37.3586L483.055 37.7315L481.673 38.4424L480.236 39.4955L478.769 40.893L477.298 42.6349L475.849 44.7191L474.446 47.1416L473.115 49.8963L471.881 52.9747L470.766 56.3669L469.793 60.0608L468.985 64.0424L468.361 68.2961L467.941 72.8047L467.743 77.5493L467.782 82.5098L468.074 87.6647L468.631 92.9915L469.464 98.4667L470.582 104.066L471.991 109.764L473.698 115.535L475.705 121.353L478.012 127.193L480.618 133.029L483.52 138.833L486.713 144.582L490.189 150.249L493.939 155.811L497.951 161.243L502.212 166.523L506.707 171.631L511.419 176.545L516.331 181.246L521.422 185.718L526.672 189.945L532.059 193.913L537.558 197.61L543.147 201.025L548.801 204.151L554.493 206.981L560.199 209.511L565.892 211.739L571.547 213.664L577.137 215.29L582.637 216.62L588.021 217.661L593.265 218.42L598.346 218.908L603.239 219.137L607.924 219.121L612.38 218.875L616.587 218.418L620.528 217.766L624.186 216.941L627.547 215.963L630.598 214.856L633.329 213.642L635.73 212.345L637.794 210.991L639.517 209.604L640.895 208.21L641.929 206.835L642.619 205.503L642.969 204.242L642.984 203.075L642.673 202.027L642.044 201.122L641.108 200.382L639.881 199.83L638.375 199.487L636.609 199.371L634.6 199.501L632.368 199.894L629.934 200.563L627.319 201.523L624.548 202.783L621.644 204.355L618.631 206.244L615.535 208.457L612.381 210.996L609.196 213.863L606.004 217.056L602.832 220.572L599.705 224.407L596.647 228.554L593.684 233.002L590.837 237.741L588.131 242.758L585.586 248.038L583.222 253.565L581.058 259.32L579.112 265.285L577.399 271.438L575.933 277.757L574.727 284.219L573.789 290.8L573.13 297.475L572.754 304.219L572.668 311.007L572.871 317.811L573.366 324.606L574.149 331.365L575.216 338.063L576.563 344.675L578.179 351.175L580.057 357.539L582.182 363.744L584.542 369.768L587.121 375.59L589.902 381.19L592.866 386.55L595.994 391.653L599.264 396.484L602.653 401.031L606.138 405.281L609.696 409.225L613.301 412.856L616.927 416.168L620.55 419.158L624.143 421.825L627.681 424.17L631.138 426.196L634.489 427.907L637.708 429.311L640.773 430.416L643.659 431.235L646.344 431.778L648.807 432.062L651.029 432.103L652.991 431.917L654.676 431.525L656.068 430.947L657.155 430.204L657.924 429.32L658.366 428.318L658.472 427.223L658.237 426.059L657.658 424.852L656.731 423.628L655.459 422.411L653.843 421.228L651.888 420.104L649.601 419.063L646.99 418.13L644.065 417.328L640.84 416.679L637.328 416.206L633.546 415.928L629.511 415.864L625.242 416.031L620.76 416.446L616.086 417.122L611.243 418.071L606.255 419.304L601.146 420.83L595.941 422.655L590.666 424.783L585.347 427.216L580.01 429.955L574.68 432.999L569.384 436.342L564.147 439.98L558.993 443.904L553.947 448.104L549.032 452.568L544.27 457.283L539.683 462.232L535.29 467.4L531.109 472.767L527.157 478.313L523.45 484.017L520.001 489.856L516.821 495.807L513.92 501.846L511.306 507.947L508.985 514.086L506.959 520.235L505.231 526.37L503.799 532.463L502.662 538.489L501.815 544.423L501.25 550.239L500.959 555.913L500.931 561.42L501.154 566.739L501.613 571.847L502.292 576.725L503.175 581.353L504.24 585.714L505.47 589.791L506.84 593.571L508.33 597.042L509.916 600.192L511.572 603.014L513.275 605.501L514.999 607.648L516.719 609.454L518.408 610.918L520.042 612.042L521.595 612.829L523.041 613.286L524.358 613.422L525.521 613.245L526.507 612.767L527.295 612.004L527.865 610.969L528.197 609.68L528.274 608.155L528.08 606.415L527.6 604.481L526.822 602.375L525.735 600.12L524.33 597.74L522.601 595.261L520.542 592.707L518.151 590.104L515.427 587.478L512.372 584.855L508.99 582.26L505.285 579.717L501.266 577.254L496.942 574.892L492.325 572.655L487.429 570.566L482.267 568.645L476.858 566.912L471.22 565.386L465.371 564.083L459.335 563.019L453.132 562.207L446.787 561.659L440.323 561.385L433.765 561.392L427.139 561.685L420.471 562.27L413.786 563.147L407.111 564.316L400.472 565.774L393.895 567.516L387.404 569.537L381.025 571.827L374.782 574.375L368.697 577.17L362.792 580.197L357.088 583.439L351.605 586.879L346.359 590.499L341.368 594.277L336.646 598.192L332.205 602.221L328.057 606.341L324.21 610.527L320.671 614.754L317.445 618.997L314.536 623.229L311.943 627.425L309.665 631.559L307.699 635.605L306.039 639.539L304.678 643.334L303.607 646.968L302.813 650.417L302.283 653.659L302.003 656.673L301.956 659.44L302.124 661.942L302.487 664.161L303.024 666.083L303.714 667.695L304.533 668.985L305.458 669.944L306.464 670.565L307.526 670.842L308.618 670.772L309.716 670.354L310.794 669.588L311.825 668.477L312.786 667.028L313.651 665.245L314.397 663.14L315 660.722L315.439 658.005L315.691 655.003L315.739 651.733L315.561 648.213L315.143 644.462L314.469 640.5L313.524 636.35L312.298 632.035L310.781 627.578L308.963 623.004L306.841 618.339L304.409 613.608L301.666 608.836L298.612 604.051L295.249 599.277L291.583 594.541L287.62 589.867L283.367 585.281L278.836 580.806L274.039 576.465L268.99 572.28L263.705 568.273L258.202 564.461L252.5 560.864L246.618 557.497L240.579 554.375L234.405 551.512L228.121 548.918L221.75 546.602L215.318 544.572L208.85 542.832L202.373 541.386L195.912 540.235L189.493 539.376L183.144 538.808L176.888 538.525L170.751 538.519L164.757 538.781L158.93 539.301L153.293 540.063L147.866 541.055L142.67 542.26L137.723 543.659L133.042 545.232L128.643 546.96L124.54 548.82L120.745 550.79L117.267 552.844L114.114 554.96L111.293 557.112L108.807 559.274L106.658 561.42L104.847 563.526L103.37 565.565L102.223 567.513L101.4 569.343L100.892 571.033L100.69 572.558L100.779 573.896L101.147 575.026L101.778 575.928L102.654 576.583L103.757 576.973L105.066 577.083L106.56 576.898L108.216 576.408L110.01 575.6L111.92 574.468L113.919 573.004L115.983 571.205L118.086 569.067L120.202 566.592L122.306 563.78L124.372 560.636L126.375 557.167L128.291 553.379L130.096 549.284L131.767 544.894L133.283 540.221L134.622 535.283L135.766 530.095L136.696 524.677L137.396 519.049L137.852 513.233L138.05 507.25L137.979 501.126L137.631 494.883L136.997 488.547L136.073 482.143L134.856 475.698L133.344 469.238L131.539 462.789L129.444 456.376L127.064 450.026L124.406 443.763L121.48 437.613L118.296 431.598L114.869 425.742L111.211 420.066L107.341 414.59L103.275 409.334L99.0341 404.314L94.6383 399.547L90.1097 395.047L85.4713 390.826L80.7471 386.894L75.9617 383.26L71.1404 379.93L66.3087 376.909L61.4926 374.198L56.7179 371.798L52.0107 369.708L47.3964 367.922L42.9002 366.435L38.5467 365.239L34.3597 364.324L30.362 363.678L26.5756 363.287L23.0209 363.136L19.7174 363.208L16.6829 363.484L13.9335 363.944L11.4838 364.567L9.34656 365.331L7.5327 366.213L6.05117 367.188L4.90894 368.232L4.11091 369.319L3.65991 370.425L3.55672 371.524L3.79999 372.589L4.38628 373.597L5.31008 374.52L6.56386 375.337L8.13814 376.021L10.0215 376.551L12.2006 376.904L14.6604 377.06L17.3844 376.999L20.3542 376.704L23.5502 376.157L26.9515 375.343L30.5359 374.25L34.2803 372.867L38.1607 371.183L42.1524 369.191L46.2301 366.887L50.3683 364.266L54.5411 361.327L58.7226 358.072L62.887 354.502L67.0089 350.624L71.0632 346.444L75.0258 341.971L78.8728 337.217L82.5817 332.194L86.131 326.916L89.5002 321.401L92.6705 315.665L95.6243 309.73L98.3458 303.614L100.821 297.341L103.037 290.933L104.984 284.414L106.652 277.809L108.037 271.144L109.132 264.444L109.936 257.735L110.448 251.044L110.67 244.396L110.606 237.818L110.262 231.334L109.645 224.971L108.766 218.751L107.636 212.699L106.268 206.836L104.679 201.183L102.885 195.762L100.904 190.588L98.7565 185.681L96.4634 181.054L94.0468 176.72L91.5301 172.693L88.9373 168.979L86.293 165.589L83.6225 162.526L80.9513 159.795L78.3052 157.396L75.7098 155.329L73.1907 153.591L70.7731 152.178L68.4818 151.082L66.3407 150.294L64.3731 149.803L62.6012 149.597L61.0462 149.662L59.7278 149.98L58.6646 150.534L57.8735 151.306L57.3697 152.274L57.1669 153.417L57.2769 154.712L57.7094 156.136L58.4724 157.663L59.5718 159.27L61.0114 160.93L62.7928 162.618L64.9158 164.309L67.378 165.977L70.1746 167.596L73.2993 169.142L76.7434 170.591L80.4963 171.918L84.5456 173.102L88.8771 174.12L93.4748 174.953L98.3212 175.581L103.397 175.988L108.682 176.156L114.155 176.072L119.793 175.723L125.571 175.099L131.466 174.191L137.452 172.993L143.504 171.499L149.596 169.707L155.701 167.618L161.795 165.232L167.85 162.552L173.841 159.586L179.744 156.341L185.534 152.826L191.187 149.054L196.683 145.037L201.998 140.791L207.113 136.334L212.011 131.683L216.673 126.858L221.084 121.881L225.231 116.774L229.102 111.56L232.688 106.264L235.979 100.91L238.972 95.5244L241.66 90.132L244.044 84.7593L246.123 79.4323L247.9 74.1769L249.38 69.0186L250.568 63.9826L251.474 59.0934L252.108 54.3746L252.482 49.849L252.611 45.5382L252.51 41.4625L252.197 37.6411L251.691 34.0913L251.012 30.8291L250.182 27.8687L249.222 25.2224L248.157 22.9008L247.011 20.9124L245.808 19.2636L244.574 17.9589L243.334 17.0008L242.113 16.3895L240.938 16.1232L239.834 16.1979L238.825 16.6078L237.935 17.3448L237.189 18.399L236.609 19.7585L236.217 21.4097L236.033 23.3371L236.076 25.5237L236.363 27.9509L236.912 30.5988L237.737 33.4462L238.849 36.4706L240.261 39.6488L241.981 42.9565L244.015 46.3691L246.369 49.861L249.046 53.4068L252.046 56.9804L255.368 60.5561L259.009 64.1083L262.962 67.6115L267.221 71.0409L271.775 74.3724L276.614 77.5827L281.724 80.6494L287.091 83.5512L292.696 86.2683L298.522 88.7819L304.549 91.0752L310.757 93.1327L317.122 94.9406L323.622 96.4871L330.233 97.7623L336.929 98.7581L343.685 99.4686L350.475 99.8898L357.274 100.02L364.054 99.8592L370.79 99.4099L377.457 98.6764L384.029 97.6653L390.48 96.3851L396.788 94.846L402.929 93.0604L408.881 91.0425L414.624 88.8079L420.137 86.3742L425.404 83.7602L430.407 80.9861L435.133 78.0735L439.568 75.0449L443.701 71.9239L447.524 68.7348L451.029 65.5025L454.21 62.2523L457.067 59.0101L459.596 55.8016L461.801 52.6526L463.683 49.5887L465.249 46.635L466.506 43.8163L467.463 41.1564L468.131 38.6784L468.524 36.4044L468.657 34.3553L468.546 32.5506L468.209 31.0086L467.666 29.7458L466.938 28.7772L466.046 28.116L465.013 27.7735L463.863 27.7592L462.621 28.0806L461.312 28.743L459.961 29.7498L458.593 31.1023L457.234 32.7997L455.91 34.8389L454.646 37.2151L453.466 39.921L452.394 42.9478L451.455 46.2844L450.669 49.9179L450.058 53.8337L449.643 58.0154L449.441 62.4452L449.47 67.1036L449.745 71.9699L450.28 77.0221L451.087 82.2372L452.176 87.5914L453.555 93.0599L455.23 98.6175L457.206 104.238L459.483 109.897L462.062 115.566L464.942 121.221L468.116 126.836L471.58 132.384L475.325 137.843L479.341 143.186L483.614 148.392L488.132 153.438L492.879 158.303L497.837 162.968L502.987 167.415L508.309 171.626L513.782 175.588L519.383 179.286L525.088 182.71L530.873 185.851L536.713 188.701L542.582 191.255L548.455 193.509L554.305 195.462L560.107 197.116L565.834 198.473L571.461 199.539L576.963 200.32L582.316 200.826L587.496 201.067L592.481 201.058L597.249 200.811L601.781 200.345L606.057 199.675L610.061 198.823L613.777 197.808L617.191 196.652L620.292 195.379L623.068 194.011L625.513 192.573L627.621 191.091L629.386 189.588L630.808 188.093L631.885 186.628L632.622 185.222L633.022 183.897L633.092 182.68L632.839 181.595L632.275 180.665L631.411 179.912L630.262 179.358L628.843 179.023L627.172 178.926L625.267 179.084L623.15 179.513L620.84 180.228L618.361 181.239L615.737 182.559L612.99 184.194L610.148 186.152L607.234 188.437L604.274 191.052L601.294 193.996L598.32 197.267L595.378 200.862L592.491 204.775L589.686 208.997L586.986 213.519L584.414 218.328L581.991 223.411L579.739 228.753L577.678 234.335L575.825 240.14L574.197 246.148L572.808 252.336L571.673 258.682L570.802 265.164L570.205 271.755L569.889 278.432L569.859 285.169L570.12 291.94L570.671 298.718L571.513 305.478L572.643 312.193L574.054 318.838L575.741 325.388L577.695 331.817L579.904 338.103L582.356 344.222L585.035 350.153L587.927 355.875L591.012 361.369L594.273 366.617L597.687 371.605L601.233 376.316L604.889 380.74L608.631 384.865L612.434 388.683L616.273 392.188L620.122 395.374L623.956 398.24L627.749 400.785L631.475 403.011L635.109 404.922L638.625 406.523L642 407.823L645.208 408.832L648.228 409.56L651.038 410.023L653.617 410.235L655.945 410.213L658.005 409.976L659.781 409.543L661.258 408.936L662.423 408.177L663.265 407.288L663.776 406.294L663.949 405.22L663.778 404.091L663.26 402.932L662.395 401.768L661.184 400.626L659.631 399.531L657.741 398.507L655.521 397.58L652.981 396.773L650.132 396.109L646.988 395.611L643.563 395.298L639.875 395.191L635.941 395.309L631.781 395.666L627.417 396.28L622.869 397.162L618.163 398.325L613.32 399.778L608.367 401.528L603.328 403.581L598.23 405.941L593.097 408.609L587.957 411.584L582.835 414.863L577.756 418.443L572.746 422.315L567.829 426.471L563.03 430.9L558.37 435.589L553.871 440.524L549.555 445.689L545.439 451.066L541.543 456.635L537.881 462.376L534.469 468.267L531.319 474.285L528.441 480.406L525.845 486.606L523.536 492.859L521.521 499.139L519.801 505.421L518.378 511.678L517.249 517.885L516.41 524.014L515.858 530.042L515.583 535.943L515.575 541.693L515.825 547.268L516.317 552.646L517.038 557.807L517.97 562.73L519.094 567.397L520.392 571.791L521.843 575.897L523.424 579.701L525.112 583.193L526.883 586.362L528.713 589.201L530.577 591.705L532.449 593.869L534.303 595.693L536.115 597.176L537.858 598.323L539.507 599.137L541.038 599.625L542.426 599.797L543.649 599.663L544.684 599.236L545.511 598.531L546.108 597.562L546.458 596.349L546.544 594.911L546.35 593.267L545.863 591.44L545.071 589.452L543.964 587.327L542.534 585.089L540.775 582.764L538.683 580.377L536.257 577.953L533.497 575.519L530.405 573.099L526.985 570.719L523.245 568.405L519.192 566.181L514.837 564.069L510.193 562.094L505.273 560.277L500.094 558.637L494.673 557.196L489.029 555.969L483.183 554.973L477.156 554.223L470.971 553.732L464.651 553.509L458.222 553.565L451.707 553.905L445.134 554.535L438.528 555.458L431.915 556.673L425.321 558.181L418.772 559.976L412.294 562.054L405.911 564.407L399.649 567.026L393.53 569.898L387.577 573.011L381.811 576.35L376.253 579.897L370.921 583.635L365.832 587.544L361.002 591.602L356.444 595.788L352.171 600.079L348.192 604.449L344.515 608.875L341.147 613.332L338.092 617.793L335.35 622.233L332.923 626.625L330.808 630.944L329 635.165L327.493 639.262L326.278 643.21L325.346 646.987L324.684 650.57L324.278 653.936L324.112 657.066L324.168 659.941L324.429 662.542L324.875 664.855L325.482 666.865L326.23 668.559L327.095 669.927L328.052 670.961L329.078 671.653L330.146 672L331.231 671.999L332.309 671.649L333.352 670.953L334.337 669.914L335.237 668.539L336.029 666.834L336.69 664.811L337.195 662.481L337.525 659.857L337.657 656.955L337.573 653.792L337.256 650.387L336.688 646.759L335.856 642.931L334.746 638.923L333.348 634.76L331.652 630.466L329.651 626.065L327.341 621.583L324.719 617.047L321.783 612.481L318.535 607.911L314.978 603.365L311.118 598.866L306.962 594.44L302.519 590.111L297.801 585.903L292.82 581.838L287.593 577.938L282.135 574.223L276.464 570.711L270.601 567.42L264.566 564.366L258.382 561.562L252.071 559.02L245.658 556.751L239.167 554.763L232.624 553.061L226.055 551.651L219.486 550.535L212.943 549.711L206.452 549.179L200.038 548.934L193.728 548.97L187.545 549.278L181.514 549.848L175.658 550.669L169.999 551.726L164.557 553.004L159.353 554.486L154.404 556.153L149.726 557.984L145.334 559.959L141.242 562.054L137.46 564.248L133.997 566.515L130.861 568.831L128.057 571.17L125.587 573.507L123.453 575.816L121.653 578.071L120.184 580.248L119.041 582.32L118.217 584.263L117.702 586.054L117.485 587.669L117.553 589.086L117.891 590.284L118.483 591.244L119.31 591.948L120.354 592.378L121.593 592.521L123.005 592.362L124.568 591.891L126.257 591.097L128.049 589.973L129.918 588.515L131.839 586.717L133.786 584.58L135.734 582.104L137.657 579.292L139.529 576.148L141.327 572.68L143.025 568.897L144.601 564.809L146.032 560.43L147.297 555.774L148.376 550.857L149.25 545.698L149.901 540.315L150.314 534.73L150.476 528.964L150.374 523.04L149.997 516.983L149.338 510.817L148.391 504.567L147.15 498.259L145.614 491.919L143.782 485.573L141.658 479.248L139.244 472.969L136.547 466.761L133.575 460.65L130.338 454.66L126.848 448.813L123.119 443.133L119.167 437.64L115.009 432.353L110.663 427.292L106.149 422.473L101.489 417.911L96.7057 413.619L91.822 409.608L86.8623 405.889L81.8516 402.469L76.8154 399.353L71.7794 396.545L66.7695 394.046L61.8118 391.854L56.932 389.969L52.1555 388.384L47.5074 387.092L43.0118 386.085L38.6922 385.352L34.5711 384.88L30.6698 384.654L27.0084 384.659L23.6056 384.876L20.4785 385.287L17.6426 385.87L15.1118 386.605L12.898 387.469L11.0114 388.437L9.4599 389.486L8.24973 390.591L7.3849 391.726L6.86735 392.866L6.69694 393.985L6.87142 395.058L7.38648 396.059L8.23573 396.964L9.41082 397.748L10.9014 398.388L12.6952 398.862L14.7782 399.148L17.1348 399.225L19.7475 399.076L22.5975 398.682L25.6645 398.027L28.9272 397.098L32.363 395.882L35.9483 394.369L39.6588 392.549L43.4697 390.418L47.3555 387.969L51.2904 385.201L55.2487 382.113L59.2044 378.707L63.1321 374.987L67.0063 370.958L70.8024 366.63L74.4965 362.011L78.0652 357.113L81.4864 351.951L84.7392 346.539L87.8038 340.895L90.6618 335.037L93.2966 328.985L95.6929 322.761L97.8375 316.387L99.7188 309.887L101.327 303.284L102.655 296.604L103.696 289.873L104.448 283.116L104.908 276.36L105.078 269.63L104.959 262.954L104.558 256.355L103.879 249.861L102.933 243.495L101.731 237.281L100.283 231.242L98.6058 225.4L96.7144 219.776L94.6266 214.387L92.3615 209.253L89.9396 204.39L87.3825 199.811L84.7129 195.528L81.9544 191.554L79.1313 187.896L76.2687 184.561L73.3919 181.553L70.5266 178.876L67.6985 176.529L64.9334 174.511L62.2567 172.819L59.6934 171.446L57.2679 170.384L55.004 169.624L52.9245 169.155L51.0512 168.962L49.4047 169.03L48.0043 169.343L46.8677 169.881L46.0113 170.627L45.4496 171.557L45.1955 172.65L45.2598 173.884L45.6516 175.233L46.378 176.674L47.4439 178.181L48.8523 179.728L50.604 181.291L52.6977 182.843L55.1301 184.359L57.8958 185.814L60.9874 187.183L64.3953 188.442L68.1082 189.568L72.1129 190.54L76.3945 191.335L80.9362 191.935L85.7199 192.321L90.7258 192.475L95.9331 192.384L101.32 192.033L106.862 191.411L112.536 190.508L118.318 189.316L124.181 187.83L130.1 186.046L136.049 183.962L142.002 181.579L147.933 178.899L153.816 175.927L159.626 172.669L165.339 169.135L170.93 165.336L176.376 161.282L181.657 156.99L186.75 152.474L191.637 147.754L196.3 142.846L200.722 137.774L204.889 132.557L208.789 127.219L212.41 121.783L215.743 116.275L218.781 110.718L221.52 105.14L223.957 99.5656L226.09 94.021L227.921 88.5323L229.454 83.1254L230.694 77.8256L231.648 72.6577L232.326 67.6461L232.739 62.8139L232.9 58.1834L232.825 53.7758L232.53 49.6109L232.032 45.7071L231.352 42.0812L230.511 38.7483L229.53 35.722L228.432 33.0137L227.241 30.6332L225.981 28.588L224.678 26.8839L223.357 25.5245L222.043 24.5111L220.762 23.8432L219.54 23.5181L218.401 23.531L217.371 23.875L216.473 24.5413L215.73 25.5192L215.166 26.7959L214.8 28.3571L214.653 30.1867L214.743 32.2669L215.087 34.5786L215.702 37.1012L216.599 39.8131L217.792 42.6914L219.291 45.7125L221.103 48.852L223.234 52.0847L225.688 55.3851L228.468 58.7277L231.573 62.0864L235.001 65.4355L238.748 68.7496L242.806 72.0035L247.169 75.1726L251.824 78.2332L256.76 81.1624L261.964 83.9383L267.418 86.5403L273.106 88.9489L279.008 91.1464L285.105 93.1164L291.375 94.8442L297.794 96.3169L304.34 97.5237L310.988 98.4552L317.712 99.1045L324.488 99.4665L331.288 99.5382L338.088 99.3186L344.86 98.809L351.579 98.0127L358.219 96.9349L364.755 95.583L371.163 93.9665L377.419 92.0965L383.501 89.9861L389.387 87.6504L395.057 85.1057L400.492 82.3702L405.675 79.4634L410.591 76.4062L415.225 73.2206L419.565 69.9295L423.602 66.5569L427.326 63.1275L430.733 59.6664L433.817 56.1992L436.578 52.7517L439.014 49.3496L441.128 46.0189L442.925 42.7848L444.41 39.6725L445.592 36.7062L446.481 33.9096L447.09 31.3054L447.431 28.9151L447.522 26.759L447.378 24.8563L447.019 23.2243L446.465 21.8791L445.737 20.8348L444.857 20.1039L443.85 19.6969L442.738 19.6224L441.546 19.887L440.301 20.4952L439.026 21.4495L437.749 22.7503L436.493 24.3957L435.286 26.3821L434.151 28.7035L433.113 31.3519L432.196 34.3175L431.423 37.5886L430.815 41.1514L430.393 44.9905L430.176 49.089L430.183 53.4282L430.429 57.9882L430.93 62.7478L431.697 67.6845L432.744 72.7749L434.078 77.9948L435.706 83.3192L437.635 88.7226L439.867 94.1793L442.403 99.6631L445.242 105.148L448.382 110.608L451.816 116.018L455.537 121.353L459.537 126.588L463.804 131.699L468.326 136.664L473.086 141.461L478.07 146.07L483.258 150.473L488.631 154.65L494.169 158.588L499.85 162.271L505.65 165.687L511.545 168.827L517.511 171.68L523.522 174.242L529.553 176.508L535.577 178.474L541.569 180.142L547.502 181.513L553.352 182.591L559.091 183.382L564.697 183.894L570.144 184.137L575.41 184.123L580.473 183.865L585.311 183.379L589.906 182.683L594.239 181.793L598.295 180.732L602.057 179.519L605.513 178.177L608.653 176.729L611.466 175.199L613.945 173.612L616.087 171.993L617.886 170.368L619.343 168.762L620.458 167.2L621.235 165.71L621.678 164.314L621.796 163.039L621.597 161.907L621.093 160.942L620.296 160.166L619.221 159.601L617.886 159.264L616.307 159.175L614.505 159.351L612.499 159.806L610.313 160.553L607.968 161.605L605.489 162.97L602.9 164.657L600.227 166.67L597.494 169.014L594.728 171.689L591.954 174.696L589.198 178.03L586.484 181.688L583.839 185.662L581.287 189.944L578.85 194.523L576.551 199.385L574.413 204.517L572.454 209.901L570.695 215.521L569.152 221.357L567.841 227.388L566.776 233.592L565.971 239.947L565.434 246.427L565.176 253.01L565.202 259.669L565.516 266.379L566.121 273.113L567.018 279.845L568.205 286.55L569.678 293.201L571.43 299.772L573.455 306.24L575.741 312.579L578.278 318.767L581.052 324.78L584.048 330.598L587.247 336.201L590.632 341.571L594.184 346.69L597.88 351.543L601.699 356.118L605.617 360.402L609.61 364.385L613.654 368.061L617.722 371.423L621.79 374.467L625.831 377.193L629.819 379.601L633.73 381.694L637.537 383.476L641.215 384.954L644.741 386.137L648.091 387.035L651.242 387.662L654.174 388.031L656.866 388.16L659.299 388.064L661.457 387.764L663.323 387.279L664.885 386.632L666.129 385.845L667.046 384.942L667.628 383.946L667.869 382.883L667.764 381.778L667.312 380.657L666.512 379.545L665.367 378.467L663.881 377.449L662.061 376.517L659.915 375.693L657.453 375.002L654.687 374.466L651.631 374.107L648.301 373.944L644.715 373.998L640.892 374.285L636.85 374.822L632.613 375.623L628.202 376.699L623.641 378.063L618.955 379.722L614.168 381.684L609.307 383.952L604.396 386.53L599.461 389.418L594.53 392.615L589.627 396.116L584.777 399.916L580.006 404.007L575.338 408.38L570.796 413.022L566.403 417.921L562.179 423.06L558.144 428.424L554.318 433.992L550.717 439.747L547.356 445.666L544.249 451.726L541.408 457.906L538.842 464.179L536.56 470.522L534.567 476.909L532.868 483.314L531.463 489.711L530.352 496.073L529.534 502.375L529.003 508.591L528.753 514.696L528.775 520.665L529.059 526.474L529.593 532.101L530.362 537.523L531.35 542.721L532.541 547.674L533.914 552.365L535.451 556.778L537.129 560.899L538.926 564.715L540.818 568.215L542.781 571.391L544.791 574.236L546.821 576.744L548.847 578.914L550.843 580.745L552.783 582.239L554.642 583.399L556.394 584.231L558.016 584.742L559.484 584.943L560.774 584.845L561.866 584.461L562.738 583.807L563.371 582.9L563.748 581.757L563.852 580.399L563.668 578.846L563.184 577.122L562.389 575.248L561.273 573.249L559.829 571.15L558.053 568.976L555.941 566.752L553.493 564.504L550.71 562.257L547.594 560.038L544.152 557.872L540.39 555.782L536.319 553.794L531.949 551.931L527.293 550.214L522.368 548.665L517.188 547.305L511.772 546.15L506.141 545.219L500.314 544.527L494.314 544.087L488.165 543.912L481.89 544.01L475.514 544.391L469.063 545.06L462.561 546.021L456.037 547.276L449.514 548.825L443.021 550.665L436.581 552.791L430.221 555.198L423.966 557.877L417.839 560.818L411.863 564.007L406.061 567.431L400.453 571.074L395.058 574.919L389.896 578.947L384.981 583.137L380.329 587.468L375.953 591.916L371.864 596.46L368.071 601.073L364.581 605.732L361.4 610.41L358.529 615.081L355.971 619.721L353.725 624.302L351.786 628.799L350.15 633.187L348.809 637.441L347.754 641.537L346.974 645.451L346.456 649.161L346.186 652.647L346.145 655.887L346.318 658.865L346.683 661.563L347.221 663.965L347.91 666.059L348.727 667.833L349.648 669.277L350.649 670.384L351.704 671.147L352.789 671.564L353.878 671.632L354.945 671.352L355.965 670.727L356.913 669.762L357.763 668.463L358.493 666.839L359.079 664.901L359.498 662.662L359.729 660.136L359.753 657.339L359.55 654.289L359.104 651.005L358.399 647.507L357.422 643.817L356.159 639.959L354.602 635.955L352.742 631.831L350.572 627.611L348.089 623.321L345.291 618.987L342.178 614.635L338.751 610.29L335.016 605.979L330.978 601.726L326.645 597.556L322.029 593.494L317.141 589.561L311.994 585.781L306.606 582.174L300.992 578.76L295.173 575.556L289.167 572.579L282.998 569.845L276.687 567.365L270.258 565.153L263.735 563.216L257.143 561.562L250.509 560.196L243.858 559.122L237.216 558.341L230.61 557.852L224.064 557.651L217.606 557.734L211.259 558.094L205.049 558.721L198.999 559.604L193.132 560.731L187.468 562.086L182.029 563.654L176.834 565.417L171.898 567.355L167.239 569.447L162.871 571.673L158.804 574.008L155.05 576.429L151.617 578.911L148.511 581.43L145.737 583.961L143.296 586.476L141.188 588.952L139.412 591.361L137.963 593.679L136.835 595.88L136.02 597.941L135.508 599.838L135.287 601.547L135.342 603.049L135.659 604.321L136.219 605.346L137.005 606.105L137.997 606.583L139.173 606.766L140.511 606.641L141.987 606.197L143.578 605.426L145.258 604.321L147.003 602.877L148.787 601.093L150.584 598.968L152.369 596.502L154.117 593.701L155.801 590.57L157.399 587.117L158.885 583.351L160.238 579.285L161.434 574.932L162.454 570.307L163.278 565.427L163.888 560.312L164.267 554.98L164.4 549.454L164.274 543.755L163.879 537.907L163.204 531.935L162.242 525.863L160.988 519.716L159.439 513.521L157.592 507.304L155.45 501.091L153.014 494.908L150.291 488.78L147.286 482.733L144.01 476.791L140.472 470.978L136.687 465.317L132.667 459.83L128.431 454.537L123.995 449.457L119.379 444.608L114.604 440.005L109.691 435.664L104.664 431.596L99.5457 427.813L94.3616 424.322L89.1366 421.131L83.8965 418.243L78.6669 415.663L73.4741 413.389L68.3438 411.42L63.3017 409.753L58.3732 408.381L53.5829 407.298L48.9547 406.492L44.5117 405.952L40.276 405.666L36.2682 405.617L32.508 405.788L29.0134 406.162L25.8009 406.718L22.8852 407.436L20.2794 408.293L17.9947 409.266L16.0403 410.332L14.4234 411.465L13.1493 412.64L12.2211 413.833L11.6399 415.017L11.4046 416.167L11.5121 417.257L11.9572 418.262L12.7326 419.159L13.8292 419.922L15.2357 420.529L16.9392 420.958L18.9248 421.187L21.1763 421.198L23.6755 420.971L26.403 420.491L29.3381 419.741L32.4589 418.709L35.7422 417.383L39.1644 415.754L42.7009 413.813L46.3264 411.556L50.0154 408.977L53.7422 406.077L57.4809 402.856L61.2057 399.315L64.8913 395.461L68.5126 391.299L72.0452 386.839L75.4654 382.091L78.7505 377.069L81.8788 371.785L84.83 366.258L87.5849 360.504L90.1258 354.542L92.4368 348.394L94.5036 342.08L96.3134 335.625L97.8558 329.052L99.1218 322.385L100.105 315.65L100.8 308.873L101.205 302.08L101.319 295.296L101.143 288.548L100.682 281.862L99.9401 275.264L98.9261 268.778L97.6493 262.429L96.1213 256.24L94.3554 250.234L92.3669 244.432L90.1724 238.853L87.7903 233.516L85.2404 228.439L82.5435 223.637L79.7219 219.122L76.7987 214.908L73.7979 211.003L70.7441 207.415L67.6625 204.151L64.5787 201.213L61.5185 198.604L58.5076 196.323L55.5716 194.368L52.7359 192.734L50.0252 191.413L47.4637 190.398L45.0748 189.678L42.8809 189.24L40.9033 189.071L39.162 189.153L37.6758 189.47L36.4617 190.003L35.5354 190.731L34.9107 191.633L34.5996 192.685L34.6122 193.866L34.9568 195.149L35.6394 196.511L36.6643 197.926L38.0333 199.369L39.7466 200.813L41.8018 202.234L44.1948 203.606L46.9193 204.904L49.9669 206.104L53.3274 207.182L56.9886 208.116L60.9365 208.883L65.1555 209.464L69.6281 209.839L74.3356 209.99L79.2576 209.902L84.3728 209.56L89.6585 208.952L95.0911 208.066L100.646 206.893L106.299 205.428L112.023 203.665L117.794 201.6L123.585 199.235L129.369 196.569L135.122 193.607L140.818 190.354L146.431 186.818L151.937 183.008L157.314 178.935L162.538 174.614L167.587 170.059L172.443 165.287L177.087 160.317L181.5 155.167L185.668 149.86L189.577 144.417L193.215 138.861L196.571 133.218L199.639 127.511L202.411 121.766L204.883 116.009L207.054 110.267L208.925 104.564L210.496 98.9267L211.773 93.3814L212.761 87.9529L213.47 82.6659L213.909 77.5442L214.091 72.6106L214.029 67.8871L213.74 63.394L213.24 59.1508L212.548 55.1751L211.685 51.483L210.672 48.089L209.53 45.0058L208.284 42.244L206.958 39.8126L205.576 37.7183L204.164 35.9659L202.747 34.5581L201.351 33.4953L200 32.7762L198.722 32.3971L197.54 32.3523L196.478 32.6342L195.562 33.2331L194.813 34.1373L194.253 35.3335L193.903 36.8066L193.782 38.5396L193.908 40.5143L194.297 42.7109L194.965 45.1083L195.924 47.6845L197.184 50.4162L198.756 53.2794L200.647 56.2493L202.861 59.3008L205.401 62.4082L208.269 65.5457L211.464 68.6877L214.982 71.8083L218.818 74.8823L222.965 77.8847L227.414 80.7915L232.153 83.5791L237.169 86.2252L242.447 88.7084L247.971 91.0086L253.723 93.1072L259.682 94.9869L265.829 96.6322L272.141 98.0292L278.595 99.1658L285.167 100.032L291.832 100.619L298.565 100.922L305.339 100.935L312.13 100.657L318.91 100.089L325.653 99.231L332.334 98.0885L338.928 96.6675L345.409 94.9763L351.754 93.0251L357.939 90.826L363.942 88.3929L369.743 85.7415L375.322 82.889L380.66 79.8542L385.741 76.6572L390.551 73.3194L395.075 69.8633L399.304 66.3125L403.227 62.6911L406.838 59.0239L410.13 55.3366L413.102 51.6547L415.751 48.0042L418.08 44.4108L420.09 40.9002L421.787 37.4977L423.178 34.2281L424.272 31.1155L425.081 28.183L425.618 25.4529L425.896 22.9463L425.932 20.6829L425.745 18.6813L425.353 16.9582L424.778 15.5288L424.04 14.4066L423.163 13.6033L422.17 13.1285L421.086 12.99L419.936 13.1935L418.745 13.7427L417.538 14.6391L416.341 15.8821L415.18 17.4693L414.08 19.3957L413.066 21.6547L412.161 24.2375L411.388 27.1335L410.772 30.3299L410.331 33.8123L410.088 37.5648L410.06 41.5696L410.264 45.8075L410.717 50.258L411.432 54.8992L412.422 59.7085L413.696 64.662L415.263 69.7351L417.13 74.9026L419.3 80.139L421.775 85.4184L424.557 90.7146L427.643 96.0017L431.028 101.254L434.708 106.446L438.672 111.553L442.913 116.551L447.417 121.417L452.17 126.128L457.158 130.663L462.363 135.003L467.766 139.13L473.347 143.026L479.085 146.677L484.957 150.07L490.939 153.192L497.008 156.035L503.139 158.59L509.305 160.853L515.481 162.819L521.641 164.488L527.758 165.86L533.808 166.939L539.763 167.728L545.6 168.234L551.294 168.468L556.821 168.439L562.158 168.16L567.284 167.646L572.179 166.913L576.824 165.978L581.201 164.862L585.295 163.583L589.091 162.164L592.578 160.628L595.745 158.999L598.584 157.299L601.088 155.556L603.254 153.793L605.078 152.037L606.562 150.314L607.706 148.648L608.515 147.065L608.995 145.591L609.155 144.248L609.004 143.062L608.554 142.054L607.819 141.246L606.815 140.659L605.558 140.311L604.068 140.22L602.364 140.403L600.468 140.872L598.402 141.642L596.189 142.722L593.853 144.121L591.42 145.846L588.914 147.902L586.362 150.29L583.788 153.013L581.218 156.067L578.678 159.45L576.194 163.155L573.789 167.175L571.487 171.5L569.313 176.118L567.287 181.016L565.431 186.179L563.764 191.589L562.305 197.228L561.07 203.076L560.075 209.112L559.333 215.313L558.854 221.657L558.65 228.118L558.727 234.672L559.092 241.293L559.747 247.955L560.694 254.633L561.933 261.299L563.46 267.929L565.272 274.495L567.361 280.974L569.718 287.34L572.333 293.57L575.193 299.64L578.283 305.528L581.589 311.215L585.091 316.68L588.77 321.907L592.607 326.878L596.58 331.58L600.665 336L604.839 340.127L609.078 343.952L613.356 347.469L617.648 350.672L621.928 353.56L626.17 356.131L630.349 358.387L634.439 360.332L638.414 361.971L642.25 363.312L645.924 364.364L649.411 365.14L652.69 365.652L655.741 365.916L658.543 365.949L661.079 365.768L663.333 365.393L665.288 364.846L666.933 364.149L668.257 363.323L669.249 362.394L669.903 361.386L670.213 360.324L670.176 359.233L669.791 358.14L669.06 357.069L667.984 356.045L666.57 355.095L664.824 354.243L662.757 353.513L660.378 352.927L657.701 352.508L654.74 352.277L651.513 352.253L648.036 352.456L644.33 352.902L640.416 353.606L636.314 354.581L632.049 355.84L627.644 357.391L623.123 359.244L618.513 361.404L613.838 363.873L609.125 366.655L604.399 369.749L599.686 373.152L595.013 376.859L590.403 380.864L585.881 385.159L581.472 389.732L577.199 394.571L573.082 399.661L569.143 404.988L565.401 410.532L561.874 416.276L558.578 422.198L555.527 428.276L552.735 434.489L550.212 440.811L547.968 447.219L546.008 453.687L544.339 460.19L542.963 466.701L541.881 473.195L541.091 479.644L540.59 486.024L540.374 492.309L540.433 498.474L540.759 504.494L541.341 510.346L542.165 516.007L543.217 521.457L544.479 526.675L545.934 531.643L547.562 536.343L549.342 540.761L551.252 544.882L553.27 548.695L555.372 552.191L557.532 555.36L559.726 558.197L561.929 560.699L564.114 562.864L566.257 564.692L568.331 566.185L570.311 567.348L572.173 568.188L573.892 568.714L575.445 568.935L576.81 568.865L577.965 568.517L578.891 567.908L579.568 567.054L579.98 565.975L580.11 564.692L579.946 563.225L579.474 561.598L578.685 559.833L577.571 557.956L576.125 555.99L574.343 553.962L572.223 551.897L569.765 549.821L566.972 547.759L563.846 545.736L560.395 543.779L556.627 541.91L552.552 540.155L548.182 538.535L543.531 537.073L538.615 535.789L533.451 534.702L528.058 533.83L522.456 533.19L516.667 532.797L510.713 532.662L504.617 532.797L498.405 533.211L492.101 533.912L485.731 534.903L479.32 536.189L472.896 537.77L466.483 539.645L460.108 541.81L453.797 544.26L447.575 546.989L441.465 549.985L435.492 553.239L429.678 556.737L424.044 560.464L418.612 564.403L413.399 568.537L408.423 572.845L403.7 577.307L399.244 581.901L395.067 586.604L391.178 591.391L387.587 596.238L384.299 601.12L381.319 606.01L378.649 610.884L376.289 615.714L374.237 620.476L372.489 625.143L371.038 629.69L369.877 634.093L368.994 638.328L368.38 642.372L368.018 646.204L367.894 649.802L367.991 653.148L368.291 656.223L368.772 659.012L369.414 661.5L370.195 663.675L371.091 665.525L372.079 667.042L373.133 668.219L374.229 669.051L375.341 669.536L376.443 669.672L377.51 669.462L378.517 668.908L379.439 668.017L380.25 666.797L380.929 665.256L381.45 663.406L381.794 661.261L381.939 658.836L381.866 656.148L381.556 653.215L380.994 650.056L380.164 646.694L379.054 643.149L377.652 639.446L375.95 635.608L373.939 631.66L371.615 627.628L368.974 623.536L366.015 619.412L362.74 615.281L359.15 611.168L355.252 607.099L351.053 603.099L346.562 599.193L341.789 595.404L336.748 591.755L331.454 588.266L325.923 584.96L320.172 581.853L314.222 578.964L308.094 576.309L301.809 573.901L295.39 571.753L288.862 569.875L282.249 568.276L275.577 566.962L268.87 565.937L262.157 565.204L255.462 564.763L248.811 564.612L242.231 564.748L235.746 565.163L229.383 565.85L223.164 566.8L217.113 567.999L211.252 569.435L205.602 571.092L200.183 572.954L195.014 575L190.109 577.212L185.485 579.568L181.155 582.046L177.13 584.622L173.42 587.273L170.031 589.974L166.97 592.699L164.239 595.423L161.84 598.12L159.771 600.764L158.031 603.33L156.613 605.793L155.512 608.127L154.717 610.309L154.218 612.316L154.002 614.125L154.054 615.715L154.358 617.067L154.897 618.162L155.65 618.983L156.599 619.515L157.719 619.745L158.99 619.66L160.387 619.252L161.886 618.512L163.462 617.434L165.089 616.016L166.743 614.255L168.396 612.151L170.025 609.708L171.604 606.929L173.107 603.823L174.51 600.396L175.791 596.661L176.927 592.63L177.896 588.316L178.678 583.737L179.254 578.91L179.607 573.853L179.721 568.588L179.581 563.136L179.177 557.521L178.496 551.765L177.531 545.894L176.275 539.932L174.723 533.906L172.874 527.842L170.727 521.764L168.283 515.701L165.547 509.677L162.524 503.717L159.222 497.848L155.652 492.093L151.825 486.475L147.755 481.016L143.457 475.739L138.947 470.663L134.246 465.805L129.372 461.184L124.347 456.815L119.194 452.71L113.935 448.882L108.594 445.34L103.198 442.092L97.7708 439.144L92.3386 436.5L86.9274 434.16L81.5633 432.125L76.2719 430.392L71.0789 428.956L66.0094 427.81L61.0876 426.946L56.3373 426.353L51.7811 426.019L47.4404 425.929L43.3356 426.068L39.4856 426.417L35.9077 426.958L32.6177 427.67L29.6297 428.532L26.956 429.521L24.6068 430.614L22.5906 431.786L20.9138 433.013L19.5807 434.269L18.5935 435.529L17.9525 436.767L17.6556 437.957L17.6988 439.075L18.0761 440.095L18.7793 440.993L19.7985 441.745L21.1216 442.33L22.7348 442.724L24.6228 442.909L26.7684 442.864L29.1529 442.572L31.7564 442.018L34.5575 441.186L37.5339 440.064L40.6623 438.642L43.9184 436.91L47.2774 434.862L50.7141 432.493L54.2028 429.8L57.7176 426.783L61.2328 423.444L64.7227 419.785L68.1621 415.813L71.5263 411.535L74.7911 406.961L77.9334 402.102L80.9308 396.972L83.7623 391.586L86.408 385.962L88.8494 380.116L91.0697 374.07L93.0535 367.845L94.7873 361.462L96.2595 354.946L97.4601 348.32L98.3813 341.609L99.0172 334.839L99.364 328.036L99.4202 321.226L99.186 314.435L98.6639 307.689L97.8584 301.015L96.7762 294.436L95.4257 287.979L93.8177 281.666L91.9643 275.521L89.88 269.567L87.5804 263.823L85.0832 258.308L82.4072 253.042L79.5728 248.039L76.6016 243.315L73.5161 238.883L70.34 234.752L67.0975 230.933L63.8135 227.432L60.5135 224.253L57.2232 221.401L53.9683 218.875L50.7746 216.674L47.6676 214.794L44.6724 213.231L41.8137 211.976L39.1153 211.02L36.6001 210.351L34.2902 209.957L32.2063 209.822L30.3678 209.929L28.793 210.261L27.4982 210.797L26.4982 211.518L25.8063 212.4L25.4335 213.421L25.3892 214.557L25.6807 215.784L26.3133 217.076L27.2902 218.408L28.6125 219.754L30.2794 221.089L32.2877 222.387L34.6323 223.623L37.306 224.773L40.2997 225.812L43.6023 226.717L47.2008 227.466L51.0805 228.038L55.225 228.413L59.6163 228.573L64.2349 228.499L69.0601 228.178L74.0698 227.596L79.2411 226.74L84.5499 225.6L89.9717 224.169L95.4811 222.441L101.052 220.412L106.66 218.08L112.277 215.444L117.879 212.509L123.438 209.277L128.931 205.756L134.332 201.953L139.618 197.881L144.765 193.549L149.751 188.974L154.556 184.171L159.16 179.156L163.545 173.95L167.695 168.573L171.595 163.045L175.231 157.391L178.594 151.633L181.673 145.797L184.462 139.906L186.955 133.988L189.149 128.067L191.044 122.17L192.639 116.324L193.94 110.553L194.949 104.883L195.676 99.3398L196.129 93.9472L196.319 88.7286L196.26 83.7066L195.965 78.9024L195.452 74.3361L194.739 70.0263L193.844 65.99L192.788 62.2426L191.594 58.7979L190.284 55.6677L188.882 52.8618L187.413 50.3884L185.9 48.2533L184.37 46.4603L182.848 45.0113L181.361 43.9059L179.932 43.1418L178.588 42.7143L177.353 42.6171L176.252 42.8414L175.307 43.3769L174.542 44.2111L173.977 45.3299L173.632 46.7174L173.527 48.3562L173.678 50.2272L174.101 52.3101L174.81 54.5835L175.817 57.0247L177.133 59.6101L178.766 62.3155L180.721 65.1158L183.004 67.9858L185.616 70.8997L188.557 73.8316L191.827 76.756L195.419 79.6472L199.329 82.4802L203.548 85.2304L208.066 87.8738L212.87 90.3876L217.948 92.7498L223.283 94.9395L228.859 96.9374L234.655 98.7255L240.653 100.287L246.831 101.608L253.166 102.674L259.635 103.475L266.213 104.001L272.875 104.244L279.596 104.201L286.349 103.867L293.109 103.242L299.849 102.325L306.544 101.121L313.168 99.6351L319.695 97.8734L326.101 95.8455L332.363 93.5625L338.457 91.0374L344.363 88.2848L350.059 85.3211L355.528 82.1644L360.75 78.8339L365.712 75.3505L370.397 71.736L374.796 68.0134L378.895 64.2066L382.689 60.3401L386.169 56.4391L389.332 52.5292L392.175 48.6363L394.699 44.7861L396.904 41.0045L398.796 37.3171L400.38 33.7489L401.664 30.3245L402.658 27.0676L403.374 24.0009L403.826 21.1464L404.029 18.5246L404 16.1546L403.758 14.0542L403.322 12.2396L402.714 10.7253L401.956 9.52397L401.072 8.6464L400.084 8.1015L399.018 7.89614L397.899 8.03514L396.752 8.5213L395.604 9.35525L394.479 10.5356L393.402 12.0587L392.4 13.9191L391.495 16.1091L390.713 18.6191L390.076 21.4376L389.605 24.5511L389.323 27.9447L389.247 31.6014L389.397 35.5029L389.788 39.6295L390.437 43.9601L391.355 48.4725L392.554 53.1433L394.044 57.9486L395.832 62.8633L397.923 67.8623L400.321 72.9197L403.027 78.0096L406.041 83.1059L409.359 88.1828L412.976 93.2147L416.886 98.1765L421.079 103.044L425.544 107.792L430.27 112.4L435.24 116.845L440.439 121.107L445.848 125.166L451.449 129.005L457.221 132.609L463.142 135.962L469.189 139.053L475.337 141.87L481.563 144.405L487.841 146.652L494.145 148.605L500.449 150.263L506.728 151.625L512.954 152.692L519.103 153.469L525.149 153.96L531.067 154.174L536.833 154.121L542.423 153.813L547.817 153.262L552.992 152.484L557.928 151.496L562.609 150.316L567.016 148.965L571.135 147.462L574.953 145.831L578.458 144.095L581.641 142.277L584.494 140.402L587.012 138.495L589.192 136.582L591.032 134.689L592.532 132.841L593.697 131.063L594.53 129.381L595.039 127.82L595.233 126.403L595.123 125.154L594.721 124.095L594.043 123.247L593.103 122.629L591.921 122.261L590.514 122.159L588.905 122.338L587.114 122.812L585.165 123.592L583.08 124.689L580.885 126.11L578.605 127.861L576.264 129.946L573.888 132.367L571.504 135.123L569.137 138.211L566.811 141.627L564.553 145.364L562.386 149.415L560.334 153.767L558.419 158.409L556.664 163.326L555.088 168.502L553.711 173.919L552.549 179.56L551.62 185.402L550.937 191.424L550.514 197.604L550.359 203.917L550.483 210.339L550.893 216.845L551.591 223.408L552.583 230.004L553.867 236.606L555.442 243.187L557.305 249.722L559.45 256.185L561.87 262.551L564.554 268.796L567.491 274.896L570.667 280.83L574.068 286.575L577.677 292.111L581.475 297.421L585.442 302.486L589.557 307.292L593.798 311.825L598.143 316.073L602.566 320.027L607.043 323.677L611.549 327.019L616.058 330.048L620.544 332.763L624.981 335.164L629.343 337.254L633.606 339.037L637.744 340.519L641.732 341.71L645.547 342.619L649.167 343.259L652.57 343.645L655.735 343.791L658.644 343.716L661.28 343.439L663.626 342.979L665.669 342.358L667.396 341.599L668.796 340.724L669.863 339.759L670.588 338.729L670.968 337.657L671 336.57L670.684 335.494L670.023 334.453L669.019 333.474L667.68 332.581L666.013 331.799L664.028 331.151L661.737 330.659L659.154 330.347L656.294 330.232L653.175 330.337L649.814 330.677L646.233 331.269L642.453 332.127L638.495 333.265L634.383 334.692L630.142 336.419L625.796 338.451L621.37 340.794L616.891 343.451L612.385 346.422L607.877 349.706L603.392 353.3L598.957 357.198L594.596 361.392L590.334 365.873L586.194 370.629L582.197 375.648L578.367 380.913L574.722 386.409L571.281 392.117L568.062 398.017L565.079 404.088L562.348 410.308L559.878 416.654L557.682 423.101L555.766 429.624L554.137 436.199L552.798 442.798L551.753 449.397L551 455.969L550.538 462.487L550.361 468.927L550.464 475.262L550.839 481.468L551.475 487.521L552.359 493.398L553.479 499.078L554.817 504.538L556.358 509.76L558.082 514.727L559.968 519.421L561.996 523.827L564.144 527.934L566.387 531.731L568.702 535.207L571.063 538.356L573.447 541.174L575.826 543.657L578.175 545.804L580.468 547.616L582.681 549.098L584.788 550.255L586.764 551.093L588.586 551.623L590.231 551.856L591.676 551.805L592.902 551.485L593.888 550.912L594.616 550.105L595.07 549.083L595.236 547.868L595.099 546.48L594.649 544.944L593.876 543.283L592.773 541.521L591.335 539.684L589.558 537.797L587.442 535.886L584.986 533.976L582.195 532.093L579.073 530.263L575.626 528.509L571.866 526.857L567.801 525.329L563.446 523.948L558.816 522.735L553.925 521.71L548.793 520.892L543.438 520.298L537.883 519.943L532.148 519.842L526.256 520.006L520.232 520.445L514.1 521.168L507.886 522.181L501.615 523.488L495.314 525.091L489.008 526.99L482.723 529.183L476.486 531.665L470.321 534.431L464.254 537.471L458.308 540.777L452.507 544.335L446.872 548.132L441.426 552.152L436.186 556.377L431.173 560.789L426.401 565.369L421.886 570.093L417.642 574.94L413.679 579.886L410.007 584.907L406.633 589.977L403.563 595.072L400.799 600.165L398.344 605.23L396.196 610.242L394.352 615.174L392.808 620.002L391.555 624.699L390.586 629.243L389.889 633.609L389.451 637.775L389.257 641.72L389.293 645.423L389.538 648.867L389.975 652.033L390.583 654.908L391.34 657.476L392.224 659.726L393.21 661.648L394.275 663.234L395.393 664.478L396.539 665.376L397.688 665.927L398.814 666.13L399.892 665.988L400.896 665.506L401.801 664.689L402.585 663.547L403.222 662.09L403.691 660.33L403.971 658.282L404.04 655.96L403.882 653.384L403.477 650.571L402.811 647.542L401.87 644.318L400.64 640.923L399.113 637.38L397.279 633.713L395.131 629.947L392.667 626.107L389.883 622.22L386.779 618.312L383.357 614.407L379.622 610.532L375.578 606.712L371.234 602.972L366.601 599.336L361.69 595.827L356.514 592.466L351.09 589.276L345.435 586.275L339.567 583.482L333.505 580.914L327.273 578.585L320.892 576.509L314.385 574.697L307.778 573.159L301.094 571.902L294.36 570.932L287.602 570.253L280.846 569.865L274.117 569.768L267.442 569.959L260.846 570.433L254.356 571.184L247.994 572.201L241.785 573.476L235.752 574.994L229.917 576.741L224.299 578.701L218.918 580.857L213.791 583.189L208.935 585.676L204.363 588.297L200.088 591.029L196.12 593.849L192.468 596.731L189.139 599.651L186.136 602.584L183.463 605.503L181.119 608.383L179.103 611.198L177.412 613.923L176.038 616.532L174.974 619.002L174.21 621.308L173.735 623.428L173.535 625.34L173.594 627.023L173.896 628.459L174.421 629.629L175.151 630.517L176.064 631.109L177.138 631.391L178.35 631.354L179.676 630.989L181.091 630.287L182.569 629.245L184.087 627.86L185.617 626.131L187.135 624.059L188.614 621.648L190.031 618.903L191.36 615.832L192.577 612.445L193.66 608.753L194.586 604.769L195.335 600.508L195.886 595.988L196.222 591.227L196.326 586.244L196.184 581.06L195.78 575.698L195.105 570.18L194.148 564.532L192.902 558.778L191.362 552.944L189.523 547.054L187.384 541.136L184.946 535.215L182.212 529.318L179.186 523.469L175.876 517.695L172.289 512.02L168.437 506.467L164.332 501.06L159.989 495.821L155.425 490.769L150.656 485.925L145.701 481.307L140.582 476.929L135.321 472.807L129.939 468.954L124.462 465.38L118.913 462.094L113.317 459.103L107.701 456.412L102.09 454.023L96.5096 451.938L90.9868 450.154L85.5468 448.669L80.2152 447.476L75.0166 446.568L69.9752 445.936L65.1141 445.567L60.4556 445.449L56.0207 445.566L51.8291 445.903L47.899 446.44L44.2472 447.158L40.8888 448.036L37.8369 449.051L35.1031 450.182L32.697 451.404L30.6259 452.693L28.8955 454.023L27.5091 455.369L26.4682 456.706L25.772 458.007L25.4176 459.247L25.4002 460.402L25.7128 461.446L26.3464 462.356L27.2902 463.108L28.5314 463.681L30.0556 464.052L31.8465 464.202L33.8863 464.113L36.1559 463.768L38.6347 463.152L41.3009 462.25L44.1317 461.051L47.1034 459.545L50.1915 457.725L53.3711 455.584L56.6166 453.118L59.9023 450.326L63.2024 447.208L66.4913 443.766L69.7434 440.005L72.9337 435.932L76.0378 431.554L79.0319 426.884L81.8933 421.932L84.6002 416.713L87.132 411.243L89.4696 405.54L91.5951 399.623L93.4923 393.512L95.1469 387.229L96.5459 380.796L97.6785 374.239L98.5358 367.58L99.1108 360.845L99.3987 354.061L99.3964 347.252L99.1033 340.446L98.5207 333.668L97.6521 326.944L96.5027 320.301L95.0802 313.762L93.394 307.353L91.4556 301.096L89.278 295.015L86.8763 289.131L84.2671 283.464L81.4686 278.033L78.5004 272.855L75.3833 267.945L72.1395 263.317L68.792 258.983L65.3646 254.954L61.8821 251.236L58.3697 247.837L54.8529 244.76L51.3574 242.008L47.9092 239.579L44.5338 237.472L41.2567 235.682L38.1029 234.203L35.0965 233.026L32.2612 232.141L29.6194 231.536L27.1928 231.197L25.0015 231.108L23.0645 231.251L21.399 231.608L20.0211 232.159L18.9447 232.882L18.1821 233.755L17.7437 234.754L17.6381 235.855L17.8716 237.034L18.4487 238.265L19.3716 239.523L20.6408 240.782L22.2541 242.016L24.2079 243.2L26.4959 244.309L29.1102 245.32L32.0408 246.207L35.2758 246.949L38.8015 247.523L42.6024 247.909L46.6614 248.088L50.9598 248.042L55.4777 247.754L60.1937 247.21L65.0854 246.397L70.1294 245.305L75.3014 243.923L80.5764 242.245L85.9291 240.266L91.3335 237.983L96.7638 235.395L102.194 232.503L107.598 229.31L112.95 225.822L118.226 222.047L123.401 217.992L128.452 213.671L133.355 209.095L138.09 204.281L142.636 199.243L146.975 194.002L151.089 188.576L154.962 182.986L158.581 177.254L161.933 171.404L165.008 165.459L167.798 159.445L170.296 153.387L172.499 147.311L174.403 141.242L176.01 135.206L177.32 129.231L178.339 123.341L179.071 117.562L179.527 111.919L179.714 106.435L179.646 101.133L179.337 96.0367L178.801 91.1653L178.055 86.5386L177.12 82.1747L176.013 78.0899L174.758 74.2989L173.375 70.8146L171.888 67.648L170.322 64.8083L168.701 62.3024L167.05 60.1356L165.394 58.3107L163.76 56.8286L162.173 55.6881L160.658 54.8858L159.24 54.4166L157.944 54.2727L156.794 54.445L155.812 54.922L155.021 55.6907L154.441 56.7361L154.092 58.0417L153.992 59.5892L154.157 61.3593L154.603 63.3309L155.342 65.4822L156.386 67.7902L157.744 70.2308L159.424 72.7795L161.431 75.4112L163.769 78.1003L166.438 80.8212L169.439 83.5481L172.767 86.2552L176.419 88.9173L180.386 91.5095L184.66 94.0075L189.231 96.3879L194.084 98.6281L199.206 100.707L204.58 102.604L210.189 104.3L216.012 105.778L222.029 107.023L228.219 108.019L234.557 108.756L241.021 109.222L247.585 109.41L254.225 109.313L260.914 108.926L267.626 108.247L274.336 107.276L281.016 106.016L287.642 104.469L294.188 102.642L300.629 100.543L306.94 98.1828L313.1 95.5722L319.084 92.7254L324.873 89.6578L330.446 86.3866L335.786 82.9304L340.875 79.3092L345.698 75.5444L350.243 71.6582L354.497 67.6741L358.451 63.6163L362.098 59.5098L365.432 55.3798L368.449 51.2522L371.149 47.1528L373.532 43.1075L375.6 39.1421L377.36 35.2819L378.817 31.5518L379.98 27.9761L380.861 24.578L381.471 21.3801L381.827 18.4036L381.942 15.6685L381.837 13.1934L381.528 10.9955L381.038 9.0901L380.387 7.49101L379.598 6.21014L378.695 5.25747L377.702 4.64105L376.644 4.36686L375.547 4.43887L374.435 4.85896L373.334 5.62686L372.27 6.74025L371.268 8.19474L370.353 9.98381L369.549 12.099L368.879 14.5299L368.367 17.2642L368.032 20.2876L367.896 23.5845L367.978 27.1372L368.294 30.9269L368.861 34.9333L369.692 39.1346L370.801 43.5083L372.198 48.0307L373.891 52.6774L375.886 57.4234L378.189 62.243L380.801 67.1105L383.724 71.9998L386.955 76.8851L390.49 81.7405L394.324 86.5406L398.449 91.2607L402.854 95.8766L407.529 100.365L412.459 104.703L417.629 108.871L423.022 112.848L428.619 116.615L434.402 120.157L440.347 123.457L446.433 126.502L452.637 129.281L458.933 131.783L465.298 134.002L471.706 135.931L478.13 137.566L484.545 138.907L490.925 139.953L497.243 140.707L503.474 141.173L509.593 141.36L515.575 141.274L521.397 140.927L527.035 140.332L532.469 139.502L537.677 138.454L542.64 137.205L547.341 135.774L551.764 134.182L555.895 132.45L559.721 130.601L563.231 128.658L566.417 126.646L569.273 124.589L571.793 122.514L573.976 120.444L575.82 118.408L577.328 116.429L578.504 114.533L579.352 112.746L579.882 111.091L580.103 109.593L580.026 108.274L579.665 107.156L579.036 106.259L578.155 105.603L577.041 105.205L575.713 105.082L574.193 105.249L572.503 105.717L570.666 106.498L568.705 107.601L566.647 109.033L564.515 110.798L562.336 112.9L560.134 115.34L557.937 118.115L555.768 121.223L553.654 124.659L551.619 128.414L549.687 132.479L547.881 136.843L546.223 141.492L544.734 146.411L543.435 151.584L542.343 156.993L541.476 162.616L540.848 168.435L540.474 174.425L540.364 180.565L540.529 186.829L540.976 193.194L541.712 199.632L542.74 206.12L544.062 212.629L545.677 219.136L547.583 225.612L549.775 232.033L552.247 238.373L554.99 244.608L557.994 250.713L561.245 256.666L564.731 262.444L568.434 268.027L572.338 273.395L576.423 278.531L580.67 283.417L585.055 288.041L589.557 292.388L594.153 296.447L598.817 300.21L603.524 303.67L608.249 306.821L612.967 309.661L617.651 312.188L622.275 314.405L626.814 316.314L631.242 317.921L635.535 319.234L639.669 320.261L643.62 321.014L647.366 321.506L650.887 321.753L654.162 321.77L657.173 321.576L659.904 321.19L662.339 320.634L664.465 319.928L666.271 319.097L667.747 318.163L668.886 317.151L669.682 316.087L670.131 314.996L670.232 313.903L669.986 312.833L669.396 311.813L668.466 310.868L667.203 310.022L665.617 309.298L663.718 308.722L661.519 308.314L659.034 308.095L656.279 308.087L653.273 308.307L650.035 308.772L646.585 309.498L642.944 310.498L639.136 311.785L635.185 313.368L631.114 315.255L626.95 317.453L622.718 319.966L618.443 322.795L614.151 325.94L609.868 329.399L605.62 333.167L601.432 337.239L597.329 341.605L593.334 346.256L589.47 351.178L585.76 356.359L582.223 361.781L578.88 367.428L575.749 373.281L572.845 379.319L570.183 385.521L567.778 391.863L565.638 398.323L563.775 404.875L562.194 411.495L560.902 418.157L559.9 424.834L559.191 431.501L558.773 438.132L558.643 444.7L558.796 451.18L559.224 457.547L559.918 463.777L560.867 469.845L562.059 475.729L563.477 481.409L565.107 486.863L566.929 492.072L568.925 497.021L571.074 501.692L573.354 506.072L575.741 510.15L578.213 513.914L580.744 517.357L583.31 520.472L585.885 523.256L588.444 525.707L590.961 527.824L593.409 529.61L595.765 531.069L598.002 532.208L600.097 533.034L602.027 533.558L603.768 533.793L605.299 533.752L606.6 533.45L607.653 532.906L608.439 532.138L608.943 531.165L609.15 530.01L609.049 528.695L608.629 527.243L607.881 525.679L606.799 524.026L605.379 522.311L603.618 520.559L601.515 518.796L599.074 517.047L596.296 515.338L593.189 513.693L589.761 512.138L586.021 510.696L581.981 509.39L577.656 508.241L573.059 507.272L568.209 506.5L563.124 505.944L557.825 505.62L552.331 505.544L546.667 505.728L540.855 506.183L534.919 506.92L528.885 507.944L522.778 509.261L516.624 510.875L510.449 512.786L504.279 514.994L498.141 517.496L492.058 520.286L486.058 523.357L480.163 526.7L474.399 530.304L468.787 534.156L463.35 538.241L458.107 542.543L453.078 547.044L448.279 551.724L443.728 556.563L439.438 561.538L435.421 566.627L431.688 571.805L428.248 577.048L425.106 582.33L422.268 587.627L419.735 592.911L417.509 598.158L415.586 603.34L413.964 608.432L412.636 613.41L411.595 618.248L410.83 622.922L410.329 627.409L410.08 631.688L410.066 635.738L410.271 639.538L410.676 643.072L411.262 646.323L412.007 649.275L412.889 651.917L413.885 654.237L414.971 656.225L416.123 657.876L417.315 659.183L418.522 660.143L419.718 660.757L420.877 661.024L421.975 660.949L422.987 660.536L423.887 659.793L424.653 658.729L425.26 657.355L425.687 655.686L425.914 653.734L425.92 651.518L425.688 649.055L425.201 646.365L424.443 643.468L423.403 640.387L422.067 637.145L420.428 633.765L418.476 630.273L416.207 626.693L413.617 623.051L410.705 619.373L407.472 615.685L403.92 612.012L400.054 608.38L395.881 604.814L391.411 601.339L386.653 597.977L381.621 594.753L376.329 591.686L370.794 588.799L365.033 586.109L359.066 583.634L352.913 581.39L346.596 579.392L340.138 577.652L333.564 576.18L326.897 574.985L320.163 574.075L313.388 573.452L306.597 573.12L299.818 573.08L293.076 573.329L286.396 573.864L279.805 574.679L273.327 575.766L266.987 577.116L260.808 578.716L254.812 580.553L249.02 582.613L243.452 584.877L238.127 587.328L233.062 589.945L228.27 592.708L223.767 595.595L219.564 598.581L215.669 601.644L212.092 604.758L208.837 607.898L205.908 611.038L203.307 614.153L201.032 617.217L199.082 620.204L197.452 623.088L196.134 625.846L195.12 628.453L194.4 630.885L193.96 633.121L193.786 635.138L193.862 636.917L194.171 638.44L194.694 639.689L195.41 640.648L196.297 641.304L197.333 641.646L198.495 641.662L199.757 641.346L201.096 640.69L202.486 639.691L203.901 638.347L205.316 636.658L206.706 634.627L208.044 632.258L209.307 629.557L210.469 626.532L211.508 623.195L212.401 619.557L213.125 615.633L213.662 611.438L213.992 606.99L214.097 602.307L213.962 597.411L213.571 592.322L212.913 587.064L211.977 581.66L210.755 576.135L209.238 570.513L207.424 564.82L205.308 559.083L202.891 553.326L200.175 547.578L197.162 541.862L193.858 536.205L190.272 530.631L186.412 525.166L182.291 519.831L177.922 514.651L173.32 509.646L168.503 504.835L163.487 500.239L158.294 495.873L152.944 491.754L147.46 487.894L141.865 484.306L136.183 481L130.439 477.983L124.658 475.263L118.866 472.841L113.09 470.721L107.355 468.902L101.687 467.382L96.112 466.156L90.6548 465.217L85.3401 464.558L80.1916 464.168L75.2321 464.034L70.4833 464.142L65.9657 464.477L61.6984 465.021L57.699 465.755L53.9835 466.659L50.5663 467.712L47.4599 468.891L44.6749 470.173L42.2199 471.533L40.1017 472.947L38.3249 474.389L36.892 475.834L35.8034 477.256L35.0576 478.63L34.6508 479.93L34.5772 481.131L34.8291 482.209L35.3965 483.14L36.2679 483.902L37.4298 484.473L38.8668 484.831L40.5622 484.958L42.4975 484.837L44.6529 484.45L47.0073 483.783L49.5385 482.824L52.2234 481.561L55.0378 479.985L57.9571 478.089L60.9561 475.869L64.0091 473.321L67.0905 470.444L70.1744 467.24L73.2352 463.712L76.2478 459.866L79.1872 455.708L82.0294 451.248L84.7511 446.498L87.3299 441.47L89.7446 436.181L91.9752 430.646L94.0032 424.883L95.8116 418.913L97.3847 412.756L98.709 406.435L99.7725 399.973L100.565 393.394L101.079 386.722L101.308 379.984L101.248 373.205L100.897 366.411L100.255 359.629L99.3255 352.885L98.1115 346.203L96.6197 339.611L94.8587 333.132L92.8387 326.79L90.5719 320.61L88.0724 314.612L85.3558 308.818L82.4397 303.247L79.3426 297.917L76.085 292.845L72.6881 288.045L69.1746 283.531L65.568 279.314L61.8924 275.402L58.1729 271.803L54.4349 268.522L50.7039 265.562L47.0059 262.924L43.3667 260.607L39.8119 258.608L36.3667 256.921L33.0557 255.54L29.9031 254.455L26.9319 253.654L24.1643 253.124L21.6213 252.852L19.3225 252.82L17.2863 253.01L15.5293 253.404L14.0668 253.979L12.9119 254.715L12.0762 255.589L11.5693 256.576L11.3988 257.652L11.5703 258.793L12.0872 259.972L12.9511 261.165L14.1613 262.346L15.715 263.489L17.6073 264.569L19.8315 265.561L22.3786 266.441L25.2378 267.186L28.3964 267.774L31.8399 268.183L35.5522 268.394L39.5155 268.387L43.7105 268.145L48.1167 267.654L52.7123 266.898L57.4744 265.867L62.3791 264.549L67.402 262.938L72.5179 261.025L77.7011 258.808L82.9258 256.284L88.166 253.453L93.3957 250.318L98.5893 246.882L103.721 243.152L108.767 239.137L113.703 234.845L118.506 230.29L123.153 225.485L127.623 220.447L131.898 215.192L135.959 209.739L139.789 204.109L143.374 198.323L146.699 192.403L149.755 186.374L152.531 180.259L155.02 174.084L157.217 167.874L159.119 161.656L160.723 155.455L162.032 149.298L163.048 143.21L163.775 137.217L164.222 131.344L164.397 125.616L164.31 120.056L163.976 114.686L163.408 109.529L162.622 104.605L161.637 99.9315L160.472 95.5268L159.147 91.4063L157.683 87.5839L156.105 84.0719L154.434 80.8804L152.697 78.0176L150.917 75.4898L149.12 73.3011L147.331 71.4535L145.577 69.9471L143.883 68.7798L142.274 67.9473L140.775 67.4433L139.409 67.2597L138.202 67.3861L137.174 67.8105L136.349 68.5189L135.745 69.4957L135.381 70.7237L135.276 72.1841L135.445 73.8568L135.903 75.7205L136.661 77.7526L137.73 79.9299L139.119 82.2281L140.834 84.6223L142.88 87.0872L145.259 89.5973L147.972 92.1268L151.017 94.65L154.39 97.1413L158.085 99.5756L162.094 101.928L166.407 104.176L171.014 106.294L175.899 108.262L181.048 110.059L186.443 111.665L192.066 113.061L197.897 114.231L203.915 115.161L210.098 115.836L216.421 116.246L222.86 116.381L229.391 116.233L235.989 115.798L242.626 115.071L249.277 114.051L255.917 112.739L262.518 111.138L269.055 109.253L275.504 107.091L281.838 104.66L288.036 101.972L294.073 99.0395L299.929 95.8766L305.582 92.4999L311.013 88.9271L316.206 85.1774L321.143 81.2716L325.811 77.2314L330.197 73.0798L334.29 68.8404L338.082 64.538L341.566 60.1975L344.738 55.8447L347.595 51.5053L350.136 47.2053L352.363 42.9705L354.28 38.8266L355.893 34.7988L357.21 30.9116L358.239 27.1891L358.994 23.6542L359.487 20.3288L359.733 17.2338L359.75 14.3884L359.556 11.8108L359.17 9.51741L358.613 7.52284L357.908 5.8401L357.078 4.4803L356.147 3.4526L355.138 2.76417L354.078 2.42016L352.991 2.42361L351.904 2.77548L350.841 3.47466L349.828 4.51792L348.891 5.89994L348.053 7.6134L347.338 9.64898L346.771 11.9954L346.371 14.6396L346.162 17.5666L346.161 20.76L346.388 24.2015L346.859 27.8718L347.589 31.7498L348.592 35.8135L349.879 40.0398L351.46 44.4047L353.342 48.8837L355.532 53.4512L358.032 58.0818L360.844 62.7495L363.968 67.4282L367.401 72.0922L371.139 76.7159L375.174 81.2741L379.497 85.7423L384.099 90.0966L388.966 94.3143L394.084 98.3736L399.436 102.254L405.006 105.936L410.774 109.402L416.719 112.636L422.82 115.623L429.054 118.351L435.396 120.809L441.823 122.989L448.308 124.882L454.827 126.485L461.353 127.794L467.861 128.81L474.323 129.533L480.715 129.966L487.011 130.117L493.186 129.992L499.215 129.6L505.075 128.953L510.744 128.066L516.201 126.951L521.426 125.627L526.401 124.112L531.107 122.425L535.531 120.587L539.659 118.62L543.479 116.548L546.981 114.394L550.157 112.183L553.003 109.94L555.513 107.69L557.687 105.459L559.525 103.274L561.03 101.159L562.206 99.1396L563.06 97.241L563.602 95.4869L563.84 93.9009L563.788 92.5051L563.461 91.321L562.874 90.3685L562.045 89.6662L560.992 89.2312L559.737 89.0791L558.301 89.2236L556.705 89.6767L554.975 90.4485L553.134 91.547L551.208 92.9785L549.22 94.7469L547.198 96.8541L545.166 99.3002L543.151 102.083L541.177 105.198L539.27 108.638L537.454 112.396L535.752 116.462L534.188 120.822L532.782 125.463L531.556 130.369L530.529 135.522L529.718 140.904L529.14 146.495L528.808 152.272L528.736 158.213L528.935 164.294L529.414 170.492L530.179 176.78L531.235 183.133L532.585 189.525L534.23 195.931L536.169 202.323L538.398 208.676L540.912 214.964L543.702 221.163L546.761 227.247L550.076 233.194L553.633 238.981L557.419 244.586L561.416 249.988L565.606 255.171L569.97 260.115L574.486 264.806L579.133 269.229L583.886 273.374L588.723 277.228L593.618 280.785L598.547 284.038L603.482 286.984L608.4 289.619L613.272 291.945L618.075 293.963L622.782 295.678L627.368 297.096L631.808 298.225L636.079 299.076L640.158 299.661L644.024 299.993L647.656 300.089L651.034 299.965L654.142 299.641L656.963 299.136L659.482 298.472L661.688 297.671L663.569 296.757L665.117 295.753L666.326 294.685L667.19 293.577L667.707 292.455L667.876 291.345L667.699 290.273L667.18 289.263L666.324 288.34L665.14 287.53L663.636 286.855L661.825 286.339L659.72 286.003L657.337 285.868L654.692 285.953L651.803 286.277L648.691 286.855L645.376 287.702L641.881 288.831L638.229 290.254L634.444 291.979L630.55 294.013L626.574 296.362L622.541 299.029L618.477 302.015L614.406 305.318L610.356 308.936L606.352 312.863L602.418 317.092L598.579 321.614L594.859 326.416L591.279 331.487L587.861 336.812L584.625 342.373L581.591 348.153L578.775 354.131L576.193 360.288L573.859 366.601L571.785 373.047L569.982 379.601L568.457 386.239L567.217 392.936L566.266 399.665L565.606 406.401L565.238 413.117L565.159 419.787L565.365 426.386L565.851 432.887L566.607 439.267L567.625 445.501L568.891 451.566L570.392 457.439L572.113 463.101L574.036 468.53L576.142 473.71L578.413 478.623L580.826 483.255L583.359 487.593L585.988 491.625L588.691 495.342L591.441 498.737L594.214 501.805L596.983 504.541L599.724 506.946L602.411 509.021L605.017 510.768L607.518 512.192L609.889 513.301L612.107 514.104L614.148 514.613L615.989 514.839L617.611 514.798L618.993 514.506L620.117 513.981L620.967 513.242L621.526 512.311L621.783 511.209L621.724 509.958L621.342 508.583L620.627 507.108L619.575 505.558L618.182 503.958L616.446 502.335L614.368 500.713L611.95 499.118L609.199 497.576L606.119 496.111L602.721 494.747L599.014 493.508L595.012 492.417L590.729 491.494L586.182 490.761L581.387 490.234L576.364 489.933L571.134 489.873L565.719 490.067L560.141 490.529L554.424 491.267L548.594 492.291L542.674 493.607L536.691 495.22L530.67 497.131L524.639 499.342L518.622 501.849L512.646 504.649L506.736 507.736L500.916 511.102L495.212 514.736L489.646 518.627L484.24 522.762L479.016 527.124L473.993 531.696L469.19 536.46L464.623 541.395L460.308 546.481L456.258 551.695L452.484 557.013L448.996 562.411L445.802 567.863L442.907 573.346L440.314 578.832L438.026 584.296L436.041 589.711L434.357 595.052L432.969 600.293L431.87 605.409L431.051 610.376L430.502 615.17L430.21 619.769L430.16 624.151L430.337 628.295L430.722 632.184L431.297 635.799L432.042 639.125L432.934 642.148L433.951 644.856L435.069 647.239L436.265 649.288L437.514 650.997L438.789 652.362L440.066 653.38L441.319 654.052L442.522 654.38L443.651 654.368L444.68 654.022L445.585 653.351L446.343 652.364L446.931 651.073L447.327 649.493L447.512 647.639L447.466 645.529L447.173 643.18L446.615 640.614L445.778 637.852L444.652 634.915L443.223 631.828L441.485 628.614L439.43 625.3L437.054 621.909L434.353 618.468L431.329 615.002L427.982 611.538L424.316 608.101L420.336 604.716L416.051 601.408L411.471 598.201L406.607 595.118L401.472 592.182L396.082 589.413L390.455 586.832L384.607 584.456L378.56 582.303L372.335 580.387L365.953 578.723L359.438 577.321L352.816 576.192L346.109 575.343L339.345 574.78L332.549 574.507L325.747 574.524L318.965 574.833L312.229 575.429L305.565 576.309L298.999 577.465L292.554 578.889L286.255 580.571L280.124 582.497L274.184 584.653L268.455 587.024L262.956 589.592L257.705 592.337L252.718 595.239L248.009 598.277L243.592 601.428L239.477 604.668L235.672 607.973L232.184 611.318L229.019 614.676L226.179 618.024L223.664 621.334L221.473 624.581L219.603 627.74L218.047 630.785L216.798 633.691L215.846 636.436L215.18 638.995L214.787 641.348L214.651 643.472L214.755 645.35L215.082 646.962L215.612 648.292L216.323 649.327L217.194 650.052L218.202 650.456L219.322 650.531L220.531 650.269L221.802 649.665L223.112 648.716L224.434 647.42L225.742 645.78L227.012 643.797L228.217 641.479L229.334 638.83L230.339 635.862L231.208 632.585L231.919 629.012L232.452 625.159L232.786 621.041L232.904 616.677L232.787 612.086L232.422 607.29L231.794 602.31L230.892 597.169L229.706 591.892L228.228 586.503L226.452 581.027L224.375 575.491L221.995 569.92L219.312 564.34L216.328 558.778L213.049 553.259L209.481 547.808L205.633 542.45L201.514 537.209L197.138 532.108L192.518 527.168L187.672 522.412L182.615 517.857L177.368 513.522L171.951 509.423L166.385 505.575L160.693 501.991L154.899 498.682L149.027 495.656L143.103 492.922L137.153 490.483L131.201 488.344L125.274 486.504L119.399 484.963L113.6 483.717L107.904 482.761L102.335 482.087L96.9184 481.687L91.6762 481.549L86.6313 481.659L81.805 482.003L77.217 482.564L72.8859 483.325L68.8287 484.265L65.0607 485.365L61.5953 486.601L58.4444 487.952L55.6177 489.392L53.123 490.899L50.9662 492.446L49.151 494.009L47.679 495.561L46.5498 497.077L45.7608 498.532L45.3074 499.9L45.183 501.157L45.3789 502.278L45.8846 503.24L46.6874 504.021L47.7732 504.6L49.1261 504.956L50.7284 505.071L52.5612 504.927L54.6041 504.51L56.8355 503.805L59.2328 502.8L61.7724 501.485L64.43 499.853L67.1806 497.895L69.999 495.61L72.8593 492.994L75.7359 490.048L78.6031 486.773L81.4354 483.174L84.2077 479.258L86.8956 475.032L89.4753 470.507L91.9239 465.695L94.2196 460.61L96.3418 455.267L98.2709 449.685L99.9893 443.882L101.48 437.878L102.73 431.695L103.724 425.355L104.453 418.883L104.906 412.302L105.078 405.638L104.962 398.916L104.555 392.163L103.857 385.404L102.87 378.666L101.594 371.975L100.038 365.356L98.2063 358.835L96.1097 352.436L93.759 346.182L91.1674 340.097L88.3495 334.201L85.3218 328.516L82.1025 323.06L78.7109 317.85L75.1679 312.902L71.4954 308.231L67.7164 303.847L63.8548 299.763L59.9351 295.985L55.9827 292.521L52.0229 289.374L48.0817 286.546L44.1849 284.038L40.3582 281.848L36.6271 279.971L33.0168 278.402L29.5515 277.131L26.255 276.15L23.15 275.446L20.2583 275.004L17.6001 274.811L15.1948 274.848L13.0598 275.096L11.2113 275.537L9.66355 276.148L8.42918 276.907L7.51885 277.792L6.94132 278.777L6.70333 279.838L6.8096 280.951L7.26276 282.089L8.06332 283.227L9.20974 284.339L10.6984 285.4L12.5235 286.385L14.6773 287.27L17.1502 288.03L19.9306 288.644L23.0048 289.088L26.3578 289.343L29.9727 289.388L33.831 289.206L37.9129 288.781L42.1974 288.097L46.6621 287.142L51.2838 285.904L56.0383 284.373L60.9009 282.544L65.8461 280.41L70.8483 277.968L75.8814 275.217L80.9195 272.157L85.9369 268.793L90.9079 265.129L95.8076 261.172L100.611 256.932L105.296 252.418L109.838 247.646L114.217 242.628L118.412 237.382L122.403 231.926L126.175 226.279L129.71 220.461L132.995 214.496L136.016 208.405L138.765 202.214L141.232 195.946L143.411 189.627L145.297 183.283L146.887 176.94L148.183 170.625L149.185 164.362L149.897 158.178L150.325 152.099L150.477 146.149L150.364 140.352L149.996 134.731L149.388 129.309L148.554 124.107L147.512 119.144L146.28 114.438L144.878 110.007L143.327 105.864L141.65 102.024L139.869 98.4964L138.008 95.292L136.093 92.4177L134.148 89.8789L132.199 87.6789L130.271 85.8187L128.39 84.2976L126.582 83.1124L124.872 82.258L123.284 81.7274L121.842 81.5114L120.569 81.599L119.488 81.9772L118.619 82.6314L117.983 83.5453L117.596 84.701L117.477 86.0791L117.64 87.6589L118.099 89.4187L118.865 91.3355L119.948 93.3857L121.356 95.5447L123.094 97.7874L125.166 100.089L127.574 102.422L130.316 104.763L133.391 107.085L136.794 109.363L140.517 111.572L144.553 113.688L148.89 115.687L153.516 117.546L158.416 119.245L163.574 120.762L168.973 122.079L174.594 123.178L180.415 124.044L186.415 124.662L192.571 125.02L198.86 125.106L205.256 124.914L211.735 124.435L218.271 123.666L224.837 122.604L231.408 121.248L237.958 119.601L244.46 117.665L250.889 115.447L257.221 112.955L263.431 110.199L269.495 107.19L275.392 103.942L281.099 100.47L286.598 96.7907L291.87 92.9234L296.897 88.8876L301.665 84.7045L306.16 80.3964L310.37 75.9867L314.286 71.4995L317.899 66.9597L321.205 62.3927L324.199 57.8241L326.879 53.28L329.247 48.7863L331.304 44.3687L333.056 40.0528L334.509 35.8635L335.671 31.8253L336.554 27.9616L337.17 24.295L337.533 20.847L337.659 17.6379L337.565 14.6864L337.27 12.0098L336.796 9.62398L336.162 7.54283L335.393 5.77851L334.511 4.34134L333.54 3.23963L332.505 2.47969L331.432 2.06575L330.346 2L329.273 2.2825L328.238 2.91121L327.266 3.88203L326.382 5.18876L325.611 6.82323L324.975 8.77528L324.499 11.0328L324.202 13.582L324.106 16.4073L324.229 19.4913L324.59 22.8155L325.203 26.3596L326.085 30.1022L327.246 34.0209L328.698 38.0921L330.45 42.2917L332.508 46.5945L334.877 50.9752L337.56 55.4081L340.557 59.8671L343.868 64.3263L347.487 68.7601L351.411 73.1429L355.63 77.45L360.136 81.6571L364.917 85.7409L369.959 89.6789L375.247 93.45L380.765 97.0341L386.494 100.413L392.414 103.569L398.503 106.487L404.741 109.153L411.103 111.556L417.566 113.686L424.103 115.534L430.691 117.095L437.302 118.365L443.912 119.342L450.493 120.026L457.02 120.42L463.467 120.528L469.809 120.356L476.021 119.914L482.079 119.211L487.961 118.26L493.644 117.074L499.107 115.671L504.333 114.067L509.302 112.281L513.998 110.334L518.407 108.246L522.517 106.041L526.316 103.741L529.796 101.372L532.949 98.9578L535.771 96.524L538.259 94.0963L540.413 91.7002L542.233 89.3617L543.723 87.106L544.89 84.9585L545.739 82.9434L546.282 81.0846L546.529 79.4052L546.494 77.9269L546.192 76.6706L545.639 75.6557L544.854 74.9001L543.856 74.4203L542.666 74.2311L541.307 74.3454L539.8 74.7745L538.171 75.5276L536.444 76.612L534.643 78.0328L532.795 79.7933L530.924 81.8944L529.057 84.3352L527.218 87.1125L525.434 90.2211L523.729 93.6538L522.127 97.4013L520.65 101.452L519.322 105.794L518.164 110.412L517.195 115.289L516.434 120.406L515.898 125.746L515.603 131.286L515.561 137.005L515.786 142.88L516.287 148.886L517.071 154.999L518.146 161.193L519.515 167.443L521.18 173.722L523.141 180.005L525.395 186.265L527.938 192.476L530.765 198.614L533.865 204.653L537.23 210.569L540.846 216.339L544.7 221.942L548.776 227.356L553.057 232.561L557.523 237.54L562.155 242.277L566.93 246.755L571.827 250.962L576.822 254.888L581.889 258.522L587.006 261.858L592.144 264.889L597.28 267.614L602.387 270.031L607.439 272.141L612.41 273.947L617.275 275.454L622.009 276.67L626.587 277.603L630.987 278.266L635.187 278.67L639.164 278.83L642.899 278.764L646.374 278.488L649.571 278.022L652.476 277.388L655.074 276.605L657.354 275.699L659.306 274.691L660.922 273.607L662.197 272.472L663.126 271.31L663.708 270.148L663.943 269.012L663.834 267.925L663.385 266.915L662.604 266.005L661.497 265.22L660.077 264.583L658.356 264.116L656.347 263.841L654.067 263.778L651.534 263.945L648.766 264.36L645.783 265.039L642.608 265.994L639.262 267.24L635.77 268.784L632.156 270.637L628.445 272.805L624.663 275.29L620.834 278.097L616.986 281.224L613.143 284.67L609.332 288.43L605.577 292.499L601.903 296.868L598.335 301.527L594.894 306.464L591.604 311.666L588.484 317.116L585.556 322.797L582.835 328.69L580.34 334.776L578.085 341.032L576.084 347.437L574.346 353.966L572.883 360.595L571.701 367.299L570.805 374.053L570.2 380.83L569.886 387.604L569.862 394.349L570.125 401.039L570.671 407.649L571.491 414.152L572.579 420.526L573.921 426.745L575.506 432.787L577.318 438.631L579.342 444.256L581.56 449.644L583.953 454.776L586.499 459.637L589.177 464.213L591.965 468.492L594.838 472.463L597.772 476.117L600.742 479.449L603.722 482.454L606.688 485.129L609.612 487.475L612.47 489.494L615.236 491.188L617.885 492.566L620.393 493.634L622.735 494.402L624.89 494.883L626.836 495.091L628.552 495.04L630.019 494.747L631.219 494.233L632.137 493.515L632.757 492.616L633.069 491.558L633.06 490.363L632.722 489.057L632.048 487.663L631.033 486.208L629.675 484.716L627.974 483.213L625.93 481.725L623.547 480.277L620.831 478.894L617.79 477.601L614.433 476.422L610.772 475.379L606.82 474.495L602.593 473.791L598.108 473.285L593.382 472.997L588.435 472.942L583.29 473.136L577.967 473.592L572.491 474.322L566.885 475.334L561.175 476.637L555.385 478.235L549.542 480.133L543.671 482.331L537.799 484.829L531.952 487.625L526.155 490.712L520.433 494.084L514.811 497.733L509.313 501.647L503.961 505.813L498.777 510.217L493.782 514.843L488.995 519.672L484.434 524.686L480.114 529.864L476.049 535.184L472.254 540.623L468.737 546.156L465.508 551.761L462.573 557.41L459.938 563.079L457.605 568.741L455.574 574.371L453.843 579.942L452.41 585.429L451.268 590.806L450.409 596.049L449.825 601.133L449.502 606.036L449.429 610.734L449.589 615.208L449.966 619.437L450.542 623.403L451.297 627.09L452.21 630.483L453.258 633.568L454.42 636.334L455.67 638.772L456.985 640.874L458.34 642.635L459.708 644.052L461.064 645.123L462.383 645.849L463.639 646.233L464.808 646.28L465.864 645.998L466.784 645.395L467.545 644.482L468.124 643.273L468.5 641.782L468.654 640.024L468.568 638.019L468.224 635.785L467.608 633.343L466.705 630.715L465.505 627.924L463.997 624.994L462.174 621.948L460.029 618.813L457.56 615.614L454.764 612.376L451.643 609.125L448.197 605.888L444.433 602.689L440.357 599.553L435.977 596.506L431.305 593.57L426.351 590.768L421.132 588.123L415.663 585.655L409.961 583.382L404.047 581.322L397.939 579.493L391.661 577.907L385.234 576.578L378.683 575.516L372.032 574.731L365.306 574.228L358.532 574.014L351.735 574.09L344.941 574.457L338.177 575.115L331.468 576.058L324.84 577.282L318.317 578.779L311.925 580.539L305.687 582.551L299.624 584.802L293.759 587.276L288.112 589.957L282.7 592.826L277.541 595.864L272.651 599.049L268.043 602.36L263.728 605.773L259.718 609.264L256.019 612.809L252.638 616.382L249.578 619.958L246.841 623.511L244.427 627.015L242.334 630.444L240.556 633.773L239.088 636.977L237.921 640.032L237.044 642.914L236.445 645.6L236.11 648.07L236.023 650.303L236.166 652.28L236.522 653.983L237.069 655.398L237.786 656.51L238.65 657.306L239.639 657.777L240.728 657.915L241.892 657.712L243.105 657.165L244.344 656.271L245.581 655.03L246.792 653.445L247.95 651.519L249.032 649.259L250.013 646.672L250.869 643.769L251.578 640.561L252.118 637.064L252.468 633.291L252.609 629.261L252.524 624.993L252.196 620.505L251.611 615.821L250.757 610.961L249.622 605.951L248.197 600.813L246.475 595.574L244.452 590.258L242.125 584.892L239.493 579.501L236.557 574.112L233.32 568.75L229.789 563.442L225.97 558.211L221.873 553.082L217.51 548.079L212.893 543.225L208.038 538.54L202.962 534.045L197.682 529.759L192.218 525.699L186.592 521.88L180.826 518.316L174.942 515.02L168.965 512.002L162.92 509.269L156.832 506.828L150.727 504.683L144.631 502.837L138.569 501.288L132.569 500.035L126.655 499.074L120.853 498.398L115.188 497.999L109.683 497.866L104.361 497.989L99.2451 498.352L94.3547 498.941L89.7095 499.737L85.3274 500.723L81.2247 501.877L77.4159 503.18L73.9137 504.607L70.7291 506.137L67.8711 507.745L65.3466 509.405L63.1605 511.094L61.3157 512.785L59.8128 514.452L58.6506 516.071L57.8257 517.615L57.3324 519.059L57.1634 520.38L57.3091 521.553L57.758 522.555L58.497 523.364L59.511 523.961L60.7834 524.324L62.2961 524.437L64.0293 524.282L65.9623 523.845L68.073 523.113L70.3383 522.075L72.7343 520.721L75.2365 519.044L77.8196 517.038L80.4583 514.701L83.1268 512.031L85.7994 509.03L88.4504 505.699L91.0547 502.046L93.5873 498.075L96.0242 493.798L98.3419 489.224L100.518 484.368L102.531 479.242L104.362 473.865L105.99 468.254L107.4 462.429L108.575 456.41L109.502 450.22L110.168 443.881L110.563 437.418L110.68 430.855L110.511 424.218L110.053 417.533L109.303 410.825L108.262 404.122L106.931 397.448L105.314 390.83L103.418 384.294L101.251 377.863L98.8234 371.563L96.1466 365.417L93.2347 359.446L90.1032 353.672L86.7694 348.115L83.2521 342.792L79.5712 337.72L75.748 332.915L71.8052 328.389L67.766 324.154L63.6547 320.219L59.4963 316.592L55.3161 313.278L51.1397 310.281L46.9932 307.601L42.9023 305.238L38.8927 303.189L34.9898 301.448L31.2184 300.01L27.6026 298.864L24.1657 298L20.93 297.404L17.9167 297.063L15.1458 296.96L12.6357 297.077L10.4034 297.396L8.46417 297.895L6.83171 298.552L5.51776 299.346L4.53218 300.251L3.88287 301.245L3.57573 302.302L3.61455 303.396L4.00108 304.502L4.73496 305.595L5.81373 306.649L7.23285 307.639L8.98574 308.54L11.0638 309.327L13.4565 309.978L16.1514 310.47L19.1343 310.782L22.3893 310.893L25.8988 310.784L29.6438 310.439L33.6039 309.841L37.7575 308.977L42.082 307.834L46.5535 306.402L51.1478 304.672L55.8398 302.638L60.6039 300.296L65.4143 297.643L70.245 294.679L75.0702 291.406L79.8642 287.828L84.6016 283.951L89.2577 279.782L93.8084 275.333L98.2306 270.615L102.502 265.641L106.601 260.427L110.509 254.991L114.208 249.35L117.679 243.526L120.909 237.539L123.884 231.411L126.592 225.168L129.025 218.832L131.173 212.429L133.032 205.985L134.598 199.525L135.87 193.075L136.848 186.662L137.535 180.311L137.936 174.049L138.058 167.9L137.909 161.89L137.5 156.041L136.844 150.376L135.955 144.918L134.85 139.686L133.545 134.7L132.06 129.977L130.416 125.533L128.634 121.383L126.737 117.537L124.748 114.008L122.692 110.804L120.593 107.93L118.478 105.392L116.37 103.192L114.297 101.33L112.284 99.8041L110.356 98.6107L108.538 97.7436L106.855 97.195L105.329 96.9548L103.985 97.0112L102.842 97.3505L101.923 97.9574L101.245 98.8147L100.827 99.9041L100.685 101.205L100.832 102.698L101.283 104.359L102.046 106.165L103.133 108.092L104.548 110.116L106.297 112.212L108.383 114.353L110.807 116.514L113.566 118.669L116.658 120.793L120.076 122.861L123.813 124.848L127.86 126.731L132.205 128.485L136.835 130.089L141.733 131.521L146.885 132.763L152.271 133.796L157.871 134.602L163.664 135.167L169.628 135.478L175.741 135.523L181.976 135.292L188.311 134.777L194.718 133.973L201.173 132.876L207.65 131.484L214.121 129.799L220.562 127.822L226.946 125.559L233.249 123.015L239.445 120.201L245.51 117.127L251.423 113.804L257.16 110.248L262.702 106.475L268.028 102.502L273.122 98.3488L277.967 94.0353L282.548 89.5834L286.853 85.016L290.871 80.3568L294.593 75.6303L298.012 70.8616L301.123 66.0764L303.924 61.3005L306.414 56.5598L308.593 51.8803L310.467 47.2878L312.039 42.8074L313.319 38.464L314.315 34.2816L315.038 30.2833L315.503 26.4913L315.723 22.9266L315.716 19.6088L315.5 16.5561L315.095 13.7852L314.52 11.311L313.799 9.14677L312.954 7.30393L312.009 5.7919L310.989 4.61815L309.918 3.7881L308.822 3.30514L307.726 3.1705L306.657 3.38337L305.639 3.94081L304.697 4.83784L303.857 6.06741L303.141 7.62047L302.574 9.48605L302.177 11.6513L301.972 14.1016L301.977 16.8207L302.213 19.7906L302.695 22.992L303.439 26.4043L304.458 30.0056L305.765 33.7729L307.369 37.6825L309.277 41.7096L311.497 45.8292L314.031 50.0157L316.882 54.2433L320.049 58.4859L323.53 62.7178L327.321 66.9133L331.414 71.0474L335.801 75.0953L340.472 79.0334L345.415 82.8386L350.614 86.4891L356.055 89.9642L361.719 93.2445L367.589 96.3122L373.642 99.1509L379.858 101.746L386.213 104.085L392.685 106.156L399.248 107.951L405.877 109.462L412.548 110.685L419.232 111.616L425.906 112.254L432.542 112.602L439.114 112.661L445.597 112.438L451.967 111.94L458.197 111.177L464.266 110.158L470.151 108.899L475.83 107.413L481.283 105.717L486.492 103.83L491.439 101.77L496.108 99.5591L500.487 97.2186L504.564 94.7717L508.327 92.2424L511.77 89.655L514.886 87.0349L517.671 84.4074L520.124 81.7984L522.244 79.2335L524.034 76.7384L525.499 74.3385L526.644 72.0586L527.479 69.923L528.013 67.9552L528.259 66.1775L528.231 64.6116L527.945 63.2776L527.418 62.1943L526.669 61.3791L525.717 60.8477L524.586 60.6141L523.296 60.6906L521.871 61.0876L520.337 61.8133L518.716 62.8743L517.035 64.2748L515.319 66.0171L513.594 68.1014L511.885 70.5257L510.218 73.286L508.618 76.3761L507.108 79.7881L505.714 83.5118L504.457 87.5351L503.359 91.8444L502.441 96.424L501.723 101.257L501.221 106.324L500.954 111.605L500.934 117.079L501.175 122.724L501.689 128.515L502.483 134.429L503.567 140.44L504.943 146.523L506.616 152.652L508.587 158.801L510.854 164.943L513.414 171.054L516.262 177.106L519.391 183.075L522.791 188.937L526.451 194.668L530.359 200.245L534.498 205.646L538.854 210.852L543.406 215.844L548.137 220.603L553.026 225.115L558.049 229.364L563.185 233.34L568.408 237.032L573.695 240.43L579.021 243.529L584.359 246.325L589.683 248.816L594.968 251L600.188 252.881L605.317 254.461L610.329 255.748L615.201 256.749L619.908 257.475L624.427 257.937L628.737 258.149L632.817 258.127L636.647 257.887L640.21 257.448L643.49 256.831L646.471 256.056L649.141 255.145L651.489 254.123L653.506 253.012L655.185 251.838L656.522 250.625L657.512 249.4L658.156 248.188L658.454 247.014L658.411 245.904L658.031 244.883L657.322 243.976L656.293 243.205L654.956 242.595L653.325 242.167L651.413 241.941L649.238 241.938L646.818 242.176L644.172 242.67L641.321 243.437L638.288 244.488L635.096 245.836L631.768 247.49L628.329 249.456L624.804 251.742L621.219 254.349L617.6 257.28L613.972 260.532L610.361 264.105L606.793 267.991L603.292 272.185L599.883 276.677L596.59 281.457L593.434 286.511L590.438 291.824L587.622 297.381L585.004 303.163L582.602 309.151L580.432 315.325L578.508 321.661L576.842 328.138L575.445 334.73L574.325 341.414L573.489 348.165L572.941 354.955L572.683 361.759L572.716 368.551L573.039 375.305L573.646 381.996L574.532 388.596L575.69 395.082L577.109 401.429L578.777 407.614L580.681 413.616L582.806 419.411L585.134 424.982L587.647 430.309L590.325 435.376L593.147 440.168L596.09 444.671L599.132 448.874L602.248 452.767L605.414 456.343L608.604 459.596L611.793 462.524L614.954 465.123L618.063 467.396L621.093 469.345L624.019 470.975L626.817 472.293L629.462 473.307L631.932 474.03L634.203 474.472L636.255 474.65L638.067 474.578L639.622 474.276L640.903 473.761L641.893 473.055L642.58 472.179L642.951 471.155L642.997 470.008L642.709 468.762L642.082 467.442L641.113 466.073L639.798 464.681L638.139 463.29L636.138 461.928L633.799 460.619L631.129 459.388L628.136 458.259L624.832 457.255L621.228 456.4L617.338 455.715L613.179 455.22L608.768 454.934L604.124 454.874L599.267 455.057L594.22 455.496L589.004 456.204L583.644 457.192L578.164 458.467L572.588 460.038L566.944 461.908L561.256 464.08L555.55 466.554L549.853 469.328L544.191 472.399L538.588 475.762L533.07 479.407L527.661 483.325L522.384 487.505L517.262 491.933L512.315 496.594L507.564 501.47L503.028 506.542L498.722 511.793L494.663 517.198L490.864 522.738L487.336 528.387L484.09 534.123L481.134 539.919L478.472 545.75L476.109 551.591L474.047 557.416L472.285 563.198L470.821 568.911L469.649 574.53L468.764 580.03L468.157 585.386L467.817 590.575L467.732 595.573L467.887 600.359L468.267 604.913L468.855 609.215L469.63 613.249L470.574 616.997L471.664 620.446L472.879 623.583L474.193 626.399L475.585 628.883L477.027 631.031L478.496 632.836L479.966 634.298L481.41 635.414L482.805 636.188L484.123 636.624L485.341 636.726L486.434 636.503L487.378 635.965L488.152 635.124L488.732 633.993L489.099 632.587L489.233 630.925L489.117 629.023L488.735 626.903L488.071 624.585L487.115 622.092L485.854 619.446L484.279 616.673L482.385 613.796L480.165 610.841L477.617 607.834L474.741 604.8L471.537 601.766L468.01 598.756L464.164 595.797L460.007 592.912L455.549 590.127L450.802 587.464L445.777 584.945L440.492 582.592L434.962 580.425L429.205 578.462L423.242 576.72L417.093 575.214L410.781 573.959L404.329 572.966L397.761 572.244L391.102 571.802L384.378 571.646L377.614 571.78L370.836 572.205L364.071 572.921L357.344 573.925L350.682 575.214L344.11 576.78L337.652 578.616L331.332 580.71L325.174 583.051L319.199 585.623L313.428 588.412L307.881 591.4L302.575 594.567L297.526 597.894L292.751 601.359L288.26 604.94L284.066 608.612L280.177 612.351L276.6 616.133L273.341 619.932L270.402 623.722L267.784 627.478L265.485 631.172L263.504 634.781L261.833 638.279L260.466 641.64L259.393 644.841L258.604 647.859L258.084 650.671L257.819 653.258L257.792 655.598L257.986 657.675L258.381 659.471L258.956 660.97L259.689 662.161L260.557 663.032L261.537 663.572L262.604 663.776L263.733 663.636L264.898 663.15L266.075 662.317L267.237 661.136L268.36 659.612L269.417 657.749L270.385 655.554L271.239 653.036L271.956 650.206L272.514 647.077L272.892 643.664L273.07 639.982L273.029 636.05L272.752 631.887L272.224 627.514L271.431 622.952L270.362 618.225L269.005 613.356L267.354 608.37L265.401 603.293L263.144 598.149L260.579 592.966L257.708 587.768L254.533 582.582L251.057 577.434L247.288 572.348L243.233 567.35L238.903 562.464L234.31 557.712L229.468 553.117L224.393 548.7L219.103 544.479L213.616 540.474L207.953 536.701L202.135 533.174L196.184 529.906L190.125 526.909L183.982 524.193L177.78 521.764L171.545 519.627L165.302 517.786L159.078 516.242L152.898 514.994L146.789 514.039L140.776 513.371L134.884 512.984L129.137 512.868L123.56 513.013L118.174 513.405L113 514.029L108.06 514.869L103.372 515.908L98.952 517.126L94.8167 518.502L90.9796 520.015L87.4528 521.641L84.2461 523.357L81.3678 525.139L78.824 526.96L76.6187 528.797L74.7537 530.623L73.2291 532.413L72.0424 534.141L71.1894 535.782L70.6637 537.311L70.457 538.703L70.5588 539.936L70.9571 540.986L71.6377 541.833L72.585 542.456L73.7816 542.837L75.2088 542.957L76.8464 542.801L78.673 542.356L80.666 541.608L82.8022 540.547L85.0573 539.166L87.4064 537.457L89.8242 535.416L92.2852 533.041L94.7637 530.331L97.234 527.288L99.6706 523.917L102.048 520.224L104.343 516.215L106.53 511.902L108.588 507.297L110.493 502.412L112.226 497.264L113.766 491.87L115.096 486.248L116.2 480.419L117.061 474.404L117.668 468.225L118.009 461.906L118.075 455.472L117.857 448.947L117.352 442.356L116.555 435.727L115.466 429.085L114.085 422.456L112.416 415.867L110.462 409.342L108.233 402.908L105.736 396.588L102.982 390.407L99.9846 384.387L96.7583 378.549L93.3194 372.916L89.6857 367.504L85.8766 362.333L81.9128 357.418L77.816 352.772L73.6093 348.41L69.3165 344.34L64.9621 340.572L60.5713 337.112L56.1696 333.964L51.7829 331.132L47.4371 328.615L43.1581 326.411L38.9713 324.517L34.9019 322.927L30.9745 321.633L27.213 320.624L23.6402 319.89L20.2779 319.416L17.1469 319.188L14.2664 319.187L11.6544 319.396L9.3271 319.796L7.29914 320.364L5.58333 321.078L4.19066 321.917L3.13016 322.854L2.40887 323.867L2.0318 324.929L2.00187 326.016L2.31992 327.101L2.9847 328.159L3.99285 329.165L5.33895 330.093L7.01555 330.92L9.01323 331.621L11.3206 332.173L13.9246 332.555L16.8101 332.745L19.9605 332.723L23.3577 332.472L26.982 331.976L30.8125 331.218L34.8272 330.186L39.0029 328.868L43.3157 327.255L47.7407 325.339L52.2528 323.115L56.8263 320.578L61.4353 317.729L66.054 314.567L70.6564 311.095L75.2171 307.319L79.7109 303.244L84.1135 298.881L88.4011 294.239L92.551 289.332L96.5415 284.174L100.352 278.782L103.964 273.172L107.359 267.366L110.522 261.382L113.437 255.244L116.094 248.973L118.48 242.595L120.587 236.133L122.409 229.614L123.941 223.062L125.179 216.504L126.125 209.966L126.779 203.474L127.144 197.054L127.227 190.731L127.036 184.531L126.58 178.477L125.87 172.594L124.92 166.902L123.746 161.424L122.363 156.179L120.791 151.186L119.049 146.461L117.158 142.02L115.14 137.876L113.018 134.04L110.817 130.523L108.56 127.331L106.273 124.471L103.982 121.946L101.712 119.757L99.4891 117.905L97.3383 116.385L95.285 115.194L93.354 114.324L91.5693 113.766L89.9541 113.511L88.5308 113.544L87.3205 113.853L86.343 114.42L85.6169 115.227L85.1592 116.257L84.9852 117.488L85.1087 118.899L85.5414 120.467L86.2933 122.168L87.3724 123.978L88.7847 125.872L90.534 127.824L92.6222 129.81L95.0491 131.803L97.8123 133.778L100.907 135.709L104.328 137.571L108.065 139.341L112.109 140.994L116.446 142.508L121.064 143.86L125.945 145.032L131.074 146.003L136.429 146.756L141.992 147.275L147.74 147.546L153.652 147.555L159.702 147.293L165.867 146.749L172.121 145.919L178.439 144.796L184.795 143.378L191.163 141.664L197.516 139.656L203.83 137.358L210.077 134.775L216.234 131.915L222.276 128.787L228.179 125.402L233.922 121.776L239.482 117.921L244.84 113.856L249.976 109.599L254.875 105.168L259.52 100.587L263.898 95.8758L267.997 91.0588L271.806 86.1598L275.318 81.2037L278.527 76.2158L281.429 71.222L284.022 66.248L286.307 61.3201L288.284 56.4639L289.96 51.7052L291.34 47.0689L292.434 42.5796L293.25 38.261L293.802 34.1359L294.103 30.2258L294.17 26.5512L294.019 23.1311L293.669 19.9832L293.141 17.1234L292.457 14.5659L291.637 12.3231L290.706 10.4058L289.688 8.82233L288.608 7.57945L287.49 6.68168L286.361 6.13148L285.245 5.92921L284.169 6.07316L283.158 6.55949L282.236 7.38234L281.428 8.53379L280.758 10.004L280.248 11.7811L279.92 13.8516L279.794 16.2001L279.89 18.8096L280.225 21.6615L280.817 24.7361L281.678 28.012L282.823 31.4669L284.261 35.0775L286.003 38.8198L288.055 42.6687L290.422 46.599L293.106 50.5849L296.11 54.6006L299.431 58.6203L303.067 62.6181L307.012 66.5687L311.258 70.4471L315.796 74.2292L320.615 77.8914L325.701 81.4113L331.04 84.7676L336.615 87.9401L342.407 90.9102L348.398 93.6607L354.565 96.176L360.888 98.4422L367.342 100.447L373.903 102.181L380.548 103.636L387.249 104.805L393.982 105.685L400.721 106.273L407.439 106.569L414.109 106.576L420.708 106.297L427.208 105.74L433.586 104.912L439.817 103.824L445.878 102.488L451.747 100.918L457.404 99.1284L462.829 97.1379L468.003 94.9648L472.911 92.6293L477.538 90.1528L481.87 87.5577L485.898 84.8674L489.61 82.1061L493.001 79.2988L496.066 76.4707L498.8 73.6475L501.204 70.855L503.278 68.1189L505.026 65.4648L506.452 62.9178L507.565 60.5027L508.373 58.2432L508.888 56.1626L509.123 54.2828L509.093 52.6249L508.813 51.2085L508.303 50.0517L507.581 49.1713L506.668 48.5823L505.586 48.2979L504.358 48.3296L503.008 48.687L501.56 49.3774L500.039 50.4065L498.471 51.7777L496.88 53.4923L495.294 55.5497L493.737 57.9468L492.234 60.679L490.81 63.7391L489.49 67.1182L488.296 70.8055L487.251 74.788L486.377 79.0513L485.693 83.5791L485.217 88.3534L484.968 93.355L484.96 98.5632L485.209 103.956L485.724 109.511L486.518 115.203L487.598 121.008L488.97 126.901L490.639 132.857L492.607 138.848L494.873 144.849L497.436 150.835L500.292 156.778L503.434 162.654L506.854 168.439L510.543 174.107L514.487 179.635L518.673 185.002L523.086 190.186L527.709 195.168L532.522 199.929L537.505 204.453L542.637 208.725L547.896 212.731L553.258 216.46L558.698 219.902L564.192 223.051L569.714 225.9L575.238 228.447L580.739 230.689L586.19 232.628L591.566 234.266L596.84 235.609L601.989 236.664L606.987 237.439L611.812 237.945L616.44 238.195L620.85 238.204L625.023 237.988L628.939 237.565L632.581 236.953L635.934 236.174L638.984 235.248L641.718 234.199L644.127 233.051L646.203 231.828L647.939 230.554L649.332 229.255L650.379 227.956L651.08 226.684L651.438 225.464L651.456 224.321L651.142 223.279L650.504 222.363L649.551 221.597L648.297 221.003L646.754 220.603L644.939 220.416L642.869 220.462L640.563 220.758L638.041 221.319L635.324 222.161L632.435 223.295L629.397 224.733L626.235 226.481L622.974 228.548L619.638 230.937L616.254 233.651L612.847 236.69L609.443 240.053L606.068 243.736L602.746 247.732L599.503 252.034L596.363 256.632L593.348 261.514L590.481 266.666L587.782 272.073L585.272 277.718L582.968 283.582L580.888 289.646L579.046 295.887L577.455 302.284L576.128 308.813L575.073 315.449L574.299 322.168L573.81 328.944L573.611 335.75" stroke="#4D58FF" stroke-opacity="0.7" stroke-width="2"/>
</svg>
